solid OpenSCAD_Model
  facet normal 0.991445 -0.130527 1.32902e-17
    outer loop
      vertex 3.8637 -1.03528 10
      vertex 4 -7.34788e-16 4
      vertex 4 0 10
    endloop
  endfacet
  facet normal 0.991445 -0.130527 0
    outer loop
      vertex 4 -7.34788e-16 4
      vertex 3.8637 -1.03528 10
      vertex 3.8637 -1.03528 4
    endloop
  endfacet
  facet normal -0.991445 -0.130527 1.32902e-17
    outer loop
      vertex -3.8637 -1.03528 4
      vertex -4 0 10
      vertex -4 -7.34788e-16 4
    endloop
  endfacet
  facet normal -0.991445 -0.130527 0
    outer loop
      vertex -4 0 10
      vertex -3.8637 -1.03528 4
      vertex -3.8637 -1.03528 10
    endloop
  endfacet
  facet normal 0.130527 -0.991445 0
    outer loop
      vertex 0 -4 4
      vertex 1.03528 -3.8637 10
      vertex 0 -4 10
    endloop
  endfacet
  facet normal 0.130527 -0.991445 0
    outer loop
      vertex 1.03528 -3.8637 10
      vertex 0 -4 4
      vertex 1.03528 -3.8637 4
    endloop
  endfacet
  facet normal -0.130527 0.991445 0
    outer loop
      vertex 0 4 4
      vertex -1.03528 3.8637 10
      vertex 0 4 10
    endloop
  endfacet
  facet normal -0.130527 0.991445 0
    outer loop
      vertex -1.03528 3.8637 10
      vertex 0 4 4
      vertex -1.03528 3.8637 4
    endloop
  endfacet
  facet normal 0.608762 -0.793353 0
    outer loop
      vertex 2 -3.4641 4
      vertex 2.82843 -2.82843 10
      vertex 2 -3.4641 10
    endloop
  endfacet
  facet normal 0.608762 -0.793353 0
    outer loop
      vertex 2.82843 -2.82843 10
      vertex 2 -3.4641 4
      vertex 2.82843 -2.82843 4
    endloop
  endfacet
  facet normal 0.923879 -0.382684 0
    outer loop
      vertex 3.4641 -2 10
      vertex 3.8637 -1.03528 4
      vertex 3.8637 -1.03528 10
    endloop
  endfacet
  facet normal 0.923879 -0.382684 0
    outer loop
      vertex 3.8637 -1.03528 4
      vertex 3.4641 -2 10
      vertex 3.4641 -2 4
    endloop
  endfacet
  facet normal 0.382683 -0.92388 0
    outer loop
      vertex 1.03528 -3.8637 4
      vertex 2 -3.4641 10
      vertex 1.03528 -3.8637 10
    endloop
  endfacet
  facet normal 0.382683 -0.92388 0
    outer loop
      vertex 2 -3.4641 10
      vertex 1.03528 -3.8637 4
      vertex 2 -3.4641 4
    endloop
  endfacet
  facet normal -0.608761 -0.793353 0
    outer loop
      vertex -2.82843 -2.82843 4
      vertex -2 -3.4641 10
      vertex -2.82843 -2.82843 10
    endloop
  endfacet
  facet normal -0.608761 -0.793353 -0
    outer loop
      vertex -2 -3.4641 10
      vertex -2.82843 -2.82843 4
      vertex -2 -3.4641 4
    endloop
  endfacet
  facet normal -0.793353 -0.608761 0
    outer loop
      vertex -2.82843 -2.82843 4
      vertex -3.4641 -2 10
      vertex -3.4641 -2 4
    endloop
  endfacet
  facet normal -0.793353 -0.608761 0
    outer loop
      vertex -3.4641 -2 10
      vertex -2.82843 -2.82843 4
      vertex -2.82843 -2.82843 10
    endloop
  endfacet
  facet normal -0.382684 -0.923879 0
    outer loop
      vertex -2 -3.4641 4
      vertex -1.03528 -3.8637 10
      vertex -2 -3.4641 10
    endloop
  endfacet
  facet normal -0.382684 -0.923879 -0
    outer loop
      vertex -1.03528 -3.8637 10
      vertex -2 -3.4641 4
      vertex -1.03528 -3.8637 4
    endloop
  endfacet
  facet normal 0.793353 0.608762 0
    outer loop
      vertex 3.4641 2 10
      vertex 2.82843 2.82843 4
      vertex 2.82843 2.82843 10
    endloop
  endfacet
  facet normal 0.793353 0.608762 0
    outer loop
      vertex 2.82843 2.82843 4
      vertex 3.4641 2 10
      vertex 3.4641 2 4
    endloop
  endfacet
  facet normal 0.92388 0.382683 0
    outer loop
      vertex 3.8637 1.03528 10
      vertex 3.4641 2 4
      vertex 3.4641 2 10
    endloop
  endfacet
  facet normal 0.92388 0.382683 0
    outer loop
      vertex 3.4641 2 4
      vertex 3.8637 1.03528 10
      vertex 3.8637 1.03528 4
    endloop
  endfacet
  facet normal -0.608762 0.793353 0
    outer loop
      vertex -2 3.4641 4
      vertex -2.82843 2.82843 10
      vertex -2 3.4641 10
    endloop
  endfacet
  facet normal -0.608762 0.793353 0
    outer loop
      vertex -2.82843 2.82843 10
      vertex -2 3.4641 4
      vertex -2.82843 2.82843 4
    endloop
  endfacet
  facet normal -0 0 1
    outer loop
      vertex 1.53264 0.0126871 10
      vertex 4 0 10
      vertex 3.8637 1.03528 10
    endloop
  endfacet
  facet normal 0 0 1
    outer loop
      vertex 1.48203 0.397109 10
      vertex 3.8637 1.03528 10
      vertex 3.4641 2 10
    endloop
  endfacet
  facet normal 0 0 1
    outer loop
      vertex 4 0 10
      vertex 1.53264 0.0126871 10
      vertex 1.53431 0 10
    endloop
  endfacet
  facet normal 0 0 1
    outer loop
      vertex 1.32096 0.777309 10
      vertex 3.4641 2 10
      vertex 2.82843 2.82843 10
    endloop
  endfacet
  facet normal 0 0 1
    outer loop
      vertex 1.53264 -0.0126871 10
      vertex 4 0 10
      vertex 1.53431 0 10
    endloop
  endfacet
  facet normal 0 0 1
    outer loop
      vertex 1.08492 1.08492 10
      vertex 2.82843 2.82843 10
      vertex 2 3.4641 10
    endloop
  endfacet
  facet normal 0 0 1
    outer loop
      vertex 4 0 10
      vertex 1.53264 -0.0126871 10
      vertex 3.8637 -1.03528 10
    endloop
  endfacet
  facet normal 0 0 1
    outer loop
      vertex 3.8637 -1.03528 10
      vertex 1.48203 -0.397109 10
      vertex 3.4641 -2 10
    endloop
  endfacet
  facet normal -0 0 1
    outer loop
      vertex 1.48203 -0.397109 10
      vertex 3.8637 -1.03528 10
      vertex 1.53264 -0.0126871 10
    endloop
  endfacet
  facet normal 0 0 1
    outer loop
      vertex 3.8637 1.03528 10
      vertex 1.48203 0.397109 10
      vertex 1.53264 0.0126871 10
    endloop
  endfacet
  facet normal 0 0 1
    outer loop
      vertex 3.4641 2 10
      vertex 1.33365 0.755334 10
      vertex 1.48203 0.397109 10
    endloop
  endfacet
  facet normal 0 0 1
    outer loop
      vertex 3.4641 2 10
      vertex 1.32875 0.767157 10
      vertex 1.33365 0.755334 10
    endloop
  endfacet
  facet normal 0 0 1
    outer loop
      vertex 3.4641 2 10
      vertex 1.32096 0.777309 10
      vertex 1.32875 0.767157 10
    endloop
  endfacet
  facet normal 0 0 1
    outer loop
      vertex 2.82843 2.82843 10
      vertex 1.08492 1.08492 10
      vertex 1.32096 0.777309 10
    endloop
  endfacet
  facet normal 0 0 1
    outer loop
      vertex 0.755334 1.33365 10
      vertex 2 3.4641 10
      vertex 1.03528 3.8637 10
    endloop
  endfacet
  facet normal 0 0 1
    outer loop
      vertex 2 3.4641 10
      vertex 0.777309 1.32096 10
      vertex 1.08492 1.08492 10
    endloop
  endfacet
  facet normal 0 0 1
    outer loop
      vertex 2 3.4641 10
      vertex 0.767157 1.32875 10
      vertex 0.777309 1.32096 10
    endloop
  endfacet
  facet normal 0 0 1
    outer loop
      vertex 2 3.4641 10
      vertex 0.755334 1.33365 10
      vertex 0.767157 1.32875 10
    endloop
  endfacet
  facet normal 0 0 1
    outer loop
      vertex 1.03528 3.8637 10
      vertex 0.397109 1.48203 10
      vertex 0.755334 1.33365 10
    endloop
  endfacet
  facet normal 0 0 1
    outer loop
      vertex 1.03528 3.8637 10
      vertex 0.0126871 1.53264 10
      vertex 0.397109 1.48203 10
    endloop
  endfacet
  facet normal 0 0 1
    outer loop
      vertex 0 4 10
      vertex 0.0126871 1.53264 10
      vertex 1.03528 3.8637 10
    endloop
  endfacet
  facet normal 0 0 1
    outer loop
      vertex 0 4 10
      vertex 0 1.53431 10
      vertex 0.0126871 1.53264 10
    endloop
  endfacet
  facet normal 0 0 1
    outer loop
      vertex 0 4 10
      vertex -0.0126871 1.53264 10
      vertex 0 1.53431 10
    endloop
  endfacet
  facet normal 0 0 1
    outer loop
      vertex 0 4 10
      vertex -0.397109 1.48203 10
      vertex -0.0126871 1.53264 10
    endloop
  endfacet
  facet normal -0 0 1
    outer loop
      vertex -1.03528 3.8637 10
      vertex -0.397109 1.48203 10
      vertex 0 4 10
    endloop
  endfacet
  facet normal 0 0 1
    outer loop
      vertex -0.397109 1.48203 10
      vertex -1.03528 3.8637 10
      vertex -0.755334 1.33365 10
    endloop
  endfacet
  facet normal -0 0 1
    outer loop
      vertex -2 3.4641 10
      vertex -0.755334 1.33365 10
      vertex -1.03528 3.8637 10
    endloop
  endfacet
  facet normal 0 0 1
    outer loop
      vertex -0.755334 1.33365 10
      vertex -2 3.4641 10
      vertex -0.767157 1.32875 10
    endloop
  endfacet
  facet normal 0 0 1
    outer loop
      vertex -0.767157 1.32875 10
      vertex -2 3.4641 10
      vertex -0.777309 1.32096 10
    endloop
  endfacet
  facet normal 0 0 1
    outer loop
      vertex -0.777309 1.32096 10
      vertex -2 3.4641 10
      vertex -1.08492 1.08492 10
    endloop
  endfacet
  facet normal -0 0 1
    outer loop
      vertex -2.82843 2.82843 10
      vertex -1.08492 1.08492 10
      vertex -2 3.4641 10
    endloop
  endfacet
  facet normal 0 0 1
    outer loop
      vertex -1.08492 1.08492 10
      vertex -2.82843 2.82843 10
      vertex -1.32096 0.777308 10
    endloop
  endfacet
  facet normal -0 0 1
    outer loop
      vertex -3.4641 2 10
      vertex -1.32096 0.777308 10
      vertex -2.82843 2.82843 10
    endloop
  endfacet
  facet normal 0 0 1
    outer loop
      vertex -1.32096 0.777308 10
      vertex -3.4641 2 10
      vertex -1.32875 0.767156 10
    endloop
  endfacet
  facet normal 0 0 1
    outer loop
      vertex -1.32875 0.767156 10
      vertex -3.4641 2 10
      vertex -1.33365 0.755333 10
    endloop
  endfacet
  facet normal 0 0 1
    outer loop
      vertex -1.33365 0.755333 10
      vertex -3.4641 2 10
      vertex -1.48203 0.397109 10
    endloop
  endfacet
  facet normal -0 0 1
    outer loop
      vertex -3.8637 1.03528 10
      vertex -1.48203 0.397109 10
      vertex -3.4641 2 10
    endloop
  endfacet
  facet normal 0 0 1
    outer loop
      vertex -1.48203 0.397109 10
      vertex -3.8637 1.03528 10
      vertex -1.53264 0.0126871 10
    endloop
  endfacet
  facet normal 0 0 1
    outer loop
      vertex -1.53431 0 10
      vertex -2.82843 -2.82843 10
      vertex -2 -3.4641 10
    endloop
  endfacet
  facet normal 0 0 1
    outer loop
      vertex -4 0 10
      vertex -1.53264 0.0126871 10
      vertex -3.8637 1.03528 10
    endloop
  endfacet
  facet normal 0 0 1
    outer loop
      vertex -1.53431 0 10
      vertex -3.4641 -2 10
      vertex -2.82843 -2.82843 10
    endloop
  endfacet
  facet normal 0 0 1
    outer loop
      vertex -1.53264 0.0126871 10
      vertex -4 0 10
      vertex -1.53431 0 10
    endloop
  endfacet
  facet normal 0 0 1
    outer loop
      vertex -1.53431 0 10
      vertex -3.8637 -1.03528 10
      vertex -3.4641 -2 10
    endloop
  endfacet
  facet normal 0 0 1
    outer loop
      vertex -1.53431 0 10
      vertex -4 0 10
      vertex -3.8637 -1.03528 10
    endloop
  endfacet
  facet normal -0 0 1
    outer loop
      vertex 1.33365 -0.755333 10
      vertex 3.4641 -2 10
      vertex 1.48203 -0.397109 10
    endloop
  endfacet
  facet normal -0 0 1
    outer loop
      vertex 1.32875 -0.767156 10
      vertex 3.4641 -2 10
      vertex 1.33365 -0.755333 10
    endloop
  endfacet
  facet normal -0 0 1
    outer loop
      vertex 1.32096 -0.777308 10
      vertex 3.4641 -2 10
      vertex 1.32875 -0.767156 10
    endloop
  endfacet
  facet normal 0 0 1
    outer loop
      vertex 3.4641 -2 10
      vertex 1.32096 -0.777308 10
      vertex 2.82843 -2.82843 10
    endloop
  endfacet
  facet normal -0 0 1
    outer loop
      vertex 1.08492 -1.08492 10
      vertex 2.82843 -2.82843 10
      vertex 1.32096 -0.777308 10
    endloop
  endfacet
  facet normal 0 0 1
    outer loop
      vertex 2.82843 -2.82843 10
      vertex 1.08492 -1.08492 10
      vertex 2 -3.4641 10
    endloop
  endfacet
  facet normal -0 0 1
    outer loop
      vertex 0.777309 -1.32096 10
      vertex 2 -3.4641 10
      vertex 1.08492 -1.08492 10
    endloop
  endfacet
  facet normal -0 0 1
    outer loop
      vertex 0.767157 -1.32875 10
      vertex 2 -3.4641 10
      vertex 0.777309 -1.32096 10
    endloop
  endfacet
  facet normal -0 0 1
    outer loop
      vertex 0.755334 -1.33365 10
      vertex 2 -3.4641 10
      vertex 0.767157 -1.32875 10
    endloop
  endfacet
  facet normal 0 0 1
    outer loop
      vertex 2 -3.4641 10
      vertex 0.755334 -1.33365 10
      vertex 1.03528 -3.8637 10
    endloop
  endfacet
  facet normal -0 0 1
    outer loop
      vertex 0.397109 -1.48203 10
      vertex 1.03528 -3.8637 10
      vertex 0.755334 -1.33365 10
    endloop
  endfacet
  facet normal -0 0 1
    outer loop
      vertex 0.0126871 -1.53264 10
      vertex 1.03528 -3.8637 10
      vertex 0.397109 -1.48203 10
    endloop
  endfacet
  facet normal 0 0 1
    outer loop
      vertex 0 -4 10
      vertex 0.0126871 -1.53264 10
      vertex 0 -1.53431 10
    endloop
  endfacet
  facet normal 0 0 1
    outer loop
      vertex 0.0126871 -1.53264 10
      vertex 0 -4 10
      vertex 1.03528 -3.8637 10
    endloop
  endfacet
  facet normal 0 0 1
    outer loop
      vertex -0.0126871 -1.53264 10
      vertex 0 -4 10
      vertex 0 -1.53431 10
    endloop
  endfacet
  facet normal 0 0 1
    outer loop
      vertex -0.397109 -1.48203 10
      vertex 0 -4 10
      vertex -0.0126871 -1.53264 10
    endloop
  endfacet
  facet normal 0 0 1
    outer loop
      vertex -1.03528 -3.8637 10
      vertex -0.397109 -1.48203 10
      vertex -0.755333 -1.33365 10
    endloop
  endfacet
  facet normal 0 0 1
    outer loop
      vertex -2 -3.4641 10
      vertex -0.755333 -1.33365 10
      vertex -0.767156 -1.32875 10
    endloop
  endfacet
  facet normal 0 0 1
    outer loop
      vertex -2 -3.4641 10
      vertex -0.767156 -1.32875 10
      vertex -0.777308 -1.32096 10
    endloop
  endfacet
  facet normal 0 0 1
    outer loop
      vertex -0.397109 -1.48203 10
      vertex -1.03528 -3.8637 10
      vertex 0 -4 10
    endloop
  endfacet
  facet normal 0 0 1
    outer loop
      vertex -2 -3.4641 10
      vertex -0.777308 -1.32096 10
      vertex -1.08492 -1.08492 10
    endloop
  endfacet
  facet normal 0 0 1
    outer loop
      vertex -2 -3.4641 10
      vertex -1.08492 -1.08492 10
      vertex -1.32096 -0.777308 10
    endloop
  endfacet
  facet normal 0 0 1
    outer loop
      vertex -2 -3.4641 10
      vertex -1.32096 -0.777308 10
      vertex -1.32875 -0.767156 10
    endloop
  endfacet
  facet normal 0 0 1
    outer loop
      vertex -2 -3.4641 10
      vertex -1.32875 -0.767156 10
      vertex -1.33365 -0.755333 10
    endloop
  endfacet
  facet normal 0 0 1
    outer loop
      vertex -2 -3.4641 10
      vertex -1.33365 -0.755333 10
      vertex -1.48203 -0.397109 10
    endloop
  endfacet
  facet normal 0 0 1
    outer loop
      vertex -2 -3.4641 10
      vertex -1.48203 -0.397109 10
      vertex -1.53264 -0.0126871 10
    endloop
  endfacet
  facet normal 0 0 1
    outer loop
      vertex -2 -3.4641 10
      vertex -1.53264 -0.0126871 10
      vertex -1.53431 0 10
    endloop
  endfacet
  facet normal 0 0 1
    outer loop
      vertex -0.755333 -1.33365 10
      vertex -2 -3.4641 10
      vertex -1.03528 -3.8637 10
    endloop
  endfacet
  facet normal 0.793353 -0.608761 0
    outer loop
      vertex 2.82843 -2.82843 10
      vertex 3.4641 -2 4
      vertex 3.4641 -2 10
    endloop
  endfacet
  facet normal 0.793353 -0.608761 0
    outer loop
      vertex 3.4641 -2 4
      vertex 2.82843 -2.82843 10
      vertex 2.82843 -2.82843 4
    endloop
  endfacet
  facet normal -0.923879 -0.382684 0
    outer loop
      vertex -3.4641 -2 4
      vertex -3.8637 -1.03528 10
      vertex -3.8637 -1.03528 4
    endloop
  endfacet
  facet normal -0.923879 -0.382684 0
    outer loop
      vertex -3.8637 -1.03528 10
      vertex -3.4641 -2 4
      vertex -3.4641 -2 10
    endloop
  endfacet
  facet normal 0 0 1
    outer loop
      vertex 4 -7.34788e-16 4
      vertex 6 -7.34788e-16 4
      vertex 5.79555 1.55291 4
    endloop
  endfacet
  facet normal 0 0 1
    outer loop
      vertex 3.8637 1.03528 4
      vertex 5.79555 1.55291 4
      vertex 5.19615 3 4
    endloop
  endfacet
  facet normal 0 0 1
    outer loop
      vertex 6 -7.34788e-16 4
      vertex 4 -7.34788e-16 4
      vertex 5.79555 -1.55291 4
    endloop
  endfacet
  facet normal 0 0 1
    outer loop
      vertex 3.4641 2 4
      vertex 5.19615 3 4
      vertex 4.24264 4.24264 4
    endloop
  endfacet
  facet normal -0 0 1
    outer loop
      vertex 3.8637 -1.03528 4
      vertex 5.79555 -1.55291 4
      vertex 4 -7.34788e-16 4
    endloop
  endfacet
  facet normal 0 0 1
    outer loop
      vertex 5.79555 -1.55291 4
      vertex 3.8637 -1.03528 4
      vertex 5.19615 -3 4
    endloop
  endfacet
  facet normal 0 0 1
    outer loop
      vertex 5.79555 1.55291 4
      vertex 3.8637 1.03528 4
      vertex 4 -7.34788e-16 4
    endloop
  endfacet
  facet normal 0 0 1
    outer loop
      vertex 5.19615 3 4
      vertex 3.4641 2 4
      vertex 3.8637 1.03528 4
    endloop
  endfacet
  facet normal 0 0 1
    outer loop
      vertex 2.82843 2.82843 4
      vertex 4.24264 4.24264 4
      vertex 3 5.19615 4
    endloop
  endfacet
  facet normal 0 0 1
    outer loop
      vertex 4.24264 4.24264 4
      vertex 2.82843 2.82843 4
      vertex 3.4641 2 4
    endloop
  endfacet
  facet normal 0 0 1
    outer loop
      vertex 3 5.19615 4
      vertex 2 3.4641 4
      vertex 2.82843 2.82843 4
    endloop
  endfacet
  facet normal 0 0 1
    outer loop
      vertex 1.55291 5.79555 4
      vertex 2 3.4641 4
      vertex 3 5.19615 4
    endloop
  endfacet
  facet normal 0 0 1
    outer loop
      vertex 1.55291 5.79555 4
      vertex 1.03528 3.8637 4
      vertex 2 3.4641 4
    endloop
  endfacet
  facet normal 0 0 1
    outer loop
      vertex 0 6 4
      vertex 1.03528 3.8637 4
      vertex 1.55291 5.79555 4
    endloop
  endfacet
  facet normal 0 0 1
    outer loop
      vertex 0 6 4
      vertex 0 4 4
      vertex 1.03528 3.8637 4
    endloop
  endfacet
  facet normal 0 0 1
    outer loop
      vertex 0 6 4
      vertex -1.03528 3.8637 4
      vertex 0 4 4
    endloop
  endfacet
  facet normal -0 0 1
    outer loop
      vertex -1.55291 5.79555 4
      vertex -1.03528 3.8637 4
      vertex 0 6 4
    endloop
  endfacet
  facet normal 0 0 1
    outer loop
      vertex -1.55291 5.79555 4
      vertex -2 3.4641 4
      vertex -1.03528 3.8637 4
    endloop
  endfacet
  facet normal -0 0 1
    outer loop
      vertex -3 5.19615 4
      vertex -2 3.4641 4
      vertex -1.55291 5.79555 4
    endloop
  endfacet
  facet normal 0 0 1
    outer loop
      vertex -2 3.4641 4
      vertex -3 5.19615 4
      vertex -2.82843 2.82843 4
    endloop
  endfacet
  facet normal -0 0 1
    outer loop
      vertex -4.24264 4.24264 4
      vertex -2.82843 2.82843 4
      vertex -3 5.19615 4
    endloop
  endfacet
  facet normal 0 0 1
    outer loop
      vertex -2.82843 2.82843 4
      vertex -4.24264 4.24264 4
      vertex -3.4641 2 4
    endloop
  endfacet
  facet normal 0 0 1
    outer loop
      vertex -3.4641 2 4
      vertex -5.19615 3 4
      vertex -3.8637 1.03528 4
    endloop
  endfacet
  facet normal -0 0 1
    outer loop
      vertex -5.19615 3 4
      vertex -3.4641 2 4
      vertex -4.24264 4.24264 4
    endloop
  endfacet
  facet normal -0 0 1
    outer loop
      vertex 3.4641 -2 4
      vertex 5.19615 -3 4
      vertex 3.8637 -1.03528 4
    endloop
  endfacet
  facet normal 0 0 1
    outer loop
      vertex 5.19615 -3 4
      vertex 3.4641 -2 4
      vertex 4.24264 -4.24264 4
    endloop
  endfacet
  facet normal -0 0 1
    outer loop
      vertex 2.82843 -2.82843 4
      vertex 4.24264 -4.24264 4
      vertex 3.4641 -2 4
    endloop
  endfacet
  facet normal 0 0 1
    outer loop
      vertex 4.24264 -4.24264 4
      vertex 2.82843 -2.82843 4
      vertex 3 -5.19615 4
    endloop
  endfacet
  facet normal -0 0 1
    outer loop
      vertex 2 -3.4641 4
      vertex 3 -5.19615 4
      vertex 2.82843 -2.82843 4
    endloop
  endfacet
  facet normal 0 0 1
    outer loop
      vertex 2 -3.4641 4
      vertex 1.55291 -5.79555 4
      vertex 3 -5.19615 4
    endloop
  endfacet
  facet normal -0 0 1
    outer loop
      vertex 1.03528 -3.8637 4
      vertex 1.55291 -5.79555 4
      vertex 2 -3.4641 4
    endloop
  endfacet
  facet normal -0 0 1
    outer loop
      vertex 0 -4 4
      vertex 1.55291 -5.79555 4
      vertex 1.03528 -3.8637 4
    endloop
  endfacet
  facet normal 0 0 1
    outer loop
      vertex 0 -4 4
      vertex 0 -6 4
      vertex 1.55291 -5.79555 4
    endloop
  endfacet
  facet normal 0 0 1
    outer loop
      vertex -1.03528 -3.8637 4
      vertex 0 -6 4
      vertex 0 -4 4
    endloop
  endfacet
  facet normal 0 0 1
    outer loop
      vertex -1.03528 -3.8637 4
      vertex -1.55291 -5.79555 4
      vertex 0 -6 4
    endloop
  endfacet
  facet normal 0 0 1
    outer loop
      vertex -2 -3.4641 4
      vertex -1.55291 -5.79555 4
      vertex -1.03528 -3.8637 4
    endloop
  endfacet
  facet normal 0 0 1
    outer loop
      vertex -3 -5.19615 4
      vertex -2 -3.4641 4
      vertex -2.82843 -2.82843 4
    endloop
  endfacet
  facet normal 0 0 1
    outer loop
      vertex -2 -3.4641 4
      vertex -3 -5.19615 4
      vertex -1.55291 -5.79555 4
    endloop
  endfacet
  facet normal 0 0 1
    outer loop
      vertex -4.24264 -4.24264 4
      vertex -2.82843 -2.82843 4
      vertex -3.4641 -2 4
    endloop
  endfacet
  facet normal 0 0 1
    outer loop
      vertex -5.19615 -3 4
      vertex -3.4641 -2 4
      vertex -3.8637 -1.03528 4
    endloop
  endfacet
  facet normal 0 0 1
    outer loop
      vertex -2.82843 -2.82843 4
      vertex -4.24264 -4.24264 4
      vertex -3 -5.19615 4
    endloop
  endfacet
  facet normal 0 0 1
    outer loop
      vertex -5.79555 -1.55291 4
      vertex -3.8637 -1.03528 4
      vertex -4 -7.34788e-16 4
    endloop
  endfacet
  facet normal -0 0 1
    outer loop
      vertex -5.79555 1.55291 4
      vertex -3.8637 1.03528 4
      vertex -5.19615 3 4
    endloop
  endfacet
  facet normal 0 0 1
    outer loop
      vertex -3.8637 1.03528 4
      vertex -5.79555 1.55291 4
      vertex -4 -7.34788e-16 4
    endloop
  endfacet
  facet normal 0 0 1
    outer loop
      vertex -3.4641 -2 4
      vertex -5.19615 -3 4
      vertex -4.24264 -4.24264 4
    endloop
  endfacet
  facet normal 0 0 1
    outer loop
      vertex -6 -7.34788e-16 4
      vertex -4 -7.34788e-16 4
      vertex -5.79555 1.55291 4
    endloop
  endfacet
  facet normal 0 0 1
    outer loop
      vertex -3.8637 -1.03528 4
      vertex -5.79555 -1.55291 4
      vertex -5.19615 -3 4
    endloop
  endfacet
  facet normal 0 0 1
    outer loop
      vertex -4 -7.34788e-16 4
      vertex -6 -7.34788e-16 4
      vertex -5.79555 -1.55291 4
    endloop
  endfacet
  facet normal -0.130527 -0.991445 0
    outer loop
      vertex -1.03528 -3.8637 4
      vertex 0 -4 10
      vertex -1.03528 -3.8637 10
    endloop
  endfacet
  facet normal -0.130527 -0.991445 -0
    outer loop
      vertex 0 -4 10
      vertex -1.03528 -3.8637 4
      vertex 0 -4 4
    endloop
  endfacet
  facet normal 0.991445 0.130527 0
    outer loop
      vertex 4 0 10
      vertex 3.8637 1.03528 4
      vertex 3.8637 1.03528 10
    endloop
  endfacet
  facet normal 0.991445 0.130527 -1.32902e-17
    outer loop
      vertex 3.8637 1.03528 4
      vertex 4 0 10
      vertex 4 -7.34788e-16 4
    endloop
  endfacet
  facet normal 0.130527 0.991445 -0
    outer loop
      vertex 1.03528 3.8637 4
      vertex 0 4 10
      vertex 1.03528 3.8637 10
    endloop
  endfacet
  facet normal 0.130527 0.991445 0
    outer loop
      vertex 0 4 10
      vertex 1.03528 3.8637 4
      vertex 0 4 4
    endloop
  endfacet
  facet normal 0.608762 0.793353 -0
    outer loop
      vertex 2.82843 2.82843 4
      vertex 2 3.4641 10
      vertex 2.82843 2.82843 10
    endloop
  endfacet
  facet normal 0.608762 0.793353 0
    outer loop
      vertex 2 3.4641 10
      vertex 2.82843 2.82843 4
      vertex 2 3.4641 4
    endloop
  endfacet
  facet normal -0.382683 0.92388 0
    outer loop
      vertex -1.03528 3.8637 4
      vertex -2 3.4641 10
      vertex -1.03528 3.8637 10
    endloop
  endfacet
  facet normal -0.382683 0.92388 0
    outer loop
      vertex -2 3.4641 10
      vertex -1.03528 3.8637 4
      vertex -2 3.4641 4
    endloop
  endfacet
  facet normal -0.793353 0.608761 0
    outer loop
      vertex -3.4641 2 4
      vertex -2.82843 2.82843 10
      vertex -2.82843 2.82843 4
    endloop
  endfacet
  facet normal -0.793353 0.608761 0
    outer loop
      vertex -2.82843 2.82843 10
      vertex -3.4641 2 4
      vertex -3.4641 2 10
    endloop
  endfacet
  facet normal -0.991445 0.130527 0
    outer loop
      vertex -3.8637 1.03528 4
      vertex -4 0 10
      vertex -3.8637 1.03528 10
    endloop
  endfacet
  facet normal -0.991445 0.130527 -1.59849e-17
    outer loop
      vertex -4 0 10
      vertex -3.8637 1.03528 4
      vertex -4 -7.34788e-16 4
    endloop
  endfacet
  facet normal 0.382683 0.92388 -0
    outer loop
      vertex 2 3.4641 4
      vertex 1.03528 3.8637 10
      vertex 2 3.4641 10
    endloop
  endfacet
  facet normal 0.382683 0.92388 0
    outer loop
      vertex 1.03528 3.8637 10
      vertex 2 3.4641 4
      vertex 1.03528 3.8637 4
    endloop
  endfacet
  facet normal -0.923879 0.382684 0
    outer loop
      vertex -3.8637 1.03528 4
      vertex -3.4641 2 10
      vertex -3.4641 2 4
    endloop
  endfacet
  facet normal -0.923879 0.382684 0
    outer loop
      vertex -3.4641 2 10
      vertex -3.8637 1.03528 4
      vertex -3.8637 1.03528 10
    endloop
  endfacet
  facet normal 0.991445 -0.130527 2.65805e-17
    outer loop
      vertex 5.79555 -1.55291 4
      vertex 6 -1.22465e-15 0
      vertex 6 -7.34788e-16 4
    endloop
  endfacet
  facet normal 0.991445 -0.130527 0
    outer loop
      vertex 6 -1.22465e-15 0
      vertex 5.79555 -1.55291 4
      vertex 5.79555 -1.55291 1.90177e-16
    endloop
  endfacet
  facet normal -0.991445 -0.130527 2.65805e-17
    outer loop
      vertex -5.79555 -1.55291 1.90177e-16
      vertex -6 -7.34788e-16 4
      vertex -6 -1.22465e-15 0
    endloop
  endfacet
  facet normal -0.991445 -0.130527 0
    outer loop
      vertex -6 -7.34788e-16 4
      vertex -5.79555 -1.55291 1.90177e-16
      vertex -5.79555 -1.55291 4
    endloop
  endfacet
  facet normal 0.130527 -0.991445 0
    outer loop
      vertex 0 -6 7.34788e-16
      vertex 1.55291 -5.79555 4
      vertex 0 -6 4
    endloop
  endfacet
  facet normal 0.130527 -0.991445 0
    outer loop
      vertex 1.55291 -5.79555 4
      vertex 0 -6 7.34788e-16
      vertex 1.55291 -5.79555 7.09751e-16
    endloop
  endfacet
  facet normal -0.130527 0.991445 0
    outer loop
      vertex 0 6 4
      vertex -1.55291 5.79555 -7.09751e-16
      vertex -1.55291 5.79555 4
    endloop
  endfacet
  facet normal -0.130527 0.991445 0
    outer loop
      vertex -1.55291 5.79555 -7.09751e-16
      vertex 0 6 4
      vertex 0 6 -7.34788e-16
    endloop
  endfacet
  facet normal 0.793354 -0.608761 0
    outer loop
      vertex 4.24264 -4.24264 4
      vertex 5.19615 -3 3.67394e-16
      vertex 5.19615 -3 4
    endloop
  endfacet
  facet normal 0.793354 -0.608761 0
    outer loop
      vertex 5.19615 -3 3.67394e-16
      vertex 4.24264 -4.24264 4
      vertex 4.24264 -4.24264 5.19574e-16
    endloop
  endfacet
  facet normal 0.92388 -0.382683 0
    outer loop
      vertex 5.19615 -3 4
      vertex 5.79555 -1.55291 1.90177e-16
      vertex 5.79555 -1.55291 4
    endloop
  endfacet
  facet normal 0.92388 -0.382683 0
    outer loop
      vertex 5.79555 -1.55291 1.90177e-16
      vertex 5.19615 -3 4
      vertex 5.19615 -3 3.67394e-16
    endloop
  endfacet
  facet normal 0.608761 -0.793353 0
    outer loop
      vertex 3 -5.19615 6.36345e-16
      vertex 4.24264 -4.24264 4
      vertex 3 -5.19615 4
    endloop
  endfacet
  facet normal 0.608761 -0.793353 0
    outer loop
      vertex 4.24264 -4.24264 4
      vertex 3 -5.19615 6.36345e-16
      vertex 4.24264 -4.24264 5.19574e-16
    endloop
  endfacet
  facet normal -0.608761 -0.793354 0
    outer loop
      vertex -4.24264 -4.24264 4
      vertex -3 -5.19615 6.36345e-16
      vertex -3 -5.19615 4
    endloop
  endfacet
  facet normal -0.608761 -0.793354 0
    outer loop
      vertex -3 -5.19615 6.36345e-16
      vertex -4.24264 -4.24264 4
      vertex -4.24264 -4.24264 5.19574e-16
    endloop
  endfacet
  facet normal -0.793354 -0.608761 0
    outer loop
      vertex -4.24264 -4.24264 5.19574e-16
      vertex -5.19615 -3 4
      vertex -5.19615 -3 3.67394e-16
    endloop
  endfacet
  facet normal -0.793354 -0.608761 0
    outer loop
      vertex -5.19615 -3 4
      vertex -4.24264 -4.24264 5.19574e-16
      vertex -4.24264 -4.24264 4
    endloop
  endfacet
  facet normal -0.382683 -0.92388 0
    outer loop
      vertex -3 -5.19615 4
      vertex -1.55291 -5.79555 7.09751e-16
      vertex -1.55291 -5.79555 4
    endloop
  endfacet
  facet normal -0.382683 -0.92388 0
    outer loop
      vertex -1.55291 -5.79555 7.09751e-16
      vertex -3 -5.19615 4
      vertex -3 -5.19615 6.36345e-16
    endloop
  endfacet
  facet normal -0.608761 0.793353 0
    outer loop
      vertex -3 5.19615 4
      vertex -4.24264 4.24264 -5.19574e-16
      vertex -4.24264 4.24264 4
    endloop
  endfacet
  facet normal -0.608761 0.793353 0
    outer loop
      vertex -4.24264 4.24264 -5.19574e-16
      vertex -3 5.19615 4
      vertex -3 5.19615 -6.36345e-16
    endloop
  endfacet
  facet normal 0.382683 -0.92388 0
    outer loop
      vertex 1.55291 -5.79555 7.09751e-16
      vertex 3 -5.19615 4
      vertex 1.55291 -5.79555 4
    endloop
  endfacet
  facet normal 0.382683 -0.92388 0
    outer loop
      vertex 3 -5.19615 4
      vertex 1.55291 -5.79555 7.09751e-16
      vertex 3 -5.19615 6.36345e-16
    endloop
  endfacet
  facet normal -0.92388 -0.382683 0
    outer loop
      vertex -5.19615 -3 3.67394e-16
      vertex -5.79555 -1.55291 4
      vertex -5.79555 -1.55291 1.90177e-16
    endloop
  endfacet
  facet normal -0.92388 -0.382683 0
    outer loop
      vertex -5.79555 -1.55291 4
      vertex -5.19615 -3 3.67394e-16
      vertex -5.19615 -3 4
    endloop
  endfacet
  facet normal 0 -1.22465e-16 -1
    outer loop
      vertex 4.96569 -1.22465e-15 0
      vertex 6 -1.22465e-15 0
      vertex 5.79555 -1.55291 1.90177e-16
    endloop
  endfacet
  facet normal 7.65563e-24 -1.22465e-16 -1
    outer loop
      vertex 4.79502 -1.28876 1.57828e-16
      vertex 5.79555 -1.55291 1.90177e-16
      vertex 5.19615 -3 3.67394e-16
    endloop
  endfacet
  facet normal -0 -1.22465e-16 -1
    outer loop
      vertex 6 -1.22465e-15 0
      vertex 4.96569 -1.22465e-15 0
      vertex 5.79555 1.55291 -1.90177e-16
    endloop
  endfacet
  facet normal -7.79471e-24 -1.22465e-16 -1
    outer loop
      vertex 4.79699 1.28141 -1.56927e-16
      vertex 5.79555 1.55291 -1.90177e-16
      vertex 4.96569 -1.22465e-15 0
    endloop
  endfacet
  facet normal 7.79471e-24 -1.22465e-16 -1
    outer loop
      vertex 5.79555 -1.55291 1.90177e-16
      vertex 4.79699 -1.28141 1.56927e-16
      vertex 4.96569 -1.22465e-15 0
    endloop
  endfacet
  facet normal -3.39192e-22 -1.22466e-16 -1
    outer loop
      vertex 5.79555 -1.55291 1.90177e-16
      vertex 4.79648 -1.28521 1.57393e-16
      vertex 4.79699 -1.28141 1.56927e-16
    endloop
  endfacet
  facet normal 3.20519e-22 -1.22463e-16 -1
    outer loop
      vertex 5.79555 -1.55291 1.90177e-16
      vertex 4.79502 -1.28876 1.57828e-16
      vertex 4.79648 -1.28521 1.57393e-16
    endloop
  endfacet
  facet normal 3.92773e-25 -1.22465e-16 -1
    outer loop
      vertex 5.19615 -3 3.67394e-16
      vertex 4.30041 -2.48284 3.0406e-16
      vertex 4.79502 -1.28876 1.57828e-16
    endloop
  endfacet
  facet normal 9.06446e-25 -1.22465e-16 -1
    outer loop
      vertex 4.24264 -4.24264 5.19574e-16
      vertex 4.30041 -2.48284 3.0406e-16
      vertex 5.19615 -3 3.67394e-16
    endloop
  endfacet
  facet normal 9.54683e-24 -1.22465e-16 -1
    outer loop
      vertex 4.24264 -4.24264 5.19574e-16
      vertex 3.51361 -3.50822 4.29634e-16
      vertex 4.30041 -2.48284 3.0406e-16
    endloop
  endfacet
  facet normal -2.28265e-21 -1.22467e-16 -1
    outer loop
      vertex 4.24264 -4.24264 5.19574e-16
      vertex 3.51127 -3.51127 4.30007e-16
      vertex 3.51361 -3.50822 4.29634e-16
    endloop
  endfacet
  facet normal 1.13346e-21 -1.22464e-16 -1
    outer loop
      vertex 4.24264 -4.24264 5.19574e-16
      vertex 3.50822 -3.51361 4.30293e-16
      vertex 3.51127 -3.51127 4.30007e-16
    endloop
  endfacet
  facet normal 7.75926e-24 -1.22465e-16 -1
    outer loop
      vertex 3 -5.19615 6.36345e-16
      vertex 3.50822 -3.51361 4.30293e-16
      vertex 4.24264 -4.24264 5.19574e-16
    endloop
  endfacet
  facet normal -5.15658e-23 -1.22465e-16 -1
    outer loop
      vertex 3 -5.19615 6.36345e-16
      vertex 2.48284 -4.30041 5.26648e-16
      vertex 3.50822 -3.51361 4.30293e-16
    endloop
  endfacet
  facet normal -1.57609e-23 -1.22465e-16 -1
    outer loop
      vertex 1.55291 -5.79555 7.09751e-16
      vertex 2.48284 -4.30041 5.26648e-16
      vertex 3 -5.19615 6.36345e-16
    endloop
  endfacet
  facet normal -1.15774e-23 -1.22465e-16 -1
    outer loop
      vertex 1.55291 -5.79555 7.09751e-16
      vertex 1.28876 -4.79502 5.8722e-16
      vertex 2.48284 -4.30041 5.26648e-16
    endloop
  endfacet
  facet normal 7.24175e-21 -1.22463e-16 -1
    outer loop
      vertex 1.55291 -5.79555 7.09751e-16
      vertex 1.28521 -4.79648 5.874e-16
      vertex 1.28876 -4.79502 5.8722e-16
    endloop
  endfacet
  facet normal -9.13767e-21 -1.22467e-16 -1
    outer loop
      vertex 1.55291 -5.79555 7.09751e-16
      vertex 1.28141 -4.79699 5.87461e-16
      vertex 1.28521 -4.79648 5.874e-16
    endloop
  endfacet
  facet normal -6.57775e-24 -1.22465e-16 -1
    outer loop
      vertex 0 -6 7.34788e-16
      vertex 1.28141 -4.79699 5.87461e-16
      vertex 1.55291 -5.79555 7.09751e-16
    endloop
  endfacet
  facet normal -5.07628e-24 -1.22465e-16 -1
    outer loop
      vertex 0 -6 7.34788e-16
      vertex 0 -4.96569 6.08121e-16
      vertex 1.28141 -4.79699 5.87461e-16
    endloop
  endfacet
  facet normal 5.07628e-24 -1.22465e-16 -1
    outer loop
      vertex 0 -6 7.34788e-16
      vertex -1.28141 -4.79699 5.87461e-16
      vertex 0 -4.96569 6.08121e-16
    endloop
  endfacet
  facet normal 6.57775e-24 -1.22465e-16 -1
    outer loop
      vertex -1.55291 -5.79555 7.09751e-16
      vertex -1.28141 -4.79699 5.87461e-16
      vertex 0 -6 7.34788e-16
    endloop
  endfacet
  facet normal 9.13767e-21 -1.22467e-16 -1
    outer loop
      vertex -1.28141 -4.79699 5.87461e-16
      vertex -1.55291 -5.79555 7.09751e-16
      vertex -1.28521 -4.79648 5.874e-16
    endloop
  endfacet
  facet normal -7.24175e-21 -1.22463e-16 -1
    outer loop
      vertex -1.28521 -4.79648 5.874e-16
      vertex -1.55291 -5.79555 7.09751e-16
      vertex -1.28876 -4.79502 5.8722e-16
    endloop
  endfacet
  facet normal 1.15774e-23 -1.22465e-16 -1
    outer loop
      vertex -1.55291 -5.79555 7.09751e-16
      vertex -2.48284 -4.30041 5.26648e-16
      vertex -1.28876 -4.79502 5.8722e-16
    endloop
  endfacet
  facet normal 1.5761e-23 -1.22465e-16 -1
    outer loop
      vertex -3 -5.19615 6.36345e-16
      vertex -2.48284 -4.30041 5.26648e-16
      vertex -1.55291 -5.79555 7.09751e-16
    endloop
  endfacet
  facet normal 5.15657e-23 -1.22465e-16 -1
    outer loop
      vertex -3 -5.19615 6.36345e-16
      vertex -3.50822 -3.51361 4.30293e-16
      vertex -2.48284 -4.30041 5.26648e-16
    endloop
  endfacet
  facet normal -7.75926e-24 -1.22465e-16 -1
    outer loop
      vertex -4.24264 -4.24264 5.19574e-16
      vertex -3.50822 -3.51361 4.30293e-16
      vertex -3 -5.19615 6.36345e-16
    endloop
  endfacet
  facet normal -1.13346e-21 -1.22464e-16 -1
    outer loop
      vertex -3.50822 -3.51361 4.30293e-16
      vertex -4.24264 -4.24264 5.19574e-16
      vertex -3.51127 -3.51127 4.30007e-16
    endloop
  endfacet
  facet normal 2.28265e-21 -1.22467e-16 -1
    outer loop
      vertex -3.51127 -3.51127 4.30007e-16
      vertex -4.24264 -4.24264 5.19574e-16
      vertex -3.51361 -3.50822 4.29634e-16
    endloop
  endfacet
  facet normal -9.54683e-24 -1.22465e-16 -1
    outer loop
      vertex -4.24264 -4.24264 5.19574e-16
      vertex -4.30041 -2.48284 3.0406e-16
      vertex -3.51361 -3.50822 4.29634e-16
    endloop
  endfacet
  facet normal -9.06446e-25 -1.22465e-16 -1
    outer loop
      vertex -5.19615 -3 3.67394e-16
      vertex -4.30041 -2.48284 3.0406e-16
      vertex -4.24264 -4.24264 5.19574e-16
    endloop
  endfacet
  facet normal -3.92773e-25 -1.22465e-16 -1
    outer loop
      vertex -4.30041 -2.48284 3.0406e-16
      vertex -5.19615 -3 3.67394e-16
      vertex -4.79502 -1.28876 1.57828e-16
    endloop
  endfacet
  facet normal 3.39192e-22 -1.22466e-16 -1
    outer loop
      vertex -4.79648 -1.28521 1.57393e-16
      vertex -5.79555 -1.55291 1.90177e-16
      vertex -4.79699 -1.28141 1.56927e-16
    endloop
  endfacet
  facet normal -3.20519e-22 -1.22463e-16 -1
    outer loop
      vertex -4.79502 -1.28876 1.57828e-16
      vertex -5.79555 -1.55291 1.90177e-16
      vertex -4.79648 -1.28521 1.57393e-16
    endloop
  endfacet
  facet normal -7.65563e-24 -1.22465e-16 -1
    outer loop
      vertex -5.79555 -1.55291 1.90177e-16
      vertex -4.79502 -1.28876 1.57828e-16
      vertex -5.19615 -3 3.67394e-16
    endloop
  endfacet
  facet normal 3.39192e-22 -1.22466e-16 -1
    outer loop
      vertex 4.79648 1.28521 -1.57393e-16
      vertex 5.79555 1.55291 -1.90177e-16
      vertex 4.79699 1.28141 -1.56927e-16
    endloop
  endfacet
  facet normal -3.20519e-22 -1.22463e-16 -1
    outer loop
      vertex 4.79502 1.28876 -1.57828e-16
      vertex 5.79555 1.55291 -1.90177e-16
      vertex 4.79648 1.28521 -1.57393e-16
    endloop
  endfacet
  facet normal -9.45025e-24 -1.22465e-16 -1
    outer loop
      vertex 5.79555 1.55291 -1.90177e-16
      vertex 4.79502 1.28876 -1.57828e-16
      vertex 5.19615 3 -3.67394e-16
    endloop
  endfacet
  facet normal 2.95253e-23 -1.22465e-16 -1
    outer loop
      vertex 4.30041 2.48284 -3.04061e-16
      vertex 5.19615 3 -3.67394e-16
      vertex 4.79502 1.28876 -1.57828e-16
    endloop
  endfacet
  facet normal 2.30855e-23 -1.22465e-16 -1
    outer loop
      vertex 4.30041 2.48284 -3.04061e-16
      vertex 4.24264 4.24264 -5.19574e-16
      vertex 5.19615 3 -3.67394e-16
    endloop
  endfacet
  facet normal -1.81675e-23 -1.22465e-16 -1
    outer loop
      vertex 3.51361 3.50822 -4.29634e-16
      vertex 4.24264 4.24264 -5.19574e-16
      vertex 4.30041 2.48284 -3.04061e-16
    endloop
  endfacet
  facet normal 2.28265e-21 -1.22467e-16 -1
    outer loop
      vertex 3.51127 3.51127 -4.30007e-16
      vertex 4.24264 4.24264 -5.19574e-16
      vertex 3.51361 3.50822 -4.29634e-16
    endloop
  endfacet
  facet normal -1.13346e-21 -1.22464e-16 -1
    outer loop
      vertex 3.50822 3.51361 -4.30293e-16
      vertex 4.24264 4.24264 -5.19574e-16
      vertex 3.51127 3.51127 -4.30007e-16
    endloop
  endfacet
  facet normal -7.75926e-24 -1.22465e-16 -1
    outer loop
      vertex 3.50822 3.51361 -4.30293e-16
      vertex 3 5.19615 -6.36345e-16
      vertex 4.24264 4.24264 -5.19574e-16
    endloop
  endfacet
  facet normal 5.15658e-23 -1.22465e-16 -1
    outer loop
      vertex 2.48284 4.30041 -5.26648e-16
      vertex 3 5.19615 -6.36345e-16
      vertex 3.50822 3.51361 -4.30293e-16
    endloop
  endfacet
  facet normal 1.57609e-23 -1.22465e-16 -1
    outer loop
      vertex 2.48284 4.30041 -5.26648e-16
      vertex 1.55291 5.79555 -7.09751e-16
      vertex 3 5.19615 -6.36345e-16
    endloop
  endfacet
  facet normal 1.15774e-23 -1.22465e-16 -1
    outer loop
      vertex 1.28876 4.79502 -5.8722e-16
      vertex 1.55291 5.79555 -7.09751e-16
      vertex 2.48284 4.30041 -5.26648e-16
    endloop
  endfacet
  facet normal -7.24175e-21 -1.22463e-16 -1
    outer loop
      vertex 1.28521 4.79648 -5.874e-16
      vertex 1.55291 5.79555 -7.09751e-16
      vertex 1.28876 4.79502 -5.8722e-16
    endloop
  endfacet
  facet normal 9.13767e-21 -1.22467e-16 -1
    outer loop
      vertex 1.28141 4.79699 -5.87461e-16
      vertex 1.55291 5.79555 -7.09751e-16
      vertex 1.28521 4.79648 -5.874e-16
    endloop
  endfacet
  facet normal 5.33145e-24 -1.22465e-16 -1
    outer loop
      vertex 0 4.96569 -6.08121e-16
      vertex 1.55291 5.79555 -7.09751e-16
      vertex 1.28141 4.79699 -5.87461e-16
    endloop
  endfacet
  facet normal 6.3672e-24 -1.22465e-16 -1
    outer loop
      vertex 0 4.96569 -6.08121e-16
      vertex 0 6 -7.34788e-16
      vertex 1.55291 5.79555 -7.09751e-16
    endloop
  endfacet
  facet normal -5.07628e-24 -1.22465e-16 -1
    outer loop
      vertex -1.28141 4.79699 -5.87461e-16
      vertex 0 6 -7.34788e-16
      vertex 0 4.96569 -6.08121e-16
    endloop
  endfacet
  facet normal -9.13767e-21 -1.22467e-16 -1
    outer loop
      vertex -1.55291 5.79555 -7.09751e-16
      vertex -1.28141 4.79699 -5.87461e-16
      vertex -1.28521 4.79648 -5.874e-16
    endloop
  endfacet
  facet normal 7.24175e-21 -1.22463e-16 -1
    outer loop
      vertex -1.55291 5.79555 -7.09751e-16
      vertex -1.28521 4.79648 -5.874e-16
      vertex -1.28876 4.79502 -5.8722e-16
    endloop
  endfacet
  facet normal -6.57775e-24 -1.22465e-16 -1
    outer loop
      vertex -1.28141 4.79699 -5.87461e-16
      vertex -1.55291 5.79555 -7.09751e-16
      vertex 0 6 -7.34788e-16
    endloop
  endfacet
  facet normal -1.15774e-23 -1.22465e-16 -1
    outer loop
      vertex -2.48284 4.30041 -5.26648e-16
      vertex -1.55291 5.79555 -7.09751e-16
      vertex -1.28876 4.79502 -5.8722e-16
    endloop
  endfacet
  facet normal -1.57609e-23 -1.22465e-16 -1
    outer loop
      vertex -2.48284 4.30041 -5.26648e-16
      vertex -3 5.19615 -6.36345e-16
      vertex -1.55291 5.79555 -7.09751e-16
    endloop
  endfacet
  facet normal -5.15658e-23 -1.22465e-16 -1
    outer loop
      vertex -3.50822 3.51361 -4.30293e-16
      vertex -3 5.19615 -6.36345e-16
      vertex -2.48284 4.30041 -5.26648e-16
    endloop
  endfacet
  facet normal 1.13346e-21 -1.22464e-16 -1
    outer loop
      vertex -4.24264 4.24264 -5.19574e-16
      vertex -3.50822 3.51361 -4.30293e-16
      vertex -3.51127 3.51127 -4.30007e-16
    endloop
  endfacet
  facet normal -2.28265e-21 -1.22467e-16 -1
    outer loop
      vertex -4.24264 4.24264 -5.19574e-16
      vertex -3.51127 3.51127 -4.30007e-16
      vertex -3.51361 3.50822 -4.29634e-16
    endloop
  endfacet
  facet normal 7.75926e-24 -1.22465e-16 -1
    outer loop
      vertex -3.50822 3.51361 -4.30293e-16
      vertex -4.24264 4.24264 -5.19574e-16
      vertex -3 5.19615 -6.36345e-16
    endloop
  endfacet
  facet normal 9.54683e-24 -1.22465e-16 -1
    outer loop
      vertex -4.30041 2.48284 -3.0406e-16
      vertex -4.24264 4.24264 -5.19574e-16
      vertex -3.51361 3.50822 -4.29634e-16
    endloop
  endfacet
  facet normal 3.92773e-25 -1.22465e-16 -1
    outer loop
      vertex -5.19615 3 -3.67394e-16
      vertex -4.30041 2.48284 -3.0406e-16
      vertex -4.79502 1.28876 -1.57828e-16
    endloop
  endfacet
  facet normal 3.20519e-22 -1.22463e-16 -1
    outer loop
      vertex -5.79555 1.55291 -1.90177e-16
      vertex -4.79502 1.28876 -1.57828e-16
      vertex -4.79648 1.28521 -1.57393e-16
    endloop
  endfacet
  facet normal 9.06446e-25 -1.22465e-16 -1
    outer loop
      vertex -4.30041 2.48284 -3.0406e-16
      vertex -5.19615 3 -3.67394e-16
      vertex -4.24264 4.24264 -5.19574e-16
    endloop
  endfacet
  facet normal -3.39192e-22 -1.22466e-16 -1
    outer loop
      vertex -5.79555 1.55291 -1.90177e-16
      vertex -4.79648 1.28521 -1.57393e-16
      vertex -4.79699 1.28141 -1.56927e-16
    endloop
  endfacet
  facet normal 7.79471e-24 -1.22465e-16 -1
    outer loop
      vertex -5.79555 1.55291 -1.90177e-16
      vertex -4.79699 1.28141 -1.56927e-16
      vertex -4.96569 -1.22465e-15 0
    endloop
  endfacet
  facet normal -7.79471e-24 -1.22465e-16 -1
    outer loop
      vertex -4.79699 -1.28141 1.56927e-16
      vertex -5.79555 -1.55291 1.90177e-16
      vertex -4.96569 -1.22465e-15 0
    endloop
  endfacet
  facet normal 0 -1.22465e-16 -1
    outer loop
      vertex -6 -1.22465e-15 0
      vertex -4.96569 -1.22465e-15 0
      vertex -5.79555 -1.55291 1.90177e-16
    endloop
  endfacet
  facet normal 7.65563e-24 -1.22465e-16 -1
    outer loop
      vertex -4.79502 1.28876 -1.57828e-16
      vertex -5.79555 1.55291 -1.90177e-16
      vertex -5.19615 3 -3.67394e-16
    endloop
  endfacet
  facet normal -0 -1.22465e-16 -1
    outer loop
      vertex -4.96569 -1.22465e-15 0
      vertex -6 -1.22465e-15 0
      vertex -5.79555 1.55291 -1.90177e-16
    endloop
  endfacet
  facet normal -0.130527 -0.991445 0
    outer loop
      vertex -1.55291 -5.79555 4
      vertex 0 -6 7.34788e-16
      vertex 0 -6 4
    endloop
  endfacet
  facet normal -0.130527 -0.991445 0
    outer loop
      vertex 0 -6 7.34788e-16
      vertex -1.55291 -5.79555 4
      vertex -1.55291 -5.79555 7.09751e-16
    endloop
  endfacet
  facet normal 0.991445 0.130527 0
    outer loop
      vertex 6 -7.34788e-16 4
      vertex 5.79555 1.55291 -1.90177e-16
      vertex 5.79555 1.55291 4
    endloop
  endfacet
  facet normal 0.991445 0.130527 -2.65805e-17
    outer loop
      vertex 5.79555 1.55291 -1.90177e-16
      vertex 6 -7.34788e-16 4
      vertex 6 -1.22465e-15 0
    endloop
  endfacet
  facet normal 0.130527 0.991445 -0
    outer loop
      vertex 1.55291 5.79555 -7.09751e-16
      vertex 0 6 4
      vertex 1.55291 5.79555 4
    endloop
  endfacet
  facet normal 0.130527 0.991445 0
    outer loop
      vertex 0 6 4
      vertex 1.55291 5.79555 -7.09751e-16
      vertex 0 6 -7.34788e-16
    endloop
  endfacet
  facet normal 0.608761 0.793353 -0
    outer loop
      vertex 4.24264 4.24264 -5.19574e-16
      vertex 3 5.19615 4
      vertex 4.24264 4.24264 4
    endloop
  endfacet
  facet normal 0.608761 0.793353 0
    outer loop
      vertex 3 5.19615 4
      vertex 4.24264 4.24264 -5.19574e-16
      vertex 3 5.19615 -6.36345e-16
    endloop
  endfacet
  facet normal -0.382683 0.92388 0
    outer loop
      vertex -1.55291 5.79555 4
      vertex -3 5.19615 -6.36345e-16
      vertex -3 5.19615 4
    endloop
  endfacet
  facet normal -0.382683 0.92388 0
    outer loop
      vertex -3 5.19615 -6.36345e-16
      vertex -1.55291 5.79555 4
      vertex -1.55291 5.79555 -7.09751e-16
    endloop
  endfacet
  facet normal -0.793354 0.608761 0
    outer loop
      vertex -5.19615 3 -3.67394e-16
      vertex -4.24264 4.24264 4
      vertex -4.24264 4.24264 -5.19574e-16
    endloop
  endfacet
  facet normal -0.793354 0.608761 0
    outer loop
      vertex -4.24264 4.24264 4
      vertex -5.19615 3 -3.67394e-16
      vertex -5.19615 3 4
    endloop
  endfacet
  facet normal -0.991445 0.130527 0
    outer loop
      vertex -5.79555 1.55291 -1.90177e-16
      vertex -6 -7.34788e-16 4
      vertex -5.79555 1.55291 4
    endloop
  endfacet
  facet normal -0.991445 0.130527 -1.59849e-17
    outer loop
      vertex -6 -7.34788e-16 4
      vertex -5.79555 1.55291 -1.90177e-16
      vertex -6 -1.22465e-15 0
    endloop
  endfacet
  facet normal 0.382683 0.92388 -0
    outer loop
      vertex 3 5.19615 -6.36345e-16
      vertex 1.55291 5.79555 4
      vertex 3 5.19615 4
    endloop
  endfacet
  facet normal 0.382683 0.92388 0
    outer loop
      vertex 1.55291 5.79555 4
      vertex 3 5.19615 -6.36345e-16
      vertex 1.55291 5.79555 -7.09751e-16
    endloop
  endfacet
  facet normal 0.92388 0.382683 0
    outer loop
      vertex 5.79555 1.55291 4
      vertex 5.19615 3 -3.67394e-16
      vertex 5.19615 3 4
    endloop
  endfacet
  facet normal 0.92388 0.382683 0
    outer loop
      vertex 5.19615 3 -3.67394e-16
      vertex 5.79555 1.55291 4
      vertex 5.79555 1.55291 -1.90177e-16
    endloop
  endfacet
  facet normal 0.793353 0.608761 0
    outer loop
      vertex 5.19615 3 4
      vertex 4.24264 4.24264 -5.19574e-16
      vertex 4.24264 4.24264 4
    endloop
  endfacet
  facet normal 0.793353 0.608761 0
    outer loop
      vertex 4.24264 4.24264 -5.19574e-16
      vertex 5.19615 3 4
      vertex 5.19615 3 -3.67394e-16
    endloop
  endfacet
  facet normal -0.92388 0.382683 0
    outer loop
      vertex -5.79555 1.55291 -1.90177e-16
      vertex -5.19615 3 4
      vertex -5.19615 3 -3.67394e-16
    endloop
  endfacet
  facet normal -0.92388 0.382683 0
    outer loop
      vertex -5.19615 3 4
      vertex -5.79555 1.55291 -1.90177e-16
      vertex -5.79555 1.55291 4
    endloop
  endfacet
  facet normal -0.123576 -0.938615 -0.322074
    outer loop
      vertex 0 4.96569 -6.08121e-16
      vertex 0.0126871 1.53264 10
      vertex 0 1.53431 10
    endloop
  endfacet
  facet normal -0.123571 -0.938615 -0.322074
    outer loop
      vertex 0.0126871 1.53264 10
      vertex 0 4.96569 -6.08121e-16
      vertex 1.28141 4.79699 -5.87461e-16
    endloop
  endfacet
  facet normal -0.938615 0.123576 -0.322074
    outer loop
      vertex 4.96569 -1.22465e-15 0
      vertex 1.53264 -0.0126871 10
      vertex 1.53431 0 10
    endloop
  endfacet
  facet normal -0.938615 0.123571 -0.322074
    outer loop
      vertex 1.53264 -0.0126871 10
      vertex 4.96569 -1.22465e-15 0
      vertex 4.79699 -1.28141 1.56927e-16
    endloop
  endfacet
  facet normal -0.938615 0.123573 -0.322074
    outer loop
      vertex 4.79699 -1.28141 1.56927e-16
      vertex 1.48203 -0.397109 10
      vertex 1.53264 -0.0126871 10
    endloop
  endfacet
  facet normal -0.938613 0.123588 -0.322075
    outer loop
      vertex 1.48203 -0.397109 10
      vertex 4.79699 -1.28141 1.56927e-16
      vertex 4.79648 -1.28521 1.57393e-16
    endloop
  endfacet
  facet normal -0.938613 -0.123588 -0.322075
    outer loop
      vertex 4.79699 1.28141 -1.56927e-16
      vertex 1.48203 0.397109 10
      vertex 4.79648 1.28521 -1.57393e-16
    endloop
  endfacet
  facet normal -0.938615 -0.123573 -0.322074
    outer loop
      vertex 1.48203 0.397109 10
      vertex 4.79699 1.28141 -1.56927e-16
      vertex 1.53264 0.0126871 10
    endloop
  endfacet
  facet normal 0.938613 -0.123588 -0.322075
    outer loop
      vertex -1.48203 0.397109 10
      vertex -4.79699 1.28141 -1.56927e-16
      vertex -4.79648 1.28521 -1.57393e-16
    endloop
  endfacet
  facet normal 0.938615 -0.123573 -0.322074
    outer loop
      vertex -4.79699 1.28141 -1.56927e-16
      vertex -1.48203 0.397109 10
      vertex -1.53264 0.0126871 10
    endloop
  endfacet
  facet normal -0.87465 -0.362292 -0.322074
    outer loop
      vertex 4.79502 1.28876 -1.57828e-16
      vertex 1.32875 0.767157 10
      vertex 4.30041 2.48284 -3.04061e-16
    endloop
  endfacet
  facet normal -0.874648 -0.362296 -0.322074
    outer loop
      vertex 1.32875 0.767157 10
      vertex 4.79502 1.28876 -1.57828e-16
      vertex 1.33365 0.755334 10
    endloop
  endfacet
  facet normal -0.576324 -0.751079 -0.322074
    outer loop
      vertex 2.48284 4.30041 -5.26648e-16
      vertex 0.777309 1.32096 10
      vertex 0.767157 1.32875 10
    endloop
  endfacet
  facet normal -0.576323 -0.751079 -0.322074
    outer loop
      vertex 0.777309 1.32096 10
      vertex 2.48284 4.30041 -5.26648e-16
      vertex 3.50822 3.51361 -4.30293e-16
    endloop
  endfacet
  facet normal -0.362296 -0.874648 -0.322074
    outer loop
      vertex 1.28876 4.79502 -5.8722e-16
      vertex 0.767157 1.32875 10
      vertex 0.755334 1.33365 10
    endloop
  endfacet
  facet normal -0.362292 -0.87465 -0.322074
    outer loop
      vertex 0.767157 1.32875 10
      vertex 1.28876 4.79502 -5.8722e-16
      vertex 2.48284 4.30041 -5.26648e-16
    endloop
  endfacet
  facet normal -0.751079 -0.576323 -0.322074
    outer loop
      vertex 4.30041 2.48284 -3.04061e-16
      vertex 1.32096 0.777309 10
      vertex 3.51361 3.50822 -4.29634e-16
    endloop
  endfacet
  facet normal -0.751079 -0.576324 -0.322074
    outer loop
      vertex 1.32096 0.777309 10
      vertex 4.30041 2.48284 -3.04061e-16
      vertex 1.32875 0.767157 10
    endloop
  endfacet
  facet normal -0.938615 -0.123571 -0.322074
    outer loop
      vertex 4.96569 -1.22465e-15 0
      vertex 1.53264 0.0126871 10
      vertex 4.79699 1.28141 -1.56927e-16
    endloop
  endfacet
  facet normal -0.938615 -0.123576 -0.322074
    outer loop
      vertex 1.53264 0.0126871 10
      vertex 4.96569 -1.22465e-15 0
      vertex 1.53431 0 10
    endloop
  endfacet
  facet normal -0.751074 -0.576329 -0.322074
    outer loop
      vertex 3.51361 3.50822 -4.29634e-16
      vertex 1.08492 1.08492 10
      vertex 3.51127 3.51127 -4.30007e-16
    endloop
  endfacet
  facet normal -0.751078 -0.576325 -0.322074
    outer loop
      vertex 1.08492 1.08492 10
      vertex 3.51361 3.50822 -4.29634e-16
      vertex 1.32096 0.777309 10
    endloop
  endfacet
  facet normal -0.576325 -0.751078 -0.322074
    outer loop
      vertex 3.50822 3.51361 -4.30293e-16
      vertex 1.08492 1.08492 10
      vertex 0.777309 1.32096 10
    endloop
  endfacet
  facet normal -0.576329 -0.751074 -0.322074
    outer loop
      vertex 1.08492 1.08492 10
      vertex 3.50822 3.51361 -4.30293e-16
      vertex 3.51127 3.51127 -4.30007e-16
    endloop
  endfacet
  facet normal 0.362292 -0.87465 -0.322074
    outer loop
      vertex -1.28876 4.79502 -5.8722e-16
      vertex -0.767157 1.32875 10
      vertex -2.48284 4.30041 -5.26648e-16
    endloop
  endfacet
  facet normal 0.362296 -0.874648 -0.322074
    outer loop
      vertex -0.767157 1.32875 10
      vertex -1.28876 4.79502 -5.8722e-16
      vertex -0.755334 1.33365 10
    endloop
  endfacet
  facet normal 0.87465 -0.362292 -0.322074
    outer loop
      vertex -1.32875 0.767156 10
      vertex -4.79502 1.28876 -1.57828e-16
      vertex -4.30041 2.48284 -3.0406e-16
    endloop
  endfacet
  facet normal 0.874648 -0.362296 -0.322074
    outer loop
      vertex -4.79502 1.28876 -1.57828e-16
      vertex -1.32875 0.767156 10
      vertex -1.33365 0.755333 10
    endloop
  endfacet
  facet normal 0.576323 -0.751079 -0.322074
    outer loop
      vertex -2.48284 4.30041 -5.26648e-16
      vertex -0.777309 1.32096 10
      vertex -3.50822 3.51361 -4.30293e-16
    endloop
  endfacet
  facet normal 0.576324 -0.751079 -0.322074
    outer loop
      vertex -0.777309 1.32096 10
      vertex -2.48284 4.30041 -5.26648e-16
      vertex -0.767157 1.32875 10
    endloop
  endfacet
  facet normal -0.123576 0.938615 -0.322074
    outer loop
      vertex 0.0126871 -1.53264 10
      vertex 0 -4.96569 6.08121e-16
      vertex 0 -1.53431 10
    endloop
  endfacet
  facet normal -0.123571 0.938615 -0.322074
    outer loop
      vertex 0 -4.96569 6.08121e-16
      vertex 0.0126871 -1.53264 10
      vertex 1.28141 -4.79699 5.87461e-16
    endloop
  endfacet
  facet normal 0.123573 0.938615 -0.322074
    outer loop
      vertex -1.28141 -4.79699 5.87461e-16
      vertex -0.397109 -1.48203 10
      vertex -0.0126871 -1.53264 10
    endloop
  endfacet
  facet normal 0.123588 0.938613 -0.322075
    outer loop
      vertex -0.397109 -1.48203 10
      vertex -1.28141 -4.79699 5.87461e-16
      vertex -1.28521 -4.79648 5.874e-16
    endloop
  endfacet
  facet normal 0.751079 0.576324 -0.322074
    outer loop
      vertex -1.32096 -0.777308 10
      vertex -4.30041 -2.48284 3.0406e-16
      vertex -1.32875 -0.767156 10
    endloop
  endfacet
  facet normal 0.75108 0.576323 -0.322074
    outer loop
      vertex -4.30041 -2.48284 3.0406e-16
      vertex -1.32096 -0.777308 10
      vertex -3.51361 -3.50822 4.29634e-16
    endloop
  endfacet
  facet normal 0.938615 0.123576 -0.322074
    outer loop
      vertex -1.53264 -0.0126871 10
      vertex -4.96569 -1.22465e-15 0
      vertex -1.53431 0 10
    endloop
  endfacet
  facet normal 0.938615 0.123571 -0.322074
    outer loop
      vertex -4.96569 -1.22465e-15 0
      vertex -1.53264 -0.0126871 10
      vertex -4.79699 -1.28141 1.56927e-16
    endloop
  endfacet
  facet normal 0.938615 -0.123576 -0.322074
    outer loop
      vertex -4.96569 -1.22465e-15 0
      vertex -1.53264 0.0126871 10
      vertex -1.53431 0 10
    endloop
  endfacet
  facet normal 0.938615 -0.123571 -0.322074
    outer loop
      vertex -1.53264 0.0126871 10
      vertex -4.96569 -1.22465e-15 0
      vertex -4.79699 1.28141 -1.56927e-16
    endloop
  endfacet
  facet normal -0.874647 -0.3623 -0.322073
    outer loop
      vertex 4.79648 1.28521 -1.57393e-16
      vertex 1.33365 0.755334 10
      vertex 4.79502 1.28876 -1.57828e-16
    endloop
  endfacet
  facet normal -0.874651 -0.36229 -0.322074
    outer loop
      vertex 1.33365 0.755334 10
      vertex 4.79648 1.28521 -1.57393e-16
      vertex 1.48203 0.397109 10
    endloop
  endfacet
  facet normal -0.36229 -0.874651 -0.322074
    outer loop
      vertex 1.28521 4.79648 -5.874e-16
      vertex 0.755334 1.33365 10
      vertex 0.397109 1.48203 10
    endloop
  endfacet
  facet normal -0.3623 -0.874647 -0.322073
    outer loop
      vertex 0.755334 1.33365 10
      vertex 1.28521 4.79648 -5.874e-16
      vertex 1.28876 4.79502 -5.8722e-16
    endloop
  endfacet
  facet normal -0.123573 -0.938615 -0.322074
    outer loop
      vertex 1.28141 4.79699 -5.87461e-16
      vertex 0.397109 1.48203 10
      vertex 0.0126871 1.53264 10
    endloop
  endfacet
  facet normal -0.123588 -0.938613 -0.322075
    outer loop
      vertex 0.397109 1.48203 10
      vertex 1.28141 4.79699 -5.87461e-16
      vertex 1.28521 4.79648 -5.874e-16
    endloop
  endfacet
  facet normal 0.874647 -0.3623 -0.322073
    outer loop
      vertex -1.33365 0.755333 10
      vertex -4.79648 1.28521 -1.57393e-16
      vertex -4.79502 1.28876 -1.57828e-16
    endloop
  endfacet
  facet normal 0.874651 -0.362291 -0.322074
    outer loop
      vertex -4.79648 1.28521 -1.57393e-16
      vertex -1.33365 0.755333 10
      vertex -1.48203 0.397109 10
    endloop
  endfacet
  facet normal 0.75108 -0.576323 -0.322074
    outer loop
      vertex -1.32096 0.777308 10
      vertex -4.30041 2.48284 -3.0406e-16
      vertex -3.51361 3.50822 -4.29634e-16
    endloop
  endfacet
  facet normal 0.751079 -0.576324 -0.322074
    outer loop
      vertex -4.30041 2.48284 -3.0406e-16
      vertex -1.32096 0.777308 10
      vertex -1.32875 0.767156 10
    endloop
  endfacet
  facet normal 0.751074 -0.576329 -0.322074
    outer loop
      vertex -1.08492 1.08492 10
      vertex -3.51361 3.50822 -4.29634e-16
      vertex -3.51127 3.51127 -4.30007e-16
    endloop
  endfacet
  facet normal 0.751079 -0.576324 -0.322074
    outer loop
      vertex -3.51361 3.50822 -4.29634e-16
      vertex -1.08492 1.08492 10
      vertex -1.32096 0.777308 10
    endloop
  endfacet
  facet normal 0.123588 -0.938613 -0.322075
    outer loop
      vertex -1.28141 4.79699 -5.87461e-16
      vertex -0.397109 1.48203 10
      vertex -1.28521 4.79648 -5.874e-16
    endloop
  endfacet
  facet normal 0.123573 -0.938615 -0.322074
    outer loop
      vertex -0.397109 1.48203 10
      vertex -1.28141 4.79699 -5.87461e-16
      vertex -0.0126871 1.53264 10
    endloop
  endfacet
  facet normal 0.123571 -0.938615 -0.322074
    outer loop
      vertex 0 4.96569 -6.08121e-16
      vertex -0.0126871 1.53264 10
      vertex -1.28141 4.79699 -5.87461e-16
    endloop
  endfacet
  facet normal 0.123576 -0.938615 -0.322074
    outer loop
      vertex -0.0126871 1.53264 10
      vertex 0 4.96569 -6.08121e-16
      vertex 0 1.53431 10
    endloop
  endfacet
  facet normal -0.576324 0.751079 -0.322074
    outer loop
      vertex 0.777309 -1.32096 10
      vertex 2.48284 -4.30041 5.26648e-16
      vertex 0.767157 -1.32875 10
    endloop
  endfacet
  facet normal -0.576323 0.751079 -0.322074
    outer loop
      vertex 2.48284 -4.30041 5.26648e-16
      vertex 0.777309 -1.32096 10
      vertex 3.50822 -3.51361 4.30293e-16
    endloop
  endfacet
  facet normal 0.123576 0.938615 -0.322074
    outer loop
      vertex 0 -4.96569 6.08121e-16
      vertex -0.0126871 -1.53264 10
      vertex 0 -1.53431 10
    endloop
  endfacet
  facet normal 0.123571 0.938615 -0.322074
    outer loop
      vertex -0.0126871 -1.53264 10
      vertex 0 -4.96569 6.08121e-16
      vertex -1.28141 -4.79699 5.87461e-16
    endloop
  endfacet
  facet normal 0.576324 0.751079 -0.322074
    outer loop
      vertex -3.50822 -3.51361 4.30293e-16
      vertex -1.08492 -1.08492 10
      vertex -0.777308 -1.32096 10
    endloop
  endfacet
  facet normal 0.576329 0.751074 -0.322074
    outer loop
      vertex -1.08492 -1.08492 10
      vertex -3.50822 -3.51361 4.30293e-16
      vertex -3.51127 -3.51127 4.30007e-16
    endloop
  endfacet
  facet normal 0.874648 0.362296 -0.322074
    outer loop
      vertex -1.32875 -0.767156 10
      vertex -4.79502 -1.28876 1.57828e-16
      vertex -1.33365 -0.755333 10
    endloop
  endfacet
  facet normal 0.87465 0.362292 -0.322074
    outer loop
      vertex -4.79502 -1.28876 1.57828e-16
      vertex -1.32875 -0.767156 10
      vertex -4.30041 -2.48284 3.0406e-16
    endloop
  endfacet
  facet normal 0.938615 0.123573 -0.322074
    outer loop
      vertex -1.48203 -0.397109 10
      vertex -4.79699 -1.28141 1.56927e-16
      vertex -1.53264 -0.0126871 10
    endloop
  endfacet
  facet normal 0.938613 0.123588 -0.322075
    outer loop
      vertex -4.79699 -1.28141 1.56927e-16
      vertex -1.48203 -0.397109 10
      vertex -4.79648 -1.28521 1.57393e-16
    endloop
  endfacet
  facet normal 0.576329 -0.751074 -0.322074
    outer loop
      vertex -3.50822 3.51361 -4.30293e-16
      vertex -1.08492 1.08492 10
      vertex -3.51127 3.51127 -4.30007e-16
    endloop
  endfacet
  facet normal 0.576325 -0.751078 -0.322074
    outer loop
      vertex -1.08492 1.08492 10
      vertex -3.50822 3.51361 -4.30293e-16
      vertex -0.777309 1.32096 10
    endloop
  endfacet
  facet normal 0.3623 -0.874647 -0.322073
    outer loop
      vertex -1.28521 4.79648 -5.874e-16
      vertex -0.755334 1.33365 10
      vertex -1.28876 4.79502 -5.8722e-16
    endloop
  endfacet
  facet normal 0.36229 -0.874651 -0.322074
    outer loop
      vertex -0.755334 1.33365 10
      vertex -1.28521 4.79648 -5.874e-16
      vertex -0.397109 1.48203 10
    endloop
  endfacet
  facet normal -0.362296 0.874648 -0.322074
    outer loop
      vertex 0.767157 -1.32875 10
      vertex 1.28876 -4.79502 5.8722e-16
      vertex 0.755334 -1.33365 10
    endloop
  endfacet
  facet normal -0.362292 0.87465 -0.322074
    outer loop
      vertex 1.28876 -4.79502 5.8722e-16
      vertex 0.767157 -1.32875 10
      vertex 2.48284 -4.30041 5.26648e-16
    endloop
  endfacet
  facet normal -0.576325 0.751078 -0.322074
    outer loop
      vertex 1.08492 -1.08492 10
      vertex 3.50822 -3.51361 4.30293e-16
      vertex 0.777309 -1.32096 10
    endloop
  endfacet
  facet normal -0.576329 0.751074 -0.322074
    outer loop
      vertex 3.50822 -3.51361 4.30293e-16
      vertex 1.08492 -1.08492 10
      vertex 3.51127 -3.51127 4.30007e-16
    endloop
  endfacet
  facet normal 0.576324 0.751079 -0.322074
    outer loop
      vertex -2.48284 -4.30041 5.26648e-16
      vertex -0.777308 -1.32096 10
      vertex -0.767156 -1.32875 10
    endloop
  endfacet
  facet normal 0.576323 0.75108 -0.322074
    outer loop
      vertex -0.777308 -1.32096 10
      vertex -2.48284 -4.30041 5.26648e-16
      vertex -3.50822 -3.51361 4.30293e-16
    endloop
  endfacet
  facet normal 0.362296 0.874648 -0.322074
    outer loop
      vertex -1.28876 -4.79502 5.8722e-16
      vertex -0.767156 -1.32875 10
      vertex -0.755333 -1.33365 10
    endloop
  endfacet
  facet normal 0.362292 0.87465 -0.322074
    outer loop
      vertex -0.767156 -1.32875 10
      vertex -1.28876 -4.79502 5.8722e-16
      vertex -2.48284 -4.30041 5.26648e-16
    endloop
  endfacet
  facet normal 0.874651 0.362291 -0.322074
    outer loop
      vertex -1.33365 -0.755333 10
      vertex -4.79648 -1.28521 1.57393e-16
      vertex -1.48203 -0.397109 10
    endloop
  endfacet
  facet normal 0.874647 0.3623 -0.322073
    outer loop
      vertex -4.79648 -1.28521 1.57393e-16
      vertex -1.33365 -0.755333 10
      vertex -4.79502 -1.28876 1.57828e-16
    endloop
  endfacet
  facet normal -0.36229 0.874651 -0.322074
    outer loop
      vertex 0.755334 -1.33365 10
      vertex 1.28521 -4.79648 5.874e-16
      vertex 0.397109 -1.48203 10
    endloop
  endfacet
  facet normal -0.3623 0.874647 -0.322073
    outer loop
      vertex 1.28521 -4.79648 5.874e-16
      vertex 0.755334 -1.33365 10
      vertex 1.28876 -4.79502 5.8722e-16
    endloop
  endfacet
  facet normal -0.123573 0.938615 -0.322074
    outer loop
      vertex 0.397109 -1.48203 10
      vertex 1.28141 -4.79699 5.87461e-16
      vertex 0.0126871 -1.53264 10
    endloop
  endfacet
  facet normal -0.123588 0.938613 -0.322075
    outer loop
      vertex 1.28141 -4.79699 5.87461e-16
      vertex 0.397109 -1.48203 10
      vertex 1.28521 -4.79648 5.874e-16
    endloop
  endfacet
  facet normal -0.874648 0.362296 -0.322074
    outer loop
      vertex 4.79502 -1.28876 1.57828e-16
      vertex 1.32875 -0.767156 10
      vertex 1.33365 -0.755333 10
    endloop
  endfacet
  facet normal -0.87465 0.362292 -0.322074
    outer loop
      vertex 1.32875 -0.767156 10
      vertex 4.79502 -1.28876 1.57828e-16
      vertex 4.30041 -2.48284 3.0406e-16
    endloop
  endfacet
  facet normal -0.874651 0.362291 -0.322074
    outer loop
      vertex 4.79648 -1.28521 1.57393e-16
      vertex 1.33365 -0.755333 10
      vertex 1.48203 -0.397109 10
    endloop
  endfacet
  facet normal -0.874647 0.3623 -0.322073
    outer loop
      vertex 1.33365 -0.755333 10
      vertex 4.79648 -1.28521 1.57393e-16
      vertex 4.79502 -1.28876 1.57828e-16
    endloop
  endfacet
  facet normal 0.362291 0.874651 -0.322074
    outer loop
      vertex -1.28521 -4.79648 5.874e-16
      vertex -0.755333 -1.33365 10
      vertex -0.397109 -1.48203 10
    endloop
  endfacet
  facet normal 0.3623 0.874647 -0.322073
    outer loop
      vertex -0.755333 -1.33365 10
      vertex -1.28521 -4.79648 5.874e-16
      vertex -1.28876 -4.79502 5.8722e-16
    endloop
  endfacet
  facet normal 0.751079 0.576324 -0.322074
    outer loop
      vertex -1.08492 -1.08492 10
      vertex -3.51361 -3.50822 4.29634e-16
      vertex -1.32096 -0.777308 10
    endloop
  endfacet
  facet normal 0.751074 0.576329 -0.322074
    outer loop
      vertex -3.51361 -3.50822 4.29634e-16
      vertex -1.08492 -1.08492 10
      vertex -3.51127 -3.51127 4.30007e-16
    endloop
  endfacet
  facet normal -0.751079 0.576324 -0.322074
    outer loop
      vertex 3.51361 -3.50822 4.29634e-16
      vertex 1.08492 -1.08492 10
      vertex 1.32096 -0.777308 10
    endloop
  endfacet
  facet normal -0.751074 0.576329 -0.322074
    outer loop
      vertex 1.08492 -1.08492 10
      vertex 3.51361 -3.50822 4.29634e-16
      vertex 3.51127 -3.51127 4.30007e-16
    endloop
  endfacet
  facet normal -0.751079 0.576324 -0.322074
    outer loop
      vertex 4.30041 -2.48284 3.0406e-16
      vertex 1.32096 -0.777308 10
      vertex 1.32875 -0.767156 10
    endloop
  endfacet
  facet normal -0.75108 0.576323 -0.322074
    outer loop
      vertex 1.32096 -0.777308 10
      vertex 4.30041 -2.48284 3.0406e-16
      vertex 3.51361 -3.50822 4.29634e-16
    endloop
  endfacet
endsolid OpenSCAD_Model
