solid OpenSCAD_Model
  facet normal 0.866025 0.5 0
    outer loop
      vertex 5.7735 0 8
      vertex 2.88675 5 0
      vertex 2.88675 5 8
    endloop
  endfacet
  facet normal 0.866025 0.5 0
    outer loop
      vertex 2.88675 5 0
      vertex 5.7735 0 8
      vertex 5.7735 0 0
    endloop
  endfacet
  facet normal -0.866025 0.5 0
    outer loop
      vertex -5.7735 0 0
      vertex -2.88675 5 8
      vertex -2.88675 5 0
    endloop
  endfacet
  facet normal -0.866025 0.5 0
    outer loop
      vertex -2.88675 5 8
      vertex -5.7735 0 0
      vertex -5.7735 0 8
    endloop
  endfacet
  facet normal 0 1 -0
    outer loop
      vertex 2.88675 5 0
      vertex -2.88675 5 8
      vertex 2.88675 5 8
    endloop
  endfacet
  facet normal 0 1 0
    outer loop
      vertex -2.88675 5 8
      vertex 2.88675 5 0
      vertex -2.88675 5 0
    endloop
  endfacet
  facet normal -0 0 -1
    outer loop
      vertex 5.7735 0 0
      vertex 2.98357 -0.313585 0
      vertex 3 0 0
    endloop
  endfacet
  facet normal 0 0 -1
    outer loop
      vertex 5.7735 0 0
      vertex 2.93444 -0.623734 0
      vertex 2.98357 -0.313585 0
    endloop
  endfacet
  facet normal 0 0 -1
    outer loop
      vertex 2.59808 -1.5 0
      vertex 5.7735 0 0
      vertex 2.88675 -5 0
    endloop
  endfacet
  facet normal 0 0 -1
    outer loop
      vertex 5.7735 0 0
      vertex 2.85317 -0.927051 0
      vertex 2.93444 -0.623734 0
    endloop
  endfacet
  facet normal 0 0 -1
    outer loop
      vertex 5.7735 0 0
      vertex 2.74064 -1.22021 0
      vertex 2.85317 -0.927051 0
    endloop
  endfacet
  facet normal 0 0 -1
    outer loop
      vertex 5.7735 0 0
      vertex 2.59808 -1.5 0
      vertex 2.74064 -1.22021 0
    endloop
  endfacet
  facet normal 0 0 -1
    outer loop
      vertex 2.88675 -5 0
      vertex 2.42705 -1.76336 0
      vertex 2.59808 -1.5 0
    endloop
  endfacet
  facet normal 0 0 -1
    outer loop
      vertex 2.88675 -5 0
      vertex 2.22943 -2.00739 0
      vertex 2.42705 -1.76336 0
    endloop
  endfacet
  facet normal 0 0 -1
    outer loop
      vertex 2.88675 -5 0
      vertex 2.00739 -2.22943 0
      vertex 2.22943 -2.00739 0
    endloop
  endfacet
  facet normal 0 0 -1
    outer loop
      vertex 2.88675 -5 0
      vertex 1.76336 -2.42705 0
      vertex 2.00739 -2.22943 0
    endloop
  endfacet
  facet normal 0 0 -1
    outer loop
      vertex 2.88675 -5 0
      vertex 1.5 -2.59808 0
      vertex 1.76336 -2.42705 0
    endloop
  endfacet
  facet normal 0 0 -1
    outer loop
      vertex 2.88675 -5 0
      vertex 1.22021 -2.74064 0
      vertex 1.5 -2.59808 0
    endloop
  endfacet
  facet normal 0 0 -1
    outer loop
      vertex 2.88675 -5 0
      vertex 0.927051 -2.85317 0
      vertex 1.22021 -2.74064 0
    endloop
  endfacet
  facet normal 0 0 -1
    outer loop
      vertex 2.88675 -5 0
      vertex 0.623734 -2.93444 0
      vertex 0.927051 -2.85317 0
    endloop
  endfacet
  facet normal 0 0 -1
    outer loop
      vertex 2.88675 -5 0
      vertex 0.313585 -2.98357 0
      vertex 0.623734 -2.93444 0
    endloop
  endfacet
  facet normal 0 0 -1
    outer loop
      vertex 2.88675 -5 0
      vertex 0 -3 0
      vertex 0.313585 -2.98357 0
    endloop
  endfacet
  facet normal 0 0 -1
    outer loop
      vertex -2.88675 -5 0
      vertex 0 -3 0
      vertex 2.88675 -5 0
    endloop
  endfacet
  facet normal -0 0 -1
    outer loop
      vertex 0 -3 0
      vertex -2.88675 -5 0
      vertex -0.313585 -2.98357 0
    endloop
  endfacet
  facet normal -0 0 -1
    outer loop
      vertex -0.313585 -2.98357 0
      vertex -2.88675 -5 0
      vertex -0.623734 -2.93444 0
    endloop
  endfacet
  facet normal -0 0 -1
    outer loop
      vertex -0.623734 -2.93444 0
      vertex -2.88675 -5 0
      vertex -0.927051 -2.85317 0
    endloop
  endfacet
  facet normal -0 0 -1
    outer loop
      vertex -0.927051 -2.85317 0
      vertex -2.88675 -5 0
      vertex -1.22021 -2.74064 0
    endloop
  endfacet
  facet normal -0 0 -1
    outer loop
      vertex -1.22021 -2.74064 0
      vertex -2.88675 -5 0
      vertex -1.5 -2.59808 0
    endloop
  endfacet
  facet normal 0 0 -1
    outer loop
      vertex -2.88675 -5 0
      vertex -1.76336 -2.42705 0
      vertex -1.5 -2.59808 0
    endloop
  endfacet
  facet normal 0 0 -1
    outer loop
      vertex -2.88675 -5 0
      vertex -2.00739 -2.22943 0
      vertex -1.76336 -2.42705 0
    endloop
  endfacet
  facet normal 0 0 -1
    outer loop
      vertex -2.88675 -5 0
      vertex -2.22943 -2.00739 0
      vertex -2.00739 -2.22943 0
    endloop
  endfacet
  facet normal 0 0 -1
    outer loop
      vertex -2.88675 -5 0
      vertex -2.42705 -1.76336 0
      vertex -2.22943 -2.00739 0
    endloop
  endfacet
  facet normal 0 0 -1
    outer loop
      vertex -2.88675 -5 0
      vertex -2.59808 -1.5 0
      vertex -2.42705 -1.76336 0
    endloop
  endfacet
  facet normal 0 0 -1
    outer loop
      vertex -5.7735 0 0
      vertex -2.59808 -1.5 0
      vertex -2.88675 -5 0
    endloop
  endfacet
  facet normal 0 0 -1
    outer loop
      vertex -2.59808 -1.5 0
      vertex -5.7735 0 0
      vertex -2.74064 -1.22021 0
    endloop
  endfacet
  facet normal 0 0 -1
    outer loop
      vertex -2.74064 -1.22021 0
      vertex -5.7735 0 0
      vertex -2.85317 -0.927051 0
    endloop
  endfacet
  facet normal 0 0 -1
    outer loop
      vertex -2.85317 -0.927051 0
      vertex -5.7735 0 0
      vertex -2.93444 -0.623734 0
    endloop
  endfacet
  facet normal 0 0 -1
    outer loop
      vertex -2.93444 -0.623734 0
      vertex -5.7735 0 0
      vertex -2.98357 -0.313585 0
    endloop
  endfacet
  facet normal 0 0 -1
    outer loop
      vertex -2.98357 -0.313585 0
      vertex -5.7735 0 0
      vertex -3 0 0
    endloop
  endfacet
  facet normal 0 0 -1
    outer loop
      vertex 2.98357 0.313585 0
      vertex 5.7735 0 0
      vertex 3 0 0
    endloop
  endfacet
  facet normal 0 0 -1
    outer loop
      vertex 2.93444 0.623734 0
      vertex 5.7735 0 0
      vertex 2.98357 0.313585 0
    endloop
  endfacet
  facet normal 0 0 -1
    outer loop
      vertex 2.85317 0.927051 0
      vertex 5.7735 0 0
      vertex 2.93444 0.623734 0
    endloop
  endfacet
  facet normal 0 0 -1
    outer loop
      vertex 2.74064 1.22021 0
      vertex 5.7735 0 0
      vertex 2.85317 0.927051 0
    endloop
  endfacet
  facet normal 0 0 -1
    outer loop
      vertex 2.59808 1.5 0
      vertex 5.7735 0 0
      vertex 2.74064 1.22021 0
    endloop
  endfacet
  facet normal 0 0 -1
    outer loop
      vertex 5.7735 0 0
      vertex 2.59808 1.5 0
      vertex 2.88675 5 0
    endloop
  endfacet
  facet normal 0 0 -1
    outer loop
      vertex 2.42705 1.76336 0
      vertex 2.88675 5 0
      vertex 2.59808 1.5 0
    endloop
  endfacet
  facet normal 0 0 -1
    outer loop
      vertex 2.22943 2.00739 0
      vertex 2.88675 5 0
      vertex 2.42705 1.76336 0
    endloop
  endfacet
  facet normal 0 0 -1
    outer loop
      vertex 2.00739 2.22943 0
      vertex 2.88675 5 0
      vertex 2.22943 2.00739 0
    endloop
  endfacet
  facet normal 0 0 -1
    outer loop
      vertex 1.76336 2.42705 0
      vertex 2.88675 5 0
      vertex 2.00739 2.22943 0
    endloop
  endfacet
  facet normal 0 0 -1
    outer loop
      vertex 1.5 2.59808 0
      vertex 2.88675 5 0
      vertex 1.76336 2.42705 0
    endloop
  endfacet
  facet normal 0 0 -1
    outer loop
      vertex 1.22021 2.74064 0
      vertex 2.88675 5 0
      vertex 1.5 2.59808 0
    endloop
  endfacet
  facet normal 0 0 -1
    outer loop
      vertex 0.927051 2.85317 0
      vertex 2.88675 5 0
      vertex 1.22021 2.74064 0
    endloop
  endfacet
  facet normal 0 0 -1
    outer loop
      vertex 0.623734 2.93444 0
      vertex 2.88675 5 0
      vertex 0.927051 2.85317 0
    endloop
  endfacet
  facet normal 0 0 -1
    outer loop
      vertex 0.313585 2.98357 0
      vertex 2.88675 5 0
      vertex 0.623734 2.93444 0
    endloop
  endfacet
  facet normal 0 0 -1
    outer loop
      vertex 0 3 0
      vertex 2.88675 5 0
      vertex 0.313585 2.98357 0
    endloop
  endfacet
  facet normal 0 0 -1
    outer loop
      vertex -2.88675 5 0
      vertex 0 3 0
      vertex -0.313585 2.98357 0
    endloop
  endfacet
  facet normal 0 0 -1
    outer loop
      vertex -2.88675 5 0
      vertex -0.313585 2.98357 0
      vertex -0.623734 2.93444 0
    endloop
  endfacet
  facet normal 0 0 -1
    outer loop
      vertex -2.88675 5 0
      vertex -0.623734 2.93444 0
      vertex -0.927051 2.85317 0
    endloop
  endfacet
  facet normal 0 0 -1
    outer loop
      vertex -2.88675 5 0
      vertex -0.927051 2.85317 0
      vertex -1.22021 2.74064 0
    endloop
  endfacet
  facet normal 0 0 -1
    outer loop
      vertex -2.88675 5 0
      vertex -1.22021 2.74064 0
      vertex -1.5 2.59808 0
    endloop
  endfacet
  facet normal 0 0 -1
    outer loop
      vertex 0 3 0
      vertex -2.88675 5 0
      vertex 2.88675 5 0
    endloop
  endfacet
  facet normal 0 0 -1
    outer loop
      vertex -1.76336 2.42705 0
      vertex -2.88675 5 0
      vertex -1.5 2.59808 0
    endloop
  endfacet
  facet normal 0 0 -1
    outer loop
      vertex -2.00739 2.22943 0
      vertex -2.88675 5 0
      vertex -1.76336 2.42705 0
    endloop
  endfacet
  facet normal 0 0 -1
    outer loop
      vertex -2.22943 2.00739 0
      vertex -2.88675 5 0
      vertex -2.00739 2.22943 0
    endloop
  endfacet
  facet normal 0 0 -1
    outer loop
      vertex -2.42705 1.76336 0
      vertex -2.88675 5 0
      vertex -2.22943 2.00739 0
    endloop
  endfacet
  facet normal 0 0 -1
    outer loop
      vertex -2.59808 1.5 0
      vertex -2.88675 5 0
      vertex -2.42705 1.76336 0
    endloop
  endfacet
  facet normal 0 0 -1
    outer loop
      vertex -5.7735 0 0
      vertex -2.59808 1.5 0
      vertex -2.74064 1.22021 0
    endloop
  endfacet
  facet normal 0 0 -1
    outer loop
      vertex -5.7735 0 0
      vertex -2.74064 1.22021 0
      vertex -2.85317 0.927051 0
    endloop
  endfacet
  facet normal 0 0 -1
    outer loop
      vertex -5.7735 0 0
      vertex -2.85317 0.927051 0
      vertex -2.93444 0.623734 0
    endloop
  endfacet
  facet normal 0 0 -1
    outer loop
      vertex -5.7735 0 0
      vertex -2.93444 0.623734 0
      vertex -2.98357 0.313585 0
    endloop
  endfacet
  facet normal 0 0 -1
    outer loop
      vertex -5.7735 0 0
      vertex -2.98357 0.313585 0
      vertex -3 0 0
    endloop
  endfacet
  facet normal -0 0 -1
    outer loop
      vertex -2.59808 1.5 0
      vertex -5.7735 0 0
      vertex -2.88675 5 0
    endloop
  endfacet
  facet normal 0.866025 -0.5 0
    outer loop
      vertex 2.88675 -5 8
      vertex 5.7735 0 0
      vertex 5.7735 0 8
    endloop
  endfacet
  facet normal 0.866025 -0.5 0
    outer loop
      vertex 5.7735 0 0
      vertex 2.88675 -5 8
      vertex 2.88675 -5 0
    endloop
  endfacet
  facet normal -0.866025 -0.5 0
    outer loop
      vertex -2.88675 -5 0
      vertex -5.7735 0 8
      vertex -5.7735 0 0
    endloop
  endfacet
  facet normal -0.866025 -0.5 0
    outer loop
      vertex -5.7735 0 8
      vertex -2.88675 -5 0
      vertex -2.88675 -5 8
    endloop
  endfacet
  facet normal -1.65181e-07 -1 0
    outer loop
      vertex -2.88675 -5 0
      vertex 2.88675 -5 8
      vertex -2.88675 -5 8
    endloop
  endfacet
  facet normal -1.65181e-07 -1 -0
    outer loop
      vertex 2.88675 -5 8
      vertex -2.88675 -5 0
      vertex 2.88675 -5 0
    endloop
  endfacet
  facet normal 0 0 1
    outer loop
      vertex 5.7735 0 8
      vertex 2.98357 0.313585 8
      vertex 3 0 8
    endloop
  endfacet
  facet normal 0 0 1
    outer loop
      vertex 5.7735 0 8
      vertex 2.93444 0.623734 8
      vertex 2.98357 0.313585 8
    endloop
  endfacet
  facet normal -0 0 1
    outer loop
      vertex 2.59808 1.5 8
      vertex 5.7735 0 8
      vertex 2.88675 5 8
    endloop
  endfacet
  facet normal 0 0 1
    outer loop
      vertex 5.7735 0 8
      vertex 2.85317 0.927051 8
      vertex 2.93444 0.623734 8
    endloop
  endfacet
  facet normal 0 0 1
    outer loop
      vertex 5.7735 0 8
      vertex 2.74064 1.22021 8
      vertex 2.85317 0.927051 8
    endloop
  endfacet
  facet normal 0 0 1
    outer loop
      vertex 5.7735 0 8
      vertex 2.59808 1.5 8
      vertex 2.74064 1.22021 8
    endloop
  endfacet
  facet normal 0 0 1
    outer loop
      vertex 2.88675 5 8
      vertex 2.42705 1.76336 8
      vertex 2.59808 1.5 8
    endloop
  endfacet
  facet normal 0 0 1
    outer loop
      vertex 2.88675 5 8
      vertex 2.22943 2.00739 8
      vertex 2.42705 1.76336 8
    endloop
  endfacet
  facet normal 0 0 1
    outer loop
      vertex 2.88675 5 8
      vertex 2.00739 2.22943 8
      vertex 2.22943 2.00739 8
    endloop
  endfacet
  facet normal 0 0 1
    outer loop
      vertex 2.88675 5 8
      vertex 1.76336 2.42705 8
      vertex 2.00739 2.22943 8
    endloop
  endfacet
  facet normal 0 0 1
    outer loop
      vertex 2.88675 5 8
      vertex 1.5 2.59808 8
      vertex 1.76336 2.42705 8
    endloop
  endfacet
  facet normal 0 0 1
    outer loop
      vertex 2.88675 5 8
      vertex 1.22021 2.74064 8
      vertex 1.5 2.59808 8
    endloop
  endfacet
  facet normal 0 0 1
    outer loop
      vertex 2.88675 5 8
      vertex 0.927051 2.85317 8
      vertex 1.22021 2.74064 8
    endloop
  endfacet
  facet normal 0 0 1
    outer loop
      vertex 2.88675 5 8
      vertex 0.623734 2.93444 8
      vertex 0.927051 2.85317 8
    endloop
  endfacet
  facet normal 0 0 1
    outer loop
      vertex 2.88675 5 8
      vertex 0.313585 2.98357 8
      vertex 0.623734 2.93444 8
    endloop
  endfacet
  facet normal 0 0 1
    outer loop
      vertex 2.88675 5 8
      vertex 0 3 8
      vertex 0.313585 2.98357 8
    endloop
  endfacet
  facet normal -0 0 1
    outer loop
      vertex -2.88675 5 8
      vertex 0 3 8
      vertex 2.88675 5 8
    endloop
  endfacet
  facet normal 0 0 1
    outer loop
      vertex 0 3 8
      vertex -2.88675 5 8
      vertex -0.313585 2.98357 8
    endloop
  endfacet
  facet normal 0 0 1
    outer loop
      vertex -0.313585 2.98357 8
      vertex -2.88675 5 8
      vertex -0.623734 2.93444 8
    endloop
  endfacet
  facet normal 0 0 1
    outer loop
      vertex -0.623734 2.93444 8
      vertex -2.88675 5 8
      vertex -0.927051 2.85317 8
    endloop
  endfacet
  facet normal 0 0 1
    outer loop
      vertex -0.927051 2.85317 8
      vertex -2.88675 5 8
      vertex -1.22021 2.74064 8
    endloop
  endfacet
  facet normal 0 0 1
    outer loop
      vertex -1.22021 2.74064 8
      vertex -2.88675 5 8
      vertex -1.5 2.59808 8
    endloop
  endfacet
  facet normal 0 0 1
    outer loop
      vertex -2.88675 5 8
      vertex -1.76336 2.42705 8
      vertex -1.5 2.59808 8
    endloop
  endfacet
  facet normal 0 0 1
    outer loop
      vertex -2.88675 5 8
      vertex -2.00739 2.22943 8
      vertex -1.76336 2.42705 8
    endloop
  endfacet
  facet normal 0 0 1
    outer loop
      vertex -2.88675 5 8
      vertex -2.22943 2.00739 8
      vertex -2.00739 2.22943 8
    endloop
  endfacet
  facet normal 0 0 1
    outer loop
      vertex -2.88675 5 8
      vertex -2.42705 1.76336 8
      vertex -2.22943 2.00739 8
    endloop
  endfacet
  facet normal 0 0 1
    outer loop
      vertex -2.88675 5 8
      vertex -2.59808 1.5 8
      vertex -2.42705 1.76336 8
    endloop
  endfacet
  facet normal 0 0 1
    outer loop
      vertex -5.7735 0 8
      vertex -2.59808 1.5 8
      vertex -2.88675 5 8
    endloop
  endfacet
  facet normal 0 0 1
    outer loop
      vertex -2.59808 1.5 8
      vertex -5.7735 0 8
      vertex -2.74064 1.22021 8
    endloop
  endfacet
  facet normal 0 0 1
    outer loop
      vertex -2.74064 1.22021 8
      vertex -5.7735 0 8
      vertex -2.85317 0.927051 8
    endloop
  endfacet
  facet normal 0 0 1
    outer loop
      vertex -2.85317 0.927051 8
      vertex -5.7735 0 8
      vertex -2.93444 0.623734 8
    endloop
  endfacet
  facet normal 0 0 1
    outer loop
      vertex -2.93444 0.623734 8
      vertex -5.7735 0 8
      vertex -2.98357 0.313585 8
    endloop
  endfacet
  facet normal 0 0 1
    outer loop
      vertex -2.98357 0.313585 8
      vertex -5.7735 0 8
      vertex -3 0 8
    endloop
  endfacet
  facet normal 0 0 1
    outer loop
      vertex 2.98357 -0.313585 8
      vertex 5.7735 0 8
      vertex 3 0 8
    endloop
  endfacet
  facet normal 0 0 1
    outer loop
      vertex 2.93444 -0.623734 8
      vertex 5.7735 0 8
      vertex 2.98357 -0.313585 8
    endloop
  endfacet
  facet normal 0 0 1
    outer loop
      vertex 2.85317 -0.927051 8
      vertex 5.7735 0 8
      vertex 2.93444 -0.623734 8
    endloop
  endfacet
  facet normal 0 0 1
    outer loop
      vertex 2.74064 -1.22021 8
      vertex 5.7735 0 8
      vertex 2.85317 -0.927051 8
    endloop
  endfacet
  facet normal 0 0 1
    outer loop
      vertex 2.59808 -1.5 8
      vertex 5.7735 0 8
      vertex 2.74064 -1.22021 8
    endloop
  endfacet
  facet normal 0 0 1
    outer loop
      vertex 5.7735 0 8
      vertex 2.59808 -1.5 8
      vertex 2.88675 -5 8
    endloop
  endfacet
  facet normal -0 0 1
    outer loop
      vertex 2.42705 -1.76336 8
      vertex 2.88675 -5 8
      vertex 2.59808 -1.5 8
    endloop
  endfacet
  facet normal -0 0 1
    outer loop
      vertex 2.22943 -2.00739 8
      vertex 2.88675 -5 8
      vertex 2.42705 -1.76336 8
    endloop
  endfacet
  facet normal -0 0 1
    outer loop
      vertex 2.00739 -2.22943 8
      vertex 2.88675 -5 8
      vertex 2.22943 -2.00739 8
    endloop
  endfacet
  facet normal -0 0 1
    outer loop
      vertex 1.76336 -2.42705 8
      vertex 2.88675 -5 8
      vertex 2.00739 -2.22943 8
    endloop
  endfacet
  facet normal -0 0 1
    outer loop
      vertex 1.5 -2.59808 8
      vertex 2.88675 -5 8
      vertex 1.76336 -2.42705 8
    endloop
  endfacet
  facet normal -0 0 1
    outer loop
      vertex 1.22021 -2.74064 8
      vertex 2.88675 -5 8
      vertex 1.5 -2.59808 8
    endloop
  endfacet
  facet normal -0 0 1
    outer loop
      vertex 0.927051 -2.85317 8
      vertex 2.88675 -5 8
      vertex 1.22021 -2.74064 8
    endloop
  endfacet
  facet normal -0 0 1
    outer loop
      vertex 0.623734 -2.93444 8
      vertex 2.88675 -5 8
      vertex 0.927051 -2.85317 8
    endloop
  endfacet
  facet normal -0 0 1
    outer loop
      vertex 0.313585 -2.98357 8
      vertex 2.88675 -5 8
      vertex 0.623734 -2.93444 8
    endloop
  endfacet
  facet normal -0 0 1
    outer loop
      vertex 0 -3 8
      vertex 2.88675 -5 8
      vertex 0.313585 -2.98357 8
    endloop
  endfacet
  facet normal 0 0 1
    outer loop
      vertex -2.88675 -5 8
      vertex 0 -3 8
      vertex -0.313585 -2.98357 8
    endloop
  endfacet
  facet normal 0 0 1
    outer loop
      vertex -2.88675 -5 8
      vertex -0.313585 -2.98357 8
      vertex -0.623734 -2.93444 8
    endloop
  endfacet
  facet normal 0 0 1
    outer loop
      vertex -2.88675 -5 8
      vertex -0.623734 -2.93444 8
      vertex -0.927051 -2.85317 8
    endloop
  endfacet
  facet normal 0 0 1
    outer loop
      vertex -2.88675 -5 8
      vertex -0.927051 -2.85317 8
      vertex -1.22021 -2.74064 8
    endloop
  endfacet
  facet normal 0 0 1
    outer loop
      vertex -2.88675 -5 8
      vertex -1.22021 -2.74064 8
      vertex -1.5 -2.59808 8
    endloop
  endfacet
  facet normal 0 0 1
    outer loop
      vertex 0 -3 8
      vertex -2.88675 -5 8
      vertex 2.88675 -5 8
    endloop
  endfacet
  facet normal 0 0 1
    outer loop
      vertex -1.76336 -2.42705 8
      vertex -2.88675 -5 8
      vertex -1.5 -2.59808 8
    endloop
  endfacet
  facet normal 0 0 1
    outer loop
      vertex -2.00739 -2.22943 8
      vertex -2.88675 -5 8
      vertex -1.76336 -2.42705 8
    endloop
  endfacet
  facet normal 0 0 1
    outer loop
      vertex -2.22943 -2.00739 8
      vertex -2.88675 -5 8
      vertex -2.00739 -2.22943 8
    endloop
  endfacet
  facet normal 0 0 1
    outer loop
      vertex -2.42705 -1.76336 8
      vertex -2.88675 -5 8
      vertex -2.22943 -2.00739 8
    endloop
  endfacet
  facet normal 0 0 1
    outer loop
      vertex -2.59808 -1.5 8
      vertex -2.88675 -5 8
      vertex -2.42705 -1.76336 8
    endloop
  endfacet
  facet normal 0 0 1
    outer loop
      vertex -5.7735 0 8
      vertex -2.59808 -1.5 8
      vertex -2.74064 -1.22021 8
    endloop
  endfacet
  facet normal 0 0 1
    outer loop
      vertex -5.7735 0 8
      vertex -2.74064 -1.22021 8
      vertex -2.85317 -0.927051 8
    endloop
  endfacet
  facet normal 0 0 1
    outer loop
      vertex -5.7735 0 8
      vertex -2.85317 -0.927051 8
      vertex -2.93444 -0.623734 8
    endloop
  endfacet
  facet normal 0 0 1
    outer loop
      vertex -5.7735 0 8
      vertex -2.93444 -0.623734 8
      vertex -2.98357 -0.313585 8
    endloop
  endfacet
  facet normal -0 0 1
    outer loop
      vertex -5.7735 0 8
      vertex -2.98357 -0.313585 8
      vertex -3 0 8
    endloop
  endfacet
  facet normal 0 0 1
    outer loop
      vertex -2.59808 -1.5 8
      vertex -5.7735 0 8
      vertex -2.88675 -5 8
    endloop
  endfacet
  facet normal -0.965926 -0.258818 0
    outer loop
      vertex 2.93444 0.623734 0
      vertex 2.85317 0.927051 8
      vertex 2.85317 0.927051 0
    endloop
  endfacet
  facet normal -0.965926 -0.258818 0
    outer loop
      vertex 2.85317 0.927051 8
      vertex 2.93444 0.623734 0
      vertex 2.93444 0.623734 8
    endloop
  endfacet
  facet normal -0.998629 -0.0523371 0
    outer loop
      vertex 3 0 0
      vertex 2.98357 0.313585 8
      vertex 2.98357 0.313585 0
    endloop
  endfacet
  facet normal -0.998629 -0.0523371 0
    outer loop
      vertex 2.98357 0.313585 8
      vertex 3 0 0
      vertex 3 0 8
    endloop
  endfacet
  facet normal 0.998629 -0.0523371 0
    outer loop
      vertex -3 0 8
      vertex -2.98357 0.313585 0
      vertex -2.98357 0.313585 8
    endloop
  endfacet
  facet normal 0.998629 -0.0523371 0
    outer loop
      vertex -2.98357 0.313585 0
      vertex -3 0 8
      vertex -3 0 0
    endloop
  endfacet
  facet normal -0.0523371 -0.998629 0
    outer loop
      vertex 0 3 0
      vertex 0.313585 2.98357 8
      vertex 0 3 8
    endloop
  endfacet
  facet normal -0.0523371 -0.998629 -0
    outer loop
      vertex 0.313585 2.98357 8
      vertex 0 3 0
      vertex 0.313585 2.98357 0
    endloop
  endfacet
  facet normal -0.707107 -0.707107 0
    outer loop
      vertex 2.22943 2.00739 0
      vertex 2.00739 2.22943 8
      vertex 2.00739 2.22943 0
    endloop
  endfacet
  facet normal -0.707107 -0.707107 0
    outer loop
      vertex 2.00739 2.22943 8
      vertex 2.22943 2.00739 0
      vertex 2.22943 2.00739 8
    endloop
  endfacet
  facet normal 0.629321 -0.777145 0
    outer loop
      vertex -2.00739 2.22943 0
      vertex -1.76336 2.42705 8
      vertex -2.00739 2.22943 8
    endloop
  endfacet
  facet normal 0.629321 -0.777145 0
    outer loop
      vertex -1.76336 2.42705 8
      vertex -2.00739 2.22943 0
      vertex -1.76336 2.42705 0
    endloop
  endfacet
  facet normal 0.258818 -0.965926 0
    outer loop
      vertex -0.927051 2.85317 0
      vertex -0.623734 2.93444 8
      vertex -0.927051 2.85317 8
    endloop
  endfacet
  facet normal 0.258818 -0.965926 0
    outer loop
      vertex -0.623734 2.93444 8
      vertex -0.927051 2.85317 0
      vertex -0.623734 2.93444 0
    endloop
  endfacet
  facet normal 0.838671 0.544638 0
    outer loop
      vertex -2.42705 -1.76336 8
      vertex -2.59808 -1.5 0
      vertex -2.59808 -1.5 8
    endloop
  endfacet
  facet normal 0.838671 0.544638 0
    outer loop
      vertex -2.59808 -1.5 0
      vertex -2.42705 -1.76336 8
      vertex -2.42705 -1.76336 0
    endloop
  endfacet
  facet normal -0.93358 -0.358369 0
    outer loop
      vertex 2.85317 0.927051 0
      vertex 2.74064 1.22021 8
      vertex 2.74064 1.22021 0
    endloop
  endfacet
  facet normal -0.93358 -0.358369 0
    outer loop
      vertex 2.74064 1.22021 8
      vertex 2.85317 0.927051 0
      vertex 2.85317 0.927051 8
    endloop
  endfacet
  facet normal -0.838671 -0.544638 0
    outer loop
      vertex 2.59808 1.5 0
      vertex 2.42705 1.76336 8
      vertex 2.42705 1.76336 0
    endloop
  endfacet
  facet normal -0.838671 -0.544638 0
    outer loop
      vertex 2.42705 1.76336 8
      vertex 2.59808 1.5 0
      vertex 2.59808 1.5 8
    endloop
  endfacet
  facet normal -0.358369 -0.93358 0
    outer loop
      vertex 0.927051 2.85317 0
      vertex 1.22021 2.74064 8
      vertex 0.927051 2.85317 8
    endloop
  endfacet
  facet normal -0.358369 -0.93358 -0
    outer loop
      vertex 1.22021 2.74064 8
      vertex 0.927051 2.85317 0
      vertex 1.22021 2.74064 0
    endloop
  endfacet
  facet normal -0.258818 -0.965926 0
    outer loop
      vertex 0.623734 2.93444 0
      vertex 0.927051 2.85317 8
      vertex 0.623734 2.93444 8
    endloop
  endfacet
  facet normal -0.258818 -0.965926 -0
    outer loop
      vertex 0.927051 2.85317 8
      vertex 0.623734 2.93444 0
      vertex 0.927051 2.85317 0
    endloop
  endfacet
  facet normal 0.838671 -0.544638 0
    outer loop
      vertex -2.59808 1.5 8
      vertex -2.42705 1.76336 0
      vertex -2.42705 1.76336 8
    endloop
  endfacet
  facet normal 0.838671 -0.544638 0
    outer loop
      vertex -2.42705 1.76336 0
      vertex -2.59808 1.5 8
      vertex -2.59808 1.5 0
    endloop
  endfacet
  facet normal 0.777145 -0.629321 0
    outer loop
      vertex -2.42705 1.76336 8
      vertex -2.22943 2.00739 0
      vertex -2.22943 2.00739 8
    endloop
  endfacet
  facet normal 0.777145 -0.629321 0
    outer loop
      vertex -2.22943 2.00739 0
      vertex -2.42705 1.76336 8
      vertex -2.42705 1.76336 0
    endloop
  endfacet
  facet normal 0.0523371 -0.998629 0
    outer loop
      vertex -0.313585 2.98357 0
      vertex 0 3 8
      vertex -0.313585 2.98357 8
    endloop
  endfacet
  facet normal 0.0523371 -0.998629 0
    outer loop
      vertex 0 3 8
      vertex -0.313585 2.98357 0
      vertex 0 3 0
    endloop
  endfacet
  facet normal -0.891007 0.45399 0
    outer loop
      vertex 2.59808 -1.5 0
      vertex 2.74064 -1.22021 8
      vertex 2.74064 -1.22021 0
    endloop
  endfacet
  facet normal -0.891007 0.45399 0
    outer loop
      vertex 2.74064 -1.22021 8
      vertex 2.59808 -1.5 0
      vertex 2.59808 -1.5 8
    endloop
  endfacet
  facet normal -0.258818 0.965926 0
    outer loop
      vertex 0.927051 -2.85317 0
      vertex 0.623734 -2.93444 8
      vertex 0.927051 -2.85317 8
    endloop
  endfacet
  facet normal -0.258818 0.965926 0
    outer loop
      vertex 0.623734 -2.93444 8
      vertex 0.927051 -2.85317 0
      vertex 0.623734 -2.93444 0
    endloop
  endfacet
  facet normal -0.707107 0.707107 0
    outer loop
      vertex 2.00739 -2.22943 0
      vertex 2.22943 -2.00739 8
      vertex 2.22943 -2.00739 0
    endloop
  endfacet
  facet normal -0.707107 0.707107 0
    outer loop
      vertex 2.22943 -2.00739 8
      vertex 2.00739 -2.22943 0
      vertex 2.00739 -2.22943 8
    endloop
  endfacet
  facet normal -0.965926 0.258818 0
    outer loop
      vertex 2.85317 -0.927051 0
      vertex 2.93444 -0.623734 8
      vertex 2.93444 -0.623734 0
    endloop
  endfacet
  facet normal -0.965926 0.258818 0
    outer loop
      vertex 2.93444 -0.623734 8
      vertex 2.85317 -0.927051 0
      vertex 2.85317 -0.927051 8
    endloop
  endfacet
  facet normal 0.358369 0.93358 -0
    outer loop
      vertex -0.927051 -2.85317 0
      vertex -1.22021 -2.74064 8
      vertex -0.927051 -2.85317 8
    endloop
  endfacet
  facet normal 0.358369 0.93358 0
    outer loop
      vertex -1.22021 -2.74064 8
      vertex -0.927051 -2.85317 0
      vertex -1.22021 -2.74064 0
    endloop
  endfacet
  facet normal 0.54464 0.83867 -0
    outer loop
      vertex -1.5 -2.59808 0
      vertex -1.76336 -2.42705 8
      vertex -1.5 -2.59808 8
    endloop
  endfacet
  facet normal 0.54464 0.83867 0
    outer loop
      vertex -1.76336 -2.42705 8
      vertex -1.5 -2.59808 0
      vertex -1.76336 -2.42705 0
    endloop
  endfacet
  facet normal 0.987688 0.156434 0
    outer loop
      vertex -2.93444 -0.623734 8
      vertex -2.98357 -0.313585 0
      vertex -2.98357 -0.313585 8
    endloop
  endfacet
  facet normal 0.987688 0.156434 0
    outer loop
      vertex -2.98357 -0.313585 0
      vertex -2.93444 -0.623734 8
      vertex -2.93444 -0.623734 0
    endloop
  endfacet
  facet normal -0.987688 -0.156434 0
    outer loop
      vertex 2.98357 0.313585 0
      vertex 2.93444 0.623734 8
      vertex 2.93444 0.623734 0
    endloop
  endfacet
  facet normal -0.987688 -0.156434 0
    outer loop
      vertex 2.93444 0.623734 8
      vertex 2.98357 0.313585 0
      vertex 2.98357 0.313585 8
    endloop
  endfacet
  facet normal -0.891007 -0.45399 0
    outer loop
      vertex 2.74064 1.22021 0
      vertex 2.59808 1.5 8
      vertex 2.59808 1.5 0
    endloop
  endfacet
  facet normal -0.891007 -0.45399 0
    outer loop
      vertex 2.59808 1.5 8
      vertex 2.74064 1.22021 0
      vertex 2.74064 1.22021 8
    endloop
  endfacet
  facet normal -0.629321 -0.777145 0
    outer loop
      vertex 1.76336 2.42705 0
      vertex 2.00739 2.22943 8
      vertex 1.76336 2.42705 8
    endloop
  endfacet
  facet normal -0.629321 -0.777145 -0
    outer loop
      vertex 2.00739 2.22943 8
      vertex 1.76336 2.42705 0
      vertex 2.00739 2.22943 0
    endloop
  endfacet
  facet normal -0.54464 -0.83867 0
    outer loop
      vertex 1.5 2.59808 0
      vertex 1.76336 2.42705 8
      vertex 1.5 2.59808 8
    endloop
  endfacet
  facet normal -0.54464 -0.83867 -0
    outer loop
      vertex 1.76336 2.42705 8
      vertex 1.5 2.59808 0
      vertex 1.76336 2.42705 0
    endloop
  endfacet
  facet normal 0.707107 -0.707107 0
    outer loop
      vertex -2.22943 2.00739 8
      vertex -2.00739 2.22943 0
      vertex -2.00739 2.22943 8
    endloop
  endfacet
  facet normal 0.707107 -0.707107 0
    outer loop
      vertex -2.00739 2.22943 0
      vertex -2.22943 2.00739 8
      vertex -2.22943 2.00739 0
    endloop
  endfacet
  facet normal 0.891007 -0.45399 0
    outer loop
      vertex -2.74064 1.22021 8
      vertex -2.59808 1.5 0
      vertex -2.59808 1.5 8
    endloop
  endfacet
  facet normal 0.891007 -0.45399 0
    outer loop
      vertex -2.59808 1.5 0
      vertex -2.74064 1.22021 8
      vertex -2.74064 1.22021 0
    endloop
  endfacet
  facet normal 0.93358 -0.358369 0
    outer loop
      vertex -2.85317 0.927051 8
      vertex -2.74064 1.22021 0
      vertex -2.74064 1.22021 8
    endloop
  endfacet
  facet normal 0.93358 -0.358369 0
    outer loop
      vertex -2.74064 1.22021 0
      vertex -2.85317 0.927051 8
      vertex -2.85317 0.927051 0
    endloop
  endfacet
  facet normal 0.965926 -0.258818 0
    outer loop
      vertex -2.93444 0.623734 8
      vertex -2.85317 0.927051 0
      vertex -2.85317 0.927051 8
    endloop
  endfacet
  facet normal 0.965926 -0.258818 0
    outer loop
      vertex -2.85317 0.927051 0
      vertex -2.93444 0.623734 8
      vertex -2.93444 0.623734 0
    endloop
  endfacet
  facet normal 0.358369 -0.93358 0
    outer loop
      vertex -1.22021 2.74064 0
      vertex -0.927051 2.85317 8
      vertex -1.22021 2.74064 8
    endloop
  endfacet
  facet normal 0.358369 -0.93358 0
    outer loop
      vertex -0.927051 2.85317 8
      vertex -1.22021 2.74064 0
      vertex -0.927051 2.85317 0
    endloop
  endfacet
  facet normal 0.45399 -0.891007 0
    outer loop
      vertex -1.5 2.59808 0
      vertex -1.22021 2.74064 8
      vertex -1.5 2.59808 8
    endloop
  endfacet
  facet normal 0.45399 -0.891007 0
    outer loop
      vertex -1.22021 2.74064 8
      vertex -1.5 2.59808 0
      vertex -1.22021 2.74064 0
    endloop
  endfacet
  facet normal 0.156434 -0.987688 0
    outer loop
      vertex -0.623734 2.93444 0
      vertex -0.313585 2.98357 8
      vertex -0.623734 2.93444 8
    endloop
  endfacet
  facet normal 0.156434 -0.987688 0
    outer loop
      vertex -0.313585 2.98357 8
      vertex -0.623734 2.93444 0
      vertex -0.313585 2.98357 0
    endloop
  endfacet
  facet normal -0.0523371 0.998629 0
    outer loop
      vertex 0.313585 -2.98357 0
      vertex 0 -3 8
      vertex 0.313585 -2.98357 8
    endloop
  endfacet
  facet normal -0.0523371 0.998629 0
    outer loop
      vertex 0 -3 8
      vertex 0.313585 -2.98357 0
      vertex 0 -3 0
    endloop
  endfacet
  facet normal -0.156434 0.987688 0
    outer loop
      vertex 0.623734 -2.93444 0
      vertex 0.313585 -2.98357 8
      vertex 0.623734 -2.93444 8
    endloop
  endfacet
  facet normal -0.156434 0.987688 0
    outer loop
      vertex 0.313585 -2.98357 8
      vertex 0.623734 -2.93444 0
      vertex 0.313585 -2.98357 0
    endloop
  endfacet
  facet normal -0.453989 0.891007 0
    outer loop
      vertex 1.5 -2.59808 0
      vertex 1.22021 -2.74064 8
      vertex 1.5 -2.59808 8
    endloop
  endfacet
  facet normal -0.453989 0.891007 0
    outer loop
      vertex 1.22021 -2.74064 8
      vertex 1.5 -2.59808 0
      vertex 1.22021 -2.74064 0
    endloop
  endfacet
  facet normal -0.629321 0.777145 0
    outer loop
      vertex 2.00739 -2.22943 0
      vertex 1.76336 -2.42705 8
      vertex 2.00739 -2.22943 8
    endloop
  endfacet
  facet normal -0.629321 0.777145 0
    outer loop
      vertex 1.76336 -2.42705 8
      vertex 2.00739 -2.22943 0
      vertex 1.76336 -2.42705 0
    endloop
  endfacet
  facet normal -0.54464 0.83867 0
    outer loop
      vertex 1.76336 -2.42705 0
      vertex 1.5 -2.59808 8
      vertex 1.76336 -2.42705 8
    endloop
  endfacet
  facet normal -0.54464 0.83867 0
    outer loop
      vertex 1.5 -2.59808 8
      vertex 1.76336 -2.42705 0
      vertex 1.5 -2.59808 0
    endloop
  endfacet
  facet normal -0.777145 0.629321 0
    outer loop
      vertex 2.22943 -2.00739 0
      vertex 2.42705 -1.76336 8
      vertex 2.42705 -1.76336 0
    endloop
  endfacet
  facet normal -0.777145 0.629321 0
    outer loop
      vertex 2.42705 -1.76336 8
      vertex 2.22943 -2.00739 0
      vertex 2.22943 -2.00739 8
    endloop
  endfacet
  facet normal -0.838671 0.544638 0
    outer loop
      vertex 2.42705 -1.76336 0
      vertex 2.59808 -1.5 8
      vertex 2.59808 -1.5 0
    endloop
  endfacet
  facet normal -0.838671 0.544638 0
    outer loop
      vertex 2.59808 -1.5 8
      vertex 2.42705 -1.76336 0
      vertex 2.42705 -1.76336 8
    endloop
  endfacet
  facet normal 0.156434 0.987688 -0
    outer loop
      vertex -0.313585 -2.98357 0
      vertex -0.623734 -2.93444 8
      vertex -0.313585 -2.98357 8
    endloop
  endfacet
  facet normal 0.156434 0.987688 0
    outer loop
      vertex -0.623734 -2.93444 8
      vertex -0.313585 -2.98357 0
      vertex -0.623734 -2.93444 0
    endloop
  endfacet
  facet normal 0.707107 0.707107 0
    outer loop
      vertex -2.00739 -2.22943 8
      vertex -2.22943 -2.00739 0
      vertex -2.22943 -2.00739 8
    endloop
  endfacet
  facet normal 0.707107 0.707107 0
    outer loop
      vertex -2.22943 -2.00739 0
      vertex -2.00739 -2.22943 8
      vertex -2.00739 -2.22943 0
    endloop
  endfacet
  facet normal 0.0523371 0.998629 -0
    outer loop
      vertex 0 -3 0
      vertex -0.313585 -2.98357 8
      vertex 0 -3 8
    endloop
  endfacet
  facet normal 0.0523371 0.998629 0
    outer loop
      vertex -0.313585 -2.98357 8
      vertex 0 -3 0
      vertex -0.313585 -2.98357 0
    endloop
  endfacet
  facet normal 0.629321 0.777145 -0
    outer loop
      vertex -1.76336 -2.42705 0
      vertex -2.00739 -2.22943 8
      vertex -1.76336 -2.42705 8
    endloop
  endfacet
  facet normal 0.629321 0.777145 0
    outer loop
      vertex -2.00739 -2.22943 8
      vertex -1.76336 -2.42705 0
      vertex -2.00739 -2.22943 0
    endloop
  endfacet
  facet normal 0.777145 0.629321 0
    outer loop
      vertex -2.22943 -2.00739 8
      vertex -2.42705 -1.76336 0
      vertex -2.42705 -1.76336 8
    endloop
  endfacet
  facet normal 0.777145 0.629321 0
    outer loop
      vertex -2.42705 -1.76336 0
      vertex -2.22943 -2.00739 8
      vertex -2.22943 -2.00739 0
    endloop
  endfacet
  facet normal 0.93358 0.358369 0
    outer loop
      vertex -2.74064 -1.22021 8
      vertex -2.85317 -0.927051 0
      vertex -2.85317 -0.927051 8
    endloop
  endfacet
  facet normal 0.93358 0.358369 0
    outer loop
      vertex -2.85317 -0.927051 0
      vertex -2.74064 -1.22021 8
      vertex -2.74064 -1.22021 0
    endloop
  endfacet
  facet normal 0.965926 0.258818 0
    outer loop
      vertex -2.85317 -0.927051 8
      vertex -2.93444 -0.623734 0
      vertex -2.93444 -0.623734 8
    endloop
  endfacet
  facet normal 0.965926 0.258818 0
    outer loop
      vertex -2.93444 -0.623734 0
      vertex -2.85317 -0.927051 8
      vertex -2.85317 -0.927051 0
    endloop
  endfacet
  facet normal 0.998629 0.0523371 0
    outer loop
      vertex -2.98357 -0.313585 8
      vertex -3 0 0
      vertex -3 0 8
    endloop
  endfacet
  facet normal 0.998629 0.0523371 0
    outer loop
      vertex -3 0 0
      vertex -2.98357 -0.313585 8
      vertex -2.98357 -0.313585 0
    endloop
  endfacet
  facet normal -0.777145 -0.629321 0
    outer loop
      vertex 2.42705 1.76336 0
      vertex 2.22943 2.00739 8
      vertex 2.22943 2.00739 0
    endloop
  endfacet
  facet normal -0.777145 -0.629321 0
    outer loop
      vertex 2.22943 2.00739 8
      vertex 2.42705 1.76336 0
      vertex 2.42705 1.76336 8
    endloop
  endfacet
  facet normal -0.156434 -0.987688 0
    outer loop
      vertex 0.313585 2.98357 0
      vertex 0.623734 2.93444 8
      vertex 0.313585 2.98357 8
    endloop
  endfacet
  facet normal -0.156434 -0.987688 -0
    outer loop
      vertex 0.623734 2.93444 8
      vertex 0.313585 2.98357 0
      vertex 0.623734 2.93444 0
    endloop
  endfacet
  facet normal -0.453989 -0.891007 0
    outer loop
      vertex 1.22021 2.74064 0
      vertex 1.5 2.59808 8
      vertex 1.22021 2.74064 8
    endloop
  endfacet
  facet normal -0.453989 -0.891007 -0
    outer loop
      vertex 1.5 2.59808 8
      vertex 1.22021 2.74064 0
      vertex 1.5 2.59808 0
    endloop
  endfacet
  facet normal 0.987688 -0.156434 0
    outer loop
      vertex -2.98357 0.313585 8
      vertex -2.93444 0.623734 0
      vertex -2.93444 0.623734 8
    endloop
  endfacet
  facet normal 0.987688 -0.156434 0
    outer loop
      vertex -2.93444 0.623734 0
      vertex -2.98357 0.313585 8
      vertex -2.98357 0.313585 0
    endloop
  endfacet
  facet normal 0.544638 -0.838671 0
    outer loop
      vertex -1.76336 2.42705 0
      vertex -1.5 2.59808 8
      vertex -1.76336 2.42705 8
    endloop
  endfacet
  facet normal 0.544638 -0.838671 0
    outer loop
      vertex -1.5 2.59808 8
      vertex -1.76336 2.42705 0
      vertex -1.5 2.59808 0
    endloop
  endfacet
  facet normal -0.358369 0.93358 0
    outer loop
      vertex 1.22021 -2.74064 0
      vertex 0.927051 -2.85317 8
      vertex 1.22021 -2.74064 8
    endloop
  endfacet
  facet normal -0.358369 0.93358 0
    outer loop
      vertex 0.927051 -2.85317 8
      vertex 1.22021 -2.74064 0
      vertex 0.927051 -2.85317 0
    endloop
  endfacet
  facet normal -0.93358 0.358369 0
    outer loop
      vertex 2.74064 -1.22021 0
      vertex 2.85317 -0.927051 8
      vertex 2.85317 -0.927051 0
    endloop
  endfacet
  facet normal -0.93358 0.358369 0
    outer loop
      vertex 2.85317 -0.927051 8
      vertex 2.74064 -1.22021 0
      vertex 2.74064 -1.22021 8
    endloop
  endfacet
  facet normal -0.987688 0.156434 0
    outer loop
      vertex 2.93444 -0.623734 0
      vertex 2.98357 -0.313585 8
      vertex 2.98357 -0.313585 0
    endloop
  endfacet
  facet normal -0.987688 0.156434 0
    outer loop
      vertex 2.98357 -0.313585 8
      vertex 2.93444 -0.623734 0
      vertex 2.93444 -0.623734 8
    endloop
  endfacet
  facet normal -0.998629 0.0523371 0
    outer loop
      vertex 2.98357 -0.313585 0
      vertex 3 0 8
      vertex 3 0 0
    endloop
  endfacet
  facet normal -0.998629 0.0523371 0
    outer loop
      vertex 3 0 8
      vertex 2.98357 -0.313585 0
      vertex 2.98357 -0.313585 8
    endloop
  endfacet
  facet normal 0.258818 0.965926 -0
    outer loop
      vertex -0.623734 -2.93444 0
      vertex -0.927051 -2.85317 8
      vertex -0.623734 -2.93444 8
    endloop
  endfacet
  facet normal 0.258818 0.965926 0
    outer loop
      vertex -0.927051 -2.85317 8
      vertex -0.623734 -2.93444 0
      vertex -0.927051 -2.85317 0
    endloop
  endfacet
  facet normal 0.453989 0.891007 -0
    outer loop
      vertex -1.22021 -2.74064 0
      vertex -1.5 -2.59808 8
      vertex -1.22021 -2.74064 8
    endloop
  endfacet
  facet normal 0.453989 0.891007 0
    outer loop
      vertex -1.5 -2.59808 8
      vertex -1.22021 -2.74064 0
      vertex -1.5 -2.59808 0
    endloop
  endfacet
  facet normal 0.891007 0.45399 0
    outer loop
      vertex -2.59808 -1.5 8
      vertex -2.74064 -1.22021 0
      vertex -2.74064 -1.22021 8
    endloop
  endfacet
  facet normal 0.891007 0.45399 0
    outer loop
      vertex -2.74064 -1.22021 0
      vertex -2.59808 -1.5 8
      vertex -2.59808 -1.5 0
    endloop
  endfacet
endsolid OpenSCAD_Model
