solid OpenSCAD_Model
  facet normal -0.492403 0.866026 0.0868228
    outer loop
      vertex 38.0564 9.69342 11.5442
      vertex 32.4139 5.77084 18.6699
      vertex 42.2575 11.5417 16.9342
    endloop
  endfacet
  facet normal -0.492402 0.866027 0.0868243
    outer loop
      vertex 33.0523 6.94549 10.5739
      vertex 32.4139 5.77084 18.6699
      vertex 38.0564 9.69342 11.5442
    endloop
  endfacet
  facet normal -0.4924 0.866027 0.0868244
    outer loop
      vertex 32.4139 5.77084 18.6699
      vertex 33.0523 6.94549 10.5739
      vertex 30.9132 5.77084 10.1591
    endloop
  endfacet
  facet normal 0.492402 0.866026 -0.0868236
    outer loop
      vertex 49.4211 5.77084 0
      vertex 40.8091 11.3075 6.38452
      vertex 52.101 5.77084 15.1985
    endloop
  endfacet
  facet normal 0.492401 0.866027 -0.0868247
    outer loop
      vertex 40.8091 11.3075 6.38452
      vertex 49.4211 5.77084 0
      vertex 40.6 10.7863 0
    endloop
  endfacet
  facet normal 0.492405 0.866024 -0.0868294
    outer loop
      vertex 40.8091 11.3075 6.38452
      vertex 42.2575 11.5417 16.9342
      vertex 52.101 5.77084 15.1985
    endloop
  endfacet
  facet normal 0.492471 0.865986 -0.0868376
    outer loop
      vertex 42.2575 11.5417 16.9342
      vertex 40.8091 11.3075 6.38452
      vertex 40.2254 11.5417 5.40981
    endloop
  endfacet
  facet normal -0.984826 2.91399e-05 0.173544
    outer loop
      vertex 30.9811 -2.0836 10.5438
      vertex 30.9132 -5.77084 10.1591
      vertex 31.0583 -2.11459 10.9819
    endloop
  endfacet
  facet normal -0.984807 -4.46615e-06 0.17365
    outer loop
      vertex 30.9132 5.77084 10.1591
      vertex 31.0583 2.11459 10.9819
      vertex 32.4139 5.77084 18.6699
    endloop
  endfacet
  facet normal -0.984826 -2.91399e-05 0.173544
    outer loop
      vertex 31.0583 2.11459 10.9819
      vertex 30.9132 5.77084 10.1591
      vertex 30.9811 2.0836 10.5438
    endloop
  endfacet
  facet normal -0.984807 -7.50364e-06 0.173651
    outer loop
      vertex 31.0194 0 10.7612
      vertex 32.4139 5.77084 18.6699
      vertex 31.0583 2.11459 10.9819
    endloop
  endfacet
  facet normal -0.984807 7.50364e-06 0.173651
    outer loop
      vertex 32.4139 -5.77084 18.6699
      vertex 31.0194 0 10.7612
      vertex 31.0583 -2.11459 10.9819
    endloop
  endfacet
  facet normal -0.984807 4.46615e-06 0.17365
    outer loop
      vertex 32.4139 -5.77084 18.6699
      vertex 31.0583 -2.11459 10.9819
      vertex 30.9132 -5.77084 10.1591
    endloop
  endfacet
  facet normal -0.984808 0 0.173646
    outer loop
      vertex 31.0194 0 10.7612
      vertex 32.4139 -5.77084 18.6699
      vertex 32.4139 5.77084 18.6699
    endloop
  endfacet
  facet normal -0.492224 0.866133 0.0867705
    outer loop
      vertex 42.2575 11.5417 16.9342
      vertex 40.8091 11.3075 11.0556
      vertex 40.7563 11.1761 12.0677
    endloop
  endfacet
  facet normal -0.492475 0.865983 0.0868384
    outer loop
      vertex 40.8091 11.3075 11.0556
      vertex 42.2575 11.5417 16.9342
      vertex 40.2254 11.5417 5.40981
    endloop
  endfacet
  facet normal -0.49242 0.866015 0.0868397
    outer loop
      vertex 42.2575 11.5417 16.9342
      vertex 40.7563 11.1761 12.0677
      vertex 38.0564 9.69342 11.5442
    endloop
  endfacet
  facet normal -0.492403 -0.866026 0.0868228
    outer loop
      vertex 32.4139 -5.77084 18.6699
      vertex 38.0564 -9.69342 11.5442
      vertex 42.2575 -11.5417 16.9342
    endloop
  endfacet
  facet normal -0.492402 -0.866027 0.0868243
    outer loop
      vertex 32.4139 -5.77084 18.6699
      vertex 33.0523 -6.94549 10.5739
      vertex 38.0564 -9.69342 11.5442
    endloop
  endfacet
  facet normal -0.4924 -0.866027 0.0868244
    outer loop
      vertex 33.0523 -6.94549 10.5739
      vertex 32.4139 -5.77084 18.6699
      vertex 30.9132 -5.77084 10.1591
    endloop
  endfacet
  facet normal 0.17366 0 0.984806
    outer loop
      vertex 52.101 5.77084 15.1985
      vertex 51.2481 5.27084 15.3489
      vertex 52.101 -5.77084 15.1985
    endloop
  endfacet
  facet normal 0.17367 -1.7367e-05 0.984804
    outer loop
      vertex 51.2481 5.27084 15.3489
      vertex 52.101 5.77084 15.1985
      vertex 50.3953 5.77084 15.4993
    endloop
  endfacet
  facet normal 0.17366 -0 0.984806
    outer loop
      vertex 51.2481 -5.27084 15.3489
      vertex 52.101 -5.77084 15.1985
      vertex 51.2481 5.27084 15.3489
    endloop
  endfacet
  facet normal 0.17367 1.7367e-05 0.984804
    outer loop
      vertex 52.101 -5.77084 15.1985
      vertex 51.2481 -5.27084 15.3489
      vertex 50.3953 -5.77084 15.4993
    endloop
  endfacet
  facet normal 0.17366 0 0.984806
    outer loop
      vertex 33.2668 5.27084 18.5195
      vertex 32.4139 5.77084 18.6699
      vertex 33.2668 -5.27084 18.5195
    endloop
  endfacet
  facet normal 0.17366 4.74312e-15 0.984806
    outer loop
      vertex 32.4139 5.77084 18.6699
      vertex 33.2668 5.27084 18.5195
      vertex 34.1197 5.77084 18.3691
    endloop
  endfacet
  facet normal 0.17366 -4.74312e-15 0.984806
    outer loop
      vertex 33.2668 -5.27084 18.5195
      vertex 32.4139 -5.77084 18.6699
      vertex 34.1197 -5.77084 18.3691
    endloop
  endfacet
  facet normal 0.17366 -0 0.984806
    outer loop
      vertex 32.4139 -5.77084 18.6699
      vertex 33.2668 -5.27084 18.5195
      vertex 32.4139 5.77084 18.6699
    endloop
  endfacet
  facet normal 0.17367 3.41472e-05 0.984804
    outer loop
      vertex 42.2575 11.5417 16.9342
      vertex 50.3953 5.77084 15.4993
      vertex 52.101 5.77084 15.1985
    endloop
  endfacet
  facet normal 0.173647 0 0.984808
    outer loop
      vertex 42.2575 11.5417 16.9342
      vertex 42.2575 10.5417 16.9342
      vertex 50.3953 5.77084 15.4993
    endloop
  endfacet
  facet normal 0.173647 0 0.984808
    outer loop
      vertex 42.2575 11.5417 16.9342
      vertex 34.1197 5.77084 18.3691
      vertex 42.2575 10.5417 16.9342
    endloop
  endfacet
  facet normal 0.17366 -1.97903e-05 0.984806
    outer loop
      vertex 34.1197 5.77084 18.3691
      vertex 42.2575 11.5417 16.9342
      vertex 32.4139 5.77084 18.6699
    endloop
  endfacet
  facet normal 0.984808 0 -0.173648
    outer loop
      vertex 52.101 -5.77084 15.1985
      vertex 49.4211 5.77084 0
      vertex 52.101 5.77084 15.1985
    endloop
  endfacet
  facet normal 0.984808 0 -0.173648
    outer loop
      vertex 49.4211 5.77084 0
      vertex 52.101 -5.77084 15.1985
      vertex 49.4211 -5.77084 0
    endloop
  endfacet
  facet normal 0.173647 -0 0.984808
    outer loop
      vertex 42.2575 -11.5417 16.9342
      vertex 50.3953 -5.77084 15.4993
      vertex 42.2575 -10.5417 16.9342
    endloop
  endfacet
  facet normal 0.17367 -3.41472e-05 0.984804
    outer loop
      vertex 50.3953 -5.77084 15.4993
      vertex 42.2575 -11.5417 16.9342
      vertex 52.101 -5.77084 15.1985
    endloop
  endfacet
  facet normal 0.173647 0 0.984808
    outer loop
      vertex 34.1197 -5.77084 18.3691
      vertex 42.2575 -11.5417 16.9342
      vertex 42.2575 -10.5417 16.9342
    endloop
  endfacet
  facet normal 0.17366 1.97903e-05 0.984806
    outer loop
      vertex 42.2575 -11.5417 16.9342
      vertex 34.1197 -5.77084 18.3691
      vertex 32.4139 -5.77084 18.6699
    endloop
  endfacet
  facet normal 0.492405 -0.866024 -0.0868294
    outer loop
      vertex 42.2575 -11.5417 16.9342
      vertex 40.8091 -11.3075 6.38452
      vertex 52.101 -5.77084 15.1985
    endloop
  endfacet
  facet normal 0.492471 -0.865986 -0.0868376
    outer loop
      vertex 40.8091 -11.3075 6.38452
      vertex 42.2575 -11.5417 16.9342
      vertex 40.2254 -11.5417 5.40981
    endloop
  endfacet
  facet normal 0.492401 -0.866027 -0.0868247
    outer loop
      vertex 49.4211 -5.77084 0
      vertex 40.8091 -11.3075 6.38452
      vertex 40.6 -10.7863 0
    endloop
  endfacet
  facet normal 0.492402 -0.866026 -0.0868236
    outer loop
      vertex 40.8091 -11.3075 6.38452
      vertex 49.4211 -5.77084 0
      vertex 52.101 -5.77084 15.1985
    endloop
  endfacet
  facet normal -0.49242 -0.866015 0.0868397
    outer loop
      vertex 42.2575 -11.5417 16.9342
      vertex 38.0564 -9.69342 11.5442
      vertex 40.7563 -11.1761 12.0677
    endloop
  endfacet
  facet normal -0.492224 -0.866133 0.0867705
    outer loop
      vertex 40.8091 -11.3075 11.0556
      vertex 42.2575 -11.5417 16.9342
      vertex 40.7563 -11.1761 12.0677
    endloop
  endfacet
  facet normal -0.492475 -0.865983 0.0868384
    outer loop
      vertex 42.2575 -11.5417 16.9342
      vertex 40.8091 -11.3075 11.0556
      vertex 40.2254 -11.5417 5.40981
    endloop
  endfacet
  facet normal 0 0 -1
    outer loop
      vertex 16.5018 -21.0586 0
      vertex 40.6 -10.7863 0
      vertex 40.8091 -11.3075 0
    endloop
  endfacet
  facet normal 0 0 -1
    outer loop
      vertex 40.6 -10.7863 0
      vertex 25.7871 0 0
      vertex 36.273 0 0
    endloop
  endfacet
  facet normal -0 0 -1
    outer loop
      vertex 40.6 -10.7863 0
      vertex 16.5018 -21.0586 0
      vertex 25.7871 0 0
    endloop
  endfacet
  facet normal 0 0 -1
    outer loop
      vertex 25.7871 0 0
      vertex 16.5018 -21.0586 0
      vertex 10.5121 -6.1277 0
    endloop
  endfacet
  facet normal 0 0 -1
    outer loop
      vertex 25.7871 0 0
      vertex 40.6 10.7863 0
      vertex 36.273 0 0
    endloop
  endfacet
  facet normal 0 0 -1
    outer loop
      vertex 16.5018 21.0586 0
      vertex 40.6 10.7863 0
      vertex 25.7871 0 0
    endloop
  endfacet
  facet normal 0 0 -1
    outer loop
      vertex 40.6 10.7863 0
      vertex 16.5018 21.0586 0
      vertex 40.8091 11.3075 0
    endloop
  endfacet
  facet normal 0 -0 -1
    outer loop
      vertex 16.5018 21.0586 0
      vertex 25.7871 0 0
      vertex 10.5121 6.1277 0
    endloop
  endfacet
  facet normal 0 0 -1
    outer loop
      vertex 36.273 0 0
      vertex 49.4211 -5.77084 0
      vertex 40.6 -10.7863 0
    endloop
  endfacet
  facet normal 0 0 -1
    outer loop
      vertex 49.4211 -5.77084 0
      vertex 36.273 0 0
      vertex 49.4211 5.77084 0
    endloop
  endfacet
  facet normal -0 0 -1
    outer loop
      vertex 49.4211 5.77084 0
      vertex 36.273 0 0
      vertex 40.6 10.7863 0
    endloop
  endfacet
  facet normal -0.928107 0.372315 0
    outer loop
      vertex 7.00517 7.53454 3.17064
      vertex 12.9948 22.4655 4.03758
      vertex 12.9948 22.4655 3.17064
    endloop
  endfacet
  facet normal -0.928107 0.372315 0
    outer loop
      vertex 12.9948 22.4655 4.03758
      vertex 7.00517 7.53454 3.17064
      vertex 7.00517 7.53454 4.03758
    endloop
  endfacet
  facet normal 0.928096 -0.372342 0
    outer loop
      vertex 40.8091 11.3075 6.38452
      vertex 40.6 10.7863 0
      vertex 40.8091 11.3075 0
    endloop
  endfacet
  facet normal 0.927891 -0.372851 0
    outer loop
      vertex 40.8091 11.3075 12.0677
      vertex 40.7563 11.1761 12.0677
      vertex 40.8091 11.3075 11.0556
    endloop
  endfacet
  facet normal -0.372319 -0.928105 0
    outer loop
      vertex 10.5121 6.1277 0
      vertex 7.00517 7.53454 4.03758
      vertex 7.00517 7.53454 3.17064
    endloop
  endfacet
  facet normal -0.372318 -0.928105 6.46192e-07
    outer loop
      vertex 7.00517 7.53454 4.03758
      vertex 10.5121 6.1277 0
      vertex 25.7871 0 9.46003
    endloop
  endfacet
  facet normal -0.372318 -0.928105 -0
    outer loop
      vertex 25.7871 0 9.46003
      vertex 10.5121 6.1277 0
      vertex 25.7871 0 0
    endloop
  endfacet
  facet normal -0.372307 -0.92811 -4.5791e-05
    outer loop
      vertex 31.0583 -2.11459 10.9819
      vertex 25.7871 0 9.46003
      vertex 30.9811 -2.0836 10.5438
    endloop
  endfacet
  facet normal 0.372315 0.928106 8.43956e-06
    outer loop
      vertex 16.5018 21.0586 0
      vertex 15.0287 21.6495 4.62477
      vertex 40.2254 11.5417 5.40981
    endloop
  endfacet
  facet normal 0.37234 0.928097 1.7527e-05
    outer loop
      vertex 12.9948 22.4655 3.17064
      vertex 15.0287 21.6495 4.62477
      vertex 16.5018 21.0586 0
    endloop
  endfacet
  facet normal 0.372377 0.928081 -0
    outer loop
      vertex 40.8091 11.3075 0
      vertex 40.2254 11.5417 5.40981
      vertex 40.8091 11.3075 6.38452
    endloop
  endfacet
  facet normal 0.372318 0.928105 -7.42913e-06
    outer loop
      vertex 16.5018 21.0586 0
      vertex 40.2254 11.5417 5.40981
      vertex 40.8091 11.3075 0
    endloop
  endfacet
  facet normal 0.37235 0.928092 0
    outer loop
      vertex 15.0287 21.6495 4.62477
      vertex 12.9948 22.4655 3.17064
      vertex 12.9948 22.4655 4.03758
    endloop
  endfacet
  facet normal 0.372315 0.928106 7.48967e-06
    outer loop
      vertex 15.0287 21.6495 4.62477
      vertex 40.8091 11.3075 11.0556
      vertex 40.2254 11.5417 5.40981
    endloop
  endfacet
  facet normal 0.372317 0.928106 -0
    outer loop
      vertex 40.8091 11.3075 11.0556
      vertex 15.0287 21.6495 4.62477
      vertex 40.8091 11.3075 12.0677
    endloop
  endfacet
  facet normal -0.240309 0.0965625 0.965882
    outer loop
      vertex 40.8091 11.3075 12.0677
      vertex 38.0564 9.69342 11.5442
      vertex 40.7563 11.1761 12.0677
    endloop
  endfacet
  facet normal -0.240207 0.0963736 0.965926
    outer loop
      vertex 15.0287 21.6495 4.62477
      vertex 38.0564 9.69342 11.5442
      vertex 40.8091 11.3075 12.0677
    endloop
  endfacet
  facet normal -0.240211 0.0963646 0.965926
    outer loop
      vertex 38.0564 9.69342 11.5442
      vertex 15.0287 21.6495 4.62477
      vertex 33.0523 6.94549 10.5739
    endloop
  endfacet
  facet normal -0.240218 0.096356 0.965925
    outer loop
      vertex 15.0287 21.6495 4.62477
      vertex 30.9132 5.77084 10.1591
      vertex 33.0523 6.94549 10.5739
    endloop
  endfacet
  facet normal -0.240211 0.0963632 0.965926
    outer loop
      vertex 15.0287 21.6495 4.62477
      vertex 25.7871 0 9.46003
      vertex 30.9132 5.77084 10.1591
    endloop
  endfacet
  facet normal -0.240205 0.0963596 0.965928
    outer loop
      vertex 7.00517 7.53454 4.03758
      vertex 15.0287 21.6495 4.62477
      vertex 12.9948 22.4655 4.03758
    endloop
  endfacet
  facet normal -0.240211 0.0963631 0.965926
    outer loop
      vertex 15.0287 21.6495 4.62477
      vertex 7.00517 7.53454 4.03758
      vertex 25.7871 0 9.46003
    endloop
  endfacet
  facet normal -0.240202 0.0963548 0.965929
    outer loop
      vertex 30.9811 2.0836 10.5438
      vertex 30.9132 5.77084 10.1591
      vertex 25.7871 0 9.46003
    endloop
  endfacet
  facet normal -0.240206 0.0963948 0.965924
    outer loop
      vertex 31.0583 -2.11459 10.9819
      vertex 31.0194 0 10.7612
      vertex 25.7871 0 9.46003
    endloop
  endfacet
  facet normal -0.928107 -0.372315 0
    outer loop
      vertex 12.9948 -22.4655 3.17064
      vertex 7.00517 -7.53454 4.03758
      vertex 7.00517 -7.53454 3.17064
    endloop
  endfacet
  facet normal -0.928107 -0.372315 0
    outer loop
      vertex 7.00517 -7.53454 4.03758
      vertex 12.9948 -22.4655 3.17064
      vertex 12.9948 -22.4655 4.03758
    endloop
  endfacet
  facet normal 0.928096 0.372342 0
    outer loop
      vertex 40.8091 -11.3075 6.38452
      vertex 40.8091 -11.3075 0
      vertex 40.6 -10.7863 0
    endloop
  endfacet
  facet normal 0.927891 0.372851 0
    outer loop
      vertex 40.8091 -11.3075 12.0677
      vertex 40.8091 -11.3075 11.0556
      vertex 40.7563 -11.1761 12.0677
    endloop
  endfacet
  facet normal -0.372318 0.928105 6.46192e-07
    outer loop
      vertex 10.5121 -6.1277 0
      vertex 7.00517 -7.53454 4.03758
      vertex 25.7871 0 9.46003
    endloop
  endfacet
  facet normal -0.372318 0.928105 0
    outer loop
      vertex 10.5121 -6.1277 0
      vertex 25.7871 0 9.46003
      vertex 25.7871 0 0
    endloop
  endfacet
  facet normal -0.372319 0.928105 0
    outer loop
      vertex 7.00517 -7.53454 4.03758
      vertex 10.5121 -6.1277 0
      vertex 7.00517 -7.53454 3.17064
    endloop
  endfacet
  facet normal -0.372307 0.92811 -4.5791e-05
    outer loop
      vertex 31.0583 2.11459 10.9819
      vertex 30.9811 2.0836 10.5438
      vertex 25.7871 0 9.46003
    endloop
  endfacet
  facet normal 0.372317 -0.928106 0
    outer loop
      vertex 15.0287 -21.6495 4.62477
      vertex 40.8091 -11.3075 11.0556
      vertex 40.8091 -11.3075 12.0677
    endloop
  endfacet
  facet normal 0.372315 -0.928106 7.48967e-06
    outer loop
      vertex 40.8091 -11.3075 11.0556
      vertex 15.0287 -21.6495 4.62477
      vertex 40.2254 -11.5417 5.40981
    endloop
  endfacet
  facet normal 0.37235 -0.928092 0
    outer loop
      vertex 12.9948 -22.4655 3.17064
      vertex 15.0287 -21.6495 4.62477
      vertex 12.9948 -22.4655 4.03758
    endloop
  endfacet
  facet normal 0.37234 -0.928097 1.7527e-05
    outer loop
      vertex 15.0287 -21.6495 4.62477
      vertex 12.9948 -22.4655 3.17064
      vertex 16.5018 -21.0586 0
    endloop
  endfacet
  facet normal 0.372315 -0.928106 8.43956e-06
    outer loop
      vertex 15.0287 -21.6495 4.62477
      vertex 16.5018 -21.0586 0
      vertex 40.2254 -11.5417 5.40981
    endloop
  endfacet
  facet normal 0.372377 -0.928081 0
    outer loop
      vertex 40.2254 -11.5417 5.40981
      vertex 40.8091 -11.3075 0
      vertex 40.8091 -11.3075 6.38452
    endloop
  endfacet
  facet normal 0.372318 -0.928105 -7.42913e-06
    outer loop
      vertex 40.8091 -11.3075 0
      vertex 40.2254 -11.5417 5.40981
      vertex 16.5018 -21.0586 0
    endloop
  endfacet
  facet normal -0.240309 -0.0965625 0.965882
    outer loop
      vertex 38.0564 -9.69342 11.5442
      vertex 40.8091 -11.3075 12.0677
      vertex 40.7563 -11.1761 12.0677
    endloop
  endfacet
  facet normal -0.240211 -0.0963646 0.965926
    outer loop
      vertex 15.0287 -21.6495 4.62477
      vertex 38.0564 -9.69342 11.5442
      vertex 33.0523 -6.94549 10.5739
    endloop
  endfacet
  facet normal -0.240207 -0.0963736 0.965926
    outer loop
      vertex 38.0564 -9.69342 11.5442
      vertex 15.0287 -21.6495 4.62477
      vertex 40.8091 -11.3075 12.0677
    endloop
  endfacet
  facet normal -0.240202 -0.0963548 0.965929
    outer loop
      vertex 30.9811 -2.0836 10.5438
      vertex 25.7871 0 9.46003
      vertex 30.9132 -5.77084 10.1591
    endloop
  endfacet
  facet normal -0.240218 -0.096356 0.965925
    outer loop
      vertex 30.9132 -5.77084 10.1591
      vertex 15.0287 -21.6495 4.62477
      vertex 33.0523 -6.94549 10.5739
    endloop
  endfacet
  facet normal -0.240211 -0.0963632 0.965926
    outer loop
      vertex 25.7871 0 9.46003
      vertex 15.0287 -21.6495 4.62477
      vertex 30.9132 -5.77084 10.1591
    endloop
  endfacet
  facet normal -0.240211 -0.0963631 0.965926
    outer loop
      vertex 7.00517 -7.53454 4.03758
      vertex 15.0287 -21.6495 4.62477
      vertex 25.7871 0 9.46003
    endloop
  endfacet
  facet normal -0.240205 -0.0963596 0.965928
    outer loop
      vertex 15.0287 -21.6495 4.62477
      vertex 7.00517 -7.53454 4.03758
      vertex 12.9948 -22.4655 4.03758
    endloop
  endfacet
  facet normal -0.240206 -0.0963948 0.965924
    outer loop
      vertex 31.0583 2.11459 10.9819
      vertex 25.7871 0 9.46003
      vertex 31.0194 0 10.7612
    endloop
  endfacet
  facet normal -0.492407 -0.866024 0.0868239
    outer loop
      vertex 40.1483 9.39168 4.97237
      vertex 48.891 4.69584 7.71653
      vertex 40.8812 9.39168 9.12889
    endloop
  endfacet
  facet normal -0.492406 -0.866024 0.086826
    outer loop
      vertex 47.7067 4.69584 1
      vertex 40.1483 9.39168 4.97237
      vertex 40.0182 9.06739 1
    endloop
  endfacet
  facet normal -0.492407 -0.866024 0.0868243
    outer loop
      vertex 40.1483 9.39168 4.97237
      vertex 47.7067 4.69584 1
      vertex 48.891 4.69584 7.71653
    endloop
  endfacet
  facet normal 0.984809 2.84343e-07 -0.17364
    outer loop
      vertex 32.8713 4.69584 10.5412
      vertex 32.8381 1.7511 10.3529
      vertex 32.7195 4.69584 9.68026
    endloop
  endfacet
  facet normal 0.984822 0 -0.17357
    outer loop
      vertex 32.8381 1.7511 10.3529
      vertex 32.8381 -1.7511 10.3529
      vertex 32.8059 0 10.1702
    endloop
  endfacet
  facet normal 0.98481 0 -0.173636
    outer loop
      vertex 32.8713 4.69584 10.5412
      vertex 32.8381 -1.7511 10.3529
      vertex 32.8381 1.7511 10.3529
    endloop
  endfacet
  facet normal 0.98481 0 -0.173636
    outer loop
      vertex 32.8381 -1.7511 10.3529
      vertex 32.8713 4.69584 10.5412
      vertex 32.8713 -4.69584 10.5412
    endloop
  endfacet
  facet normal 0.984787 -2.86305e-05 -0.173763
    outer loop
      vertex 32.7195 4.69584 9.68026
      vertex 32.8381 1.7511 10.3529
      vertex 32.7741 1.72544 9.99019
    endloop
  endfacet
  facet normal 0.984809 -2.84343e-07 -0.17364
    outer loop
      vertex 32.7195 -4.69584 9.68026
      vertex 32.8381 -1.7511 10.3529
      vertex 32.8713 -4.69584 10.5412
    endloop
  endfacet
  facet normal 0.984787 2.86305e-05 -0.173763
    outer loop
      vertex 32.8381 -1.7511 10.3529
      vertex 32.7195 -4.69584 9.68026
      vertex 32.7741 -1.72544 9.99019
    endloop
  endfacet
  facet normal 0.492427 -0.866022 -0.086728
    outer loop
      vertex 32.8713 4.69584 10.5412
      vertex 34.5387 5.69483 10.033
      vertex 35.1173 6.01259 10.1452
    endloop
  endfacet
  facet normal 0.492409 -0.866026 -0.0867916
    outer loop
      vertex 32.8713 4.69584 10.5412
      vertex 33.4049 5.0722 9.81316
      vertex 34.5387 5.69483 10.033
    endloop
  endfacet
  facet normal 0.492362 -0.866048 -0.0868377
    outer loop
      vertex 32.8713 4.69584 10.5412
      vertex 32.8268 4.75478 9.70107
      vertex 33.4049 5.0722 9.81316
    endloop
  endfacet
  facet normal 0.492515 -0.865961 -0.0868397
    outer loop
      vertex 32.8268 4.75478 9.70107
      vertex 32.8713 4.69584 10.5412
      vertex 32.7195 4.69584 9.68026
    endloop
  endfacet
  facet normal 0.492399 -0.866028 -0.0868275
    outer loop
      vertex 33.6048 6.06946 1
      vertex 33.4049 5.0722 9.81316
      vertex 32.4937 5.43772 1
    endloop
  endfacet
  facet normal 0.492413 -0.86602 -0.0868263
    outer loop
      vertex 33.4049 5.0722 9.81316
      vertex 33.6048 6.06946 1
      vertex 34.5387 5.69483 10.033
    endloop
  endfacet
  facet normal 0.492391 -0.866033 -0.0868211
    outer loop
      vertex 40.1483 9.39168 4.97237
      vertex 40.8812 9.39168 9.12889
      vertex 39.9229 8.82989 9.29786
    endloop
  endfacet
  facet normal -0.492407 0.866024 0.0868239
    outer loop
      vertex 48.891 -4.69584 7.71653
      vertex 40.1483 -9.39168 4.97237
      vertex 40.8812 -9.39168 9.12889
    endloop
  endfacet
  facet normal -0.492407 0.866024 0.0868243
    outer loop
      vertex 47.7067 -4.69584 1
      vertex 40.1483 -9.39168 4.97237
      vertex 48.891 -4.69584 7.71653
    endloop
  endfacet
  facet normal -0.492406 0.866024 0.086826
    outer loop
      vertex 40.1483 -9.39168 4.97237
      vertex 47.7067 -4.69584 1
      vertex 40.0182 -9.06739 1
    endloop
  endfacet
  facet normal 0.492413 0.86602 -0.0868263
    outer loop
      vertex 33.6048 -6.06946 1
      vertex 33.4049 -5.0722 9.81316
      vertex 34.5387 -5.69483 10.033
    endloop
  endfacet
  facet normal 0.492399 0.866028 -0.0868275
    outer loop
      vertex 33.4049 -5.0722 9.81316
      vertex 33.6048 -6.06946 1
      vertex 32.4937 -5.43772 1
    endloop
  endfacet
  facet normal 0.492427 0.866022 -0.086728
    outer loop
      vertex 34.5387 -5.69483 10.033
      vertex 32.8713 -4.69584 10.5412
      vertex 35.1173 -6.01259 10.1452
    endloop
  endfacet
  facet normal 0.492409 0.866026 -0.0867916
    outer loop
      vertex 33.4049 -5.0722 9.81316
      vertex 32.8713 -4.69584 10.5412
      vertex 34.5387 -5.69483 10.033
    endloop
  endfacet
  facet normal 0.492362 0.866048 -0.0868377
    outer loop
      vertex 32.8268 -4.75478 9.70107
      vertex 32.8713 -4.69584 10.5412
      vertex 33.4049 -5.0722 9.81316
    endloop
  endfacet
  facet normal 0.492515 0.865961 -0.0868397
    outer loop
      vertex 32.8713 -4.69584 10.5412
      vertex 32.8268 -4.75478 9.70107
      vertex 32.7195 -4.69584 9.68026
    endloop
  endfacet
  facet normal 0.492391 0.866033 -0.0868211
    outer loop
      vertex 40.8812 -9.39168 9.12889
      vertex 40.1483 -9.39168 4.97237
      vertex 39.9229 -8.82989 9.29786
    endloop
  endfacet
  facet normal -0.984808 0 0.173647
    outer loop
      vertex 47.7067 -4.69584 1
      vertex 48.891 4.69584 7.71653
      vertex 47.7067 4.69584 1
    endloop
  endfacet
  facet normal -0.984808 0 0.173647
    outer loop
      vertex 48.891 4.69584 7.71653
      vertex 47.7067 -4.69584 1
      vertex 48.891 -4.69584 7.71653
    endloop
  endfacet
  facet normal -0.492405 -0.866024 0.0868252
    outer loop
      vertex 40.8812 10.5417 9.12889
      vertex 50.3953 5.77084 15.4993
      vertex 42.2575 10.5417 16.9342
    endloop
  endfacet
  facet normal -0.492407 -0.866023 0.086829
    outer loop
      vertex 49.8718 5.27084 7.54359
      vertex 50.3953 5.77084 15.4993
      vertex 40.8812 10.5417 9.12889
    endloop
  endfacet
  facet normal -0.492431 -0.866009 0.0868298
    outer loop
      vertex 50.3953 5.77084 15.4993
      vertex 49.8718 5.27084 7.54359
      vertex 51.2481 5.27084 15.3489
    endloop
  endfacet
  facet normal 0.984807 0 -0.17365
    outer loop
      vertex 33.2668 -5.27084 18.5195
      vertex 31.8905 5.27084 10.7142
      vertex 33.2668 5.27084 18.5195
    endloop
  endfacet
  facet normal 0.984807 0 -0.17365
    outer loop
      vertex 31.8905 5.27084 10.7142
      vertex 33.2668 -5.27084 18.5195
      vertex 31.8905 -5.27084 10.7142
    endloop
  endfacet
  facet normal 0.492406 -0.866024 -0.0868187
    outer loop
      vertex 34.1197 5.77084 18.3691
      vertex 40.4288 10.0909 11.0592
      vertex 42.2575 10.5417 16.9342
    endloop
  endfacet
  facet normal 0.492389 -0.866034 -0.0868225
    outer loop
      vertex 31.8905 5.27084 10.7142
      vertex 34.1197 5.77084 18.3691
      vertex 33.2668 5.27084 18.5195
    endloop
  endfacet
  facet normal 0.492408 -0.866023 -0.0868285
    outer loop
      vertex 34.1197 5.77084 18.3691
      vertex 31.8905 5.27084 10.7142
      vertex 35.4303 7.3461 10.09
    endloop
  endfacet
  facet normal 0.492395 -0.86603 -0.0868318
    outer loop
      vertex 34.1197 5.77084 18.3691
      vertex 35.4303 7.3461 10.09
      vertex 40.4288 10.0909 11.0592
    endloop
  endfacet
  facet normal 0.49244 -0.866004 -0.0868331
    outer loop
      vertex 40.8812 10.5417 9.12889
      vertex 40.4288 10.0909 11.0592
      vertex 40.5261 10.3335 9.1915
    endloop
  endfacet
  facet normal 0.492443 -0.866002 -0.0868319
    outer loop
      vertex 40.4288 10.0909 11.0592
      vertex 40.8812 10.5417 9.12889
      vertex 42.2575 10.5417 16.9342
    endloop
  endfacet
  facet normal -0.984807 0 0.17365
    outer loop
      vertex 49.8718 -5.27084 7.54359
      vertex 51.2481 5.27084 15.3489
      vertex 49.8718 5.27084 7.54359
    endloop
  endfacet
  facet normal -0.984807 0 0.17365
    outer loop
      vertex 51.2481 5.27084 15.3489
      vertex 49.8718 -5.27084 7.54359
      vertex 51.2481 -5.27084 15.3489
    endloop
  endfacet
  facet normal 0.173647 0 0.984808
    outer loop
      vertex 49.8718 5.27084 7.54359
      vertex 48.891 4.69584 7.71653
      vertex 49.8718 -5.27084 7.54359
    endloop
  endfacet
  facet normal 0.17365 -0 0.984807
    outer loop
      vertex 40.8812 9.39168 9.12889
      vertex 49.8718 5.27084 7.54359
      vertex 40.8812 10.5417 9.12889
    endloop
  endfacet
  facet normal 0.173648 -2.9803e-06 0.984808
    outer loop
      vertex 49.8718 5.27084 7.54359
      vertex 40.8812 9.39168 9.12889
      vertex 48.891 4.69584 7.71653
    endloop
  endfacet
  facet normal 0.173638 0 0.98481
    outer loop
      vertex 40.5261 10.3335 9.1915
      vertex 40.8812 9.39168 9.12889
      vertex 40.8812 10.5417 9.12889
    endloop
  endfacet
  facet normal 0.173643 1.86231e-06 0.984809
    outer loop
      vertex 40.8812 9.39168 9.12889
      vertex 40.5261 10.3335 9.1915
      vertex 39.9229 8.82989 9.29786
    endloop
  endfacet
  facet normal 0.173647 -0 0.984808
    outer loop
      vertex 48.891 -4.69584 7.71653
      vertex 49.8718 -5.27084 7.54359
      vertex 48.891 4.69584 7.71653
    endloop
  endfacet
  facet normal 0.173648 2.9803e-06 0.984808
    outer loop
      vertex 40.8812 -9.39168 9.12889
      vertex 49.8718 -5.27084 7.54359
      vertex 48.891 -4.69584 7.71653
    endloop
  endfacet
  facet normal 0.17365 0 0.984807
    outer loop
      vertex 40.8812 -9.39168 9.12889
      vertex 40.8812 -10.5417 9.12889
      vertex 49.8718 -5.27084 7.54359
    endloop
  endfacet
  facet normal 0.173638 0 0.98481
    outer loop
      vertex 40.8812 -9.39168 9.12889
      vertex 40.5261 -10.3335 9.1915
      vertex 40.8812 -10.5417 9.12889
    endloop
  endfacet
  facet normal 0.173643 -1.86231e-06 0.984809
    outer loop
      vertex 40.5261 -10.3335 9.1915
      vertex 40.8812 -9.39168 9.12889
      vertex 39.9229 -8.82989 9.29786
    endloop
  endfacet
  facet normal 0.173655 5.40932e-06 0.984806
    outer loop
      vertex 31.8905 5.27084 10.7142
      vertex 35.1173 6.01259 10.1452
      vertex 35.4303 7.3461 10.09
    endloop
  endfacet
  facet normal 0.173705 0 0.984798
    outer loop
      vertex 32.8713 4.69584 10.5412
      vertex 31.8905 5.27084 10.7142
      vertex 32.8713 -4.69584 10.5412
    endloop
  endfacet
  facet normal 0.17367 -6.14616e-05 0.984804
    outer loop
      vertex 35.1173 6.01259 10.1452
      vertex 31.8905 5.27084 10.7142
      vertex 32.8713 4.69584 10.5412
    endloop
  endfacet
  facet normal 0.17367 6.14616e-05 0.984804
    outer loop
      vertex 31.8905 -5.27084 10.7142
      vertex 35.1173 -6.01259 10.1452
      vertex 32.8713 -4.69584 10.5412
    endloop
  endfacet
  facet normal 0.173655 -5.40932e-06 0.984806
    outer loop
      vertex 35.1173 -6.01259 10.1452
      vertex 31.8905 -5.27084 10.7142
      vertex 35.4303 -7.3461 10.09
    endloop
  endfacet
  facet normal 0.173705 -0 0.984798
    outer loop
      vertex 31.8905 -5.27084 10.7142
      vertex 32.8713 -4.69584 10.5412
      vertex 31.8905 5.27084 10.7142
    endloop
  endfacet
  facet normal -0.492405 0.866024 0.0868252
    outer loop
      vertex 50.3953 -5.77084 15.4993
      vertex 40.8812 -10.5417 9.12889
      vertex 42.2575 -10.5417 16.9342
    endloop
  endfacet
  facet normal -0.492431 0.866009 0.0868298
    outer loop
      vertex 49.8718 -5.27084 7.54359
      vertex 50.3953 -5.77084 15.4993
      vertex 51.2481 -5.27084 15.3489
    endloop
  endfacet
  facet normal -0.492407 0.866023 0.086829
    outer loop
      vertex 50.3953 -5.77084 15.4993
      vertex 49.8718 -5.27084 7.54359
      vertex 40.8812 -10.5417 9.12889
    endloop
  endfacet
  facet normal 0.492443 0.866002 -0.0868319
    outer loop
      vertex 40.8812 -10.5417 9.12889
      vertex 40.4288 -10.0909 11.0592
      vertex 42.2575 -10.5417 16.9342
    endloop
  endfacet
  facet normal 0.49244 0.866004 -0.0868331
    outer loop
      vertex 40.4288 -10.0909 11.0592
      vertex 40.8812 -10.5417 9.12889
      vertex 40.5261 -10.3335 9.1915
    endloop
  endfacet
  facet normal 0.492406 0.866024 -0.0868187
    outer loop
      vertex 40.4288 -10.0909 11.0592
      vertex 34.1197 -5.77084 18.3691
      vertex 42.2575 -10.5417 16.9342
    endloop
  endfacet
  facet normal 0.492395 0.86603 -0.0868318
    outer loop
      vertex 35.4303 -7.3461 10.09
      vertex 34.1197 -5.77084 18.3691
      vertex 40.4288 -10.0909 11.0592
    endloop
  endfacet
  facet normal 0.492408 0.866023 -0.0868285
    outer loop
      vertex 31.8905 -5.27084 10.7142
      vertex 34.1197 -5.77084 18.3691
      vertex 35.4303 -7.3461 10.09
    endloop
  endfacet
  facet normal 0.492389 0.866034 -0.0868225
    outer loop
      vertex 34.1197 -5.77084 18.3691
      vertex 31.8905 -5.27084 10.7142
      vertex 33.2668 -5.27084 18.5195
    endloop
  endfacet
  facet normal -0 0 1
    outer loop
      vertex 33.6048 -6.06946 1
      vertex 40.0182 -9.06739 1
      vertex 38.0932 -4.26889 1
    endloop
  endfacet
  facet normal 0 0 1
    outer loop
      vertex 33.6048 -6.06946 1
      vertex 40.5296 -10.3422 1
      vertex 40.0182 -9.06739 1
    endloop
  endfacet
  facet normal 0 0 1
    outer loop
      vertex 33.6048 -6.06946 1
      vertex 15.0234 -20.5742 1
      vertex 40.5296 -10.3422 1
    endloop
  endfacet
  facet normal 0 -0 1
    outer loop
      vertex 15.0234 -20.5742 1
      vertex 33.6048 -6.06946 1
      vertex 12.587 -14.5009 1
    endloop
  endfacet
  facet normal 0 0 1
    outer loop
      vertex 37.7209 3.34079 1
      vertex 36.3807 0 1
      vertex 37.7209 -3.34079 1
    endloop
  endfacet
  facet normal 0 0 1
    outer loop
      vertex 38.0932 4.26889 1
      vertex 47.7067 4.69584 1
      vertex 40.0182 9.06739 1
    endloop
  endfacet
  facet normal 0 0 1
    outer loop
      vertex 37.7209 3.34079 1
      vertex 47.7067 4.69584 1
      vertex 38.0932 4.26889 1
    endloop
  endfacet
  facet normal 0 0 1
    outer loop
      vertex 47.7067 4.69584 1
      vertex 37.7209 3.34079 1
      vertex 47.7067 -4.69584 1
    endloop
  endfacet
  facet normal 0 0 1
    outer loop
      vertex 47.7067 -4.69584 1
      vertex 38.0932 -4.26889 1
      vertex 40.0182 -9.06739 1
    endloop
  endfacet
  facet normal -0 0 1
    outer loop
      vertex 37.7209 -3.34079 1
      vertex 47.7067 -4.69584 1
      vertex 37.7209 3.34079 1
    endloop
  endfacet
  facet normal 0 0 1
    outer loop
      vertex 33.6048 6.06946 1
      vertex 37.7209 3.34079 1
      vertex 38.0932 4.26889 1
    endloop
  endfacet
  facet normal 0 0 1
    outer loop
      vertex 37.7209 3.34079 1
      vertex 33.6048 6.06946 1
      vertex 32.4937 5.43772 1
    endloop
  endfacet
  facet normal 0 0 1
    outer loop
      vertex 47.7067 -4.69584 1
      vertex 37.7209 -3.34079 1
      vertex 38.0932 -4.26889 1
    endloop
  endfacet
  facet normal 0 0 1
    outer loop
      vertex 37.7209 -3.34079 1
      vertex 33.6048 -6.06946 1
      vertex 38.0932 -4.26889 1
    endloop
  endfacet
  facet normal 0 -0 1
    outer loop
      vertex 33.6048 -6.06946 1
      vertex 37.7209 -3.34079 1
      vertex 32.4937 -5.43772 1
    endloop
  endfacet
  facet normal 0 0 1
    outer loop
      vertex 37.7209 3.34079 1
      vertex 32.4937 5.43772 1
      vertex 36.3807 0 1
    endloop
  endfacet
  facet normal 0 0 1
    outer loop
      vertex 28.473 0 1
      vertex 36.3807 0 1
      vertex 32.4937 5.43772 1
    endloop
  endfacet
  facet normal 0 -0 1
    outer loop
      vertex 32.4937 -5.43772 1
      vertex 36.3807 0 1
      vertex 28.473 0 1
    endloop
  endfacet
  facet normal 0 0 1
    outer loop
      vertex 36.3807 0 1
      vertex 32.4937 -5.43772 1
      vertex 37.7209 -3.34079 1
    endloop
  endfacet
  facet normal 0 0 1
    outer loop
      vertex 12.2147 13.5728 1
      vertex 28.473 0 1
      vertex 32.4937 5.43772 1
    endloop
  endfacet
  facet normal 0 0 1
    outer loop
      vertex 28.473 0 1
      vertex 12.2147 13.5728 1
      vertex 9.77837 7.49951 1
    endloop
  endfacet
  facet normal 0 0 1
    outer loop
      vertex 28.473 0 1
      vertex 12.2147 -13.5728 1
      vertex 32.4937 -5.43772 1
    endloop
  endfacet
  facet normal 0 -0 1
    outer loop
      vertex 12.2147 -13.5728 1
      vertex 28.473 0 1
      vertex 9.77837 -7.49951 1
    endloop
  endfacet
  facet normal 0 0 1
    outer loop
      vertex 40.0182 9.06739 1
      vertex 33.6048 6.06946 1
      vertex 38.0932 4.26889 1
    endloop
  endfacet
  facet normal 0 0 1
    outer loop
      vertex 40.5296 10.3422 1
      vertex 33.6048 6.06946 1
      vertex 40.0182 9.06739 1
    endloop
  endfacet
  facet normal 0 0 1
    outer loop
      vertex 15.0234 20.5742 1
      vertex 33.6048 6.06946 1
      vertex 40.5296 10.3422 1
    endloop
  endfacet
  facet normal 0 0 1
    outer loop
      vertex 33.6048 6.06946 1
      vertex 15.0234 20.5742 1
      vertex 12.587 14.5009 1
    endloop
  endfacet
  facet normal -0.372316 -0.928106 -2.12231e-06
    outer loop
      vertex 12.2147 13.5728 1
      vertex 33.4049 5.0722 9.81316
      vertex 9.95497 14.4793 3.04304
    endloop
  endfacet
  facet normal -0.372317 -0.928106 1.58291e-06
    outer loop
      vertex 33.4049 5.0722 9.81316
      vertex 12.2147 13.5728 1
      vertex 32.4937 5.43772 1
    endloop
  endfacet
  facet normal 0.372319 0.928105 -0
    outer loop
      vertex 28.473 0 1
      vertex 12.8512 6.26684 4.58258
      vertex 28.473 0 9.09269
    endloop
  endfacet
  facet normal 0.372317 0.928105 -5.67812e-06
    outer loop
      vertex 9.77837 7.49951 1
      vertex 12.8512 6.26684 4.58258
      vertex 28.473 0 1
    endloop
  endfacet
  facet normal 0.372315 0.928107 -2.8083e-06
    outer loop
      vertex 12.8512 6.26684 4.58258
      vertex 9.77837 7.49951 1
      vertex 7.51861 8.40603 3.04304
    endloop
  endfacet
  facet normal 0.372327 0.928101 -3.82541e-05
    outer loop
      vertex 32.8381 -1.7511 10.3529
      vertex 32.7741 -1.72544 9.99019
      vertex 28.473 0 9.09269
    endloop
  endfacet
  facet normal -0.927739 0.373229 0
    outer loop
      vertex 40.5296 10.3422 1
      vertex 40.5261 10.3335 9.1915
      vertex 40.5296 10.3422 11.0592
    endloop
  endfacet
  facet normal -0.92811 0.372306 -1.13864e-06
    outer loop
      vertex 40.5296 10.3422 1
      vertex 40.1483 9.39168 4.97237
      vertex 40.5261 10.3335 9.1915
    endloop
  endfacet
  facet normal -0.928106 0.372317 1.99311e-06
    outer loop
      vertex 40.1483 9.39168 4.97237
      vertex 40.5296 10.3422 1
      vertex 40.0182 9.06739 1
    endloop
  endfacet
  facet normal -0.92812 0.372282 5.12158e-06
    outer loop
      vertex 40.5296 10.3422 11.0592
      vertex 40.5261 10.3335 9.1915
      vertex 40.4288 10.0909 11.0592
    endloop
  endfacet
  facet normal -0.928103 0.372325 -6.0441e-06
    outer loop
      vertex 40.5261 10.3335 9.1915
      vertex 40.1483 9.39168 4.97237
      vertex 39.9229 8.82989 9.29786
    endloop
  endfacet
  facet normal -0.372313 -0.928107 -1.12017e-05
    outer loop
      vertex 15.0234 20.5742 1
      vertex 40.5296 10.3422 11.0592
      vertex 12.7636 21.4807 3.04305
    endloop
  endfacet
  facet normal -0.372316 -0.928106 -0
    outer loop
      vertex 40.5296 10.3422 11.0592
      vertex 15.0234 20.5742 1
      vertex 40.5296 10.3422 1
    endloop
  endfacet
  facet normal 0.372316 0.928106 -1.09211e-06
    outer loop
      vertex 12.587 14.5009 1
      vertex 34.5387 5.69483 10.033
      vertex 33.6048 6.06946 1
    endloop
  endfacet
  facet normal 0.372317 0.928106 -1.98635e-06
    outer loop
      vertex 34.5387 5.69483 10.033
      vertex 12.587 14.5009 1
      vertex 10.3273 15.4074 3.04304
    endloop
  endfacet
  facet normal 0.240199 -0.0963471 -0.965931
    outer loop
      vertex 35.4303 7.3461 10.09
      vertex 40.5296 10.3422 11.0592
      vertex 40.4288 10.0909 11.0592
    endloop
  endfacet
  facet normal 0.240233 -0.0963711 -0.96592
    outer loop
      vertex 34.5387 5.69483 10.033
      vertex 35.4303 7.3461 10.09
      vertex 35.1173 6.01259 10.1452
    endloop
  endfacet
  facet normal 0.240209 -0.0963657 -0.965926
    outer loop
      vertex 35.4303 7.3461 10.09
      vertex 12.7636 21.4807 3.04305
      vertex 40.5296 10.3422 11.0592
    endloop
  endfacet
  facet normal 0.240213 -0.0963596 -0.965926
    outer loop
      vertex 10.3273 15.4074 3.04304
      vertex 35.4303 7.3461 10.09
      vertex 34.5387 5.69483 10.033
    endloop
  endfacet
  facet normal 0.240213 -0.0963595 -0.965926
    outer loop
      vertex 35.4303 7.3461 10.09
      vertex 10.3273 15.4074 3.04304
      vertex 12.7636 21.4807 3.04305
    endloop
  endfacet
  facet normal 0.240212 -0.0963624 -0.965926
    outer loop
      vertex 9.95497 14.4793 3.04304
      vertex 32.8268 4.75478 9.70107
      vertex 12.8512 6.26684 4.58258
    endloop
  endfacet
  facet normal 0.240205 -0.0963775 -0.965926
    outer loop
      vertex 32.8268 4.75478 9.70107
      vertex 9.95497 14.4793 3.04304
      vertex 33.4049 5.0722 9.81316
    endloop
  endfacet
  facet normal 0.24021 -0.096363 -0.965926
    outer loop
      vertex 9.95497 14.4793 3.04304
      vertex 12.8512 6.26684 4.58258
      vertex 7.51861 8.40603 3.04304
    endloop
  endfacet
  facet normal 0.240216 -0.0963685 -0.965924
    outer loop
      vertex 32.7741 1.72544 9.99019
      vertex 28.473 0 9.09269
      vertex 32.7195 4.69584 9.68026
    endloop
  endfacet
  facet normal 0.24022 -0.0962768 -0.965932
    outer loop
      vertex 32.7195 4.69584 9.68026
      vertex 12.8512 6.26684 4.58258
      vertex 32.8268 4.75478 9.70107
    endloop
  endfacet
  facet normal 0.240211 -0.0963638 -0.965926
    outer loop
      vertex 12.8512 6.26684 4.58258
      vertex 32.7195 4.69584 9.68026
      vertex 28.473 0 9.09269
    endloop
  endfacet
  facet normal 0.240208 -0.0963624 -0.965927
    outer loop
      vertex 32.8381 -1.7511 10.3529
      vertex 28.473 0 9.09269
      vertex 32.8059 0 10.1702
    endloop
  endfacet
  facet normal -0.596573 0.239325 -0.766045
    outer loop
      vertex 16.5018 21.0586 0
      vertex 12.587 14.5009 1
      vertex 15.0234 20.5742 1
    endloop
  endfacet
  facet normal -0.596533 0.239294 -0.766085
    outer loop
      vertex 16.5018 21.0586 0
      vertex 12.2147 13.5728 1
      vertex 12.587 14.5009 1
    endloop
  endfacet
  facet normal -0.59657 0.239321 -0.766048
    outer loop
      vertex 10.5121 6.1277 0
      vertex 12.2147 13.5728 1
      vertex 16.5018 21.0586 0
    endloop
  endfacet
  facet normal -0.596584 0.239323 -0.766037
    outer loop
      vertex 10.5121 6.1277 0
      vertex 9.77837 7.49951 1
      vertex 12.2147 13.5728 1
    endloop
  endfacet
  facet normal -0.596573 0.239332 -0.766042
    outer loop
      vertex 7.00517 7.53454 3.17064
      vertex 9.77837 7.49951 1
      vertex 10.5121 6.1277 0
    endloop
  endfacet
  facet normal -0.596577 0.239313 -0.766046
    outer loop
      vertex 9.77837 7.49951 1
      vertex 7.00517 7.53454 3.17064
      vertex 7.51861 8.40603 3.04304
    endloop
  endfacet
  facet normal -0.596572 0.239312 -0.766049
    outer loop
      vertex 15.0234 20.5742 1
      vertex 12.9948 22.4655 3.17064
      vertex 16.5018 21.0586 0
    endloop
  endfacet
  facet normal -0.596576 0.239306 -0.766048
    outer loop
      vertex 12.7636 21.4807 3.04305
      vertex 12.9948 22.4655 3.17064
      vertex 15.0234 20.5742 1
    endloop
  endfacet
  facet normal -0.596534 0.239301 -0.766082
    outer loop
      vertex 10.3273 15.4074 3.04304
      vertex 12.9948 22.4655 3.17064
      vertex 12.7636 21.4807 3.04305
    endloop
  endfacet
  facet normal -0.596185 0.239174 -0.766394
    outer loop
      vertex 9.95497 14.4793 3.04304
      vertex 12.9948 22.4655 3.17064
      vertex 10.3273 15.4074 3.04304
    endloop
  endfacet
  facet normal -0.596607 0.239336 -0.766014
    outer loop
      vertex 7.00517 7.53454 3.17064
      vertex 9.95497 14.4793 3.04304
      vertex 7.51861 8.40603 3.04304
    endloop
  endfacet
  facet normal -0.596517 0.239296 -0.766097
    outer loop
      vertex 9.95497 14.4793 3.04304
      vertex 7.00517 7.53454 3.17064
      vertex 12.9948 22.4655 3.17064
    endloop
  endfacet
  facet normal -0.596586 0.239316 -0.766037
    outer loop
      vertex 12.2147 13.5728 1
      vertex 10.3273 15.4074 3.04304
      vertex 12.587 14.5009 1
    endloop
  endfacet
  facet normal -0.596575 0.239331 -0.766041
    outer loop
      vertex 10.3273 15.4074 3.04304
      vertex 12.2147 13.5728 1
      vertex 9.95497 14.4793 3.04304
    endloop
  endfacet
  facet normal -0.372317 0.928106 1.58291e-06
    outer loop
      vertex 12.2147 -13.5728 1
      vertex 33.4049 -5.0722 9.81316
      vertex 32.4937 -5.43772 1
    endloop
  endfacet
  facet normal -0.372316 0.928106 -2.12231e-06
    outer loop
      vertex 33.4049 -5.0722 9.81316
      vertex 12.2147 -13.5728 1
      vertex 9.95497 -14.4793 3.04304
    endloop
  endfacet
  facet normal 0.372315 -0.928107 -2.8083e-06
    outer loop
      vertex 9.77837 -7.49951 1
      vertex 12.8512 -6.26684 4.58258
      vertex 7.51861 -8.40603 3.04304
    endloop
  endfacet
  facet normal 0.372317 -0.928105 -5.67812e-06
    outer loop
      vertex 28.473 0 1
      vertex 12.8512 -6.26684 4.58258
      vertex 9.77837 -7.49951 1
    endloop
  endfacet
  facet normal 0.372319 -0.928105 0
    outer loop
      vertex 12.8512 -6.26684 4.58258
      vertex 28.473 0 1
      vertex 28.473 0 9.09269
    endloop
  endfacet
  facet normal 0.372327 -0.928101 -3.82541e-05
    outer loop
      vertex 32.8381 1.7511 10.3529
      vertex 28.473 0 9.09269
      vertex 32.7741 1.72544 9.99019
    endloop
  endfacet
  facet normal -0.92812 -0.372282 5.12158e-06
    outer loop
      vertex 40.5261 -10.3335 9.1915
      vertex 40.5296 -10.3422 11.0592
      vertex 40.4288 -10.0909 11.0592
    endloop
  endfacet
  facet normal -0.927739 -0.373229 -0
    outer loop
      vertex 40.5296 -10.3422 11.0592
      vertex 40.5261 -10.3335 9.1915
      vertex 40.5296 -10.3422 1
    endloop
  endfacet
  facet normal -0.928106 -0.372317 1.99311e-06
    outer loop
      vertex 40.5296 -10.3422 1
      vertex 40.1483 -9.39168 4.97237
      vertex 40.0182 -9.06739 1
    endloop
  endfacet
  facet normal -0.92811 -0.372306 -1.13864e-06
    outer loop
      vertex 40.1483 -9.39168 4.97237
      vertex 40.5296 -10.3422 1
      vertex 40.5261 -10.3335 9.1915
    endloop
  endfacet
  facet normal -0.928103 -0.372325 -6.0441e-06
    outer loop
      vertex 39.9229 -8.82989 9.29786
      vertex 40.1483 -9.39168 4.97237
      vertex 40.5261 -10.3335 9.1915
    endloop
  endfacet
  facet normal -0.372316 0.928106 0
    outer loop
      vertex 15.0234 -20.5742 1
      vertex 40.5296 -10.3422 11.0592
      vertex 40.5296 -10.3422 1
    endloop
  endfacet
  facet normal -0.372313 0.928107 -1.12017e-05
    outer loop
      vertex 40.5296 -10.3422 11.0592
      vertex 15.0234 -20.5742 1
      vertex 12.7636 -21.4807 3.04305
    endloop
  endfacet
  facet normal 0.372317 -0.928106 -1.98635e-06
    outer loop
      vertex 12.587 -14.5009 1
      vertex 34.5387 -5.69483 10.033
      vertex 10.3273 -15.4074 3.04304
    endloop
  endfacet
  facet normal 0.372316 -0.928106 -1.09211e-06
    outer loop
      vertex 34.5387 -5.69483 10.033
      vertex 12.587 -14.5009 1
      vertex 33.6048 -6.06946 1
    endloop
  endfacet
  facet normal 0.240199 0.0963471 -0.965931
    outer loop
      vertex 40.5296 -10.3422 11.0592
      vertex 35.4303 -7.3461 10.09
      vertex 40.4288 -10.0909 11.0592
    endloop
  endfacet
  facet normal 0.240233 0.0963711 -0.96592
    outer loop
      vertex 35.4303 -7.3461 10.09
      vertex 34.5387 -5.69483 10.033
      vertex 35.1173 -6.01259 10.1452
    endloop
  endfacet
  facet normal 0.240209 0.0963657 -0.965926
    outer loop
      vertex 12.7636 -21.4807 3.04305
      vertex 35.4303 -7.3461 10.09
      vertex 40.5296 -10.3422 11.0592
    endloop
  endfacet
  facet normal 0.240213 0.0963595 -0.965926
    outer loop
      vertex 10.3273 -15.4074 3.04304
      vertex 35.4303 -7.3461 10.09
      vertex 12.7636 -21.4807 3.04305
    endloop
  endfacet
  facet normal 0.240213 0.0963596 -0.965926
    outer loop
      vertex 35.4303 -7.3461 10.09
      vertex 10.3273 -15.4074 3.04304
      vertex 34.5387 -5.69483 10.033
    endloop
  endfacet
  facet normal 0.240205 0.0963775 -0.965926
    outer loop
      vertex 9.95497 -14.4793 3.04304
      vertex 32.8268 -4.75478 9.70107
      vertex 33.4049 -5.0722 9.81316
    endloop
  endfacet
  facet normal 0.240212 0.0963624 -0.965926
    outer loop
      vertex 32.8268 -4.75478 9.70107
      vertex 9.95497 -14.4793 3.04304
      vertex 12.8512 -6.26684 4.58258
    endloop
  endfacet
  facet normal 0.24021 0.096363 -0.965926
    outer loop
      vertex 12.8512 -6.26684 4.58258
      vertex 9.95497 -14.4793 3.04304
      vertex 7.51861 -8.40603 3.04304
    endloop
  endfacet
  facet normal 0.240211 0.0963638 -0.965926
    outer loop
      vertex 32.7195 -4.69584 9.68026
      vertex 12.8512 -6.26684 4.58258
      vertex 28.473 0 9.09269
    endloop
  endfacet
  facet normal 0.24022 0.0962768 -0.965932
    outer loop
      vertex 12.8512 -6.26684 4.58258
      vertex 32.7195 -4.69584 9.68026
      vertex 32.8268 -4.75478 9.70107
    endloop
  endfacet
  facet normal 0.240216 0.0963685 -0.965924
    outer loop
      vertex 32.7741 -1.72544 9.99019
      vertex 32.7195 -4.69584 9.68026
      vertex 28.473 0 9.09269
    endloop
  endfacet
  facet normal 0.240208 0.0963624 -0.965927
    outer loop
      vertex 32.8381 1.7511 10.3529
      vertex 32.8059 0 10.1702
      vertex 28.473 0 9.09269
    endloop
  endfacet
  facet normal -0.596586 -0.239316 -0.766037
    outer loop
      vertex 10.3273 -15.4074 3.04304
      vertex 12.2147 -13.5728 1
      vertex 12.587 -14.5009 1
    endloop
  endfacet
  facet normal -0.596575 -0.239331 -0.766041
    outer loop
      vertex 12.2147 -13.5728 1
      vertex 10.3273 -15.4074 3.04304
      vertex 9.95497 -14.4793 3.04304
    endloop
  endfacet
  facet normal -0.596572 -0.239312 -0.766049
    outer loop
      vertex 12.9948 -22.4655 3.17064
      vertex 15.0234 -20.5742 1
      vertex 16.5018 -21.0586 0
    endloop
  endfacet
  facet normal -0.596576 -0.239306 -0.766048
    outer loop
      vertex 12.9948 -22.4655 3.17064
      vertex 12.7636 -21.4807 3.04305
      vertex 15.0234 -20.5742 1
    endloop
  endfacet
  facet normal -0.596534 -0.239301 -0.766082
    outer loop
      vertex 12.9948 -22.4655 3.17064
      vertex 10.3273 -15.4074 3.04304
      vertex 12.7636 -21.4807 3.04305
    endloop
  endfacet
  facet normal -0.596185 -0.239174 -0.766394
    outer loop
      vertex 12.9948 -22.4655 3.17064
      vertex 9.95497 -14.4793 3.04304
      vertex 10.3273 -15.4074 3.04304
    endloop
  endfacet
  facet normal -0.596517 -0.239296 -0.766097
    outer loop
      vertex 7.00517 -7.53454 3.17064
      vertex 9.95497 -14.4793 3.04304
      vertex 12.9948 -22.4655 3.17064
    endloop
  endfacet
  facet normal -0.596607 -0.239336 -0.766014
    outer loop
      vertex 9.95497 -14.4793 3.04304
      vertex 7.00517 -7.53454 3.17064
      vertex 7.51861 -8.40603 3.04304
    endloop
  endfacet
  facet normal -0.596573 -0.239325 -0.766045
    outer loop
      vertex 12.587 -14.5009 1
      vertex 16.5018 -21.0586 0
      vertex 15.0234 -20.5742 1
    endloop
  endfacet
  facet normal -0.596533 -0.239294 -0.766085
    outer loop
      vertex 12.2147 -13.5728 1
      vertex 16.5018 -21.0586 0
      vertex 12.587 -14.5009 1
    endloop
  endfacet
  facet normal -0.59657 -0.239321 -0.766048
    outer loop
      vertex 12.2147 -13.5728 1
      vertex 10.5121 -6.1277 0
      vertex 16.5018 -21.0586 0
    endloop
  endfacet
  facet normal -0.596584 -0.239323 -0.766037
    outer loop
      vertex 9.77837 -7.49951 1
      vertex 10.5121 -6.1277 0
      vertex 12.2147 -13.5728 1
    endloop
  endfacet
  facet normal -0.596577 -0.239313 -0.766046
    outer loop
      vertex 7.00517 -7.53454 3.17064
      vertex 9.77837 -7.49951 1
      vertex 7.51861 -8.40603 3.04304
    endloop
  endfacet
  facet normal -0.596573 -0.239332 -0.766042
    outer loop
      vertex 9.77837 -7.49951 1
      vertex 7.00517 -7.53454 3.17064
      vertex 10.5121 -6.1277 0
    endloop
  endfacet
endsolid OpenSCAD_Model
