solid OpenSCAD_Model
  facet normal 0.500001 0.866025 -0
    outer loop
      vertex 48.7768 5.99584 0
      vertex 38.3917 11.9917 8
      vertex 48.7768 5.99584 8
    endloop
  endfacet
  facet normal 0.500001 0.866025 0
    outer loop
      vertex 38.3917 11.9917 8
      vertex 48.7768 5.99584 0
      vertex 38.3917 11.9917 0
    endloop
  endfacet
  facet normal -1 0 0
    outer loop
      vertex 28.0066 -4 0
      vertex 28.0066 -5.99584 0
      vertex 28.0066 -4 3
    endloop
  endfacet
  facet normal -1 0 0
    outer loop
      vertex 28.0066 -0.292447 3
      vertex 28.0066 -4 3
      vertex 28.0066 -0.292447 3.1
    endloop
  endfacet
  facet normal -1 0 0
    outer loop
      vertex 28.0066 4 3
      vertex 28.0066 5.99584 0
      vertex 28.0066 4 0
    endloop
  endfacet
  facet normal -1 0 0
    outer loop
      vertex 28.0066 5.99584 0
      vertex 28.0066 4 3
      vertex 28.0066 5.99584 8
    endloop
  endfacet
  facet normal -1 0 0
    outer loop
      vertex 28.0066 0.292447 3.1
      vertex 28.0066 4 3
      vertex 28.0066 0.292447 3
    endloop
  endfacet
  facet normal -1 0 0
    outer loop
      vertex 28.0066 4 3
      vertex 28.0066 0.292447 3.1
      vertex 28.0066 5.99584 8
    endloop
  endfacet
  facet normal -1 0 0
    outer loop
      vertex 28.0066 -0.292447 3.1
      vertex 28.0066 5.99584 8
      vertex 28.0066 0.292447 3.1
    endloop
  endfacet
  facet normal -1 0 0
    outer loop
      vertex 28.0066 -5.99584 8
      vertex 28.0066 -0.292447 3.1
      vertex 28.0066 -4 3
    endloop
  endfacet
  facet normal -1 0 0
    outer loop
      vertex 28.0066 -0.292447 3.1
      vertex 28.0066 -5.99584 8
      vertex 28.0066 5.99584 8
    endloop
  endfacet
  facet normal -1 0 0
    outer loop
      vertex 28.0066 -5.99584 8
      vertex 28.0066 -4 3
      vertex 28.0066 -5.99584 0
    endloop
  endfacet
  facet normal -0.500001 0.866025 0
    outer loop
      vertex 38.3917 11.9917 0
      vertex 28.0066 5.99584 8
      vertex 38.3917 11.9917 8
    endloop
  endfacet
  facet normal -0.500001 0.866025 0
    outer loop
      vertex 28.0066 5.99584 8
      vertex 38.3917 11.9917 0
      vertex 28.0066 5.99584 0
    endloop
  endfacet
  facet normal 0 0 1
    outer loop
      vertex 48.7768 5.99584 8
      vertex 47.9108 5.49584 8
      vertex 48.7768 -5.99584 8
    endloop
  endfacet
  facet normal 0 0 1
    outer loop
      vertex 38.3917 11.9917 8
      vertex 47.9108 5.49584 8
      vertex 48.7768 5.99584 8
    endloop
  endfacet
  facet normal 0 0 1
    outer loop
      vertex 38.3917 11.9917 8
      vertex 38.3917 10.9917 8
      vertex 47.9108 5.49584 8
    endloop
  endfacet
  facet normal 0 0 1
    outer loop
      vertex 38.3917 11.9917 8
      vertex 28.8726 5.49584 8
      vertex 38.3917 10.9917 8
    endloop
  endfacet
  facet normal 0 0 1
    outer loop
      vertex 28.8726 5.49584 8
      vertex 28.0066 5.99584 8
      vertex 28.8726 -5.49584 8
    endloop
  endfacet
  facet normal -0 0 1
    outer loop
      vertex 28.0066 5.99584 8
      vertex 28.8726 5.49584 8
      vertex 38.3917 11.9917 8
    endloop
  endfacet
  facet normal -0 0 1
    outer loop
      vertex 47.9108 -5.49584 8
      vertex 48.7768 -5.99584 8
      vertex 47.9108 5.49584 8
    endloop
  endfacet
  facet normal 0 0 1
    outer loop
      vertex 38.3917 -10.9917 8
      vertex 48.7768 -5.99584 8
      vertex 47.9108 -5.49584 8
    endloop
  endfacet
  facet normal -0 0 1
    outer loop
      vertex 38.3917 -10.9917 8
      vertex 38.3917 -11.9917 8
      vertex 48.7768 -5.99584 8
    endloop
  endfacet
  facet normal 0 0 1
    outer loop
      vertex 28.8726 -5.49584 8
      vertex 38.3917 -11.9917 8
      vertex 38.3917 -10.9917 8
    endloop
  endfacet
  facet normal 0 0 1
    outer loop
      vertex 28.8726 -5.49584 8
      vertex 28.0066 -5.99584 8
      vertex 38.3917 -11.9917 8
    endloop
  endfacet
  facet normal 0 0 1
    outer loop
      vertex 28.0066 -5.99584 8
      vertex 28.8726 -5.49584 8
      vertex 28.0066 5.99584 8
    endloop
  endfacet
  facet normal 1 -0 0
    outer loop
      vertex 48.7768 -5.99584 8
      vertex 48.7768 5.99584 0
      vertex 48.7768 5.99584 8
    endloop
  endfacet
  facet normal 1 0 0
    outer loop
      vertex 48.7768 5.99584 0
      vertex 48.7768 -5.99584 8
      vertex 48.7768 -5.99584 0
    endloop
  endfacet
  facet normal 0 0 -1
    outer loop
      vertex 28.0066 -4 0
      vertex 27 0 0
      vertex 28.0066 4 0
    endloop
  endfacet
  facet normal 0 0 -1
    outer loop
      vertex 28.0066 -4 0
      vertex 26.9563 -0.415823 0
      vertex 27 0 0
    endloop
  endfacet
  facet normal 0 0 -1
    outer loop
      vertex 28.0066 -4 0
      vertex 26.8271 -0.813473 0
      vertex 26.9563 -0.415823 0
    endloop
  endfacet
  facet normal 0 0 -1
    outer loop
      vertex 28.0066 -4 0
      vertex 26.618 -1.17557 0
      vertex 26.8271 -0.813473 0
    endloop
  endfacet
  facet normal 0 0 -1
    outer loop
      vertex 28.0066 -4 0
      vertex 26.3383 -1.48629 0
      vertex 26.618 -1.17557 0
    endloop
  endfacet
  facet normal 0 0 -1
    outer loop
      vertex 28.0066 -4 0
      vertex 26 -1.73205 0
      vertex 26.3383 -1.48629 0
    endloop
  endfacet
  facet normal 0 0 -1
    outer loop
      vertex 28.0066 -4 0
      vertex 25.618 -1.90211 0
      vertex 26 -1.73205 0
    endloop
  endfacet
  facet normal 0 0 -1
    outer loop
      vertex 28.0066 -4 0
      vertex 25.2091 -1.98904 0
      vertex 25.618 -1.90211 0
    endloop
  endfacet
  facet normal 0 0 -1
    outer loop
      vertex 28.0066 -4 0
      vertex 24.7909 -1.98904 0
      vertex 25.2091 -1.98904 0
    endloop
  endfacet
  facet normal 0 0 -1
    outer loop
      vertex 20 -4 0
      vertex 24.7909 -1.98904 0
      vertex 28.0066 -4 0
    endloop
  endfacet
  facet normal -0 0 -1
    outer loop
      vertex 24.7909 -1.98904 0
      vertex 20 -4 0
      vertex 24.382 -1.90211 0
    endloop
  endfacet
  facet normal -0 0 -1
    outer loop
      vertex 23.0437 -0.415823 0
      vertex 20 -4 0
      vertex 23 0 0
    endloop
  endfacet
  facet normal -0 0 -1
    outer loop
      vertex 23.1729 -0.813473 0
      vertex 20 -4 0
      vertex 23.0437 -0.415823 0
    endloop
  endfacet
  facet normal -0 0 -1
    outer loop
      vertex 23.382 -1.17557 0
      vertex 20 -4 0
      vertex 23.1729 -0.813473 0
    endloop
  endfacet
  facet normal -0 0 -1
    outer loop
      vertex 23.6617 -1.48629 0
      vertex 20 -4 0
      vertex 23.382 -1.17557 0
    endloop
  endfacet
  facet normal -0 0 -1
    outer loop
      vertex 24 -1.73205 0
      vertex 20 -4 0
      vertex 23.6617 -1.48629 0
    endloop
  endfacet
  facet normal -0 0 -1
    outer loop
      vertex 24.382 -1.90211 0
      vertex 20 -4 0
      vertex 24 -1.73205 0
    endloop
  endfacet
  facet normal 0 0 -1
    outer loop
      vertex 26.9563 0.415823 0
      vertex 28.0066 4 0
      vertex 27 0 0
    endloop
  endfacet
  facet normal 0 0 -1
    outer loop
      vertex 26.8271 0.813473 0
      vertex 28.0066 4 0
      vertex 26.9563 0.415823 0
    endloop
  endfacet
  facet normal 0 0 -1
    outer loop
      vertex 26.618 1.17557 0
      vertex 28.0066 4 0
      vertex 26.8271 0.813473 0
    endloop
  endfacet
  facet normal 0 0 -1
    outer loop
      vertex 26.3383 1.48629 0
      vertex 28.0066 4 0
      vertex 26.618 1.17557 0
    endloop
  endfacet
  facet normal 0 0 -1
    outer loop
      vertex 26 1.73205 0
      vertex 28.0066 4 0
      vertex 26.3383 1.48629 0
    endloop
  endfacet
  facet normal 0 0 -1
    outer loop
      vertex 25.618 1.90211 0
      vertex 28.0066 4 0
      vertex 26 1.73205 0
    endloop
  endfacet
  facet normal 0 0 -1
    outer loop
      vertex 25.2091 1.98904 0
      vertex 28.0066 4 0
      vertex 25.618 1.90211 0
    endloop
  endfacet
  facet normal 0 0 -1
    outer loop
      vertex 24.7909 1.98904 0
      vertex 28.0066 4 0
      vertex 25.2091 1.98904 0
    endloop
  endfacet
  facet normal 0 0 -1
    outer loop
      vertex 20 4 0
      vertex 24.7909 1.98904 0
      vertex 24.382 1.90211 0
    endloop
  endfacet
  facet normal 0 0 -1
    outer loop
      vertex 20 4 0
      vertex 24.382 1.90211 0
      vertex 24 1.73205 0
    endloop
  endfacet
  facet normal 0 0 -1
    outer loop
      vertex 20 4 0
      vertex 23 0 0
      vertex 20 -4 0
    endloop
  endfacet
  facet normal 0 0 -1
    outer loop
      vertex 23 0 0
      vertex 20 4 0
      vertex 23.0437 0.415823 0
    endloop
  endfacet
  facet normal 0 0 -1
    outer loop
      vertex 23.0437 0.415823 0
      vertex 20 4 0
      vertex 23.1729 0.813473 0
    endloop
  endfacet
  facet normal 0 0 -1
    outer loop
      vertex 24.7909 1.98904 0
      vertex 20 4 0
      vertex 28.0066 4 0
    endloop
  endfacet
  facet normal 0 0 -1
    outer loop
      vertex 23.6617 1.48629 0
      vertex 20 4 0
      vertex 24 1.73205 0
    endloop
  endfacet
  facet normal 0 0 -1
    outer loop
      vertex 23.382 1.17557 0
      vertex 20 4 0
      vertex 23.6617 1.48629 0
    endloop
  endfacet
  facet normal 0 0 -1
    outer loop
      vertex 23.1729 0.813473 0
      vertex 20 4 0
      vertex 23.382 1.17557 0
    endloop
  endfacet
  facet normal 0 0 -1
    outer loop
      vertex 48.7768 -5.99584 0
      vertex 47.9108 -5.49584 0
      vertex 48.7768 5.99584 0
    endloop
  endfacet
  facet normal 0 0 -1
    outer loop
      vertex 38.3917 -11.9917 0
      vertex 47.9108 -5.49584 0
      vertex 48.7768 -5.99584 0
    endloop
  endfacet
  facet normal 0 0 -1
    outer loop
      vertex 38.3917 -11.9917 0
      vertex 38.3917 -10.9917 0
      vertex 47.9108 -5.49584 0
    endloop
  endfacet
  facet normal 0 0 -1
    outer loop
      vertex 38.3917 -11.9917 0
      vertex 28.8726 -5.49584 0
      vertex 38.3917 -10.9917 0
    endloop
  endfacet
  facet normal 0 0 -1
    outer loop
      vertex 28.0066 -4 0
      vertex 28.8726 -5.49584 0
      vertex 28.0066 -5.99584 0
    endloop
  endfacet
  facet normal 0 0 -1
    outer loop
      vertex 28.0066 -5.99584 0
      vertex 28.8726 -5.49584 0
      vertex 38.3917 -11.9917 0
    endloop
  endfacet
  facet normal 0 0 -1
    outer loop
      vertex 47.9108 5.49584 0
      vertex 48.7768 5.99584 0
      vertex 47.9108 -5.49584 0
    endloop
  endfacet
  facet normal 0 0 -1
    outer loop
      vertex 38.3917 10.9917 0
      vertex 48.7768 5.99584 0
      vertex 47.9108 5.49584 0
    endloop
  endfacet
  facet normal 0 0 -1
    outer loop
      vertex 38.3917 10.9917 0
      vertex 38.3917 11.9917 0
      vertex 48.7768 5.99584 0
    endloop
  endfacet
  facet normal 0 0 -1
    outer loop
      vertex 28.8726 5.49584 0
      vertex 38.3917 11.9917 0
      vertex 38.3917 10.9917 0
    endloop
  endfacet
  facet normal 0 0 -1
    outer loop
      vertex 28.8726 -5.49584 0
      vertex 28.0066 -4 0
      vertex 28.8726 5.49584 0
    endloop
  endfacet
  facet normal 0 0 -1
    outer loop
      vertex 28.0066 4 0
      vertex 28.8726 5.49584 0
      vertex 28.0066 -4 0
    endloop
  endfacet
  facet normal 0 0 -1
    outer loop
      vertex 28.8726 5.49584 0
      vertex 28.0066 5.99584 0
      vertex 38.3917 11.9917 0
    endloop
  endfacet
  facet normal 0 0 -1
    outer loop
      vertex 28.0066 5.99584 0
      vertex 28.8726 5.49584 0
      vertex 28.0066 4 0
    endloop
  endfacet
  facet normal 0.500001 -0.866025 0
    outer loop
      vertex 38.3917 -11.9917 0
      vertex 48.7768 -5.99584 8
      vertex 38.3917 -11.9917 8
    endloop
  endfacet
  facet normal 0.500001 -0.866025 0
    outer loop
      vertex 48.7768 -5.99584 8
      vertex 38.3917 -11.9917 0
      vertex 48.7768 -5.99584 0
    endloop
  endfacet
  facet normal -0.500001 -0.866025 0
    outer loop
      vertex 28.0066 -5.99584 0
      vertex 38.3917 -11.9917 8
      vertex 28.0066 -5.99584 8
    endloop
  endfacet
  facet normal -0.500001 -0.866025 -0
    outer loop
      vertex 38.3917 -11.9917 8
      vertex 28.0066 -5.99584 0
      vertex 38.3917 -11.9917 0
    endloop
  endfacet
  facet normal -1 0 0
    outer loop
      vertex 20 -4 0
      vertex 20 4 3
      vertex 20 4 0
    endloop
  endfacet
  facet normal -1 -0 0
    outer loop
      vertex 20 4 3
      vertex 20 -4 0
      vertex 20 -4 3
    endloop
  endfacet
  facet normal 0 0 1
    outer loop
      vertex 28.0066 4 3
      vertex 26.5877 2.75 3
      vertex 28.0066 0.292447 3
    endloop
  endfacet
  facet normal 0 0 1
    outer loop
      vertex 28.0066 4 3
      vertex 23.4123 2.75 3
      vertex 26.5877 2.75 3
    endloop
  endfacet
  facet normal 0 0 1
    outer loop
      vertex 23.4123 2.75 3
      vertex 20 4 3
      vertex 21.8246 0 3
    endloop
  endfacet
  facet normal -0 0 1
    outer loop
      vertex 20 4 3
      vertex 23.4123 2.75 3
      vertex 28.0066 4 3
    endloop
  endfacet
  facet normal -0 0 1
    outer loop
      vertex 26.5877 -2.75 3
      vertex 28.0066 -4 3
      vertex 28.0066 -0.292447 3
    endloop
  endfacet
  facet normal -0 0 1
    outer loop
      vertex 23.4123 -2.75 3
      vertex 28.0066 -4 3
      vertex 26.5877 -2.75 3
    endloop
  endfacet
  facet normal 0 0 1
    outer loop
      vertex 23.4123 -2.75 3
      vertex 20 -4 3
      vertex 28.0066 -4 3
    endloop
  endfacet
  facet normal 0 0 1
    outer loop
      vertex 21.8246 0 3
      vertex 20 -4 3
      vertex 23.4123 -2.75 3
    endloop
  endfacet
  facet normal 0 0 1
    outer loop
      vertex 20 -4 3
      vertex 21.8246 0 3
      vertex 20 4 3
    endloop
  endfacet
  facet normal 0 -1 0
    outer loop
      vertex 20 -4 0
      vertex 28.0066 -4 3
      vertex 20 -4 3
    endloop
  endfacet
  facet normal 0 -1 -0
    outer loop
      vertex 28.0066 -4 3
      vertex 20 -4 0
      vertex 28.0066 -4 0
    endloop
  endfacet
  facet normal 0 1 -0
    outer loop
      vertex 28.0066 4 0
      vertex 20 4 3
      vertex 28.0066 4 3
    endloop
  endfacet
  facet normal 0 1 0
    outer loop
      vertex 20 4 3
      vertex 28.0066 4 0
      vertex 20 4 0
    endloop
  endfacet
  facet normal -0.994523 -0.104517 0
    outer loop
      vertex 27 0 0
      vertex 26.9563 0.415823 1.4
      vertex 26.9563 0.415823 0
    endloop
  endfacet
  facet normal -0.994523 -0.104517 0
    outer loop
      vertex 26.9563 0.415823 1.4
      vertex 27 0 0
      vertex 27 0 1.4
    endloop
  endfacet
  facet normal 0.994523 -0.104517 0
    outer loop
      vertex 23 0 1.4
      vertex 23.0437 0.415823 0
      vertex 23.0437 0.415823 1.4
    endloop
  endfacet
  facet normal 0.994523 -0.104517 0
    outer loop
      vertex 23.0437 0.415823 0
      vertex 23 0 1.4
      vertex 23 0 0
    endloop
  endfacet
  facet normal 0 -1 0
    outer loop
      vertex 24.7909 1.98904 0
      vertex 25.2091 1.98904 1.4
      vertex 24.7909 1.98904 1.4
    endloop
  endfacet
  facet normal 0 -1 -0
    outer loop
      vertex 25.2091 1.98904 1.4
      vertex 24.7909 1.98904 0
      vertex 25.2091 1.98904 0
    endloop
  endfacet
  facet normal 0 1 -0
    outer loop
      vertex 25.2091 -1.98904 0
      vertex 24.7909 -1.98904 1.4
      vertex 25.2091 -1.98904 1.4
    endloop
  endfacet
  facet normal 0 1 0
    outer loop
      vertex 24.7909 -1.98904 1.4
      vertex 25.2091 -1.98904 0
      vertex 24.7909 -1.98904 0
    endloop
  endfacet
  facet normal -0.587739 -0.80905 0
    outer loop
      vertex 26 1.73205 0
      vertex 26.3383 1.48629 1.4
      vertex 26 1.73205 1.4
    endloop
  endfacet
  facet normal -0.587739 -0.80905 -0
    outer loop
      vertex 26.3383 1.48629 1.4
      vertex 26 1.73205 0
      vertex 26.3383 1.48629 0
    endloop
  endfacet
  facet normal -0.406702 -0.913561 0
    outer loop
      vertex 25.618 1.90211 0
      vertex 26 1.73205 1.4
      vertex 25.618 1.90211 1.4
    endloop
  endfacet
  facet normal -0.406702 -0.913561 -0
    outer loop
      vertex 26 1.73205 1.4
      vertex 25.618 1.90211 0
      vertex 26 1.73205 0
    endloop
  endfacet
  facet normal 0.743232 -0.669033 0
    outer loop
      vertex 23.382 1.17557 1.4
      vertex 23.6617 1.48629 0
      vertex 23.6617 1.48629 1.4
    endloop
  endfacet
  facet normal 0.743232 -0.669033 0
    outer loop
      vertex 23.6617 1.48629 0
      vertex 23.382 1.17557 1.4
      vertex 23.382 1.17557 0
    endloop
  endfacet
  facet normal 0 0 -1
    outer loop
      vertex 28.0066 0.292447 3.1
      vertex 28.1754 0 3.1
      vertex 28.0066 -0.292447 3.1
    endloop
  endfacet
  facet normal 0.406702 -0.913561 0
    outer loop
      vertex 24 1.73205 0
      vertex 24.382 1.90211 1.4
      vertex 24 1.73205 1.4
    endloop
  endfacet
  facet normal 0.406702 -0.913561 0
    outer loop
      vertex 24.382 1.90211 1.4
      vertex 24 1.73205 0
      vertex 24.382 1.90211 0
    endloop
  endfacet
  facet normal -0.95106 0.309008 0
    outer loop
      vertex 26.8271 -0.813473 0
      vertex 26.9563 -0.415823 1.4
      vertex 26.9563 -0.415823 0
    endloop
  endfacet
  facet normal -0.95106 0.309008 0
    outer loop
      vertex 26.9563 -0.415823 1.4
      vertex 26.8271 -0.813473 0
      vertex 26.8271 -0.813473 1.4
    endloop
  endfacet
  facet normal -0.865981 -0.500077 0
    outer loop
      vertex 26.8271 0.813473 0
      vertex 26.618 1.17557 1.4
      vertex 26.618 1.17557 0
    endloop
  endfacet
  facet normal -0.865981 -0.500077 0
    outer loop
      vertex 26.618 1.17557 1.4
      vertex 26.8271 0.813473 0
      vertex 26.8271 0.813473 1.4
    endloop
  endfacet
  facet normal -0.95106 -0.309008 0
    outer loop
      vertex 26.9563 0.415823 0
      vertex 26.8271 0.813473 1.4
      vertex 26.8271 0.813473 0
    endloop
  endfacet
  facet normal -0.95106 -0.309008 0
    outer loop
      vertex 26.8271 0.813473 1.4
      vertex 26.9563 0.415823 0
      vertex 26.9563 0.415823 1.4
    endloop
  endfacet
  facet normal -0.743232 -0.669033 0
    outer loop
      vertex 26.618 1.17557 0
      vertex 26.3383 1.48629 1.4
      vertex 26.3383 1.48629 0
    endloop
  endfacet
  facet normal -0.743232 -0.669033 0
    outer loop
      vertex 26.3383 1.48629 1.4
      vertex 26.618 1.17557 0
      vertex 26.618 1.17557 1.4
    endloop
  endfacet
  facet normal -0.207947 -0.97814 0
    outer loop
      vertex 25.2091 1.98904 0
      vertex 25.618 1.90211 1.4
      vertex 25.2091 1.98904 1.4
    endloop
  endfacet
  facet normal -0.207947 -0.97814 -0
    outer loop
      vertex 25.618 1.90211 1.4
      vertex 25.2091 1.98904 0
      vertex 25.618 1.90211 0
    endloop
  endfacet
  facet normal 0.865981 -0.500077 0
    outer loop
      vertex 23.1729 0.813473 1.4
      vertex 23.382 1.17557 0
      vertex 23.382 1.17557 1.4
    endloop
  endfacet
  facet normal 0.865981 -0.500077 0
    outer loop
      vertex 23.382 1.17557 0
      vertex 23.1729 0.813473 1.4
      vertex 23.1729 0.813473 0
    endloop
  endfacet
  facet normal 0.95106 -0.309008 0
    outer loop
      vertex 23.0437 0.415823 1.4
      vertex 23.1729 0.813473 0
      vertex 23.1729 0.813473 1.4
    endloop
  endfacet
  facet normal 0.95106 -0.309008 0
    outer loop
      vertex 23.1729 0.813473 0
      vertex 23.0437 0.415823 1.4
      vertex 23.0437 0.415823 0
    endloop
  endfacet
  facet normal 0.587739 -0.80905 0
    outer loop
      vertex 23.6617 1.48629 0
      vertex 24 1.73205 1.4
      vertex 23.6617 1.48629 1.4
    endloop
  endfacet
  facet normal 0.587739 -0.80905 0
    outer loop
      vertex 24 1.73205 1.4
      vertex 23.6617 1.48629 0
      vertex 24 1.73205 0
    endloop
  endfacet
  facet normal 0.207947 -0.97814 0
    outer loop
      vertex 24.382 1.90211 0
      vertex 24.7909 1.98904 1.4
      vertex 24.382 1.90211 1.4
    endloop
  endfacet
  facet normal 0.207947 -0.97814 0
    outer loop
      vertex 24.7909 1.98904 1.4
      vertex 24.382 1.90211 0
      vertex 24.7909 1.98904 0
    endloop
  endfacet
  facet normal -0.994523 0.104517 0
    outer loop
      vertex 26.9563 -0.415823 0
      vertex 27 0 1.4
      vertex 27 0 0
    endloop
  endfacet
  facet normal -0.994523 0.104517 0
    outer loop
      vertex 27 0 1.4
      vertex 26.9563 -0.415823 0
      vertex 26.9563 -0.415823 1.4
    endloop
  endfacet
  facet normal -0.207947 0.97814 0
    outer loop
      vertex 25.618 -1.90211 0
      vertex 25.2091 -1.98904 1.4
      vertex 25.618 -1.90211 1.4
    endloop
  endfacet
  facet normal -0.207947 0.97814 0
    outer loop
      vertex 25.2091 -1.98904 1.4
      vertex 25.618 -1.90211 0
      vertex 25.2091 -1.98904 0
    endloop
  endfacet
  facet normal -0.865981 0.500077 0
    outer loop
      vertex 26.618 -1.17557 0
      vertex 26.8271 -0.813473 1.4
      vertex 26.8271 -0.813473 0
    endloop
  endfacet
  facet normal -0.865981 0.500077 0
    outer loop
      vertex 26.8271 -0.813473 1.4
      vertex 26.618 -1.17557 0
      vertex 26.618 -1.17557 1.4
    endloop
  endfacet
  facet normal -0.587739 0.80905 0
    outer loop
      vertex 26.3383 -1.48629 0
      vertex 26 -1.73205 1.4
      vertex 26.3383 -1.48629 1.4
    endloop
  endfacet
  facet normal -0.587739 0.80905 0
    outer loop
      vertex 26 -1.73205 1.4
      vertex 26.3383 -1.48629 0
      vertex 26 -1.73205 0
    endloop
  endfacet
  facet normal -0.406702 0.913561 0
    outer loop
      vertex 26 -1.73205 0
      vertex 25.618 -1.90211 1.4
      vertex 26 -1.73205 1.4
    endloop
  endfacet
  facet normal -0.406702 0.913561 0
    outer loop
      vertex 25.618 -1.90211 1.4
      vertex 26 -1.73205 0
      vertex 25.618 -1.90211 0
    endloop
  endfacet
  facet normal 0.207947 0.97814 -0
    outer loop
      vertex 24.7909 -1.98904 0
      vertex 24.382 -1.90211 1.4
      vertex 24.7909 -1.98904 1.4
    endloop
  endfacet
  facet normal 0.207947 0.97814 0
    outer loop
      vertex 24.382 -1.90211 1.4
      vertex 24.7909 -1.98904 0
      vertex 24.382 -1.90211 0
    endloop
  endfacet
  facet normal 0.743232 0.669033 0
    outer loop
      vertex 23.6617 -1.48629 1.4
      vertex 23.382 -1.17557 0
      vertex 23.382 -1.17557 1.4
    endloop
  endfacet
  facet normal 0.743232 0.669033 0
    outer loop
      vertex 23.382 -1.17557 0
      vertex 23.6617 -1.48629 1.4
      vertex 23.6617 -1.48629 0
    endloop
  endfacet
  facet normal 0.865981 0.500077 0
    outer loop
      vertex 23.382 -1.17557 1.4
      vertex 23.1729 -0.813473 0
      vertex 23.1729 -0.813473 1.4
    endloop
  endfacet
  facet normal 0.865981 0.500077 0
    outer loop
      vertex 23.1729 -0.813473 0
      vertex 23.382 -1.17557 1.4
      vertex 23.382 -1.17557 0
    endloop
  endfacet
  facet normal 0.95106 0.309008 0
    outer loop
      vertex 23.1729 -0.813473 1.4
      vertex 23.0437 -0.415823 0
      vertex 23.0437 -0.415823 1.4
    endloop
  endfacet
  facet normal 0.95106 0.309008 0
    outer loop
      vertex 23.0437 -0.415823 0
      vertex 23.1729 -0.813473 1.4
      vertex 23.1729 -0.813473 0
    endloop
  endfacet
  facet normal 0.994523 0.104517 0
    outer loop
      vertex 23.0437 -0.415823 1.4
      vertex 23 0 0
      vertex 23 0 1.4
    endloop
  endfacet
  facet normal 0.994523 0.104517 0
    outer loop
      vertex 23 0 0
      vertex 23.0437 -0.415823 1.4
      vertex 23.0437 -0.415823 0
    endloop
  endfacet
  facet normal -0.743232 0.669033 0
    outer loop
      vertex 26.3383 -1.48629 0
      vertex 26.618 -1.17557 1.4
      vertex 26.618 -1.17557 0
    endloop
  endfacet
  facet normal -0.743232 0.669033 0
    outer loop
      vertex 26.618 -1.17557 1.4
      vertex 26.3383 -1.48629 0
      vertex 26.3383 -1.48629 1.4
    endloop
  endfacet
  facet normal 0.406702 0.913561 -0
    outer loop
      vertex 24.382 -1.90211 0
      vertex 24 -1.73205 1.4
      vertex 24.382 -1.90211 1.4
    endloop
  endfacet
  facet normal 0.406702 0.913561 0
    outer loop
      vertex 24 -1.73205 1.4
      vertex 24.382 -1.90211 0
      vertex 24 -1.73205 0
    endloop
  endfacet
  facet normal 0.587739 0.80905 -0
    outer loop
      vertex 24 -1.73205 0
      vertex 23.6617 -1.48629 1.4
      vertex 24 -1.73205 1.4
    endloop
  endfacet
  facet normal 0.587739 0.80905 0
    outer loop
      vertex 23.6617 -1.48629 1.4
      vertex 24 -1.73205 0
      vertex 23.6617 -1.48629 0
    endloop
  endfacet
  facet normal -0.866021 -0.500008 0
    outer loop
      vertex 26.5877 2.75 1.4
      vertex 28.0066 0.292447 3
      vertex 26.5877 2.75 3
    endloop
  endfacet
  facet normal -0.866027 -0.499997 2.32453e-05
    outer loop
      vertex 28.1754 0 1.4
      vertex 28.0066 0.292447 3
      vertex 26.5877 2.75 1.4
    endloop
  endfacet
  facet normal -0.866082 -0.499901 -0
    outer loop
      vertex 28.1754 0 3.1
      vertex 28.0066 0.292447 3
      vertex 28.1754 0 1.4
    endloop
  endfacet
  facet normal -0.866082 -0.499901 0
    outer loop
      vertex 28.0066 0.292447 3
      vertex 28.1754 0 3.1
      vertex 28.0066 0.292447 3.1
    endloop
  endfacet
  facet normal 0.866027 -0.499997 0
    outer loop
      vertex 21.8246 0 3
      vertex 23.4123 2.75 1.4
      vertex 23.4123 2.75 3
    endloop
  endfacet
  facet normal 0.866027 -0.499997 0
    outer loop
      vertex 23.4123 2.75 1.4
      vertex 21.8246 0 3
      vertex 21.8246 0 1.4
    endloop
  endfacet
  facet normal 0 -1 0
    outer loop
      vertex 23.4123 2.75 1.4
      vertex 26.5877 2.75 3
      vertex 23.4123 2.75 3
    endloop
  endfacet
  facet normal 0 -1 -0
    outer loop
      vertex 26.5877 2.75 3
      vertex 23.4123 2.75 1.4
      vertex 26.5877 2.75 1.4
    endloop
  endfacet
  facet normal 0 0 1
    outer loop
      vertex 28.1754 0 1.4
      vertex 26.9563 0.415823 1.4
      vertex 27 0 1.4
    endloop
  endfacet
  facet normal 0 0 1
    outer loop
      vertex 28.1754 0 1.4
      vertex 26.8271 0.813473 1.4
      vertex 26.9563 0.415823 1.4
    endloop
  endfacet
  facet normal 0 0 1
    outer loop
      vertex 28.1754 0 1.4
      vertex 26.618 1.17557 1.4
      vertex 26.8271 0.813473 1.4
    endloop
  endfacet
  facet normal 0 0 1
    outer loop
      vertex 26.5877 2.75 1.4
      vertex 26.618 1.17557 1.4
      vertex 28.1754 0 1.4
    endloop
  endfacet
  facet normal 0 0 1
    outer loop
      vertex 26.5877 2.75 1.4
      vertex 26.3383 1.48629 1.4
      vertex 26.618 1.17557 1.4
    endloop
  endfacet
  facet normal 0 0 1
    outer loop
      vertex 26.5877 2.75 1.4
      vertex 26 1.73205 1.4
      vertex 26.3383 1.48629 1.4
    endloop
  endfacet
  facet normal 0 0 1
    outer loop
      vertex 26.5877 2.75 1.4
      vertex 25.618 1.90211 1.4
      vertex 26 1.73205 1.4
    endloop
  endfacet
  facet normal 0 0 1
    outer loop
      vertex 26.5877 2.75 1.4
      vertex 25.2091 1.98904 1.4
      vertex 25.618 1.90211 1.4
    endloop
  endfacet
  facet normal 0 0 1
    outer loop
      vertex 26.5877 2.75 1.4
      vertex 24.7909 1.98904 1.4
      vertex 25.2091 1.98904 1.4
    endloop
  endfacet
  facet normal -0 0 1
    outer loop
      vertex 23.4123 2.75 1.4
      vertex 24.7909 1.98904 1.4
      vertex 26.5877 2.75 1.4
    endloop
  endfacet
  facet normal 0 0 1
    outer loop
      vertex 24.7909 1.98904 1.4
      vertex 23.4123 2.75 1.4
      vertex 24.382 1.90211 1.4
    endloop
  endfacet
  facet normal 0 0 1
    outer loop
      vertex 23.4123 2.75 1.4
      vertex 24 1.73205 1.4
      vertex 24.382 1.90211 1.4
    endloop
  endfacet
  facet normal 0 0 1
    outer loop
      vertex 23.4123 2.75 1.4
      vertex 23.6617 1.48629 1.4
      vertex 24 1.73205 1.4
    endloop
  endfacet
  facet normal 0 0 1
    outer loop
      vertex 23.4123 2.75 1.4
      vertex 23.382 1.17557 1.4
      vertex 23.6617 1.48629 1.4
    endloop
  endfacet
  facet normal 0 0 1
    outer loop
      vertex 23.4123 2.75 1.4
      vertex 23.1729 0.813473 1.4
      vertex 23.382 1.17557 1.4
    endloop
  endfacet
  facet normal 0 0 1
    outer loop
      vertex 21.8246 0 1.4
      vertex 23.1729 0.813473 1.4
      vertex 23.4123 2.75 1.4
    endloop
  endfacet
  facet normal 0 0 1
    outer loop
      vertex 23.0437 0.415823 1.4
      vertex 21.8246 0 1.4
      vertex 23 0 1.4
    endloop
  endfacet
  facet normal 0 0 1
    outer loop
      vertex 23.1729 0.813473 1.4
      vertex 21.8246 0 1.4
      vertex 23.0437 0.415823 1.4
    endloop
  endfacet
  facet normal 0 0 1
    outer loop
      vertex 26.9563 -0.415823 1.4
      vertex 28.1754 0 1.4
      vertex 27 0 1.4
    endloop
  endfacet
  facet normal 0 0 1
    outer loop
      vertex 26.8271 -0.813473 1.4
      vertex 28.1754 0 1.4
      vertex 26.9563 -0.415823 1.4
    endloop
  endfacet
  facet normal 0 0 1
    outer loop
      vertex 26.618 -1.17557 1.4
      vertex 28.1754 0 1.4
      vertex 26.8271 -0.813473 1.4
    endloop
  endfacet
  facet normal -0 0 1
    outer loop
      vertex 26.618 -1.17557 1.4
      vertex 26.5877 -2.75 1.4
      vertex 28.1754 0 1.4
    endloop
  endfacet
  facet normal -0 0 1
    outer loop
      vertex 26.3383 -1.48629 1.4
      vertex 26.5877 -2.75 1.4
      vertex 26.618 -1.17557 1.4
    endloop
  endfacet
  facet normal -0 0 1
    outer loop
      vertex 26 -1.73205 1.4
      vertex 26.5877 -2.75 1.4
      vertex 26.3383 -1.48629 1.4
    endloop
  endfacet
  facet normal -0 0 1
    outer loop
      vertex 25.618 -1.90211 1.4
      vertex 26.5877 -2.75 1.4
      vertex 26 -1.73205 1.4
    endloop
  endfacet
  facet normal -0 0 1
    outer loop
      vertex 25.2091 -1.98904 1.4
      vertex 26.5877 -2.75 1.4
      vertex 25.618 -1.90211 1.4
    endloop
  endfacet
  facet normal -0 0 1
    outer loop
      vertex 24.7909 -1.98904 1.4
      vertex 26.5877 -2.75 1.4
      vertex 25.2091 -1.98904 1.4
    endloop
  endfacet
  facet normal 0 0 1
    outer loop
      vertex 23.4123 -2.75 1.4
      vertex 24.7909 -1.98904 1.4
      vertex 24.382 -1.90211 1.4
    endloop
  endfacet
  facet normal 0 0 1
    outer loop
      vertex 24.7909 -1.98904 1.4
      vertex 23.4123 -2.75 1.4
      vertex 26.5877 -2.75 1.4
    endloop
  endfacet
  facet normal 0 0 1
    outer loop
      vertex 24 -1.73205 1.4
      vertex 23.4123 -2.75 1.4
      vertex 24.382 -1.90211 1.4
    endloop
  endfacet
  facet normal 0 0 1
    outer loop
      vertex 23.6617 -1.48629 1.4
      vertex 23.4123 -2.75 1.4
      vertex 24 -1.73205 1.4
    endloop
  endfacet
  facet normal 0 0 1
    outer loop
      vertex 23.382 -1.17557 1.4
      vertex 23.4123 -2.75 1.4
      vertex 23.6617 -1.48629 1.4
    endloop
  endfacet
  facet normal 0 0 1
    outer loop
      vertex 23.1729 -0.813473 1.4
      vertex 23.4123 -2.75 1.4
      vertex 23.382 -1.17557 1.4
    endloop
  endfacet
  facet normal 0 0 1
    outer loop
      vertex 21.8246 0 1.4
      vertex 23.1729 -0.813473 1.4
      vertex 23.0437 -0.415823 1.4
    endloop
  endfacet
  facet normal 0 0 1
    outer loop
      vertex 23.1729 -0.813473 1.4
      vertex 21.8246 0 1.4
      vertex 23.4123 -2.75 1.4
    endloop
  endfacet
  facet normal -0 0 1
    outer loop
      vertex 21.8246 0 1.4
      vertex 23.0437 -0.415823 1.4
      vertex 23 0 1.4
    endloop
  endfacet
  facet normal -0.866082 0.499901 0
    outer loop
      vertex 28.1754 0 1.4
      vertex 28.0066 -0.292447 3
      vertex 28.1754 0 3.1
    endloop
  endfacet
  facet normal -0.866027 0.499997 2.32453e-05
    outer loop
      vertex 26.5877 -2.75 1.4
      vertex 28.0066 -0.292447 3
      vertex 28.1754 0 1.4
    endloop
  endfacet
  facet normal -0.866021 0.500008 0
    outer loop
      vertex 28.0066 -0.292447 3
      vertex 26.5877 -2.75 1.4
      vertex 26.5877 -2.75 3
    endloop
  endfacet
  facet normal -0.866082 0.499901 0
    outer loop
      vertex 28.1754 0 3.1
      vertex 28.0066 -0.292447 3
      vertex 28.0066 -0.292447 3.1
    endloop
  endfacet
  facet normal 0.866027 0.499997 0
    outer loop
      vertex 23.4123 -2.75 3
      vertex 21.8246 0 1.4
      vertex 21.8246 0 3
    endloop
  endfacet
  facet normal 0.866027 0.499997 0
    outer loop
      vertex 21.8246 0 1.4
      vertex 23.4123 -2.75 3
      vertex 23.4123 -2.75 1.4
    endloop
  endfacet
  facet normal 0 1 -0
    outer loop
      vertex 26.5877 -2.75 1.4
      vertex 23.4123 -2.75 3
      vertex 26.5877 -2.75 3
    endloop
  endfacet
  facet normal 0 1 0
    outer loop
      vertex 23.4123 -2.75 3
      vertex 26.5877 -2.75 1.4
      vertex 23.4123 -2.75 1.4
    endloop
  endfacet
  facet normal -0.5 -0.866025 0
    outer loop
      vertex 38.3917 10.9917 0
      vertex 47.9108 5.49584 8
      vertex 38.3917 10.9917 8
    endloop
  endfacet
  facet normal -0.5 -0.866025 -0
    outer loop
      vertex 47.9108 5.49584 8
      vertex 38.3917 10.9917 0
      vertex 47.9108 5.49584 0
    endloop
  endfacet
  facet normal 1 -0 0
    outer loop
      vertex 28.8726 -5.49584 8
      vertex 28.8726 5.49584 0
      vertex 28.8726 5.49584 8
    endloop
  endfacet
  facet normal 1 0 0
    outer loop
      vertex 28.8726 5.49584 0
      vertex 28.8726 -5.49584 8
      vertex 28.8726 -5.49584 0
    endloop
  endfacet
  facet normal 0.5 -0.866025 0
    outer loop
      vertex 28.8726 5.49584 0
      vertex 38.3917 10.9917 8
      vertex 28.8726 5.49584 8
    endloop
  endfacet
  facet normal 0.5 -0.866025 0
    outer loop
      vertex 38.3917 10.9917 8
      vertex 28.8726 5.49584 0
      vertex 38.3917 10.9917 0
    endloop
  endfacet
  facet normal -1 0 0
    outer loop
      vertex 47.9108 -5.49584 0
      vertex 47.9108 5.49584 8
      vertex 47.9108 5.49584 0
    endloop
  endfacet
  facet normal -1 -0 0
    outer loop
      vertex 47.9108 5.49584 8
      vertex 47.9108 -5.49584 0
      vertex 47.9108 -5.49584 8
    endloop
  endfacet
  facet normal -0.5 0.866025 0
    outer loop
      vertex 47.9108 -5.49584 0
      vertex 38.3917 -10.9917 8
      vertex 47.9108 -5.49584 8
    endloop
  endfacet
  facet normal -0.5 0.866025 0
    outer loop
      vertex 38.3917 -10.9917 8
      vertex 47.9108 -5.49584 0
      vertex 38.3917 -10.9917 0
    endloop
  endfacet
  facet normal 0.5 0.866025 -0
    outer loop
      vertex 38.3917 -10.9917 0
      vertex 28.8726 -5.49584 8
      vertex 38.3917 -10.9917 8
    endloop
  endfacet
  facet normal 0.5 0.866025 0
    outer loop
      vertex 28.8726 -5.49584 8
      vertex 38.3917 -10.9917 0
      vertex 28.8726 -5.49584 0
    endloop
  endfacet
endsolid OpenSCAD_Model
