solid OpenSCAD_Model
  facet normal -0.492402 0.866026 0.0868253
    outer loop
      vertex 37.845 9.60043 11.273
      vertex 32.4139 5.77084 18.6699
      vertex 42.2575 11.5417 16.9342
    endloop
  endfacet
  facet normal -0.492405 0.866025 0.0868232
    outer loop
      vertex 32.4139 5.77084 18.6699
      vertex 37.845 9.60043 11.273
      vertex 30.8365 5.77084 9.72392
    endloop
  endfacet
  facet normal 0.492406 0.866024 -0.0868243
    outer loop
      vertex 49.4211 5.77084 0
      vertex 42.2575 11.5417 16.9342
      vertex 52.101 5.77084 15.1985
    endloop
  endfacet
  facet normal 0.492404 0.866025 -0.0868255
    outer loop
      vertex 42.2575 11.5417 16.9342
      vertex 49.4211 5.77084 0
      vertex 39.2715 11.5417 0
    endloop
  endfacet
  facet normal -0.984823 2.7316e-05 0.173561
    outer loop
      vertex 30.8604 -3.90533 9.85924
      vertex 30.8365 -5.77084 9.72392
      vertex 30.9606 -3.93214 10.4278
    endloop
  endfacet
  facet normal -0.984808 6.23815e-06 0.173646
    outer loop
      vertex 30.8365 5.77084 9.72392
      vertex 30.9606 3.93214 10.4278
      vertex 32.4139 5.77084 18.6699
    endloop
  endfacet
  facet normal -0.984823 -2.7316e-05 0.173561
    outer loop
      vertex 30.9606 3.93214 10.4278
      vertex 30.8365 5.77084 9.72392
      vertex 30.8604 3.90533 9.85924
    endloop
  endfacet
  facet normal -0.984808 -1.50912e-06 0.173648
    outer loop
      vertex 30.9103 0 10.1425
      vertex 32.4139 5.77084 18.6699
      vertex 30.9606 3.93214 10.4278
    endloop
  endfacet
  facet normal -0.984808 1.50912e-06 0.173648
    outer loop
      vertex 32.4139 -5.77084 18.6699
      vertex 30.9103 0 10.1425
      vertex 30.9606 -3.93214 10.4278
    endloop
  endfacet
  facet normal -0.984808 -6.23815e-06 0.173646
    outer loop
      vertex 32.4139 -5.77084 18.6699
      vertex 30.9606 -3.93214 10.4278
      vertex 30.8365 -5.77084 9.72392
    endloop
  endfacet
  facet normal -0.984808 0 0.173647
    outer loop
      vertex 30.9103 0 10.1425
      vertex 32.4139 -5.77084 18.6699
      vertex 32.4139 5.77084 18.6699
    endloop
  endfacet
  facet normal -0.492399 0.866028 0.0868244
    outer loop
      vertex 39.2715 11.5417 0
      vertex 39.4168 10.4593 11.6204
      vertex 42.2575 11.5417 16.9342
    endloop
  endfacet
  facet normal -0.492426 0.866013 0.0868233
    outer loop
      vertex 39.4168 10.4593 11.6204
      vertex 39.2715 11.5417 0
      vertex 38.0232 10.8319 0
    endloop
  endfacet
  facet normal -0.492407 0.866023 0.0868302
    outer loop
      vertex 42.2575 11.5417 16.9342
      vertex 39.4168 10.4593 11.6204
      vertex 37.845 9.60043 11.273
    endloop
  endfacet
  facet normal -0.492402 -0.866026 0.0868253
    outer loop
      vertex 32.4139 -5.77084 18.6699
      vertex 37.845 -9.60043 11.273
      vertex 42.2575 -11.5417 16.9342
    endloop
  endfacet
  facet normal -0.492405 -0.866025 0.0868232
    outer loop
      vertex 37.845 -9.60043 11.273
      vertex 32.4139 -5.77084 18.6699
      vertex 30.8365 -5.77084 9.72392
    endloop
  endfacet
  facet normal 0.17366 0 0.984806
    outer loop
      vertex 52.101 5.77084 15.1985
      vertex 51.2481 5.27084 15.3489
      vertex 52.101 -5.77084 15.1985
    endloop
  endfacet
  facet normal 0.17367 -1.7367e-05 0.984804
    outer loop
      vertex 51.2481 5.27084 15.3489
      vertex 52.101 5.77084 15.1985
      vertex 50.3953 5.77084 15.4993
    endloop
  endfacet
  facet normal 0.17366 -0 0.984806
    outer loop
      vertex 51.2481 -5.27084 15.3489
      vertex 52.101 -5.77084 15.1985
      vertex 51.2481 5.27084 15.3489
    endloop
  endfacet
  facet normal 0.17367 1.7367e-05 0.984804
    outer loop
      vertex 52.101 -5.77084 15.1985
      vertex 51.2481 -5.27084 15.3489
      vertex 50.3953 -5.77084 15.4993
    endloop
  endfacet
  facet normal 0.17366 0 0.984806
    outer loop
      vertex 33.2668 5.27084 18.5195
      vertex 32.4139 5.77084 18.6699
      vertex 33.2668 -5.27084 18.5195
    endloop
  endfacet
  facet normal 0.17366 4.74312e-15 0.984806
    outer loop
      vertex 32.4139 5.77084 18.6699
      vertex 33.2668 5.27084 18.5195
      vertex 34.1197 5.77084 18.3691
    endloop
  endfacet
  facet normal 0.17366 -4.74312e-15 0.984806
    outer loop
      vertex 33.2668 -5.27084 18.5195
      vertex 32.4139 -5.77084 18.6699
      vertex 34.1197 -5.77084 18.3691
    endloop
  endfacet
  facet normal 0.17366 -0 0.984806
    outer loop
      vertex 32.4139 -5.77084 18.6699
      vertex 33.2668 -5.27084 18.5195
      vertex 32.4139 5.77084 18.6699
    endloop
  endfacet
  facet normal 0.17367 3.41472e-05 0.984804
    outer loop
      vertex 42.2575 11.5417 16.9342
      vertex 50.3953 5.77084 15.4993
      vertex 52.101 5.77084 15.1985
    endloop
  endfacet
  facet normal 0.173647 0 0.984808
    outer loop
      vertex 42.2575 11.5417 16.9342
      vertex 42.2575 10.5417 16.9342
      vertex 50.3953 5.77084 15.4993
    endloop
  endfacet
  facet normal 0.173647 0 0.984808
    outer loop
      vertex 42.2575 11.5417 16.9342
      vertex 34.1197 5.77084 18.3691
      vertex 42.2575 10.5417 16.9342
    endloop
  endfacet
  facet normal 0.17366 -1.97903e-05 0.984806
    outer loop
      vertex 34.1197 5.77084 18.3691
      vertex 42.2575 11.5417 16.9342
      vertex 32.4139 5.77084 18.6699
    endloop
  endfacet
  facet normal 0.984808 0 -0.173648
    outer loop
      vertex 52.101 -5.77084 15.1985
      vertex 49.4211 5.77084 0
      vertex 52.101 5.77084 15.1985
    endloop
  endfacet
  facet normal 0.984808 0 -0.173648
    outer loop
      vertex 49.4211 5.77084 0
      vertex 52.101 -5.77084 15.1985
      vertex 49.4211 -5.77084 0
    endloop
  endfacet
  facet normal 0.173647 -0 0.984808
    outer loop
      vertex 42.2575 -11.5417 16.9342
      vertex 50.3953 -5.77084 15.4993
      vertex 42.2575 -10.5417 16.9342
    endloop
  endfacet
  facet normal 0.17367 -3.41472e-05 0.984804
    outer loop
      vertex 50.3953 -5.77084 15.4993
      vertex 42.2575 -11.5417 16.9342
      vertex 52.101 -5.77084 15.1985
    endloop
  endfacet
  facet normal 0.173647 0 0.984808
    outer loop
      vertex 34.1197 -5.77084 18.3691
      vertex 42.2575 -11.5417 16.9342
      vertex 42.2575 -10.5417 16.9342
    endloop
  endfacet
  facet normal 0.17366 1.97903e-05 0.984806
    outer loop
      vertex 42.2575 -11.5417 16.9342
      vertex 34.1197 -5.77084 18.3691
      vertex 32.4139 -5.77084 18.6699
    endloop
  endfacet
  facet normal 0.492404 -0.866025 -0.0868255
    outer loop
      vertex 49.4211 -5.77084 0
      vertex 42.2575 -11.5417 16.9342
      vertex 39.2715 -11.5417 0
    endloop
  endfacet
  facet normal 0.492406 -0.866024 -0.0868243
    outer loop
      vertex 42.2575 -11.5417 16.9342
      vertex 49.4211 -5.77084 0
      vertex 52.101 -5.77084 15.1985
    endloop
  endfacet
  facet normal -0.492407 -0.866023 0.0868302
    outer loop
      vertex 42.2575 -11.5417 16.9342
      vertex 37.845 -9.60043 11.273
      vertex 39.4168 -10.4593 11.6204
    endloop
  endfacet
  facet normal -0.492426 -0.866013 0.0868233
    outer loop
      vertex 39.2715 -11.5417 0
      vertex 39.4168 -10.4593 11.6204
      vertex 38.0232 -10.8319 0
    endloop
  endfacet
  facet normal -0.492399 -0.866028 0.0868244
    outer loop
      vertex 39.4168 -10.4593 11.6204
      vertex 39.2715 -11.5417 0
      vertex 42.2575 -11.5417 16.9342
    endloop
  endfacet
  facet normal -0 0 -1
    outer loop
      vertex 49.4211 5.77084 0
      vertex 37.1292 0 0
      vertex 39.8924 10.332 0
    endloop
  endfacet
  facet normal 0 0 -1
    outer loop
      vertex 37.1292 0 0
      vertex 49.4211 -5.77084 0
      vertex 39.8924 -10.332 0
    endloop
  endfacet
  facet normal 0 0 -1
    outer loop
      vertex 39.2715 -11.5417 0
      vertex 39.8924 -10.332 0
      vertex 49.4211 -5.77084 0
    endloop
  endfacet
  facet normal 0 0 -1
    outer loop
      vertex 39.8924 -10.332 0
      vertex 39.2715 -11.5417 0
      vertex 38.0232 -10.8319 0
    endloop
  endfacet
  facet normal 0 0 -1
    outer loop
      vertex 49.4211 -5.77084 0
      vertex 37.1292 0 0
      vertex 49.4211 5.77084 0
    endloop
  endfacet
  facet normal 0 0 -1
    outer loop
      vertex 39.8924 10.332 0
      vertex 39.2715 11.5417 0
      vertex 49.4211 5.77084 0
    endloop
  endfacet
  facet normal 0 -0 -1
    outer loop
      vertex 39.2715 11.5417 0
      vertex 39.8924 10.332 0
      vertex 38.0232 10.8319 0
    endloop
  endfacet
  facet normal 0 0 -1
    outer loop
      vertex 38.0232 -10.8319 0
      vertex 37.1292 0 0
      vertex 39.8924 -10.332 0
    endloop
  endfacet
  facet normal 0 0 -1
    outer loop
      vertex 38.0232 -10.8319 0
      vertex 16.2577 0 0
      vertex 37.1292 0 0
    endloop
  endfacet
  facet normal 0 0 -1
    outer loop
      vertex 15.7285 -16.7944 0
      vertex 16.2577 0 0
      vertex 38.0232 -10.8319 0
    endloop
  endfacet
  facet normal 0 0 -1
    outer loop
      vertex 16.2577 0 0
      vertex 15.7285 -16.7944 0
      vertex 11.5722 -1.25309 0
    endloop
  endfacet
  facet normal 0 0 -1
    outer loop
      vertex 37.1292 0 0
      vertex 38.0232 10.8319 0
      vertex 39.8924 10.332 0
    endloop
  endfacet
  facet normal 0 0 -1
    outer loop
      vertex 16.2577 0 0
      vertex 38.0232 10.8319 0
      vertex 37.1292 0 0
    endloop
  endfacet
  facet normal 0 0 -1
    outer loop
      vertex 16.2577 0 0
      vertex 15.7285 16.7944 0
      vertex 38.0232 10.8319 0
    endloop
  endfacet
  facet normal 0 -0 -1
    outer loop
      vertex 15.7285 16.7944 0
      vertex 16.2577 0 0
      vertex 11.5722 1.25309 0
    endloop
  endfacet
  facet normal -0.966049 0.25836 0
    outer loop
      vertex 7.92182 2.22933 3.17064
      vertex 12.0782 17.7707 4.03758
      vertex 12.0782 17.7707 3.17064
    endloop
  endfacet
  facet normal -0.966049 0.25836 0
    outer loop
      vertex 12.0782 17.7707 4.03758
      vertex 7.92182 2.22933 3.17064
      vertex 7.92182 2.22933 4.03758
    endloop
  endfacet
  facet normal -0.258359 -0.966049 0
    outer loop
      vertex 7.92182 2.22933 3.17064
      vertex 9.91742 1.69563 4.59109
      vertex 7.92182 2.22933 4.03758
    endloop
  endfacet
  facet normal -0.258357 -0.966049 -1.95198e-06
    outer loop
      vertex 9.91742 1.69563 4.59109
      vertex 7.92182 2.22933 3.17064
      vertex 11.5722 1.25309 0
    endloop
  endfacet
  facet normal -0.258357 -0.966049 -2.0245e-06
    outer loop
      vertex 9.91742 1.69563 4.59109
      vertex 11.5722 1.25309 0
      vertex 16.2577 0 6.34966
    endloop
  endfacet
  facet normal -0.25836 -0.966049 -0
    outer loop
      vertex 16.2577 0 6.34966
      vertex 11.5722 1.25309 0
      vertex 16.2577 0 0
    endloop
  endfacet
  facet normal -0.258351 -0.966051 -2.29593e-05
    outer loop
      vertex 30.9606 -3.93214 10.4278
      vertex 25.7416 -2.53638 8.62901
      vertex 30.8604 -3.90533 9.85924
    endloop
  endfacet
  facet normal -0.258366 -0.966047 2.22552e-05
    outer loop
      vertex 25.7416 -2.53638 8.62901
      vertex 30.9606 -3.93214 10.4278
      vertex 16.2577 0 6.34966
    endloop
  endfacet
  facet normal 0.258362 0.966048 -1.30971e-05
    outer loop
      vertex 15.7285 16.7944 0
      vertex 12.0782 17.7707 4.03758
      vertex 39.4168 10.4593 11.6204
    endloop
  endfacet
  facet normal 0.25836 0.966049 -8.70607e-06
    outer loop
      vertex 15.7285 16.7944 0
      vertex 39.4168 10.4593 11.6204
      vertex 38.0232 10.8319 0
    endloop
  endfacet
  facet normal 0.258376 0.966044 0
    outer loop
      vertex 12.0782 17.7707 4.03758
      vertex 15.7285 16.7944 0
      vertex 12.0782 17.7707 3.17064
    endloop
  endfacet
  facet normal -0.250031 0.0668741 0.965926
    outer loop
      vertex 12.0782 17.7707 4.03758
      vertex 37.845 9.60043 11.273
      vertex 39.4168 10.4593 11.6204
    endloop
  endfacet
  facet normal -0.250034 0.0668651 0.965926
    outer loop
      vertex 37.845 9.60043 11.273
      vertex 12.0782 17.7707 4.03758
      vertex 30.8365 5.77084 9.72392
    endloop
  endfacet
  facet normal -0.250032 0.0668687 0.965926
    outer loop
      vertex 12.0782 17.7707 4.03758
      vertex 25.7416 2.53638 8.62901
      vertex 30.8365 5.77084 9.72392
    endloop
  endfacet
  facet normal -0.250032 0.0668684 0.965926
    outer loop
      vertex 12.0782 17.7707 4.03758
      vertex 9.91742 1.69563 4.59109
      vertex 25.7416 2.53638 8.62901
    endloop
  endfacet
  facet normal -0.250031 0.0668683 0.965926
    outer loop
      vertex 9.91742 1.69563 4.59109
      vertex 12.0782 17.7707 4.03758
      vertex 7.92182 2.22933 4.03758
    endloop
  endfacet
  facet normal -0.250028 0.066863 0.965927
    outer loop
      vertex 30.8604 3.90533 9.85924
      vertex 30.8365 5.77084 9.72392
      vertex 25.7416 2.53638 8.62901
    endloop
  endfacet
  facet normal -0.250032 0.0668642 0.965926
    outer loop
      vertex 16.2577 0 6.34966
      vertex 25.7416 2.53638 8.62901
      vertex 9.91742 1.69563 4.59109
    endloop
  endfacet
  facet normal -0.250031 0.0668852 0.965925
    outer loop
      vertex 30.9606 -3.93214 10.4278
      vertex 30.9103 0 10.1425
      vertex 16.2577 0 6.34966
    endloop
  endfacet
  facet normal -0.966049 -0.25836 0
    outer loop
      vertex 12.0782 -17.7707 3.17064
      vertex 7.92182 -2.22933 4.03758
      vertex 7.92182 -2.22933 3.17064
    endloop
  endfacet
  facet normal -0.966049 -0.25836 0
    outer loop
      vertex 7.92182 -2.22933 4.03758
      vertex 12.0782 -17.7707 3.17064
      vertex 12.0782 -17.7707 4.03758
    endloop
  endfacet
  facet normal -0.258357 0.966049 -2.0245e-06
    outer loop
      vertex 11.5722 -1.25309 0
      vertex 9.91742 -1.69563 4.59109
      vertex 16.2577 0 6.34966
    endloop
  endfacet
  facet normal -0.258357 0.966049 -1.95198e-06
    outer loop
      vertex 7.92182 -2.22933 3.17064
      vertex 9.91742 -1.69563 4.59109
      vertex 11.5722 -1.25309 0
    endloop
  endfacet
  facet normal -0.25836 0.966049 0
    outer loop
      vertex 11.5722 -1.25309 0
      vertex 16.2577 0 6.34966
      vertex 16.2577 0 0
    endloop
  endfacet
  facet normal -0.258359 0.966049 0
    outer loop
      vertex 9.91742 -1.69563 4.59109
      vertex 7.92182 -2.22933 3.17064
      vertex 7.92182 -2.22933 4.03758
    endloop
  endfacet
  facet normal -0.258351 0.966051 -2.29593e-05
    outer loop
      vertex 25.7416 2.53638 8.62901
      vertex 30.9606 3.93214 10.4278
      vertex 30.8604 3.90533 9.85924
    endloop
  endfacet
  facet normal -0.258366 0.966047 2.22552e-05
    outer loop
      vertex 30.9606 3.93214 10.4278
      vertex 25.7416 2.53638 8.62901
      vertex 16.2577 0 6.34966
    endloop
  endfacet
  facet normal 0.258376 -0.966044 0
    outer loop
      vertex 15.7285 -16.7944 0
      vertex 12.0782 -17.7707 4.03758
      vertex 12.0782 -17.7707 3.17064
    endloop
  endfacet
  facet normal 0.258362 -0.966048 -1.30971e-05
    outer loop
      vertex 12.0782 -17.7707 4.03758
      vertex 15.7285 -16.7944 0
      vertex 39.4168 -10.4593 11.6204
    endloop
  endfacet
  facet normal 0.25836 -0.966049 -8.70607e-06
    outer loop
      vertex 39.4168 -10.4593 11.6204
      vertex 15.7285 -16.7944 0
      vertex 38.0232 -10.8319 0
    endloop
  endfacet
  facet normal -0.250028 -0.066863 0.965927
    outer loop
      vertex 30.8604 -3.90533 9.85924
      vertex 25.7416 -2.53638 8.62901
      vertex 30.8365 -5.77084 9.72392
    endloop
  endfacet
  facet normal -0.250034 -0.0668651 0.965926
    outer loop
      vertex 12.0782 -17.7707 4.03758
      vertex 37.845 -9.60043 11.273
      vertex 30.8365 -5.77084 9.72392
    endloop
  endfacet
  facet normal -0.250031 -0.0668741 0.965926
    outer loop
      vertex 37.845 -9.60043 11.273
      vertex 12.0782 -17.7707 4.03758
      vertex 39.4168 -10.4593 11.6204
    endloop
  endfacet
  facet normal -0.250032 -0.0668687 0.965926
    outer loop
      vertex 25.7416 -2.53638 8.62901
      vertex 12.0782 -17.7707 4.03758
      vertex 30.8365 -5.77084 9.72392
    endloop
  endfacet
  facet normal -0.250032 -0.0668684 0.965926
    outer loop
      vertex 9.91742 -1.69563 4.59109
      vertex 12.0782 -17.7707 4.03758
      vertex 25.7416 -2.53638 8.62901
    endloop
  endfacet
  facet normal -0.250031 -0.0668683 0.965926
    outer loop
      vertex 12.0782 -17.7707 4.03758
      vertex 9.91742 -1.69563 4.59109
      vertex 7.92182 -2.22933 4.03758
    endloop
  endfacet
  facet normal -0.250032 -0.0668642 0.965926
    outer loop
      vertex 16.2577 0 6.34966
      vertex 9.91742 -1.69563 4.59109
      vertex 25.7416 -2.53638 8.62901
    endloop
  endfacet
  facet normal -0.250031 -0.0668852 0.965925
    outer loop
      vertex 30.9606 3.93214 10.4278
      vertex 16.2577 0 6.34966
      vertex 30.9103 0 10.1425
    endloop
  endfacet
  facet normal -0.492406 -0.866024 0.0868248
    outer loop
      vertex 47.7067 4.69584 1
      vertex 40.8812 9.39168 9.12889
      vertex 39.7307 9.34016 2.09022
    endloop
  endfacet
  facet normal -0.492166 -0.866165 0.0867865
    outer loop
      vertex 39.7307 9.34016 2.09022
      vertex 40.8812 9.39168 9.12889
      vertex 39.538 9.39168 1.51161
    endloop
  endfacet
  facet normal -0.492405 -0.866024 0.0868327
    outer loop
      vertex 47.7067 4.69584 1
      vertex 39.7307 9.34016 2.09022
      vertex 39.7053 9.24529 1
    endloop
  endfacet
  facet normal -0.492407 -0.866024 0.0868242
    outer loop
      vertex 40.8812 9.39168 9.12889
      vertex 47.7067 4.69584 1
      vertex 48.891 4.69584 7.71653
    endloop
  endfacet
  facet normal 0.98481 3.33149e-05 -0.173638
    outer loop
      vertex 32.8713 4.69584 10.5412
      vertex 32.6431 4.46193 9.24689
      vertex 32.6401 4.69584 9.22992
    endloop
  endfacet
  facet normal 0.984807 3.80383e-05 -0.173654
    outer loop
      vertex 31.7684 4.69584 4.28659
      vertex 32.6564 3.42323 9.32224
      vertex 31.1889 3.81568 1
    endloop
  endfacet
  facet normal 0.984811 -9.23488e-06 -0.17363
    outer loop
      vertex 32.7433 3.37376 9.81527
      vertex 32.6431 4.46193 9.24689
      vertex 32.8713 4.69584 10.5412
    endloop
  endfacet
  facet normal 0.98482 1.81783e-05 -0.17358
    outer loop
      vertex 32.6431 4.46193 9.24689
      vertex 32.7433 3.37376 9.81527
      vertex 32.6564 3.42323 9.32224
    endloop
  endfacet
  facet normal 0.984813 -1.66868e-05 -0.173617
    outer loop
      vertex 32.8713 4.69584 10.5412
      vertex 32.7001 0 9.57055
      vertex 32.7433 3.37376 9.81527
    endloop
  endfacet
  facet normal 0.984799 0 -0.173696
    outer loop
      vertex 32.8713 -4.69584 10.5412
      vertex 32.7001 0 9.57055
      vertex 32.8713 4.69584 10.5412
    endloop
  endfacet
  facet normal 0.984806 -1.21493e-05 -0.17366
    outer loop
      vertex 31.7684 -4.69584 4.28659
      vertex 32.6564 -3.42323 9.32224
      vertex 32.6431 -4.46193 9.24689
    endloop
  endfacet
  facet normal 0.98482 -1.81783e-05 -0.17358
    outer loop
      vertex 32.7433 -3.37376 9.81527
      vertex 32.6431 -4.46193 9.24689
      vertex 32.6564 -3.42323 9.32224
    endloop
  endfacet
  facet normal 0.984813 1.66868e-05 -0.173617
    outer loop
      vertex 32.7001 0 9.57055
      vertex 32.8713 -4.69584 10.5412
      vertex 32.7433 -3.37376 9.81527
    endloop
  endfacet
  facet normal 0.984811 9.23488e-06 -0.17363
    outer loop
      vertex 32.8713 -4.69584 10.5412
      vertex 32.6431 -4.46193 9.24689
      vertex 32.7433 -3.37376 9.81527
    endloop
  endfacet
  facet normal 0.98481 -3.33149e-05 -0.173638
    outer loop
      vertex 32.6431 -4.46193 9.24689
      vertex 32.8713 -4.69584 10.5412
      vertex 32.6401 -4.69584 9.22992
    endloop
  endfacet
  facet normal 0.984806 1.21493e-05 -0.17366
    outer loop
      vertex 32.6564 3.42323 9.32224
      vertex 31.7684 4.69584 4.28659
      vertex 32.6431 4.46193 9.24689
    endloop
  endfacet
  facet normal 0.984808 0 -0.173644
    outer loop
      vertex 31.7684 4.69584 4.28659
      vertex 31.1889 3.81568 1
      vertex 31.1889 4.69584 1
    endloop
  endfacet
  facet normal 0.984814 -0.000346953 -0.173615
    outer loop
      vertex 32.6564 3.42323 9.32224
      vertex 32.7433 3.37376 9.81527
      vertex 32.6573 3.35075 9.32749
    endloop
  endfacet
  facet normal 0.984814 0.000346953 -0.173615
    outer loop
      vertex 32.6573 -3.35075 9.32749
      vertex 32.7433 -3.37376 9.81527
      vertex 32.6564 -3.42323 9.32224
    endloop
  endfacet
  facet normal 0.984807 -3.80383e-05 -0.173654
    outer loop
      vertex 32.6564 -3.42323 9.32224
      vertex 31.7684 -4.69584 4.28659
      vertex 31.1889 -3.81568 1
    endloop
  endfacet
  facet normal 0.984808 0 -0.173644
    outer loop
      vertex 31.1889 -3.81568 1
      vertex 31.7684 -4.69584 4.28659
      vertex 31.1889 -4.69584 1
    endloop
  endfacet
  facet normal 0.492411 -0.866022 -0.08682
    outer loop
      vertex 36.0428 6.55518 9.98202
      vertex 32.8713 4.69584 10.5412
      vertex 32.6401 4.69584 9.22992
    endloop
  endfacet
  facet normal 0.492398 -0.866029 -0.0868228
    outer loop
      vertex 39.7307 9.34016 3.11795
      vertex 40.8812 9.39168 9.12889
      vertex 39.5331 8.60136 9.36659
    endloop
  endfacet
  facet normal 0.492634 -0.86589 -0.086869
    outer loop
      vertex 40.8812 9.39168 9.12889
      vertex 39.7307 9.34016 3.11795
      vertex 39.538 9.39168 1.51161
    endloop
  endfacet
  facet normal 0.492388 -0.866035 -0.0868191
    outer loop
      vertex 31.3743 4.80125 1
      vertex 31.7684 4.69584 4.28659
      vertex 31.1889 4.69584 1
    endloop
  endfacet
  facet normal -0.492406 0.866024 0.0868248
    outer loop
      vertex 40.8812 -9.39168 9.12889
      vertex 47.7067 -4.69584 1
      vertex 39.7307 -9.34016 2.09022
    endloop
  endfacet
  facet normal -0.492405 0.866024 0.0868327
    outer loop
      vertex 39.7307 -9.34016 2.09022
      vertex 47.7067 -4.69584 1
      vertex 39.7053 -9.24529 1
    endloop
  endfacet
  facet normal -0.492407 0.866024 0.0868242
    outer loop
      vertex 47.7067 -4.69584 1
      vertex 40.8812 -9.39168 9.12889
      vertex 48.891 -4.69584 7.71653
    endloop
  endfacet
  facet normal -0.492166 0.866165 0.0867865
    outer loop
      vertex 40.8812 -9.39168 9.12889
      vertex 39.7307 -9.34016 2.09022
      vertex 39.538 -9.39168 1.51161
    endloop
  endfacet
  facet normal 0.492411 0.866022 -0.08682
    outer loop
      vertex 32.8713 -4.69584 10.5412
      vertex 36.0428 -6.55518 9.98202
      vertex 32.6401 -4.69584 9.22992
    endloop
  endfacet
  facet normal 0.492398 0.866029 -0.0868228
    outer loop
      vertex 40.8812 -9.39168 9.12889
      vertex 39.7307 -9.34016 3.11795
      vertex 39.5331 -8.60136 9.36659
    endloop
  endfacet
  facet normal 0.492634 0.86589 -0.086869
    outer loop
      vertex 39.7307 -9.34016 3.11795
      vertex 40.8812 -9.39168 9.12889
      vertex 39.538 -9.39168 1.51161
    endloop
  endfacet
  facet normal 0.492388 0.866035 -0.0868191
    outer loop
      vertex 31.7684 -4.69584 4.28659
      vertex 31.3743 -4.80125 1
      vertex 31.1889 -4.69584 1
    endloop
  endfacet
  facet normal -0.984808 0 0.173647
    outer loop
      vertex 47.7067 -4.69584 1
      vertex 48.891 4.69584 7.71653
      vertex 47.7067 4.69584 1
    endloop
  endfacet
  facet normal -0.984808 0 0.173647
    outer loop
      vertex 48.891 4.69584 7.71653
      vertex 47.7067 -4.69584 1
      vertex 48.891 -4.69584 7.71653
    endloop
  endfacet
  facet normal -0.492405 -0.866024 0.0868252
    outer loop
      vertex 40.8812 10.5417 9.12889
      vertex 50.3953 5.77084 15.4993
      vertex 42.2575 10.5417 16.9342
    endloop
  endfacet
  facet normal -0.492407 -0.866023 0.086829
    outer loop
      vertex 49.8718 5.27084 7.54359
      vertex 50.3953 5.77084 15.4993
      vertex 40.8812 10.5417 9.12889
    endloop
  endfacet
  facet normal -0.492431 -0.866009 0.0868298
    outer loop
      vertex 50.3953 5.77084 15.4993
      vertex 49.8718 5.27084 7.54359
      vertex 51.2481 5.27084 15.3489
    endloop
  endfacet
  facet normal 0.984807 0 -0.17365
    outer loop
      vertex 33.2668 -5.27084 18.5195
      vertex 31.8905 5.27084 10.7142
      vertex 33.2668 5.27084 18.5195
    endloop
  endfacet
  facet normal 0.984807 0 -0.17365
    outer loop
      vertex 31.8905 5.27084 10.7142
      vertex 33.2668 -5.27084 18.5195
      vertex 31.8905 -5.27084 10.7142
    endloop
  endfacet
  facet normal 0.492407 -0.866023 -0.0868254
    outer loop
      vertex 34.1197 5.77084 18.3691
      vertex 36.2446 7.82346 9.94644
      vertex 39.2537 9.46771 10.6115
    endloop
  endfacet
  facet normal 0.492389 -0.866034 -0.0868225
    outer loop
      vertex 31.8905 5.27084 10.7142
      vertex 34.1197 5.77084 18.3691
      vertex 33.2668 5.27084 18.5195
    endloop
  endfacet
  facet normal 0.492403 -0.866026 -0.086827
    outer loop
      vertex 36.2446 7.82346 9.94644
      vertex 34.1197 5.77084 18.3691
      vertex 31.8905 5.27084 10.7142
    endloop
  endfacet
  facet normal 0.492405 -0.866024 -0.0868275
    outer loop
      vertex 34.1197 5.77084 18.3691
      vertex 39.2537 9.46771 10.6115
      vertex 42.2575 10.5417 16.9342
    endloop
  endfacet
  facet normal 0.492399 -0.866028 -0.0868236
    outer loop
      vertex 40.8812 10.5417 9.12889
      vertex 39.2537 9.46771 10.6115
      vertex 39.1133 9.50527 9.44061
    endloop
  endfacet
  facet normal 0.492399 -0.866028 -0.0868241
    outer loop
      vertex 39.2537 9.46771 10.6115
      vertex 40.8812 10.5417 9.12889
      vertex 42.2575 10.5417 16.9342
    endloop
  endfacet
  facet normal -0.984807 0 0.17365
    outer loop
      vertex 49.8718 -5.27084 7.54359
      vertex 51.2481 5.27084 15.3489
      vertex 49.8718 5.27084 7.54359
    endloop
  endfacet
  facet normal -0.984807 0 0.17365
    outer loop
      vertex 51.2481 5.27084 15.3489
      vertex 49.8718 -5.27084 7.54359
      vertex 51.2481 -5.27084 15.3489
    endloop
  endfacet
  facet normal 0.173647 0 0.984808
    outer loop
      vertex 49.8718 5.27084 7.54359
      vertex 48.891 4.69584 7.71653
      vertex 49.8718 -5.27084 7.54359
    endloop
  endfacet
  facet normal 0.17365 -0 0.984807
    outer loop
      vertex 40.8812 9.39168 9.12889
      vertex 49.8718 5.27084 7.54359
      vertex 40.8812 10.5417 9.12889
    endloop
  endfacet
  facet normal 0.173648 -2.9803e-06 0.984808
    outer loop
      vertex 49.8718 5.27084 7.54359
      vertex 40.8812 9.39168 9.12889
      vertex 48.891 4.69584 7.71653
    endloop
  endfacet
  facet normal 0.173645 0 0.984808
    outer loop
      vertex 40.8812 10.5417 9.12889
      vertex 39.7307 9.34016 9.33175
      vertex 40.8812 9.39168 9.12889
    endloop
  endfacet
  facet normal 0.173642 2.4668e-06 0.984809
    outer loop
      vertex 39.7307 9.34016 9.33175
      vertex 40.8812 10.5417 9.12889
      vertex 39.1133 9.50527 9.44061
    endloop
  endfacet
  facet normal 0.173647 -0 0.984808
    outer loop
      vertex 48.891 -4.69584 7.71653
      vertex 49.8718 -5.27084 7.54359
      vertex 48.891 4.69584 7.71653
    endloop
  endfacet
  facet normal 0.173648 2.9803e-06 0.984808
    outer loop
      vertex 40.8812 -9.39168 9.12889
      vertex 49.8718 -5.27084 7.54359
      vertex 48.891 -4.69584 7.71653
    endloop
  endfacet
  facet normal 0.17365 0 0.984807
    outer loop
      vertex 40.8812 -9.39168 9.12889
      vertex 40.8812 -10.5417 9.12889
      vertex 49.8718 -5.27084 7.54359
    endloop
  endfacet
  facet normal 0.173645 0 0.984808
    outer loop
      vertex 40.8812 -9.39168 9.12889
      vertex 39.7307 -9.34016 9.33175
      vertex 40.8812 -10.5417 9.12889
    endloop
  endfacet
  facet normal 0.173645 2.01228e-06 0.984808
    outer loop
      vertex 39.7307 -9.34016 9.33175
      vertex 40.8812 -9.39168 9.12889
      vertex 39.5331 -8.60136 9.36659
    endloop
  endfacet
  facet normal 0.173645 -2.01228e-06 0.984808
    outer loop
      vertex 40.8812 9.39168 9.12889
      vertex 39.7307 9.34016 9.33175
      vertex 39.5331 8.60136 9.36659
    endloop
  endfacet
  facet normal 0.173642 -2.4668e-06 0.984809
    outer loop
      vertex 40.8812 -10.5417 9.12889
      vertex 39.7307 -9.34016 9.33175
      vertex 39.1133 -9.50527 9.44061
    endloop
  endfacet
  facet normal 0.173653 -2.96793e-06 0.984807
    outer loop
      vertex 31.8905 5.27084 10.7142
      vertex 36.0428 6.55518 9.98202
      vertex 36.2446 7.82346 9.94644
    endloop
  endfacet
  facet normal 0.173705 0 0.984798
    outer loop
      vertex 32.8713 4.69584 10.5412
      vertex 31.8905 5.27084 10.7142
      vertex 32.8713 -4.69584 10.5412
    endloop
  endfacet
  facet normal 0.17367 -6.09569e-05 0.984804
    outer loop
      vertex 36.0428 6.55518 9.98202
      vertex 31.8905 5.27084 10.7142
      vertex 32.8713 4.69584 10.5412
    endloop
  endfacet
  facet normal 0.17367 6.09569e-05 0.984804
    outer loop
      vertex 31.8905 -5.27084 10.7142
      vertex 36.0428 -6.55518 9.98202
      vertex 32.8713 -4.69584 10.5412
    endloop
  endfacet
  facet normal 0.173653 2.96793e-06 0.984807
    outer loop
      vertex 36.0428 -6.55518 9.98202
      vertex 31.8905 -5.27084 10.7142
      vertex 36.2446 -7.82346 9.94644
    endloop
  endfacet
  facet normal 0.173705 -0 0.984798
    outer loop
      vertex 31.8905 -5.27084 10.7142
      vertex 32.8713 -4.69584 10.5412
      vertex 31.8905 5.27084 10.7142
    endloop
  endfacet
  facet normal -0.492405 0.866024 0.0868252
    outer loop
      vertex 50.3953 -5.77084 15.4993
      vertex 40.8812 -10.5417 9.12889
      vertex 42.2575 -10.5417 16.9342
    endloop
  endfacet
  facet normal -0.492431 0.866009 0.0868298
    outer loop
      vertex 49.8718 -5.27084 7.54359
      vertex 50.3953 -5.77084 15.4993
      vertex 51.2481 -5.27084 15.3489
    endloop
  endfacet
  facet normal -0.492407 0.866023 0.086829
    outer loop
      vertex 50.3953 -5.77084 15.4993
      vertex 49.8718 -5.27084 7.54359
      vertex 40.8812 -10.5417 9.12889
    endloop
  endfacet
  facet normal 0.492389 0.866034 -0.0868225
    outer loop
      vertex 34.1197 -5.77084 18.3691
      vertex 31.8905 -5.27084 10.7142
      vertex 33.2668 -5.27084 18.5195
    endloop
  endfacet
  facet normal 0.492405 0.866024 -0.0868275
    outer loop
      vertex 39.2537 -9.46771 10.6115
      vertex 34.1197 -5.77084 18.3691
      vertex 42.2575 -10.5417 16.9342
    endloop
  endfacet
  facet normal 0.492407 0.866023 -0.0868254
    outer loop
      vertex 34.1197 -5.77084 18.3691
      vertex 39.2537 -9.46771 10.6115
      vertex 36.2446 -7.82346 9.94644
    endloop
  endfacet
  facet normal 0.492399 0.866028 -0.0868241
    outer loop
      vertex 40.8812 -10.5417 9.12889
      vertex 39.2537 -9.46771 10.6115
      vertex 42.2575 -10.5417 16.9342
    endloop
  endfacet
  facet normal 0.492399 0.866028 -0.0868236
    outer loop
      vertex 39.2537 -9.46771 10.6115
      vertex 40.8812 -10.5417 9.12889
      vertex 39.1133 -9.50527 9.44061
    endloop
  endfacet
  facet normal 0.492403 0.866026 -0.086827
    outer loop
      vertex 34.1197 -5.77084 18.3691
      vertex 36.2446 -7.82346 9.94644
      vertex 31.8905 -5.27084 10.7142
    endloop
  endfacet
  facet normal 0 0 1
    outer loop
      vertex 37.2327 0 1
      vertex 32.7923 -3.38687 1
      vertex 36.5992 -2.36875 1
    endloop
  endfacet
  facet normal 0 0 1
    outer loop
      vertex 36.5992 -2.36875 1
      vertex 32.7923 -3.38687 1
      vertex 34.7276 -3.90444 1
    endloop
  endfacet
  facet normal 0 0 1
    outer loop
      vertex 31.1889 3.81568 1
      vertex 32.7923 -3.38687 1
      vertex 32.7923 3.38687 1
    endloop
  endfacet
  facet normal 0 0 1
    outer loop
      vertex 31.1889 3.81568 1
      vertex 31.1889 -3.81568 1
      vertex 32.7923 -3.38687 1
    endloop
  endfacet
  facet normal 0 0 1
    outer loop
      vertex 31.1889 3.81568 1
      vertex 20.1283 0 1
      vertex 31.1889 -3.81568 1
    endloop
  endfacet
  facet normal 0 0 1
    outer loop
      vertex 12.3699 8.84863 1
      vertex 20.1283 0 1
      vertex 31.1889 3.81568 1
    endloop
  endfacet
  facet normal 0 0 1
    outer loop
      vertex 20.1283 0 1
      vertex 12.3699 8.84863 1
      vertex 10.6792 2.52704 1
    endloop
  endfacet
  facet normal 0 0 1
    outer loop
      vertex 31.3743 4.80125 1
      vertex 39.7053 9.24529 1
      vertex 39.7307 9.34016 1
    endloop
  endfacet
  facet normal 0 0 1
    outer loop
      vertex 39.7053 9.24529 1
      vertex 36.3011 3.48363 1
      vertex 38.04 3.01857 1
    endloop
  endfacet
  facet normal 0 0 1
    outer loop
      vertex 32.7923 -3.38687 1
      vertex 37.2327 0 1
      vertex 32.7923 3.38687 1
    endloop
  endfacet
  facet normal 0 0 1
    outer loop
      vertex 39.7053 9.24529 1
      vertex 34.7276 3.90444 1
      vertex 36.3011 3.48363 1
    endloop
  endfacet
  facet normal 0 0 1
    outer loop
      vertex 39.7053 9.24529 1
      vertex 31.3743 4.80125 1
      vertex 34.7276 3.90444 1
    endloop
  endfacet
  facet normal 0 0 1
    outer loop
      vertex 14.3189 16.1363 1
      vertex 31.3743 4.80125 1
      vertex 39.7307 9.34016 1
    endloop
  endfacet
  facet normal 0 0 1
    outer loop
      vertex 31.3743 4.80125 1
      vertex 14.3189 16.1363 1
      vertex 12.6282 9.81468 1
    endloop
  endfacet
  facet normal 0 0 1
    outer loop
      vertex 37.7817 2.05252 1
      vertex 36.5992 2.36875 1
      vertex 37.2327 0 1
    endloop
  endfacet
  facet normal -0 0 1
    outer loop
      vertex 32.7923 3.38687 1
      vertex 36.5992 2.36875 1
      vertex 34.7276 3.90444 1
    endloop
  endfacet
  facet normal 0 0 1
    outer loop
      vertex 37.2327 0 1
      vertex 36.5992 -2.36875 1
      vertex 37.7817 -2.05252 1
    endloop
  endfacet
  facet normal 0 0 1
    outer loop
      vertex 34.7276 3.90444 1
      vertex 36.5992 2.36875 1
      vertex 36.3011 3.48363 1
    endloop
  endfacet
  facet normal 0 0 1
    outer loop
      vertex 36.5992 2.36875 1
      vertex 32.7923 3.38687 1
      vertex 37.2327 0 1
    endloop
  endfacet
  facet normal -0 0 1
    outer loop
      vertex 36.3011 -3.48363 1
      vertex 39.7053 -9.24529 1
      vertex 38.04 -3.01857 1
    endloop
  endfacet
  facet normal -0 0 1
    outer loop
      vertex 34.7276 -3.90444 1
      vertex 39.7053 -9.24529 1
      vertex 36.3011 -3.48363 1
    endloop
  endfacet
  facet normal 0 0 1
    outer loop
      vertex 36.5992 -2.36875 1
      vertex 34.7276 -3.90444 1
      vertex 36.3011 -3.48363 1
    endloop
  endfacet
  facet normal -0 0 1
    outer loop
      vertex 31.3743 -4.80125 1
      vertex 39.7053 -9.24529 1
      vertex 34.7276 -3.90444 1
    endloop
  endfacet
  facet normal 0 0 1
    outer loop
      vertex 39.7053 -9.24529 1
      vertex 31.3743 -4.80125 1
      vertex 39.7307 -9.34016 1
    endloop
  endfacet
  facet normal 0 0 1
    outer loop
      vertex 31.3743 -4.80125 1
      vertex 14.3189 -16.1363 1
      vertex 39.7307 -9.34016 1
    endloop
  endfacet
  facet normal 0 -0 1
    outer loop
      vertex 14.3189 -16.1363 1
      vertex 31.3743 -4.80125 1
      vertex 12.6282 -9.81468 1
    endloop
  endfacet
  facet normal 0 0 1
    outer loop
      vertex 20.1283 0 1
      vertex 12.3699 -8.84863 1
      vertex 31.1889 -3.81568 1
    endloop
  endfacet
  facet normal 0 -0 1
    outer loop
      vertex 12.3699 -8.84863 1
      vertex 20.1283 0 1
      vertex 10.6792 -2.52704 1
    endloop
  endfacet
  facet normal 0 0 1
    outer loop
      vertex 37.7817 2.05252 1
      vertex 37.2327 0 1
      vertex 37.7817 -2.05252 1
    endloop
  endfacet
  facet normal 0 0 1
    outer loop
      vertex 38.04 3.01857 1
      vertex 47.7067 4.69584 1
      vertex 39.7053 9.24529 1
    endloop
  endfacet
  facet normal 0 0 1
    outer loop
      vertex 37.7817 2.05252 1
      vertex 47.7067 4.69584 1
      vertex 38.04 3.01857 1
    endloop
  endfacet
  facet normal 0 0 1
    outer loop
      vertex 47.7067 4.69584 1
      vertex 37.7817 2.05252 1
      vertex 47.7067 -4.69584 1
    endloop
  endfacet
  facet normal 0 0 1
    outer loop
      vertex 47.7067 -4.69584 1
      vertex 38.04 -3.01857 1
      vertex 39.7053 -9.24529 1
    endloop
  endfacet
  facet normal -0 0 1
    outer loop
      vertex 37.7817 -2.05252 1
      vertex 47.7067 -4.69584 1
      vertex 37.7817 2.05252 1
    endloop
  endfacet
  facet normal 0 0 1
    outer loop
      vertex 38.04 3.01857 1
      vertex 36.5992 2.36875 1
      vertex 37.7817 2.05252 1
    endloop
  endfacet
  facet normal 0 -0 1
    outer loop
      vertex 36.5992 2.36875 1
      vertex 38.04 3.01857 1
      vertex 36.3011 3.48363 1
    endloop
  endfacet
  facet normal 0 0 1
    outer loop
      vertex 47.7067 -4.69584 1
      vertex 37.7817 -2.05252 1
      vertex 38.04 -3.01857 1
    endloop
  endfacet
  facet normal -0 0 1
    outer loop
      vertex 36.5992 -2.36875 1
      vertex 38.04 -3.01857 1
      vertex 37.7817 -2.05252 1
    endloop
  endfacet
  facet normal 0 0 1
    outer loop
      vertex 38.04 -3.01857 1
      vertex 36.5992 -2.36875 1
      vertex 36.3011 -3.48363 1
    endloop
  endfacet
  facet normal 0 0 1
    outer loop
      vertex 31.3743 4.80125 1
      vertex 32.7923 3.38687 1
      vertex 34.7276 3.90444 1
    endloop
  endfacet
  facet normal 0 0 1
    outer loop
      vertex 31.1889 3.81568 1
      vertex 31.3743 4.80125 1
      vertex 31.1889 4.69584 1
    endloop
  endfacet
  facet normal 0 0 1
    outer loop
      vertex 31.3743 4.80125 1
      vertex 31.1889 3.81568 1
      vertex 32.7923 3.38687 1
    endloop
  endfacet
  facet normal 0 0 1
    outer loop
      vertex 32.7923 -3.38687 1
      vertex 31.3743 -4.80125 1
      vertex 34.7276 -3.90444 1
    endloop
  endfacet
  facet normal -0 0 1
    outer loop
      vertex 31.1889 -3.81568 1
      vertex 31.3743 -4.80125 1
      vertex 32.7923 -3.38687 1
    endloop
  endfacet
  facet normal 0 0 1
    outer loop
      vertex 31.3743 -4.80125 1
      vertex 31.1889 -3.81568 1
      vertex 31.1889 -4.69584 1
    endloop
  endfacet
  facet normal 0.258358 0.966049 -0
    outer loop
      vertex 20.1283 0 1
      vertex 13.6254 1.73912 4.51261
      vertex 20.1283 0 6.31629
    endloop
  endfacet
  facet normal 0.258357 0.966049 -8.84117e-07
    outer loop
      vertex 10.6792 2.52704 1
      vertex 13.6254 1.73912 4.51261
      vertex 20.1283 0 1
    endloop
  endfacet
  facet normal 0.258361 0.966049 -3.66508e-06
    outer loop
      vertex 13.6254 1.73912 4.51261
      vertex 10.6792 2.52704 1
      vertex 8.32708 3.1561 3.04304
    endloop
  endfacet
  facet normal 0.258352 0.966051 2.16866e-05
    outer loop
      vertex 30.106 -2.66844 8.71432
      vertex 32.7433 -3.37376 9.81527
      vertex 32.6573 -3.35075 9.32749
    endloop
  endfacet
  facet normal 0.258361 0.966049 -1.12925e-06
    outer loop
      vertex 32.7433 -3.37376 9.81527
      vertex 30.106 -2.66844 8.71432
      vertex 20.1283 0 6.31629
    endloop
  endfacet
  facet normal -0.258358 -0.966049 -3.16926e-06
    outer loop
      vertex 12.3699 8.84863 1
      vertex 32.6564 3.42323 9.32224
      vertex 10.0177 9.47769 3.04304
    endloop
  endfacet
  facet normal -0.25836 -0.966049 2.08225e-06
    outer loop
      vertex 32.6564 3.42323 9.32224
      vertex 12.3699 8.84863 1
      vertex 31.1889 3.81568 1
    endloop
  endfacet
  facet normal -0.965978 0.258626 0
    outer loop
      vertex 39.7307 9.34016 2.09022
      vertex 39.7307 9.34016 1
      vertex 39.7053 9.24529 1
    endloop
  endfacet
  facet normal -0.966044 0.258379 0
    outer loop
      vertex 39.7307 9.34016 9.33175
      vertex 39.7307 9.34016 3.11795
      vertex 39.5331 8.60136 9.36659
    endloop
  endfacet
  facet normal 0.25836 0.966049 -3.83167e-06
    outer loop
      vertex 12.6282 9.81468 1
      vertex 32.6431 4.46193 9.24689
      vertex 31.7684 4.69584 4.28659
    endloop
  endfacet
  facet normal 0.258359 0.966049 3.66342e-06
    outer loop
      vertex 12.6282 9.81468 1
      vertex 31.7684 4.69584 4.28659
      vertex 31.3743 4.80125 1
    endloop
  endfacet
  facet normal 0.258356 0.96605 6.90425e-06
    outer loop
      vertex 32.6431 4.46193 9.24689
      vertex 12.6282 9.81468 1
      vertex 10.2761 10.4437 3.04304
    endloop
  endfacet
  facet normal -0.258349 -0.966052 0
    outer loop
      vertex 39.1133 9.50527 9.44061
      vertex 39.7307 9.34016 3.11795
      vertex 39.7307 9.34016 9.33175
    endloop
  endfacet
  facet normal -0.258352 -0.966051 -2.45377e-05
    outer loop
      vertex 14.3189 16.1363 1
      vertex 39.2537 9.46771 10.6115
      vertex 11.9667 16.7653 3.04304
    endloop
  endfacet
  facet normal -0.258358 -0.966049 -9.75026e-06
    outer loop
      vertex 39.2537 9.46771 10.6115
      vertex 14.3189 16.1363 1
      vertex 39.1133 9.50527 9.44061
    endloop
  endfacet
  facet normal -0.25836 -0.966049 -1.16024e-06
    outer loop
      vertex 39.1133 9.50527 9.44061
      vertex 14.3189 16.1363 1
      vertex 39.7307 9.34016 3.11795
    endloop
  endfacet
  facet normal -0.258361 -0.966048 9.56781e-06
    outer loop
      vertex 39.7307 9.34016 3.11795
      vertex 14.3189 16.1363 1
      vertex 39.538 9.39168 1.51161
    endloop
  endfacet
  facet normal -0.258287 -0.966068 0
    outer loop
      vertex 39.538 9.39168 1.51161
      vertex 39.7307 9.34016 1
      vertex 39.7307 9.34016 2.09022
    endloop
  endfacet
  facet normal -0.25836 -0.966049 -2.97404e-05
    outer loop
      vertex 39.7307 9.34016 1
      vertex 39.538 9.39168 1.51161
      vertex 14.3189 16.1363 1
    endloop
  endfacet
  facet normal 0.250032 -0.0668704 -0.965926
    outer loop
      vertex 10.2761 10.4437 3.04304
      vertex 32.6401 4.69584 9.22992
      vertex 32.6431 4.46193 9.24689
    endloop
  endfacet
  facet normal 0.250032 -0.0668668 -0.965926
    outer loop
      vertex 32.6401 4.69584 9.22992
      vertex 10.2761 10.4437 3.04304
      vertex 11.9667 16.7653 3.04304
    endloop
  endfacet
  facet normal 0.250045 -0.0668831 -0.965921
    outer loop
      vertex 32.6401 4.69584 9.22992
      vertex 36.2446 7.82346 9.94644
      vertex 36.0428 6.55518 9.98202
    endloop
  endfacet
  facet normal 0.250029 -0.066877 -0.965926
    outer loop
      vertex 36.2446 7.82346 9.94644
      vertex 11.9667 16.7653 3.04304
      vertex 39.2537 9.46771 10.6115
    endloop
  endfacet
  facet normal 0.250032 -0.0668673 -0.965926
    outer loop
      vertex 11.9667 16.7653 3.04304
      vertex 36.2446 7.82346 9.94644
      vertex 32.6401 4.69584 9.22992
    endloop
  endfacet
  facet normal 0.250028 -0.0668611 -0.965927
    outer loop
      vertex 30.106 2.66844 8.71432
      vertex 32.6564 3.42323 9.32224
      vertex 32.6573 3.35075 9.32749
    endloop
  endfacet
  facet normal 0.250032 -0.0668669 -0.965926
    outer loop
      vertex 10.0177 9.47769 3.04304
      vertex 30.106 2.66844 8.71432
      vertex 13.6254 1.73912 4.51261
    endloop
  endfacet
  facet normal 0.250031 -0.0668707 -0.965926
    outer loop
      vertex 30.106 2.66844 8.71432
      vertex 10.0177 9.47769 3.04304
      vertex 32.6564 3.42323 9.32224
    endloop
  endfacet
  facet normal 0.250031 -0.0668674 -0.965926
    outer loop
      vertex 10.0177 9.47769 3.04304
      vertex 13.6254 1.73912 4.51261
      vertex 8.32708 3.1561 3.04304
    endloop
  endfacet
  facet normal 0.250032 -0.0668655 -0.965926
    outer loop
      vertex 20.1283 0 6.31629
      vertex 13.6254 1.73912 4.51261
      vertex 30.106 2.66844 8.71432
    endloop
  endfacet
  facet normal 0.250034 -0.0668631 -0.965926
    outer loop
      vertex 32.7433 -3.37376 9.81527
      vertex 20.1283 0 6.31629
      vertex 32.7001 0 9.57055
    endloop
  endfacet
  facet normal -0.620977 0.166079 -0.766033
    outer loop
      vertex 15.7285 16.7944 0
      vertex 12.6282 9.81468 1
      vertex 14.3189 16.1363 1
    endloop
  endfacet
  facet normal -0.620837 0.165998 -0.766163
    outer loop
      vertex 15.7285 16.7944 0
      vertex 12.3699 8.84863 1
      vertex 12.6282 9.81468 1
    endloop
  endfacet
  facet normal -0.62097 0.16607 -0.76604
    outer loop
      vertex 11.5722 1.25309 0
      vertex 12.3699 8.84863 1
      vertex 15.7285 16.7944 0
    endloop
  endfacet
  facet normal -0.62094 0.16607 -0.766064
    outer loop
      vertex 11.5722 1.25309 0
      vertex 10.6792 2.52704 1
      vertex 12.3699 8.84863 1
    endloop
  endfacet
  facet normal -0.620968 0.166037 -0.766048
    outer loop
      vertex 7.92182 2.22933 3.17064
      vertex 10.6792 2.52704 1
      vertex 11.5722 1.25309 0
    endloop
  endfacet
  facet normal -0.620967 0.166067 -0.766043
    outer loop
      vertex 10.6792 2.52704 1
      vertex 7.92182 2.22933 3.17064
      vertex 8.32708 3.1561 3.04304
    endloop
  endfacet
  facet normal -0.620971 0.166051 -0.766043
    outer loop
      vertex 14.3189 16.1363 1
      vertex 12.0782 17.7707 3.17064
      vertex 15.7285 16.7944 0
    endloop
  endfacet
  facet normal -0.620952 0.166087 -0.766051
    outer loop
      vertex 11.9667 16.7653 3.04304
      vertex 12.0782 17.7707 3.17064
      vertex 14.3189 16.1363 1
    endloop
  endfacet
  facet normal -0.621047 0.166088 -0.765973
    outer loop
      vertex 10.2761 10.4437 3.04304
      vertex 12.0782 17.7707 3.17064
      vertex 11.9667 16.7653 3.04304
    endloop
  endfacet
  facet normal -0.620031 0.165853 -0.766847
    outer loop
      vertex 10.0177 9.47769 3.04304
      vertex 12.0782 17.7707 3.17064
      vertex 10.2761 10.4437 3.04304
    endloop
  endfacet
  facet normal -0.620973 0.16607 -0.766037
    outer loop
      vertex 7.92182 2.22933 3.17064
      vertex 10.0177 9.47769 3.04304
      vertex 8.32708 3.1561 3.04304
    endloop
  endfacet
  facet normal -0.621037 0.16609 -0.765981
    outer loop
      vertex 10.0177 9.47769 3.04304
      vertex 7.92182 2.22933 3.17064
      vertex 12.0782 17.7707 3.17064
    endloop
  endfacet
  facet normal -0.62098 0.166036 -0.766039
    outer loop
      vertex 12.3699 8.84863 1
      vertex 10.2761 10.4437 3.04304
      vertex 12.6282 9.81468 1
    endloop
  endfacet
  facet normal -0.620947 0.166098 -0.766053
    outer loop
      vertex 10.2761 10.4437 3.04304
      vertex 12.3699 8.84863 1
      vertex 10.0177 9.47769 3.04304
    endloop
  endfacet
  facet normal 0.258361 -0.966049 -3.66508e-06
    outer loop
      vertex 10.6792 -2.52704 1
      vertex 13.6254 -1.73912 4.51261
      vertex 8.32708 -3.1561 3.04304
    endloop
  endfacet
  facet normal 0.258357 -0.966049 -8.84117e-07
    outer loop
      vertex 20.1283 0 1
      vertex 13.6254 -1.73912 4.51261
      vertex 10.6792 -2.52704 1
    endloop
  endfacet
  facet normal 0.258358 -0.966049 0
    outer loop
      vertex 13.6254 -1.73912 4.51261
      vertex 20.1283 0 1
      vertex 20.1283 0 6.31629
    endloop
  endfacet
  facet normal 0.258352 -0.966051 2.16866e-05
    outer loop
      vertex 32.7433 3.37376 9.81527
      vertex 30.106 2.66844 8.71432
      vertex 32.6573 3.35075 9.32749
    endloop
  endfacet
  facet normal 0.258361 -0.966049 -1.12925e-06
    outer loop
      vertex 30.106 2.66844 8.71432
      vertex 32.7433 3.37376 9.81527
      vertex 20.1283 0 6.31629
    endloop
  endfacet
  facet normal -0.25836 0.966049 2.08225e-06
    outer loop
      vertex 12.3699 -8.84863 1
      vertex 32.6564 -3.42323 9.32224
      vertex 31.1889 -3.81568 1
    endloop
  endfacet
  facet normal -0.258358 0.966049 -3.16926e-06
    outer loop
      vertex 32.6564 -3.42323 9.32224
      vertex 12.3699 -8.84863 1
      vertex 10.0177 -9.47769 3.04304
    endloop
  endfacet
  facet normal -0.965978 -0.258626 -0
    outer loop
      vertex 39.7307 -9.34016 2.09022
      vertex 39.7053 -9.24529 1
      vertex 39.7307 -9.34016 1
    endloop
  endfacet
  facet normal -0.966044 -0.258379 -0
    outer loop
      vertex 39.7307 -9.34016 9.33175
      vertex 39.5331 -8.60136 9.36659
      vertex 39.7307 -9.34016 3.11795
    endloop
  endfacet
  facet normal 0.258356 -0.96605 6.90425e-06
    outer loop
      vertex 12.6282 -9.81468 1
      vertex 32.6431 -4.46193 9.24689
      vertex 10.2761 -10.4437 3.04304
    endloop
  endfacet
  facet normal 0.25836 -0.966049 -3.83167e-06
    outer loop
      vertex 32.6431 -4.46193 9.24689
      vertex 12.6282 -9.81468 1
      vertex 31.7684 -4.69584 4.28659
    endloop
  endfacet
  facet normal 0.258359 -0.966049 3.66342e-06
    outer loop
      vertex 31.7684 -4.69584 4.28659
      vertex 12.6282 -9.81468 1
      vertex 31.3743 -4.80125 1
    endloop
  endfacet
  facet normal -0.258287 0.966068 0
    outer loop
      vertex 39.7307 -9.34016 2.09022
      vertex 39.7307 -9.34016 1
      vertex 39.538 -9.39168 1.51161
    endloop
  endfacet
  facet normal -0.258349 0.966052 0
    outer loop
      vertex 39.7307 -9.34016 3.11795
      vertex 39.1133 -9.50527 9.44061
      vertex 39.7307 -9.34016 9.33175
    endloop
  endfacet
  facet normal -0.258358 0.966049 -9.75026e-06
    outer loop
      vertex 14.3189 -16.1363 1
      vertex 39.2537 -9.46771 10.6115
      vertex 39.1133 -9.50527 9.44061
    endloop
  endfacet
  facet normal -0.25836 0.966049 -1.16024e-06
    outer loop
      vertex 14.3189 -16.1363 1
      vertex 39.1133 -9.50527 9.44061
      vertex 39.7307 -9.34016 3.11795
    endloop
  endfacet
  facet normal -0.258361 0.966048 9.56781e-06
    outer loop
      vertex 14.3189 -16.1363 1
      vertex 39.7307 -9.34016 3.11795
      vertex 39.538 -9.39168 1.51161
    endloop
  endfacet
  facet normal -0.25836 0.966049 -2.97404e-05
    outer loop
      vertex 14.3189 -16.1363 1
      vertex 39.538 -9.39168 1.51161
      vertex 39.7307 -9.34016 1
    endloop
  endfacet
  facet normal -0.258352 0.966051 -2.45377e-05
    outer loop
      vertex 39.2537 -9.46771 10.6115
      vertex 14.3189 -16.1363 1
      vertex 11.9667 -16.7653 3.04304
    endloop
  endfacet
  facet normal 0.250045 0.0668831 -0.965921
    outer loop
      vertex 36.2446 -7.82346 9.94644
      vertex 32.6401 -4.69584 9.22992
      vertex 36.0428 -6.55518 9.98202
    endloop
  endfacet
  facet normal 0.250032 0.0668673 -0.965926
    outer loop
      vertex 36.2446 -7.82346 9.94644
      vertex 11.9667 -16.7653 3.04304
      vertex 32.6401 -4.69584 9.22992
    endloop
  endfacet
  facet normal 0.250029 0.066877 -0.965926
    outer loop
      vertex 11.9667 -16.7653 3.04304
      vertex 36.2446 -7.82346 9.94644
      vertex 39.2537 -9.46771 10.6115
    endloop
  endfacet
  facet normal 0.250032 0.0668668 -0.965926
    outer loop
      vertex 10.2761 -10.4437 3.04304
      vertex 32.6401 -4.69584 9.22992
      vertex 11.9667 -16.7653 3.04304
    endloop
  endfacet
  facet normal 0.250032 0.0668704 -0.965926
    outer loop
      vertex 32.6401 -4.69584 9.22992
      vertex 10.2761 -10.4437 3.04304
      vertex 32.6431 -4.46193 9.24689
    endloop
  endfacet
  facet normal 0.250028 0.0668611 -0.965927
    outer loop
      vertex 32.6564 -3.42323 9.32224
      vertex 30.106 -2.66844 8.71432
      vertex 32.6573 -3.35075 9.32749
    endloop
  endfacet
  facet normal 0.250031 0.0668707 -0.965926
    outer loop
      vertex 10.0177 -9.47769 3.04304
      vertex 30.106 -2.66844 8.71432
      vertex 32.6564 -3.42323 9.32224
    endloop
  endfacet
  facet normal 0.250032 0.0668669 -0.965926
    outer loop
      vertex 30.106 -2.66844 8.71432
      vertex 10.0177 -9.47769 3.04304
      vertex 13.6254 -1.73912 4.51261
    endloop
  endfacet
  facet normal 0.250031 0.0668674 -0.965926
    outer loop
      vertex 13.6254 -1.73912 4.51261
      vertex 10.0177 -9.47769 3.04304
      vertex 8.32708 -3.1561 3.04304
    endloop
  endfacet
  facet normal 0.250032 0.0668655 -0.965926
    outer loop
      vertex 20.1283 0 6.31629
      vertex 30.106 -2.66844 8.71432
      vertex 13.6254 -1.73912 4.51261
    endloop
  endfacet
  facet normal 0.250034 0.0668631 -0.965926
    outer loop
      vertex 32.7433 3.37376 9.81527
      vertex 32.7001 0 9.57055
      vertex 20.1283 0 6.31629
    endloop
  endfacet
  facet normal -0.62098 -0.166036 -0.766039
    outer loop
      vertex 10.2761 -10.4437 3.04304
      vertex 12.3699 -8.84863 1
      vertex 12.6282 -9.81468 1
    endloop
  endfacet
  facet normal -0.620947 -0.166098 -0.766053
    outer loop
      vertex 12.3699 -8.84863 1
      vertex 10.2761 -10.4437 3.04304
      vertex 10.0177 -9.47769 3.04304
    endloop
  endfacet
  facet normal -0.620971 -0.166051 -0.766043
    outer loop
      vertex 12.0782 -17.7707 3.17064
      vertex 14.3189 -16.1363 1
      vertex 15.7285 -16.7944 0
    endloop
  endfacet
  facet normal -0.620952 -0.166087 -0.766051
    outer loop
      vertex 12.0782 -17.7707 3.17064
      vertex 11.9667 -16.7653 3.04304
      vertex 14.3189 -16.1363 1
    endloop
  endfacet
  facet normal -0.621047 -0.166088 -0.765973
    outer loop
      vertex 12.0782 -17.7707 3.17064
      vertex 10.2761 -10.4437 3.04304
      vertex 11.9667 -16.7653 3.04304
    endloop
  endfacet
  facet normal -0.620031 -0.165853 -0.766847
    outer loop
      vertex 12.0782 -17.7707 3.17064
      vertex 10.0177 -9.47769 3.04304
      vertex 10.2761 -10.4437 3.04304
    endloop
  endfacet
  facet normal -0.621037 -0.16609 -0.765981
    outer loop
      vertex 7.92182 -2.22933 3.17064
      vertex 10.0177 -9.47769 3.04304
      vertex 12.0782 -17.7707 3.17064
    endloop
  endfacet
  facet normal -0.620973 -0.16607 -0.766037
    outer loop
      vertex 10.0177 -9.47769 3.04304
      vertex 7.92182 -2.22933 3.17064
      vertex 8.32708 -3.1561 3.04304
    endloop
  endfacet
  facet normal -0.620977 -0.166079 -0.766033
    outer loop
      vertex 12.6282 -9.81468 1
      vertex 15.7285 -16.7944 0
      vertex 14.3189 -16.1363 1
    endloop
  endfacet
  facet normal -0.620837 -0.165998 -0.766163
    outer loop
      vertex 12.3699 -8.84863 1
      vertex 15.7285 -16.7944 0
      vertex 12.6282 -9.81468 1
    endloop
  endfacet
  facet normal -0.62097 -0.16607 -0.76604
    outer loop
      vertex 12.3699 -8.84863 1
      vertex 11.5722 -1.25309 0
      vertex 15.7285 -16.7944 0
    endloop
  endfacet
  facet normal -0.62094 -0.16607 -0.766064
    outer loop
      vertex 10.6792 -2.52704 1
      vertex 11.5722 -1.25309 0
      vertex 12.3699 -8.84863 1
    endloop
  endfacet
  facet normal -0.620967 -0.166067 -0.766043
    outer loop
      vertex 7.92182 -2.22933 3.17064
      vertex 10.6792 -2.52704 1
      vertex 8.32708 -3.1561 3.04304
    endloop
  endfacet
  facet normal -0.620968 -0.166037 -0.766048
    outer loop
      vertex 10.6792 -2.52704 1
      vertex 7.92182 -2.22933 3.17064
      vertex 11.5722 -1.25309 0
    endloop
  endfacet
endsolid OpenSCAD_Model
