solid OpenSCAD_Model
  facet normal 0.5 0.866025 -0
    outer loop
      vertex 48.2572 5.69584 0
      vertex 38.3917 11.3917 10
      vertex 48.2572 5.69584 10
    endloop
  endfacet
  facet normal 0.5 0.866025 0
    outer loop
      vertex 38.3917 11.3917 10
      vertex 48.2572 5.69584 0
      vertex 38.3917 11.3917 0
    endloop
  endfacet
  facet normal -1 1.67433e-07 0
    outer loop
      vertex 28.5262 -5.69584 0
      vertex 28.5262 5.69584 10
      vertex 28.5262 5.69584 0
    endloop
  endfacet
  facet normal -1 1.67433e-07 0
    outer loop
      vertex 28.5262 5.69584 10
      vertex 28.5262 -5.69584 0
      vertex 28.5262 -5.69584 10
    endloop
  endfacet
  facet normal -0.5 0.866025 0
    outer loop
      vertex 38.3917 11.3917 0
      vertex 28.5262 5.69584 10
      vertex 38.3917 11.3917 10
    endloop
  endfacet
  facet normal -0.5 0.866025 0
    outer loop
      vertex 28.5262 5.69584 10
      vertex 38.3917 11.3917 0
      vertex 28.5262 5.69584 0
    endloop
  endfacet
  facet normal 0 0 -1
    outer loop
      vertex 48.2572 5.69584 10
      vertex 44.0875 9.86548 10
      vertex 46.4468 8.05513 10
    endloop
  endfacet
  facet normal 0 0 -1
    outer loop
      vertex 48.2572 5.69584 10
      vertex 41.3401 11.0035 10
      vertex 44.0875 9.86548 10
    endloop
  endfacet
  facet normal -0 -0 -1
    outer loop
      vertex 41.3401 11.0035 10
      vertex 48.2572 5.69584 10
      vertex 38.3917 11.3917 10
    endloop
  endfacet
  facet normal 0 0 -1
    outer loop
      vertex 32.6958 -9.86548 10
      vertex 38.3917 -11.3917 10
      vertex 35.4433 -11.0035 10
    endloop
  endfacet
  facet normal 0 0 -1
    outer loop
      vertex 30.3365 -8.05513 10
      vertex 38.3917 -11.3917 10
      vertex 32.6958 -9.86548 10
    endloop
  endfacet
  facet normal 0 0 -1
    outer loop
      vertex 38.3917 -11.3917 10
      vertex 30.3365 -8.05513 10
      vertex 28.5262 -5.69584 10
    endloop
  endfacet
  facet normal 0 0 -1
    outer loop
      vertex 27.3882 -2.94838 10
      vertex 28.5262 5.69584 10
      vertex 28.5262 -5.69584 10
    endloop
  endfacet
  facet normal 0 0 -1
    outer loop
      vertex 27.3882 -2.94838 10
      vertex 27.3882 2.94838 10
      vertex 28.5262 5.69584 10
    endloop
  endfacet
  facet normal 0 -0 -1
    outer loop
      vertex 27.3882 2.94838 10
      vertex 27.3882 -2.94838 10
      vertex 27 -8.52241e-08 10
    endloop
  endfacet
  facet normal 0 0 -1
    outer loop
      vertex 38.3917 11.3917 10
      vertex 32.6958 9.86549 10
      vertex 35.4433 11.0035 10
    endloop
  endfacet
  facet normal 0 0 -1
    outer loop
      vertex 38.3917 11.3917 10
      vertex 30.3365 8.05513 10
      vertex 32.6958 9.86549 10
    endloop
  endfacet
  facet normal 0 -0 -1
    outer loop
      vertex 30.3365 8.05513 10
      vertex 38.3917 11.3917 10
      vertex 28.5262 5.69584 10
    endloop
  endfacet
  facet normal 0 0 -1
    outer loop
      vertex 49.3952 -2.94838 10
      vertex 49.3952 2.94838 10
      vertex 49.7834 8.52241e-08 10
    endloop
  endfacet
  facet normal 0 0 -1
    outer loop
      vertex 48.2572 -5.69584 10
      vertex 49.3952 2.94838 10
      vertex 49.3952 -2.94838 10
    endloop
  endfacet
  facet normal -0 0 -1
    outer loop
      vertex 49.3952 2.94838 10
      vertex 48.2572 -5.69584 10
      vertex 48.2572 5.69584 10
    endloop
  endfacet
  facet normal 0 0 -1
    outer loop
      vertex 44.0875 -9.86549 10
      vertex 48.2572 -5.69584 10
      vertex 46.4468 -8.05513 10
    endloop
  endfacet
  facet normal 0 0 -1
    outer loop
      vertex 41.3401 -11.0035 10
      vertex 48.2572 -5.69584 10
      vertex 44.0875 -9.86549 10
    endloop
  endfacet
  facet normal 0 0 -1
    outer loop
      vertex 48.2572 -5.69584 10
      vertex 41.3401 -11.0035 10
      vertex 38.3917 -11.3917 10
    endloop
  endfacet
  facet normal 1 -0 0
    outer loop
      vertex 48.2572 -5.69584 10
      vertex 48.2572 5.69584 0
      vertex 48.2572 5.69584 10
    endloop
  endfacet
  facet normal 1 0 0
    outer loop
      vertex 48.2572 5.69584 0
      vertex 48.2572 -5.69584 10
      vertex 48.2572 -5.69584 0
    endloop
  endfacet
  facet normal 0 0 -1
    outer loop
      vertex 48.2572 -5.69584 0
      vertex 47.521 5.27084 0
      vertex 48.2572 5.69584 0
    endloop
  endfacet
  facet normal 0 0 -1
    outer loop
      vertex 48.2572 -5.69584 0
      vertex 47.521 -5.27084 0
      vertex 47.521 5.27084 0
    endloop
  endfacet
  facet normal 0 0 -1
    outer loop
      vertex 38.3917 -11.3917 0
      vertex 47.521 -5.27084 0
      vertex 48.2572 -5.69584 0
    endloop
  endfacet
  facet normal 0 0 -1
    outer loop
      vertex 38.3917 -11.3917 0
      vertex 38.3917 -10.5417 0
      vertex 47.521 -5.27084 0
    endloop
  endfacet
  facet normal 0 0 -1
    outer loop
      vertex 38.3917 -11.3917 0
      vertex 29.2623 -5.27084 0
      vertex 38.3917 -10.5417 0
    endloop
  endfacet
  facet normal 0 0 -1
    outer loop
      vertex 29.2623 -5.27084 0
      vertex 28.5262 5.69584 0
      vertex 29.2623 5.27084 0
    endloop
  endfacet
  facet normal -0 0 -1
    outer loop
      vertex 29.2623 -5.27084 0
      vertex 28.5262 -5.69584 0
      vertex 28.5262 5.69584 0
    endloop
  endfacet
  facet normal 0 0 -1
    outer loop
      vertex 28.5262 -5.69584 0
      vertex 29.2623 -5.27084 0
      vertex 38.3917 -11.3917 0
    endloop
  endfacet
  facet normal 0 0 -1
    outer loop
      vertex 38.3917 10.5417 0
      vertex 48.2572 5.69584 0
      vertex 47.521 5.27084 0
    endloop
  endfacet
  facet normal 0 0 -1
    outer loop
      vertex 38.3917 10.5417 0
      vertex 38.3917 11.3917 0
      vertex 48.2572 5.69584 0
    endloop
  endfacet
  facet normal 0 0 -1
    outer loop
      vertex 29.2623 5.27084 0
      vertex 38.3917 11.3917 0
      vertex 38.3917 10.5417 0
    endloop
  endfacet
  facet normal 0 0 -1
    outer loop
      vertex 38.3917 11.3917 0
      vertex 29.2623 5.27084 0
      vertex 28.5262 5.69584 0
    endloop
  endfacet
  facet normal 0.5 -0.866025 0
    outer loop
      vertex 38.3917 -11.3917 0
      vertex 48.2572 -5.69584 10
      vertex 38.3917 -11.3917 10
    endloop
  endfacet
  facet normal 0.5 -0.866025 0
    outer loop
      vertex 48.2572 -5.69584 10
      vertex 38.3917 -11.3917 0
      vertex 48.2572 -5.69584 0
    endloop
  endfacet
  facet normal -0.5 -0.866025 0
    outer loop
      vertex 28.5262 -5.69584 0
      vertex 38.3917 -11.3917 10
      vertex 28.5262 -5.69584 10
    endloop
  endfacet
  facet normal -0.5 -0.866025 -0
    outer loop
      vertex 38.3917 -11.3917 10
      vertex 28.5262 -5.69584 0
      vertex 38.3917 -11.3917 0
    endloop
  endfacet
  facet normal 0.792756 0.608303 0.0388035
    outer loop
      vertex 48.2572 5.69584 10
      vertex 46.1699 7.77817 20
      vertex 47.918 5.5 20
    endloop
  endfacet
  facet normal 0.792756 0.608303 0.0388036
    outer loop
      vertex 46.4468 8.05513 10
      vertex 46.1699 7.77817 20
      vertex 48.2572 5.69584 10
    endloop
  endfacet
  facet normal 0.382395 -0.923184 0.0388037
    outer loop
      vertex 43.8917 -9.52628 20
      vertex 41.2387 -10.6252 20
      vertex 44.0875 -9.86549 10
    endloop
  endfacet
  facet normal -0.792756 -0.608303 0.0388038
    outer loop
      vertex 28.8654 -5.5 20
      vertex 28.5262 -5.69584 10
      vertex 30.6135 -7.77817 20
    endloop
  endfacet
  facet normal 0.923184 -0.382395 0.0388037
    outer loop
      vertex 49.0169 -2.84701 20
      vertex 47.918 -5.5 20
      vertex 49.3952 -2.94838 10
    endloop
  endfacet
  facet normal 0.608303 0.792756 0.0388037
    outer loop
      vertex 44.0875 9.86548 10
      vertex 43.8917 9.52628 20
      vertex 46.1699 7.77817 20
    endloop
  endfacet
  facet normal 0.990698 0.130427 0.0388037
    outer loop
      vertex 49.0169 2.84701 20
      vertex 49.7834 8.52241e-08 10
      vertex 49.3952 2.94838 10
    endloop
  endfacet
  facet normal 0.382396 0.923184 0.0388038
    outer loop
      vertex 41.3401 11.0035 10
      vertex 41.2387 10.6252 20
      vertex 44.0875 9.86548 10
    endloop
  endfacet
  facet normal 0.608303 0.792756 0.0388036
    outer loop
      vertex 46.4468 8.05513 10
      vertex 44.0875 9.86548 10
      vertex 46.1699 7.77817 20
    endloop
  endfacet
  facet normal -0.923184 -0.382395 0.0388037
    outer loop
      vertex 27.3882 -2.94838 10
      vertex 28.5262 -5.69584 10
      vertex 27.7665 -2.84701 20
    endloop
  endfacet
  facet normal -0.990698 0.130428 0.0388038
    outer loop
      vertex 27.7665 2.84701 20
      vertex 27 -8.52241e-08 10
      vertex 27.3917 -3.52986e-07 20
    endloop
  endfacet
  facet normal -0.608303 0.792756 0.0388039
    outer loop
      vertex 32.6958 9.86549 10
      vertex 30.6135 7.77817 20
      vertex 32.8917 9.52628 20
    endloop
  endfacet
  facet normal -0.608303 -0.792756 0.0388037
    outer loop
      vertex 30.6135 -7.77817 20
      vertex 30.3365 -8.05513 10
      vertex 32.6958 -9.86548 10
    endloop
  endfacet
  facet normal -0.792756 -0.608303 0.0388037
    outer loop
      vertex 30.6135 -7.77817 20
      vertex 28.5262 -5.69584 10
      vertex 30.3365 -8.05513 10
    endloop
  endfacet
  facet normal 0.608303 -0.792756 0.0388039
    outer loop
      vertex 46.1699 -7.77817 20
      vertex 44.0875 -9.86549 10
      vertex 46.4468 -8.05513 10
    endloop
  endfacet
  facet normal 0.990698 -0.130427 0.0388034
    outer loop
      vertex 49.3917 -4.7292e-07 20
      vertex 49.3952 -2.94838 10
      vertex 49.7834 8.52241e-08 10
    endloop
  endfacet
  facet normal -0.792756 0.608303 0.0388036
    outer loop
      vertex 30.3365 8.05513 10
      vertex 28.5262 5.69584 10
      vertex 30.6135 7.77817 20
    endloop
  endfacet
  facet normal 0.130428 0.990698 0.0388038
    outer loop
      vertex 41.3401 11.0035 10
      vertex 38.3917 11 20
      vertex 41.2387 10.6252 20
    endloop
  endfacet
  facet normal -0.382395 0.923184 0.0388039
    outer loop
      vertex 32.6958 9.86549 10
      vertex 32.8917 9.52628 20
      vertex 35.5447 10.6252 20
    endloop
  endfacet
  facet normal -0.382395 -0.923184 0.0388037
    outer loop
      vertex 35.5447 -10.6252 20
      vertex 32.6958 -9.86548 10
      vertex 35.4433 -11.0035 10
    endloop
  endfacet
  facet normal -0.608303 -0.792756 0.0388039
    outer loop
      vertex 32.8917 -9.52628 20
      vertex 30.6135 -7.77817 20
      vertex 32.6958 -9.86548 10
    endloop
  endfacet
  facet normal 0.130428 -0.990698 0.0388037
    outer loop
      vertex 41.2387 -10.6252 20
      vertex 38.3917 -11.3917 10
      vertex 41.3401 -11.0035 10
    endloop
  endfacet
  facet normal 0.382395 -0.923184 0.0388037
    outer loop
      vertex 41.2387 -10.6252 20
      vertex 41.3401 -11.0035 10
      vertex 44.0875 -9.86549 10
    endloop
  endfacet
  facet normal 0.608303 -0.792755 0.0388037
    outer loop
      vertex 43.8917 -9.52628 20
      vertex 44.0875 -9.86549 10
      vertex 46.1699 -7.77817 20
    endloop
  endfacet
  facet normal 0.990698 0.130428 0.0388035
    outer loop
      vertex 49.0169 2.84701 20
      vertex 49.3917 -4.7292e-07 20
      vertex 49.7834 8.52241e-08 10
    endloop
  endfacet
  facet normal -0.923184 -0.382396 0.0388039
    outer loop
      vertex 27.7665 -2.84701 20
      vertex 28.5262 -5.69584 10
      vertex 28.8654 -5.5 20
    endloop
  endfacet
  facet normal -0.990698 0.130428 0.0388037
    outer loop
      vertex 27.3882 2.94838 10
      vertex 27 -8.52241e-08 10
      vertex 27.7665 2.84701 20
    endloop
  endfacet
  facet normal -0.608304 0.792755 0.0388036
    outer loop
      vertex 32.6958 9.86549 10
      vertex 30.3365 8.05513 10
      vertex 30.6135 7.77817 20
    endloop
  endfacet
  facet normal 0.382395 0.923184 0.0388037
    outer loop
      vertex 44.0875 9.86548 10
      vertex 41.2387 10.6252 20
      vertex 43.8917 9.52628 20
    endloop
  endfacet
  facet normal -0.130427 0.990698 0.0388037
    outer loop
      vertex 38.3917 11.3917 10
      vertex 35.5447 10.6252 20
      vertex 38.3917 11 20
    endloop
  endfacet
  facet normal 0.130427 0.990698 0.0388037
    outer loop
      vertex 38.3917 11.3917 10
      vertex 38.3917 11 20
      vertex 41.3401 11.0035 10
    endloop
  endfacet
  facet normal -0.130428 0.990698 0.0388037
    outer loop
      vertex 35.4433 11.0035 10
      vertex 35.5447 10.6252 20
      vertex 38.3917 11.3917 10
    endloop
  endfacet
  facet normal -0.382395 0.923184 0.0388036
    outer loop
      vertex 35.4433 11.0035 10
      vertex 32.6958 9.86549 10
      vertex 35.5447 10.6252 20
    endloop
  endfacet
  facet normal -0.382396 -0.923183 0.0388039
    outer loop
      vertex 32.8917 -9.52628 20
      vertex 32.6958 -9.86548 10
      vertex 35.5447 -10.6252 20
    endloop
  endfacet
  facet normal -0.130427 -0.990698 0.0388037
    outer loop
      vertex 38.3917 -11 20
      vertex 35.4433 -11.0035 10
      vertex 38.3917 -11.3917 10
    endloop
  endfacet
  facet normal 0.130428 -0.990698 0.0388037
    outer loop
      vertex 38.3917 -11 20
      vertex 38.3917 -11.3917 10
      vertex 41.2387 -10.6252 20
    endloop
  endfacet
  facet normal 0.792756 -0.608302 0.0388039
    outer loop
      vertex 48.2572 -5.69584 10
      vertex 46.1699 -7.77817 20
      vertex 46.4468 -8.05513 10
    endloop
  endfacet
  facet normal 0.923184 0.382396 0.0388037
    outer loop
      vertex 48.2572 5.69584 10
      vertex 49.0169 2.84701 20
      vertex 49.3952 2.94838 10
    endloop
  endfacet
  facet normal 0.923184 0.382395 0.0388035
    outer loop
      vertex 47.918 5.5 20
      vertex 49.0169 2.84701 20
      vertex 48.2572 5.69584 10
    endloop
  endfacet
  facet normal -0.990698 -0.130428 0.0388037
    outer loop
      vertex 27 -8.52241e-08 10
      vertex 27.3882 -2.94838 10
      vertex 27.7665 -2.84701 20
    endloop
  endfacet
  facet normal -0.990698 -0.130428 0.0388038
    outer loop
      vertex 27 -8.52241e-08 10
      vertex 27.7665 -2.84701 20
      vertex 27.3917 -3.52986e-07 20
    endloop
  endfacet
  facet normal -0.923184 0.382396 0.0388037
    outer loop
      vertex 28.5262 5.69584 10
      vertex 27.3882 2.94838 10
      vertex 27.7665 2.84701 20
    endloop
  endfacet
  facet normal -0.130427 -0.990698 0.0388037
    outer loop
      vertex 35.5447 -10.6252 20
      vertex 35.4433 -11.0035 10
      vertex 38.3917 -11 20
    endloop
  endfacet
  facet normal 0.792755 -0.608303 0.0388036
    outer loop
      vertex 47.918 -5.5 20
      vertex 46.1699 -7.77817 20
      vertex 48.2572 -5.69584 10
    endloop
  endfacet
  facet normal 0.923184 -0.382396 0.0388035
    outer loop
      vertex 49.3952 -2.94838 10
      vertex 47.918 -5.5 20
      vertex 48.2572 -5.69584 10
    endloop
  endfacet
  facet normal 0.990698 -0.130428 0.0388037
    outer loop
      vertex 49.3917 -4.7292e-07 20
      vertex 49.0169 -2.84701 20
      vertex 49.3952 -2.94838 10
    endloop
  endfacet
  facet normal -0.923184 0.382396 0.0388037
    outer loop
      vertex 28.5262 5.69584 10
      vertex 27.7665 2.84701 20
      vertex 28.8654 5.5 20
    endloop
  endfacet
  facet normal -0.792756 0.608303 0.0388037
    outer loop
      vertex 30.6135 7.77817 20
      vertex 28.5262 5.69584 10
      vertex 28.8654 5.5 20
    endloop
  endfacet
  facet normal 0.793353 0.608761 0
    outer loop
      vertex 47.918 5.5 30
      vertex 46.1699 7.77817 20
      vertex 46.1699 7.77817 30
    endloop
  endfacet
  facet normal 0.793353 0.608761 0
    outer loop
      vertex 46.1699 7.77817 20
      vertex 47.918 5.5 30
      vertex 47.918 5.5 20
    endloop
  endfacet
  facet normal -0.923879 -0.382684 0
    outer loop
      vertex 28.8654 -5.5 20
      vertex 27.7665 -2.84701 30
      vertex 27.7665 -2.84701 20
    endloop
  endfacet
  facet normal -0.923879 -0.382684 0
    outer loop
      vertex 27.7665 -2.84701 30
      vertex 28.8654 -5.5 20
      vertex 28.8654 -5.5 30
    endloop
  endfacet
  facet normal -0.382684 0.923879 0
    outer loop
      vertex 35.5447 10.6252 20
      vertex 32.8917 9.52628 30
      vertex 35.5447 10.6252 30
    endloop
  endfacet
  facet normal -0.382684 0.923879 0
    outer loop
      vertex 32.8917 9.52628 30
      vertex 35.5447 10.6252 20
      vertex 32.8917 9.52628 20
    endloop
  endfacet
  facet normal 0.382683 -0.92388 0
    outer loop
      vertex 41.2387 -10.6252 20
      vertex 43.8917 -9.52628 30
      vertex 41.2387 -10.6252 30
    endloop
  endfacet
  facet normal 0.382683 -0.92388 0
    outer loop
      vertex 43.8917 -9.52628 30
      vertex 41.2387 -10.6252 20
      vertex 43.8917 -9.52628 20
    endloop
  endfacet
  facet normal 0.382683 0.92388 -0
    outer loop
      vertex 43.8917 9.52628 20
      vertex 41.2387 10.6252 30
      vertex 43.8917 9.52628 30
    endloop
  endfacet
  facet normal 0.382683 0.92388 0
    outer loop
      vertex 41.2387 10.6252 30
      vertex 43.8917 9.52628 20
      vertex 41.2387 10.6252 20
    endloop
  endfacet
  facet normal 0.608761 0.793353 -0
    outer loop
      vertex 46.1699 7.77817 20
      vertex 43.8917 9.52628 30
      vertex 46.1699 7.77817 30
    endloop
  endfacet
  facet normal 0.608761 0.793353 0
    outer loop
      vertex 43.8917 9.52628 30
      vertex 46.1699 7.77817 20
      vertex 43.8917 9.52628 20
    endloop
  endfacet
  facet normal -0.923879 0.382684 0
    outer loop
      vertex 27.7665 2.84701 20
      vertex 28.8654 5.5 30
      vertex 28.8654 5.5 20
    endloop
  endfacet
  facet normal -0.923879 0.382684 0
    outer loop
      vertex 28.8654 5.5 30
      vertex 27.7665 2.84701 20
      vertex 27.7665 2.84701 30
    endloop
  endfacet
  facet normal -0 0 1
    outer loop
      vertex 48.3917 -2.56532e-07 30
      vertex 49.3917 -4.7292e-07 30
      vertex 49.0169 2.84701 30
    endloop
  endfacet
  facet normal 0 0 1
    outer loop
      vertex 49.3917 -4.7292e-07 30
      vertex 48.3917 -2.56532e-07 30
      vertex 49.0169 -2.84701 30
    endloop
  endfacet
  facet normal 0 0 1
    outer loop
      vertex 49.0169 2.84701 30
      vertex 48.0509 2.58819 30
      vertex 48.3917 -2.56532e-07 30
    endloop
  endfacet
  facet normal 0 0 1
    outer loop
      vertex 47.918 5.5 30
      vertex 48.0509 2.58819 30
      vertex 49.0169 2.84701 30
    endloop
  endfacet
  facet normal 0 0 1
    outer loop
      vertex 47.918 5.5 30
      vertex 47.0519 5 30
      vertex 48.0509 2.58819 30
    endloop
  endfacet
  facet normal 0 0 1
    outer loop
      vertex 46.1699 7.77817 30
      vertex 47.0519 5 30
      vertex 47.918 5.5 30
    endloop
  endfacet
  facet normal 0 0 1
    outer loop
      vertex 46.1699 7.77817 30
      vertex 45.4627 7.07107 30
      vertex 47.0519 5 30
    endloop
  endfacet
  facet normal 0 0 1
    outer loop
      vertex 43.8917 9.52628 30
      vertex 45.4627 7.07107 30
      vertex 46.1699 7.77817 30
    endloop
  endfacet
  facet normal 0 0 1
    outer loop
      vertex 43.8917 9.52628 30
      vertex 43.3917 8.66025 30
      vertex 45.4627 7.07107 30
    endloop
  endfacet
  facet normal 0 0 1
    outer loop
      vertex 41.2387 10.6252 30
      vertex 43.3917 8.66025 30
      vertex 43.8917 9.52628 30
    endloop
  endfacet
  facet normal 0 0 1
    outer loop
      vertex 41.2387 10.6252 30
      vertex 40.9799 9.65926 30
      vertex 43.3917 8.66025 30
    endloop
  endfacet
  facet normal 0 0 1
    outer loop
      vertex 38.3917 11 30
      vertex 40.9799 9.65926 30
      vertex 41.2387 10.6252 30
    endloop
  endfacet
  facet normal 0 0 1
    outer loop
      vertex 38.3917 11 30
      vertex 38.3917 10 30
      vertex 40.9799 9.65926 30
    endloop
  endfacet
  facet normal 0 0 1
    outer loop
      vertex 38.3917 11 30
      vertex 35.8035 9.65926 30
      vertex 38.3917 10 30
    endloop
  endfacet
  facet normal -0 0 1
    outer loop
      vertex 35.5447 10.6252 30
      vertex 35.8035 9.65926 30
      vertex 38.3917 11 30
    endloop
  endfacet
  facet normal 0 0 1
    outer loop
      vertex 35.5447 10.6252 30
      vertex 33.3917 8.66025 30
      vertex 35.8035 9.65926 30
    endloop
  endfacet
  facet normal -0 0 1
    outer loop
      vertex 32.8917 9.52628 30
      vertex 33.3917 8.66025 30
      vertex 35.5447 10.6252 30
    endloop
  endfacet
  facet normal 0 0 1
    outer loop
      vertex 32.8917 9.52628 30
      vertex 31.3206 7.07107 30
      vertex 33.3917 8.66025 30
    endloop
  endfacet
  facet normal -0 0 1
    outer loop
      vertex 30.6135 7.77817 30
      vertex 31.3206 7.07107 30
      vertex 32.8917 9.52628 30
    endloop
  endfacet
  facet normal 0 0 1
    outer loop
      vertex 30.6135 7.77817 30
      vertex 29.7314 5 30
      vertex 31.3206 7.07107 30
    endloop
  endfacet
  facet normal -0 0 1
    outer loop
      vertex 28.8654 5.5 30
      vertex 29.7314 5 30
      vertex 30.6135 7.77817 30
    endloop
  endfacet
  facet normal 0 0 1
    outer loop
      vertex 28.8654 5.5 30
      vertex 28.7324 2.58819 30
      vertex 29.7314 5 30
    endloop
  endfacet
  facet normal -0 0 1
    outer loop
      vertex 27.7665 2.84701 30
      vertex 28.7324 2.58819 30
      vertex 28.8654 5.5 30
    endloop
  endfacet
  facet normal 0 0 1
    outer loop
      vertex 28.7324 2.58819 30
      vertex 27.7665 2.84701 30
      vertex 28.3917 -5.69374e-07 30
    endloop
  endfacet
  facet normal -0 0 1
    outer loop
      vertex 48.0509 -2.58819 30
      vertex 49.0169 -2.84701 30
      vertex 48.3917 -2.56532e-07 30
    endloop
  endfacet
  facet normal 0 0 1
    outer loop
      vertex 48.0509 -2.58819 30
      vertex 47.918 -5.5 30
      vertex 49.0169 -2.84701 30
    endloop
  endfacet
  facet normal -0 0 1
    outer loop
      vertex 47.0519 -5 30
      vertex 47.918 -5.5 30
      vertex 48.0509 -2.58819 30
    endloop
  endfacet
  facet normal 0 0 1
    outer loop
      vertex 47.0519 -5 30
      vertex 46.1699 -7.77817 30
      vertex 47.918 -5.5 30
    endloop
  endfacet
  facet normal -0 0 1
    outer loop
      vertex 45.4627 -7.07107 30
      vertex 46.1699 -7.77817 30
      vertex 47.0519 -5 30
    endloop
  endfacet
  facet normal 0 0 1
    outer loop
      vertex 45.4627 -7.07107 30
      vertex 43.8917 -9.52628 30
      vertex 46.1699 -7.77817 30
    endloop
  endfacet
  facet normal -0 0 1
    outer loop
      vertex 43.3917 -8.66025 30
      vertex 43.8917 -9.52628 30
      vertex 45.4627 -7.07107 30
    endloop
  endfacet
  facet normal 0 0 1
    outer loop
      vertex 43.3917 -8.66025 30
      vertex 41.2387 -10.6252 30
      vertex 43.8917 -9.52628 30
    endloop
  endfacet
  facet normal -0 0 1
    outer loop
      vertex 40.9799 -9.65926 30
      vertex 41.2387 -10.6252 30
      vertex 43.3917 -8.66025 30
    endloop
  endfacet
  facet normal -0 0 1
    outer loop
      vertex 38.3917 -10 30
      vertex 41.2387 -10.6252 30
      vertex 40.9799 -9.65926 30
    endloop
  endfacet
  facet normal 0 0 1
    outer loop
      vertex 38.3917 -10 30
      vertex 38.3917 -11 30
      vertex 41.2387 -10.6252 30
    endloop
  endfacet
  facet normal 0 0 1
    outer loop
      vertex 35.8035 -9.65926 30
      vertex 38.3917 -11 30
      vertex 38.3917 -10 30
    endloop
  endfacet
  facet normal 0 0 1
    outer loop
      vertex 35.8035 -9.65926 30
      vertex 35.5447 -10.6252 30
      vertex 38.3917 -11 30
    endloop
  endfacet
  facet normal 0 0 1
    outer loop
      vertex 33.3917 -8.66025 30
      vertex 35.5447 -10.6252 30
      vertex 35.8035 -9.65926 30
    endloop
  endfacet
  facet normal 0 0 1
    outer loop
      vertex 33.3917 -8.66025 30
      vertex 32.8917 -9.52628 30
      vertex 35.5447 -10.6252 30
    endloop
  endfacet
  facet normal 0 0 1
    outer loop
      vertex 31.3206 -7.07107 30
      vertex 32.8917 -9.52628 30
      vertex 33.3917 -8.66025 30
    endloop
  endfacet
  facet normal 0 0 1
    outer loop
      vertex 31.3206 -7.07107 30
      vertex 30.6135 -7.77817 30
      vertex 32.8917 -9.52628 30
    endloop
  endfacet
  facet normal 0 0 1
    outer loop
      vertex 29.7314 -5 30
      vertex 30.6135 -7.77817 30
      vertex 31.3206 -7.07107 30
    endloop
  endfacet
  facet normal 0 0 1
    outer loop
      vertex 29.7314 -5 30
      vertex 28.8654 -5.5 30
      vertex 30.6135 -7.77817 30
    endloop
  endfacet
  facet normal 0 0 1
    outer loop
      vertex 28.7324 -2.58819 30
      vertex 28.8654 -5.5 30
      vertex 29.7314 -5 30
    endloop
  endfacet
  facet normal 0 0 1
    outer loop
      vertex 27.7665 -2.84701 30
      vertex 28.7324 -2.58819 30
      vertex 28.3917 -5.69374e-07 30
    endloop
  endfacet
  facet normal -0 0 1
    outer loop
      vertex 27.3917 -3.52986e-07 30
      vertex 28.3917 -5.69374e-07 30
      vertex 27.7665 2.84701 30
    endloop
  endfacet
  facet normal 0 0 1
    outer loop
      vertex 28.7324 -2.58819 30
      vertex 27.7665 -2.84701 30
      vertex 28.8654 -5.5 30
    endloop
  endfacet
  facet normal 0 0 1
    outer loop
      vertex 28.3917 -5.69374e-07 30
      vertex 27.3917 -3.52986e-07 30
      vertex 27.7665 -2.84701 30
    endloop
  endfacet
  facet normal -0.608761 0.793353 0
    outer loop
      vertex 32.8917 9.52628 20
      vertex 30.6135 7.77817 30
      vertex 32.8917 9.52628 30
    endloop
  endfacet
  facet normal -0.608761 0.793353 0
    outer loop
      vertex 30.6135 7.77817 30
      vertex 32.8917 9.52628 20
      vertex 30.6135 7.77817 20
    endloop
  endfacet
  facet normal -0.793353 -0.608761 0
    outer loop
      vertex 30.6135 -7.77817 20
      vertex 28.8654 -5.5 30
      vertex 28.8654 -5.5 20
    endloop
  endfacet
  facet normal -0.793353 -0.608761 0
    outer loop
      vertex 28.8654 -5.5 30
      vertex 30.6135 -7.77817 20
      vertex 30.6135 -7.77817 30
    endloop
  endfacet
  facet normal -0.130526 0.991445 0
    outer loop
      vertex 38.3917 11 20
      vertex 35.5447 10.6252 30
      vertex 38.3917 11 30
    endloop
  endfacet
  facet normal -0.130526 0.991445 0
    outer loop
      vertex 35.5447 10.6252 30
      vertex 38.3917 11 20
      vertex 35.5447 10.6252 20
    endloop
  endfacet
  facet normal 0.130526 0.991445 -0
    outer loop
      vertex 41.2387 10.6252 20
      vertex 38.3917 11 30
      vertex 41.2387 10.6252 30
    endloop
  endfacet
  facet normal 0.130526 0.991445 0
    outer loop
      vertex 38.3917 11 30
      vertex 41.2387 10.6252 20
      vertex 38.3917 11 20
    endloop
  endfacet
  facet normal -0.991445 0.130526 0
    outer loop
      vertex 27.3917 -3.52986e-07 20
      vertex 27.7665 2.84701 30
      vertex 27.7665 2.84701 20
    endloop
  endfacet
  facet normal -0.991445 0.130526 0
    outer loop
      vertex 27.7665 2.84701 30
      vertex 27.3917 -3.52986e-07 20
      vertex 27.3917 -3.52986e-07 30
    endloop
  endfacet
  facet normal -0.991445 -0.130526 0
    outer loop
      vertex 27.7665 -2.84701 20
      vertex 27.3917 -3.52986e-07 30
      vertex 27.3917 -3.52986e-07 20
    endloop
  endfacet
  facet normal -0.991445 -0.130526 0
    outer loop
      vertex 27.3917 -3.52986e-07 30
      vertex 27.7665 -2.84701 20
      vertex 27.7665 -2.84701 30
    endloop
  endfacet
  facet normal -0.793354 0.608761 0
    outer loop
      vertex 28.8654 5.5 20
      vertex 30.6135 7.77817 30
      vertex 30.6135 7.77817 20
    endloop
  endfacet
  facet normal -0.793354 0.608761 0
    outer loop
      vertex 30.6135 7.77817 30
      vertex 28.8654 5.5 20
      vertex 28.8654 5.5 30
    endloop
  endfacet
  facet normal 0.92388 0.382683 0
    outer loop
      vertex 49.0169 2.84701 30
      vertex 47.918 5.5 20
      vertex 47.918 5.5 30
    endloop
  endfacet
  facet normal 0.92388 0.382683 0
    outer loop
      vertex 47.918 5.5 20
      vertex 49.0169 2.84701 30
      vertex 49.0169 2.84701 20
    endloop
  endfacet
  facet normal 0.608762 -0.793353 0
    outer loop
      vertex 43.8917 -9.52628 20
      vertex 46.1699 -7.77817 30
      vertex 43.8917 -9.52628 30
    endloop
  endfacet
  facet normal 0.608762 -0.793353 0
    outer loop
      vertex 46.1699 -7.77817 30
      vertex 43.8917 -9.52628 20
      vertex 46.1699 -7.77817 20
    endloop
  endfacet
  facet normal -0.130526 -0.991445 0
    outer loop
      vertex 35.5447 -10.6252 20
      vertex 38.3917 -11 30
      vertex 35.5447 -10.6252 30
    endloop
  endfacet
  facet normal -0.130526 -0.991445 -0
    outer loop
      vertex 38.3917 -11 30
      vertex 35.5447 -10.6252 20
      vertex 38.3917 -11 20
    endloop
  endfacet
  facet normal -0.608761 -0.793353 0
    outer loop
      vertex 30.6135 -7.77817 20
      vertex 32.8917 -9.52628 30
      vertex 30.6135 -7.77817 30
    endloop
  endfacet
  facet normal -0.608761 -0.793353 -0
    outer loop
      vertex 32.8917 -9.52628 30
      vertex 30.6135 -7.77817 20
      vertex 32.8917 -9.52628 20
    endloop
  endfacet
  facet normal 0.991445 -0.130527 0
    outer loop
      vertex 49.0169 -2.84701 30
      vertex 49.3917 -4.7292e-07 20
      vertex 49.3917 -4.7292e-07 30
    endloop
  endfacet
  facet normal 0.991445 -0.130527 0
    outer loop
      vertex 49.3917 -4.7292e-07 20
      vertex 49.0169 -2.84701 30
      vertex 49.0169 -2.84701 20
    endloop
  endfacet
  facet normal 0.793353 -0.608762 0
    outer loop
      vertex 46.1699 -7.77817 30
      vertex 47.918 -5.5 20
      vertex 47.918 -5.5 30
    endloop
  endfacet
  facet normal 0.793353 -0.608762 0
    outer loop
      vertex 47.918 -5.5 20
      vertex 46.1699 -7.77817 30
      vertex 46.1699 -7.77817 20
    endloop
  endfacet
  facet normal 0.130526 -0.991445 0
    outer loop
      vertex 38.3917 -11 20
      vertex 41.2387 -10.6252 30
      vertex 38.3917 -11 30
    endloop
  endfacet
  facet normal 0.130526 -0.991445 0
    outer loop
      vertex 41.2387 -10.6252 30
      vertex 38.3917 -11 20
      vertex 41.2387 -10.6252 20
    endloop
  endfacet
  facet normal -0.382684 -0.923879 0
    outer loop
      vertex 32.8917 -9.52628 20
      vertex 35.5447 -10.6252 30
      vertex 32.8917 -9.52628 30
    endloop
  endfacet
  facet normal -0.382684 -0.923879 -0
    outer loop
      vertex 35.5447 -10.6252 30
      vertex 32.8917 -9.52628 20
      vertex 35.5447 -10.6252 20
    endloop
  endfacet
  facet normal 0.991445 0.130526 0
    outer loop
      vertex 49.3917 -4.7292e-07 30
      vertex 49.0169 2.84701 20
      vertex 49.0169 2.84701 30
    endloop
  endfacet
  facet normal 0.991445 0.130526 0
    outer loop
      vertex 49.0169 2.84701 20
      vertex 49.3917 -4.7292e-07 30
      vertex 49.3917 -4.7292e-07 20
    endloop
  endfacet
  facet normal 0.92388 -0.382683 0
    outer loop
      vertex 47.918 -5.5 30
      vertex 49.0169 -2.84701 20
      vertex 49.0169 -2.84701 30
    endloop
  endfacet
  facet normal 0.92388 -0.382683 0
    outer loop
      vertex 49.0169 -2.84701 20
      vertex 47.918 -5.5 30
      vertex 47.918 -5.5 20
    endloop
  endfacet
  facet normal -0.5 -0.866025 3.76419e-07
    outer loop
      vertex 38.3917 10.5417 10.1
      vertex 41.2308 8.90251 9.9
      vertex 41.1516 8.94826 10.1
    endloop
  endfacet
  facet normal -0.5 -0.866025 -1.05378e-07
    outer loop
      vertex 41.2308 8.90251 9.9
      vertex 38.3917 10.5417 0
      vertex 44.6819 6.91001 9.9
    endloop
  endfacet
  facet normal -0.5 -0.866025 0
    outer loop
      vertex 38.3917 10.5417 0
      vertex 41.2308 8.90251 9.9
      vertex 38.3917 10.5417 10.1
    endloop
  endfacet
  facet normal -0.5 -0.866026 -7.09509e-07
    outer loop
      vertex 44.6819 6.91001 9.9
      vertex 47.521 5.27084 10.1
      vertex 44.7612 6.86426 10.1
    endloop
  endfacet
  facet normal -0.5 -0.866025 -1.21651e-07
    outer loop
      vertex 47.521 5.27084 0
      vertex 44.6819 6.91001 9.9
      vertex 38.3917 10.5417 0
    endloop
  endfacet
  facet normal -0.5 -0.866026 0
    outer loop
      vertex 44.6819 6.91001 9.9
      vertex 47.521 5.27084 0
      vertex 47.521 5.27084 10.1
    endloop
  endfacet
  facet normal 1 0 0
    outer loop
      vertex 29.2623 1.9925 9.9
      vertex 29.2623 5.27084 10.1
      vertex 29.2623 2.084 10.1
    endloop
  endfacet
  facet normal 1 0 0
    outer loop
      vertex 29.2623 5.27084 10.1
      vertex 29.2623 1.9925 9.9
      vertex 29.2623 5.27084 0
    endloop
  endfacet
  facet normal 1 -0 0
    outer loop
      vertex 29.2623 -1.9925 9.9
      vertex 29.2623 5.27084 0
      vertex 29.2623 1.9925 9.9
    endloop
  endfacet
  facet normal 1 -0 0
    outer loop
      vertex 29.2623 -5.27084 10.1
      vertex 29.2623 -1.9925 9.9
      vertex 29.2623 -2.084 10.1
    endloop
  endfacet
  facet normal 1 0 0
    outer loop
      vertex 29.2623 -5.27084 0
      vertex 29.2623 -1.9925 9.9
      vertex 29.2623 -5.27084 10.1
    endloop
  endfacet
  facet normal 1 0 0
    outer loop
      vertex 29.2623 -1.9925 9.9
      vertex 29.2623 -5.27084 0
      vertex 29.2623 5.27084 0
    endloop
  endfacet
  facet normal 0.5 -0.866025 -2.61903e-06
    outer loop
      vertex 29.2623 5.27084 10.1
      vertex 32.1014 6.91001 9.9
      vertex 32.0222 6.86426 10.1
    endloop
  endfacet
  facet normal 0.5 -0.866026 1.11819e-07
    outer loop
      vertex 32.1014 6.91001 9.9
      vertex 29.2623 5.27084 0
      vertex 35.5526 8.90251 9.9
    endloop
  endfacet
  facet normal 0.5 -0.866025 0
    outer loop
      vertex 29.2623 5.27084 0
      vertex 32.1014 6.91001 9.9
      vertex 29.2623 5.27084 10.1
    endloop
  endfacet
  facet normal 0.5 -0.866025 4.94982e-07
    outer loop
      vertex 35.5526 8.90251 9.9
      vertex 38.3917 10.5417 10.1
      vertex 35.6318 8.94826 10.1
    endloop
  endfacet
  facet normal 0.5 -0.866025 -4.227e-08
    outer loop
      vertex 38.3917 10.5417 0
      vertex 35.5526 8.90251 9.9
      vertex 29.2623 5.27084 0
    endloop
  endfacet
  facet normal 0.5 -0.866025 0
    outer loop
      vertex 35.5526 8.90251 9.9
      vertex 38.3917 10.5417 0
      vertex 38.3917 10.5417 10.1
    endloop
  endfacet
  facet normal 0.5 0.866025 -9.16034e-06
    outer loop
      vertex 38.3917 -10.5417 10.1
      vertex 35.5526 -8.90251 9.9
      vertex 35.6318 -8.94826 10.1
    endloop
  endfacet
  facet normal 0.5 0.866025 8.72837e-08
    outer loop
      vertex 35.5526 -8.90251 9.9
      vertex 38.3917 -10.5417 0
      vertex 32.1014 -6.91001 9.9
    endloop
  endfacet
  facet normal 0.5 0.866026 -0
    outer loop
      vertex 38.3917 -10.5417 0
      vertex 35.5526 -8.90251 9.9
      vertex 38.3917 -10.5417 10.1
    endloop
  endfacet
  facet normal 0.5 0.866025 -4.357e-07
    outer loop
      vertex 32.1014 -6.91001 9.9
      vertex 29.2623 -5.27084 10.1
      vertex 32.0222 -6.86426 10.1
    endloop
  endfacet
  facet normal 0.5 0.866025 7.10104e-08
    outer loop
      vertex 29.2623 -5.27084 0
      vertex 32.1014 -6.91001 9.9
      vertex 38.3917 -10.5417 0
    endloop
  endfacet
  facet normal 0.5 0.866025 0
    outer loop
      vertex 32.1014 -6.91001 9.9
      vertex 29.2623 -5.27084 0
      vertex 29.2623 -5.27084 10.1
    endloop
  endfacet
  facet normal 0 0 -1
    outer loop
      vertex 40.8255 9.0833 10.1
      vertex 38.3917 10.5417 10.1
      vertex 41.1516 8.94826 10.1
    endloop
  endfacet
  facet normal 0 0 -1
    outer loop
      vertex 38.4429 9.39698 10.1
      vertex 38.3917 10.5417 10.1
      vertex 40.8255 9.0833 10.1
    endloop
  endfacet
  facet normal 0 0 -1
    outer loop
      vertex 38.3917 9.40373 10.1
      vertex 38.3917 10.5417 10.1
      vertex 38.4429 9.39698 10.1
    endloop
  endfacet
  facet normal 0 0 -1
    outer loop
      vertex 36.0091 9.09005 10.1
      vertex 38.3917 10.5417 10.1
      vertex 38.3917 9.40373 10.1
    endloop
  endfacet
  facet normal 0 0 -1
    outer loop
      vertex 35.9578 9.0833 10.1
      vertex 38.3917 10.5417 10.1
      vertex 36.0091 9.09005 10.1
    endloop
  endfacet
  facet normal 0 0 -1
    outer loop
      vertex 35.9101 9.06352 10.1
      vertex 38.3917 10.5417 10.1
      vertex 35.9578 9.0833 10.1
    endloop
  endfacet
  facet normal 0 0 -1
    outer loop
      vertex 38.3917 10.5417 10.1
      vertex 35.9101 9.06352 10.1
      vertex 35.6318 8.94826 10.1
    endloop
  endfacet
  facet normal 0 0 -1
    outer loop
      vertex 47.4817 2.38261 10.1
      vertex 47.521 5.27084 10.1
      vertex 47.521 2.084 10.1
    endloop
  endfacet
  facet normal 0 0 -1
    outer loop
      vertex 47.475 2.43386 10.1
      vertex 47.521 5.27084 10.1
      vertex 47.4817 2.38261 10.1
    endloop
  endfacet
  facet normal 0 0 -1
    outer loop
      vertex 47.4552 2.48162 10.1
      vertex 47.521 5.27084 10.1
      vertex 47.475 2.43386 10.1
    endloop
  endfacet
  facet normal 0 0 -1
    outer loop
      vertex 46.5355 4.70186 10.1
      vertex 47.521 5.27084 10.1
      vertex 47.4552 2.48162 10.1
    endloop
  endfacet
  facet normal 0 0 -1
    outer loop
      vertex 45.0726 6.60843 10.1
      vertex 47.521 5.27084 10.1
      vertex 46.5355 4.70186 10.1
    endloop
  endfacet
  facet normal 0 0 -1
    outer loop
      vertex 45.0411 6.64944 10.1
      vertex 47.521 5.27084 10.1
      vertex 45.0726 6.60843 10.1
    endloop
  endfacet
  facet normal 0 0 -1
    outer loop
      vertex 45.0001 6.68091 10.1
      vertex 47.521 5.27084 10.1
      vertex 45.0411 6.64944 10.1
    endloop
  endfacet
  facet normal 0 0 -1
    outer loop
      vertex 47.521 5.27084 10.1
      vertex 45.0001 6.68091 10.1
      vertex 44.7612 6.86426 10.1
    endloop
  endfacet
  facet normal 0 0 -1
    outer loop
      vertex 29.2623 5.27084 10.1
      vertex 31.7833 6.68091 10.1
      vertex 31.7422 6.64944 10.1
    endloop
  endfacet
  facet normal -0 0 -1
    outer loop
      vertex 31.7833 6.68091 10.1
      vertex 29.2623 5.27084 10.1
      vertex 32.0222 6.86426 10.1
    endloop
  endfacet
  facet normal -0 0 -1
    outer loop
      vertex 31.7108 6.60843 10.1
      vertex 29.2623 5.27084 10.1
      vertex 31.7422 6.64944 10.1
    endloop
  endfacet
  facet normal 0 0 -1
    outer loop
      vertex 30.2478 4.70186 10.1
      vertex 29.2623 5.27084 10.1
      vertex 31.7108 6.60843 10.1
    endloop
  endfacet
  facet normal 0 0 -1
    outer loop
      vertex 30.228 4.6541 10.1
      vertex 29.2623 5.27084 10.1
      vertex 30.2478 4.70186 10.1
    endloop
  endfacet
  facet normal 0 0 -1
    outer loop
      vertex 29.3084 2.43386 10.1
      vertex 29.2623 5.27084 10.1
      vertex 30.228 4.6541 10.1
    endloop
  endfacet
  facet normal 0 0 -1
    outer loop
      vertex 29.2623 5.27084 10.1
      vertex 29.3084 2.43386 10.1
      vertex 29.2623 2.084 10.1
    endloop
  endfacet
  facet normal 0 0 -1
    outer loop
      vertex 29.2623 -5.27084 10.1
      vertex 31.7833 -6.68091 10.1
      vertex 32.0222 -6.86426 10.1
    endloop
  endfacet
  facet normal 0 0 -1
    outer loop
      vertex 29.2623 -5.27084 10.1
      vertex 31.7108 -6.60843 10.1
      vertex 31.7422 -6.64944 10.1
    endloop
  endfacet
  facet normal 0 0 -1
    outer loop
      vertex 29.2623 -5.27084 10.1
      vertex 29.3282 -2.48162 10.1
      vertex 30.2478 -4.70186 10.1
    endloop
  endfacet
  facet normal 0 0 -1
    outer loop
      vertex 31.7833 -6.68091 10.1
      vertex 29.2623 -5.27084 10.1
      vertex 31.7422 -6.64944 10.1
    endloop
  endfacet
  facet normal 0 0 -1
    outer loop
      vertex 31.7108 -6.60843 10.1
      vertex 29.2623 -5.27084 10.1
      vertex 30.2478 -4.70186 10.1
    endloop
  endfacet
  facet normal -0 0 -1
    outer loop
      vertex 29.3282 -2.48162 10.1
      vertex 29.2623 -5.27084 10.1
      vertex 29.3084 -2.43386 10.1
    endloop
  endfacet
  facet normal 0 0 -1
    outer loop
      vertex 29.2623 -5.27084 10.1
      vertex 29.3016 -2.38261 10.1
      vertex 29.3084 -2.43386 10.1
    endloop
  endfacet
  facet normal -0 0 -1
    outer loop
      vertex 29.3016 -2.38261 10.1
      vertex 29.2623 -5.27084 10.1
      vertex 29.2623 -2.084 10.1
    endloop
  endfacet
  facet normal 0 0 -1
    outer loop
      vertex 38.3917 -10.5417 10.1
      vertex 40.8733 -9.06352 10.1
      vertex 41.1516 -8.94826 10.1
    endloop
  endfacet
  facet normal 0 0 -1
    outer loop
      vertex 40.8733 -9.06352 10.1
      vertex 38.3917 -10.5417 10.1
      vertex 40.8255 -9.0833 10.1
    endloop
  endfacet
  facet normal 0 0 -1
    outer loop
      vertex 38.3917 -10.5417 10.1
      vertex 40.7743 -9.09005 10.1
      vertex 40.8255 -9.0833 10.1
    endloop
  endfacet
  facet normal 0 0 -1
    outer loop
      vertex 38.3917 -10.5417 10.1
      vertex 38.3917 -9.40373 10.1
      vertex 40.7743 -9.09005 10.1
    endloop
  endfacet
  facet normal 0 0 -1
    outer loop
      vertex 38.3917 -10.5417 10.1
      vertex 38.3404 -9.39698 10.1
      vertex 38.3917 -9.40373 10.1
    endloop
  endfacet
  facet normal 0 0 -1
    outer loop
      vertex 38.3917 -10.5417 10.1
      vertex 35.9578 -9.0833 10.1
      vertex 38.3404 -9.39698 10.1
    endloop
  endfacet
  facet normal -0 -0 -1
    outer loop
      vertex 35.9578 -9.0833 10.1
      vertex 38.3917 -10.5417 10.1
      vertex 35.6318 -8.94826 10.1
    endloop
  endfacet
  facet normal 0 0 -1
    outer loop
      vertex 47.521 -5.27084 10.1
      vertex 47.475 -2.43386 10.1
      vertex 47.521 -2.084 10.1
    endloop
  endfacet
  facet normal 0 0 -1
    outer loop
      vertex 47.521 -5.27084 10.1
      vertex 46.5553 -4.6541 10.1
      vertex 47.475 -2.43386 10.1
    endloop
  endfacet
  facet normal 0 0 -1
    outer loop
      vertex 47.521 -5.27084 10.1
      vertex 46.5355 -4.70186 10.1
      vertex 46.5553 -4.6541 10.1
    endloop
  endfacet
  facet normal -0 0 -1
    outer loop
      vertex 47.521 -5.27084 10.1
      vertex 45.0726 -6.60843 10.1
      vertex 46.5355 -4.70186 10.1
    endloop
  endfacet
  facet normal 0 0 -1
    outer loop
      vertex 47.521 -5.27084 10.1
      vertex 45.0411 -6.64944 10.1
      vertex 45.0726 -6.60843 10.1
    endloop
  endfacet
  facet normal 0 0 -1
    outer loop
      vertex 47.521 -5.27084 10.1
      vertex 45.0001 -6.68091 10.1
      vertex 45.0411 -6.64944 10.1
    endloop
  endfacet
  facet normal 0 -0 -1
    outer loop
      vertex 45.0001 -6.68091 10.1
      vertex 47.521 -5.27084 10.1
      vertex 44.7612 -6.86426 10.1
    endloop
  endfacet
  facet normal -0.5 0.866025 -2.61903e-06
    outer loop
      vertex 47.521 -5.27084 10.1
      vertex 44.6819 -6.91001 9.9
      vertex 44.7612 -6.86426 10.1
    endloop
  endfacet
  facet normal -0.5 0.866025 -4.66783e-08
    outer loop
      vertex 44.6819 -6.91001 9.9
      vertex 47.521 -5.27084 0
      vertex 41.2308 -8.90251 9.9
    endloop
  endfacet
  facet normal -0.5 0.866025 0
    outer loop
      vertex 47.521 -5.27084 0
      vertex 44.6819 -6.91001 9.9
      vertex 47.521 -5.27084 10.1
    endloop
  endfacet
  facet normal -0.5 0.866025 4.94982e-07
    outer loop
      vertex 41.2308 -8.90251 9.9
      vertex 38.3917 -10.5417 10.1
      vertex 41.1516 -8.94826 10.1
    endloop
  endfacet
  facet normal -0.5 0.866025 1.76455e-08
    outer loop
      vertex 38.3917 -10.5417 0
      vertex 41.2308 -8.90251 9.9
      vertex 47.521 -5.27084 0
    endloop
  endfacet
  facet normal -0.5 0.866025 0
    outer loop
      vertex 41.2308 -8.90251 9.9
      vertex 38.3917 -10.5417 0
      vertex 38.3917 -10.5417 10.1
    endloop
  endfacet
  facet normal -1 1.16361e-06 0
    outer loop
      vertex 47.521 1.9925 9.9
      vertex 47.521 5.27084 10.1
      vertex 47.521 5.27084 0
    endloop
  endfacet
  facet normal -1 1.19701e-06 -5.47622e-07
    outer loop
      vertex 47.521 5.27084 10.1
      vertex 47.521 1.9925 9.9
      vertex 47.521 2.084 10.1
    endloop
  endfacet
  facet normal -1 0 -3.85323e-07
    outer loop
      vertex 47.521 5.27084 0
      vertex 47.521 -1.9925 9.9
      vertex 47.521 1.9925 9.9
    endloop
  endfacet
  facet normal -1 3.61868e-07 -1.19831e-07
    outer loop
      vertex 47.521 -5.27084 0
      vertex 47.521 -1.9925 9.9
      vertex 47.521 5.27084 0
    endloop
  endfacet
  facet normal -1 0 0
    outer loop
      vertex 47.521 -5.27084 10.1
      vertex 47.521 -1.9925 9.9
      vertex 47.521 -5.27084 0
    endloop
  endfacet
  facet normal -1 0 0
    outer loop
      vertex 47.521 -1.9925 9.9
      vertex 47.521 -5.27084 10.1
      vertex 47.521 -2.084 10.1
    endloop
  endfacet
  facet normal -0.791943 -0.607678 0.0596082
    outer loop
      vertex 46.5355 4.70186 10.1
      vertex 47.0319 5.01625 19.9
      vertex 45.0726 6.60843 10.1
    endloop
  endfacet
  facet normal -0.791924 -0.607703 0.0596081
    outer loop
      vertex 47.0319 5.01625 19.9
      vertex 46.5355 4.70186 10.1
      vertex 47.0467 4.99699 19.9
    endloop
  endfacet
  facet normal 0.791942 0.607679 0.0596081
    outer loop
      vertex 31.3249 -7.06681 19.9
      vertex 31.7108 -6.60843 10.1
      vertex 29.7514 -5.01625 19.9
    endloop
  endfacet
  facet normal 0.791955 0.607663 0.0596079
    outer loop
      vertex 31.7108 -6.60843 10.1
      vertex 31.3249 -7.06681 19.9
      vertex 31.7422 -6.64944 10.1
    endloop
  endfacet
  facet normal 0.922246 -0.381981 0.0596083
    outer loop
      vertex 29.3084 2.43386 10.1
      vertex 28.7475 2.60906 19.9
      vertex 28.7382 2.58663 19.9
    endloop
  endfacet
  facet normal 0.922237 -0.382003 0.0596081
    outer loop
      vertex 28.7475 2.60906 19.9
      vertex 29.3084 2.43386 10.1
      vertex 30.228 4.6541 10.1
    endloop
  endfacet
  facet normal -0.989682 0.130294 0.0596084
    outer loop
      vertex 48.3857 -2.53585e-07 19.9
      vertex 47.7834 4.11631e-08 9.9
      vertex 48.0483 -2.56256 19.9
    endloop
  endfacet
  facet normal -0.382015 -0.922232 0.0596083
    outer loop
      vertex 40.8255 9.0833 10.1
      vertex 41.0007 9.64415 19.9
      vertex 40.9783 9.65344 19.9
    endloop
  endfacet
  facet normal -0.382001 -0.922237 0.0596083
    outer loop
      vertex 41.1516 8.94826 10.1
      vertex 41.0007 9.64415 19.9
      vertex 40.8255 9.0833 10.1
    endloop
  endfacet
  facet normal -0.382003 -0.922237 0.0596083
    outer loop
      vertex 43.0875 8.13343 9.9
      vertex 41.1516 8.94826 10.1
      vertex 41.2308 8.90251 9.9
    endloop
  endfacet
  facet normal -0.382003 -0.922237 0.0596083
    outer loop
      vertex 41.1516 8.94826 10.1
      vertex 43.0875 8.13343 9.9
      vertex 41.0007 9.64415 19.9
    endloop
  endfacet
  facet normal -0.922246 0.381981 0.0596083
    outer loop
      vertex 47.475 -2.43386 10.1
      vertex 48.0358 -2.60906 19.9
      vertex 48.0451 -2.58663 19.9
    endloop
  endfacet
  facet normal -0.922237 0.382003 0.0596081
    outer loop
      vertex 48.0358 -2.60906 19.9
      vertex 47.475 -2.43386 10.1
      vertex 46.5553 -4.6541 10.1
    endloop
  endfacet
  facet normal 0.791924 0.607703 0.0596079
    outer loop
      vertex 29.7514 -5.01625 19.9
      vertex 30.2478 -4.70186 10.1
      vertex 29.7366 -4.99699 19.9
    endloop
  endfacet
  facet normal 0.791942 0.607679 0.0596081
    outer loop
      vertex 30.2478 -4.70186 10.1
      vertex 29.7514 -5.01625 19.9
      vertex 31.7108 -6.60843 10.1
    endloop
  endfacet
  facet normal -0.130294 -0.989682 0.0596082
    outer loop
      vertex 38.4429 9.39698 10.1
      vertex 38.3917 9.99398 19.9
      vertex 38.3917 9.40373 10.1
    endloop
  endfacet
  facet normal -0.130294 -0.989682 0.0596082
    outer loop
      vertex 38.3917 9.99398 19.9
      vertex 38.4429 9.39698 10.1
      vertex 40.9542 9.65661 19.9
    endloop
  endfacet
  facet normal -0.791919 -0.60771 0.0596085
    outer loop
      vertex 45.0726 6.60843 10.1
      vertex 45.4585 7.06681 19.9
      vertex 45.0411 6.64944 10.1
    endloop
  endfacet
  facet normal -0.791942 -0.607679 0.059608
    outer loop
      vertex 45.4585 7.06681 19.9
      vertex 45.0726 6.60843 10.1
      vertex 47.0319 5.01625 19.9
    endloop
  endfacet
  facet normal -0.989682 0.130294 0.0596084
    outer loop
      vertex 47.521 -2.084 10.1
      vertex 47.7834 4.11631e-08 9.9
      vertex 47.521 -1.9925 9.9
    endloop
  endfacet
  facet normal -0.989682 0.130294 0.0596085
    outer loop
      vertex 47.521 -2.084 10.1
      vertex 48.0483 -2.56256 19.9
      vertex 47.7834 4.11631e-08 9.9
    endloop
  endfacet
  facet normal -0.989683 0.130288 0.0596082
    outer loop
      vertex 47.475 -2.43386 10.1
      vertex 48.0483 -2.56256 19.9
      vertex 47.521 -2.084 10.1
    endloop
  endfacet
  facet normal -0.989674 0.130358 0.0596086
    outer loop
      vertex 48.0483 -2.56256 19.9
      vertex 47.475 -2.43386 10.1
      vertex 48.0451 -2.58663 19.9
    endloop
  endfacet
  facet normal -0.922231 0.382016 0.0596084
    outer loop
      vertex 47.0467 -4.99699 19.9
      vertex 46.5553 -4.6541 10.1
      vertex 46.5355 -4.70186 10.1
    endloop
  endfacet
  facet normal -0.922237 0.382003 0.0596082
    outer loop
      vertex 46.5553 -4.6541 10.1
      vertex 47.0467 -4.99699 19.9
      vertex 48.0358 -2.60906 19.9
    endloop
  endfacet
  facet normal -0.382015 0.922232 0.0596082
    outer loop
      vertex 43.0875 -8.13343 9.9
      vertex 43.3662 -8.66433 19.9
      vertex 43.3887 -8.65504 19.9
    endloop
  endfacet
  facet normal -0.382003 0.922237 0.0596082
    outer loop
      vertex 43.3662 -8.66433 19.9
      vertex 43.0875 -8.13343 9.9
      vertex 41.1516 -8.94826 10.1
    endloop
  endfacet
  facet normal -0.382003 0.922237 0.0596083
    outer loop
      vertex 41.1516 -8.94826 10.1
      vertex 43.0875 -8.13343 9.9
      vertex 41.2308 -8.90251 9.9
    endloop
  endfacet
  facet normal -0.382001 0.922238 0.0596076
    outer loop
      vertex 43.3662 -8.66433 19.9
      vertex 41.1516 -8.94826 10.1
      vertex 40.8733 -9.06352 10.1
    endloop
  endfacet
  facet normal 0 0 1
    outer loop
      vertex 47.7834 4.11631e-08 9.9
      vertex 47.521 1.9925 9.9
      vertex 47.521 -1.9925 9.9
    endloop
  endfacet
  facet normal 0 0 1
    outer loop
      vertex 35.5526 8.90251 9.9
      vertex 33.6958 8.13343 9.9
      vertex 32.1014 6.91001 9.9
    endloop
  endfacet
  facet normal 0 0 1
    outer loop
      vertex 44.6819 6.91001 9.9
      vertex 43.0875 8.13343 9.9
      vertex 41.2308 8.90251 9.9
    endloop
  endfacet
  facet normal 0 -0 1
    outer loop
      vertex 43.0875 -8.13343 9.9
      vertex 44.6819 -6.91001 9.9
      vertex 41.2308 -8.90251 9.9
    endloop
  endfacet
  facet normal 0 0 1
    outer loop
      vertex 29.2623 1.9925 9.9
      vertex 29 -4.11631e-08 9.9
      vertex 29.2623 -1.9925 9.9
    endloop
  endfacet
  facet normal -0 -0 1
    outer loop
      vertex 33.6958 -8.13343 9.9
      vertex 35.5526 -8.90251 9.9
      vertex 32.1014 -6.91001 9.9
    endloop
  endfacet
  facet normal -0.130294 0.989682 0.0596083
    outer loop
      vertex 38.3917 -9.40373 10.1
      vertex 38.4157 -9.99081 19.9
      vertex 40.7743 -9.09005 10.1
    endloop
  endfacet
  facet normal -0.130279 0.989684 0.0596084
    outer loop
      vertex 38.4157 -9.99081 19.9
      vertex 38.3917 -9.40373 10.1
      vertex 38.3917 -9.99398 19.9
    endloop
  endfacet
  facet normal 0.989674 -0.130358 0.0596086
    outer loop
      vertex 28.7351 2.56256 19.9
      vertex 29.3084 2.43386 10.1
      vertex 28.7382 2.58663 19.9
    endloop
  endfacet
  facet normal 0.989682 -0.130293 0.0596082
    outer loop
      vertex 28.7351 2.56256 19.9
      vertex 29.2623 2.084 10.1
      vertex 29.3084 2.43386 10.1
    endloop
  endfacet
  facet normal 0.989682 -0.130293 0.0596082
    outer loop
      vertex 29 -4.11631e-08 9.9
      vertex 29.2623 2.084 10.1
      vertex 28.7351 2.56256 19.9
    endloop
  endfacet
  facet normal 0.989682 -0.130293 0.059608
    outer loop
      vertex 29.2623 2.084 10.1
      vertex 29 -4.11631e-08 9.9
      vertex 29.2623 1.9925 9.9
    endloop
  endfacet
  facet normal 0.607677 -0.791944 0.0596081
    outer loop
      vertex 31.7833 6.68091 10.1
      vertex 31.3249 7.06681 19.9
      vertex 31.7422 6.64944 10.1
    endloop
  endfacet
  facet normal 0.607679 -0.791943 0.0596082
    outer loop
      vertex 31.3249 7.06681 19.9
      vertex 31.7833 6.68091 10.1
      vertex 33.3754 8.64026 19.9
    endloop
  endfacet
  facet normal -0.130294 -0.989682 0.0596083
    outer loop
      vertex 40.8255 9.0833 10.1
      vertex 40.9542 9.65661 19.9
      vertex 38.4429 9.39698 10.1
    endloop
  endfacet
  facet normal -0.130279 -0.989684 0.0596082
    outer loop
      vertex 40.9542 9.65661 19.9
      vertex 40.8255 9.0833 10.1
      vertex 40.9783 9.65344 19.9
    endloop
  endfacet
  facet normal -0.607679 -0.791942 0.0596082
    outer loop
      vertex 45.0001 6.68091 10.1
      vertex 45.4585 7.06681 19.9
      vertex 43.4079 8.64026 19.9
    endloop
  endfacet
  facet normal -0.607677 -0.791944 0.0596082
    outer loop
      vertex 45.4585 7.06681 19.9
      vertex 45.0001 6.68091 10.1
      vertex 45.0411 6.64944 10.1
    endloop
  endfacet
  facet normal -0.382004 -0.922237 0.0596081
    outer loop
      vertex 43.0875 8.13343 9.9
      vertex 43.3887 8.65504 19.9
      vertex 41.0007 9.64415 19.9
    endloop
  endfacet
  facet normal -0.922246 -0.381981 0.0596081
    outer loop
      vertex 46.5355 4.70186 10.1
      vertex 47.056 4.97456 19.9
      vertex 47.0467 4.99699 19.9
    endloop
  endfacet
  facet normal -0.922237 -0.382003 0.0596083
    outer loop
      vertex 47.056 4.97456 19.9
      vertex 46.5355 4.70186 10.1
      vertex 47.4552 2.48162 10.1
    endloop
  endfacet
  facet normal -0.989683 -0.130284 0.0596106
    outer loop
      vertex 47.521 2.084 10.1
      vertex 48.3825 0.0240664 19.9
      vertex 47.4817 2.38261 10.1
    endloop
  endfacet
  facet normal -0.989682 -0.130294 0.0596083
    outer loop
      vertex 47.7834 4.11631e-08 9.9
      vertex 47.521 2.084 10.1
      vertex 47.521 1.9925 9.9
    endloop
  endfacet
  facet normal -0.989682 -0.130294 0.0596083
    outer loop
      vertex 47.521 2.084 10.1
      vertex 47.7834 4.11631e-08 9.9
      vertex 48.3825 0.0240664 19.9
    endloop
  endfacet
  facet normal -0.989674 -0.130358 0.0596079
    outer loop
      vertex 48.3825 0.0240664 19.9
      vertex 47.7834 4.11631e-08 9.9
      vertex 48.3857 -2.53585e-07 19.9
    endloop
  endfacet
  facet normal -0.791919 0.60771 0.0596084
    outer loop
      vertex 45.4585 -7.06681 19.9
      vertex 45.0726 -6.60843 10.1
      vertex 45.0411 -6.64944 10.1
    endloop
  endfacet
  facet normal -0.791943 0.607679 0.0596079
    outer loop
      vertex 45.0726 -6.60843 10.1
      vertex 45.4585 -7.06681 19.9
      vertex 47.0319 -5.01625 19.9
    endloop
  endfacet
  facet normal -0.607677 0.791944 0.0596081
    outer loop
      vertex 45.0001 -6.68091 10.1
      vertex 45.4585 -7.06681 19.9
      vertex 45.0411 -6.64944 10.1
    endloop
  endfacet
  facet normal -0.607679 0.791942 0.0596082
    outer loop
      vertex 45.4585 -7.06681 19.9
      vertex 45.0001 -6.68091 10.1
      vertex 43.4079 -8.64026 19.9
    endloop
  endfacet
  facet normal -0.607677 0.791944 0.0596089
    outer loop
      vertex 44.7612 -6.86426 10.1
      vertex 43.4079 -8.64026 19.9
      vertex 45.0001 -6.68091 10.1
    endloop
  endfacet
  facet normal -0.607631 0.791979 0.0596216
    outer loop
      vertex 43.4079 -8.64026 19.9
      vertex 44.7612 -6.86426 10.1
      vertex 43.3887 -8.65504 19.9
    endloop
  endfacet
  facet normal -0.607679 0.791943 0.0596056
    outer loop
      vertex 43.0875 -8.13343 9.9
      vertex 44.7612 -6.86426 10.1
      vertex 44.6819 -6.91001 9.9
    endloop
  endfacet
  facet normal -0.607679 0.791942 0.0596081
    outer loop
      vertex 44.7612 -6.86426 10.1
      vertex 43.0875 -8.13343 9.9
      vertex 43.3887 -8.65504 19.9
    endloop
  endfacet
  facet normal 0.607679 0.791943 0.0596081
    outer loop
      vertex 31.7833 -6.68091 10.1
      vertex 31.3249 -7.06681 19.9
      vertex 33.3754 -8.64026 19.9
    endloop
  endfacet
  facet normal 0.607677 0.791944 0.0596081
    outer loop
      vertex 31.3249 -7.06681 19.9
      vertex 31.7833 -6.68091 10.1
      vertex 31.7422 -6.64944 10.1
    endloop
  endfacet
  facet normal 0.382015 0.922232 0.0596081
    outer loop
      vertex 35.9578 -9.0833 10.1
      vertex 35.7826 -9.64415 19.9
      vertex 35.805 -9.65344 19.9
    endloop
  endfacet
  facet normal 0.382005 0.922236 0.0596082
    outer loop
      vertex 35.6318 -8.94826 10.1
      vertex 35.7826 -9.64415 19.9
      vertex 35.9578 -9.0833 10.1
    endloop
  endfacet
  facet normal 0.382004 0.922237 0.0596007
    outer loop
      vertex 33.6958 -8.13343 9.9
      vertex 35.6318 -8.94826 10.1
      vertex 35.5526 -8.90251 9.9
    endloop
  endfacet
  facet normal 0.382003 0.922237 0.0596083
    outer loop
      vertex 35.6318 -8.94826 10.1
      vertex 33.6958 -8.13343 9.9
      vertex 35.7826 -9.64415 19.9
    endloop
  endfacet
  facet normal -0.130284 0.989683 0.0596082
    outer loop
      vertex 40.7743 -9.09005 10.1
      vertex 40.9783 -9.65344 19.9
      vertex 40.8255 -9.0833 10.1
    endloop
  endfacet
  facet normal -0.130294 0.989682 0.0596083
    outer loop
      vertex 40.9783 -9.65344 19.9
      vertex 40.7743 -9.09005 10.1
      vertex 38.4157 -9.99081 19.9
    endloop
  endfacet
  facet normal 0.989682 0.130294 0.0596082
    outer loop
      vertex 28.7382 -2.58663 19.9
      vertex 29.3016 -2.38261 10.1
      vertex 28.4009 -0.0240672 19.9
    endloop
  endfacet
  facet normal 0.989685 0.130274 0.0596079
    outer loop
      vertex 29.3016 -2.38261 10.1
      vertex 28.7382 -2.58663 19.9
      vertex 29.3084 -2.43386 10.1
    endloop
  endfacet
  facet normal 0.989682 -0.130293 0.0596082
    outer loop
      vertex 29 -4.11631e-08 9.9
      vertex 28.7351 2.56256 19.9
      vertex 28.3977 -5.64144e-07 19.9
    endloop
  endfacet
  facet normal 0.922231 -0.382016 0.0596083
    outer loop
      vertex 29.7366 4.99699 19.9
      vertex 30.228 4.6541 10.1
      vertex 30.2478 4.70186 10.1
    endloop
  endfacet
  facet normal 0.922237 -0.382003 0.0596081
    outer loop
      vertex 30.228 4.6541 10.1
      vertex 29.7366 4.99699 19.9
      vertex 28.7475 2.60906 19.9
    endloop
  endfacet
  facet normal 0.382015 -0.922232 0.0596082
    outer loop
      vertex 33.6958 8.13343 9.9
      vertex 33.4171 8.66433 19.9
      vertex 33.3947 8.65504 19.9
    endloop
  endfacet
  facet normal 0.382002 -0.922237 0.0596081
    outer loop
      vertex 33.4171 8.66433 19.9
      vertex 33.6958 8.13343 9.9
      vertex 35.6318 8.94826 10.1
    endloop
  endfacet
  facet normal 0.382002 -0.922237 0.0596086
    outer loop
      vertex 35.6318 8.94826 10.1
      vertex 33.6958 8.13343 9.9
      vertex 35.5526 8.90251 9.9
    endloop
  endfacet
  facet normal 0.382005 -0.922236 0.0596088
    outer loop
      vertex 33.4171 8.66433 19.9
      vertex 35.6318 8.94826 10.1
      vertex 35.9101 9.06352 10.1
    endloop
  endfacet
  facet normal 0.130294 -0.989682 0.0596083
    outer loop
      vertex 38.3917 9.40373 10.1
      vertex 38.3676 9.99081 19.9
      vertex 36.0091 9.09005 10.1
    endloop
  endfacet
  facet normal 0.130279 -0.989684 0.0596084
    outer loop
      vertex 38.3676 9.99081 19.9
      vertex 38.3917 9.40373 10.1
      vertex 38.3917 9.99398 19.9
    endloop
  endfacet
  facet normal -0.607631 -0.791979 0.0596215
    outer loop
      vertex 43.3887 8.65504 19.9
      vertex 44.7612 6.86426 10.1
      vertex 43.4079 8.64026 19.9
    endloop
  endfacet
  facet normal -0.607679 -0.791943 0.0596081
    outer loop
      vertex 43.0875 8.13343 9.9
      vertex 44.7612 6.86426 10.1
      vertex 43.3887 8.65504 19.9
    endloop
  endfacet
  facet normal -0.607679 -0.791943 0.0596073
    outer loop
      vertex 44.7612 6.86426 10.1
      vertex 43.0875 8.13343 9.9
      vertex 44.6819 6.91001 9.9
    endloop
  endfacet
  facet normal -0.60768 -0.791942 0.059608
    outer loop
      vertex 43.4079 8.64026 19.9
      vertex 44.7612 6.86426 10.1
      vertex 45.0001 6.68091 10.1
    endloop
  endfacet
  facet normal -0.922237 -0.382003 0.0596081
    outer loop
      vertex 47.4552 2.48162 10.1
      vertex 48.0451 2.58663 19.9
      vertex 47.056 4.97456 19.9
    endloop
  endfacet
  facet normal -0.922232 -0.382016 0.059608
    outer loop
      vertex 48.0451 2.58663 19.9
      vertex 47.4552 2.48162 10.1
      vertex 47.475 2.43386 10.1
    endloop
  endfacet
  facet normal -0.98968 -0.13031 0.0596082
    outer loop
      vertex 47.4817 2.38261 10.1
      vertex 48.0451 2.58663 19.9
      vertex 47.475 2.43386 10.1
    endloop
  endfacet
  facet normal -0.989682 -0.130294 0.059608
    outer loop
      vertex 48.0451 2.58663 19.9
      vertex 47.4817 2.38261 10.1
      vertex 48.3825 0.0240664 19.9
    endloop
  endfacet
  facet normal -0.791924 0.607703 0.0596081
    outer loop
      vertex 46.5355 -4.70186 10.1
      vertex 47.0319 -5.01625 19.9
      vertex 47.0467 -4.99699 19.9
    endloop
  endfacet
  facet normal -0.791943 0.607678 0.0596082
    outer loop
      vertex 47.0319 -5.01625 19.9
      vertex 46.5355 -4.70186 10.1
      vertex 45.0726 -6.60843 10.1
    endloop
  endfacet
  facet normal 0.382003 0.922237 0.0596083
    outer loop
      vertex 35.7826 -9.64415 19.9
      vertex 33.6958 -8.13343 9.9
      vertex 33.3947 -8.65504 19.9
    endloop
  endfacet
  facet normal -0.382003 0.922237 0.0596083
    outer loop
      vertex 40.8733 -9.06352 10.1
      vertex 40.9783 -9.65344 19.9
      vertex 43.3662 -8.66433 19.9
    endloop
  endfacet
  facet normal -0.382016 0.922231 0.0596081
    outer loop
      vertex 40.9783 -9.65344 19.9
      vertex 40.8733 -9.06352 10.1
      vertex 40.8255 -9.0833 10.1
    endloop
  endfacet
  facet normal 0.130294 0.989682 0.0596082
    outer loop
      vertex 38.3404 -9.39698 10.1
      vertex 38.3917 -9.99398 19.9
      vertex 38.3917 -9.40373 10.1
    endloop
  endfacet
  facet normal 0.130294 0.989682 0.0596082
    outer loop
      vertex 38.3917 -9.99398 19.9
      vertex 38.3404 -9.39698 10.1
      vertex 35.8291 -9.65661 19.9
    endloop
  endfacet
  facet normal 0.130294 0.989682 0.0596082
    outer loop
      vertex 35.9578 -9.0833 10.1
      vertex 35.8291 -9.65661 19.9
      vertex 38.3404 -9.39698 10.1
    endloop
  endfacet
  facet normal 0.130279 0.989684 0.0596081
    outer loop
      vertex 35.8291 -9.65661 19.9
      vertex 35.9578 -9.0833 10.1
      vertex 35.805 -9.65344 19.9
    endloop
  endfacet
  facet normal 0.989684 0.130281 0.0596083
    outer loop
      vertex 28.4009 -0.0240672 19.9
      vertex 29 -4.11631e-08 9.9
      vertex 28.3977 -5.64144e-07 19.9
    endloop
  endfacet
  facet normal 0.989682 0.130293 0.0596083
    outer loop
      vertex 29.2623 -2.084 10.1
      vertex 29 -4.11631e-08 9.9
      vertex 28.4009 -0.0240672 19.9
    endloop
  endfacet
  facet normal 0.989682 0.130293 0.0596079
    outer loop
      vertex 29 -4.11631e-08 9.9
      vertex 29.2623 -2.084 10.1
      vertex 29.2623 -1.9925 9.9
    endloop
  endfacet
  facet normal 0.989682 0.130296 0.0596077
    outer loop
      vertex 29.2623 -2.084 10.1
      vertex 28.4009 -0.0240672 19.9
      vertex 29.3016 -2.38261 10.1
    endloop
  endfacet
  facet normal 0.60768 -0.791942 0.0596078
    outer loop
      vertex 32.0222 6.86426 10.1
      vertex 33.3754 8.64026 19.9
      vertex 31.7833 6.68091 10.1
    endloop
  endfacet
  facet normal 0.607707 -0.791922 0.0596004
    outer loop
      vertex 33.3754 8.64026 19.9
      vertex 32.0222 6.86426 10.1
      vertex 33.3947 8.65504 19.9
    endloop
  endfacet
  facet normal 0.607679 -0.791943 0.0596056
    outer loop
      vertex 33.6958 8.13343 9.9
      vertex 32.0222 6.86426 10.1
      vertex 32.1014 6.91001 9.9
    endloop
  endfacet
  facet normal 0.607679 -0.791942 0.0596081
    outer loop
      vertex 32.0222 6.86426 10.1
      vertex 33.6958 8.13343 9.9
      vertex 33.3947 8.65504 19.9
    endloop
  endfacet
  facet normal 0.382003 -0.922237 0.0596082
    outer loop
      vertex 35.9101 9.06352 10.1
      vertex 35.805 9.65344 19.9
      vertex 33.4171 8.66433 19.9
    endloop
  endfacet
  facet normal 0.38199 -0.922242 0.0596083
    outer loop
      vertex 35.805 9.65344 19.9
      vertex 35.9101 9.06352 10.1
      vertex 35.9578 9.0833 10.1
    endloop
  endfacet
  facet normal 0.130294 -0.989682 0.0596082
    outer loop
      vertex 36.0091 9.09005 10.1
      vertex 35.805 9.65344 19.9
      vertex 35.9578 9.0833 10.1
    endloop
  endfacet
  facet normal 0.130294 -0.989682 0.0596082
    outer loop
      vertex 35.805 9.65344 19.9
      vertex 36.0091 9.09005 10.1
      vertex 38.3676 9.99081 19.9
    endloop
  endfacet
  facet normal 0.607707 0.791922 0.0596003
    outer loop
      vertex 33.3947 -8.65504 19.9
      vertex 32.0222 -6.86426 10.1
      vertex 33.3754 -8.64026 19.9
    endloop
  endfacet
  facet normal 0.607678 0.791943 0.0596083
    outer loop
      vertex 33.6958 -8.13343 9.9
      vertex 32.0222 -6.86426 10.1
      vertex 33.3947 -8.65504 19.9
    endloop
  endfacet
  facet normal 0.607678 0.791943 0.0596068
    outer loop
      vertex 32.0222 -6.86426 10.1
      vertex 33.6958 -8.13343 9.9
      vertex 32.1014 -6.91001 9.9
    endloop
  endfacet
  facet normal 0.60768 0.791942 0.0596077
    outer loop
      vertex 33.3754 -8.64026 19.9
      vertex 32.0222 -6.86426 10.1
      vertex 31.7833 -6.68091 10.1
    endloop
  endfacet
  facet normal 0.922237 0.382003 0.0596081
    outer loop
      vertex 29.7274 -4.97456 19.9
      vertex 30.2478 -4.70186 10.1
      vertex 29.3282 -2.48162 10.1
    endloop
  endfacet
  facet normal 0.922246 0.381981 0.059608
    outer loop
      vertex 30.2478 -4.70186 10.1
      vertex 29.7274 -4.97456 19.9
      vertex 29.7366 -4.99699 19.9
    endloop
  endfacet
  facet normal 0.922232 0.382016 0.059608
    outer loop
      vertex 28.7382 -2.58663 19.9
      vertex 29.3282 -2.48162 10.1
      vertex 29.3084 -2.43386 10.1
    endloop
  endfacet
  facet normal 0.922237 0.382003 0.0596081
    outer loop
      vertex 29.3282 -2.48162 10.1
      vertex 28.7382 -2.58663 19.9
      vertex 29.7274 -4.97456 19.9
    endloop
  endfacet
  facet normal 0.791962 -0.607654 0.0596084
    outer loop
      vertex 30.2478 4.70186 10.1
      vertex 29.7514 5.01625 19.9
      vertex 29.7366 4.99699 19.9
    endloop
  endfacet
  facet normal 0.791943 -0.607679 0.0596083
    outer loop
      vertex 29.7514 5.01625 19.9
      vertex 30.2478 4.70186 10.1
      vertex 31.7108 6.60843 10.1
    endloop
  endfacet
  facet normal 0.791937 -0.607686 0.0596082
    outer loop
      vertex 31.3249 7.06681 19.9
      vertex 31.7108 6.60843 10.1
      vertex 31.7422 6.64944 10.1
    endloop
  endfacet
  facet normal 0.791943 -0.607679 0.0596081
    outer loop
      vertex 31.7108 6.60843 10.1
      vertex 31.3249 7.06681 19.9
      vertex 29.7514 5.01625 19.9
    endloop
  endfacet
  facet normal -0.793354 -0.608761 0
    outer loop
      vertex 47.0519 5 19.9
      vertex 45.4627 7.07107 30
      vertex 45.4627 7.07107 19.9
    endloop
  endfacet
  facet normal -0.793354 -0.608761 0
    outer loop
      vertex 45.4627 7.07107 30
      vertex 47.0519 5 19.9
      vertex 47.0519 5 30
    endloop
  endfacet
  facet normal 0.92388 0.382683 0
    outer loop
      vertex 29.7314 -5 30
      vertex 28.7324 -2.58819 19.9
      vertex 28.7324 -2.58819 30
    endloop
  endfacet
  facet normal 0.92388 0.382683 0
    outer loop
      vertex 28.7324 -2.58819 19.9
      vertex 29.7314 -5 30
      vertex 29.7314 -5 19.9
    endloop
  endfacet
  facet normal 0.382683 -0.92388 0
    outer loop
      vertex 33.3917 8.66025 19.9
      vertex 35.8035 9.65926 30
      vertex 33.3917 8.66025 30
    endloop
  endfacet
  facet normal 0.382683 -0.92388 0
    outer loop
      vertex 35.8035 9.65926 30
      vertex 33.3917 8.66025 19.9
      vertex 35.8035 9.65926 19.9
    endloop
  endfacet
  facet normal -0.382683 0.92388 0
    outer loop
      vertex 43.3917 -8.66025 19.9
      vertex 40.9799 -9.65926 30
      vertex 43.3917 -8.66025 30
    endloop
  endfacet
  facet normal -0.382683 0.92388 0
    outer loop
      vertex 40.9799 -9.65926 30
      vertex 43.3917 -8.66025 19.9
      vertex 40.9799 -9.65926 19.9
    endloop
  endfacet
  facet normal 0.382684 0.923879 -0
    outer loop
      vertex 35.8035 -9.65926 19.9
      vertex 33.3917 -8.66025 30
      vertex 35.8035 -9.65926 30
    endloop
  endfacet
  facet normal 0.382684 0.923879 0
    outer loop
      vertex 33.3917 -8.66025 30
      vertex 35.8035 -9.65926 19.9
      vertex 33.3917 -8.66025 19.9
    endloop
  endfacet
  facet normal 0 0 1
    outer loop
      vertex 48.3917 -2.56532e-07 19.9
      vertex 48.3825 0.0240664 19.9
      vertex 48.3857 -2.53585e-07 19.9
    endloop
  endfacet
  facet normal 0 0 1
    outer loop
      vertex 48.0509 2.58819 19.9
      vertex 48.3825 0.0240664 19.9
      vertex 48.3917 -2.56532e-07 19.9
    endloop
  endfacet
  facet normal 0 0 1
    outer loop
      vertex 48.0509 2.58819 19.9
      vertex 48.0451 2.58663 19.9
      vertex 48.3825 0.0240664 19.9
    endloop
  endfacet
  facet normal 0 0 1
    outer loop
      vertex 48.0509 2.58819 19.9
      vertex 47.056 4.97456 19.9
      vertex 48.0451 2.58663 19.9
    endloop
  endfacet
  facet normal 0 0 1
    outer loop
      vertex 47.0519 5 19.9
      vertex 47.056 4.97456 19.9
      vertex 48.0509 2.58819 19.9
    endloop
  endfacet
  facet normal 0 0 1
    outer loop
      vertex 47.0519 5 19.9
      vertex 47.0467 4.99699 19.9
      vertex 47.056 4.97456 19.9
    endloop
  endfacet
  facet normal 0 0 1
    outer loop
      vertex 47.0519 5 19.9
      vertex 47.0319 5.01625 19.9
      vertex 47.0467 4.99699 19.9
    endloop
  endfacet
  facet normal 0 0 1
    outer loop
      vertex 45.4627 7.07107 19.9
      vertex 47.0319 5.01625 19.9
      vertex 47.0519 5 19.9
    endloop
  endfacet
  facet normal 0 0 1
    outer loop
      vertex 45.4627 7.07107 19.9
      vertex 45.4585 7.06681 19.9
      vertex 47.0319 5.01625 19.9
    endloop
  endfacet
  facet normal 0 0 1
    outer loop
      vertex 45.4627 7.07107 19.9
      vertex 43.4079 8.64026 19.9
      vertex 45.4585 7.06681 19.9
    endloop
  endfacet
  facet normal 0 0 1
    outer loop
      vertex 43.3917 8.66025 19.9
      vertex 43.4079 8.64026 19.9
      vertex 45.4627 7.07107 19.9
    endloop
  endfacet
  facet normal 0 0 1
    outer loop
      vertex 43.3917 8.66025 19.9
      vertex 43.3887 8.65504 19.9
      vertex 43.4079 8.64026 19.9
    endloop
  endfacet
  facet normal 0 0 1
    outer loop
      vertex 43.3917 8.66025 19.9
      vertex 41.0007 9.64415 19.9
      vertex 43.3887 8.65504 19.9
    endloop
  endfacet
  facet normal 0 0 1
    outer loop
      vertex 40.9799 9.65926 19.9
      vertex 41.0007 9.64415 19.9
      vertex 43.3917 8.66025 19.9
    endloop
  endfacet
  facet normal 0 0 1
    outer loop
      vertex 40.9799 9.65926 19.9
      vertex 40.9783 9.65344 19.9
      vertex 41.0007 9.64415 19.9
    endloop
  endfacet
  facet normal 0 0 1
    outer loop
      vertex 40.9799 9.65926 19.9
      vertex 40.9542 9.65661 19.9
      vertex 40.9783 9.65344 19.9
    endloop
  endfacet
  facet normal 0 0 1
    outer loop
      vertex 38.3917 10 19.9
      vertex 40.9542 9.65661 19.9
      vertex 40.9799 9.65926 19.9
    endloop
  endfacet
  facet normal 0 0 1
    outer loop
      vertex 38.3917 10 19.9
      vertex 38.3917 9.99398 19.9
      vertex 40.9542 9.65661 19.9
    endloop
  endfacet
  facet normal 0 0 1
    outer loop
      vertex 38.3917 10 19.9
      vertex 38.3676 9.99081 19.9
      vertex 38.3917 9.99398 19.9
    endloop
  endfacet
  facet normal 0 0 1
    outer loop
      vertex 35.8035 9.65926 19.9
      vertex 38.3676 9.99081 19.9
      vertex 38.3917 10 19.9
    endloop
  endfacet
  facet normal 0 0 1
    outer loop
      vertex 38.3676 9.99081 19.9
      vertex 35.8035 9.65926 19.9
      vertex 35.805 9.65344 19.9
    endloop
  endfacet
  facet normal 0 0 1
    outer loop
      vertex 35.8035 9.65926 19.9
      vertex 33.4171 8.66433 19.9
      vertex 35.805 9.65344 19.9
    endloop
  endfacet
  facet normal 0 0 1
    outer loop
      vertex 33.3917 8.66025 19.9
      vertex 33.4171 8.66433 19.9
      vertex 35.8035 9.65926 19.9
    endloop
  endfacet
  facet normal 0 0 1
    outer loop
      vertex 33.4171 8.66433 19.9
      vertex 33.3917 8.66025 19.9
      vertex 33.3947 8.65504 19.9
    endloop
  endfacet
  facet normal 0 0 1
    outer loop
      vertex 33.3917 8.66025 19.9
      vertex 33.3754 8.64026 19.9
      vertex 33.3947 8.65504 19.9
    endloop
  endfacet
  facet normal 0 0 1
    outer loop
      vertex 31.3206 7.07107 19.9
      vertex 33.3754 8.64026 19.9
      vertex 33.3917 8.66025 19.9
    endloop
  endfacet
  facet normal 0 0 1
    outer loop
      vertex 33.3754 8.64026 19.9
      vertex 31.3206 7.07107 19.9
      vertex 31.3249 7.06681 19.9
    endloop
  endfacet
  facet normal 0 0 1
    outer loop
      vertex 31.3206 7.07107 19.9
      vertex 29.7514 5.01625 19.9
      vertex 31.3249 7.06681 19.9
    endloop
  endfacet
  facet normal 0 0 1
    outer loop
      vertex 29.7314 5 19.9
      vertex 29.7514 5.01625 19.9
      vertex 31.3206 7.07107 19.9
    endloop
  endfacet
  facet normal 0 0 1
    outer loop
      vertex 29.7514 5.01625 19.9
      vertex 29.7314 5 19.9
      vertex 29.7366 4.99699 19.9
    endloop
  endfacet
  facet normal 0 0 1
    outer loop
      vertex 29.7314 5 19.9
      vertex 28.7475 2.60906 19.9
      vertex 29.7366 4.99699 19.9
    endloop
  endfacet
  facet normal 0 0 1
    outer loop
      vertex 28.7324 2.58819 19.9
      vertex 28.7475 2.60906 19.9
      vertex 29.7314 5 19.9
    endloop
  endfacet
  facet normal 0 0 1
    outer loop
      vertex 28.7475 2.60906 19.9
      vertex 28.7324 2.58819 19.9
      vertex 28.7382 2.58663 19.9
    endloop
  endfacet
  facet normal 0 0 1
    outer loop
      vertex 28.7324 2.58819 19.9
      vertex 28.7351 2.56256 19.9
      vertex 28.7382 2.58663 19.9
    endloop
  endfacet
  facet normal 0 0 1
    outer loop
      vertex 28.3917 -5.69374e-07 19.9
      vertex 28.7351 2.56256 19.9
      vertex 28.7324 2.58819 19.9
    endloop
  endfacet
  facet normal 0 0 1
    outer loop
      vertex 28.7351 2.56256 19.9
      vertex 28.3917 -5.69374e-07 19.9
      vertex 28.3977 -5.64144e-07 19.9
    endloop
  endfacet
  facet normal 0 0 1
    outer loop
      vertex 48.0483 -2.56256 19.9
      vertex 48.3917 -2.56532e-07 19.9
      vertex 48.3857 -2.53585e-07 19.9
    endloop
  endfacet
  facet normal 0 0 1
    outer loop
      vertex 48.3917 -2.56532e-07 19.9
      vertex 48.0483 -2.56256 19.9
      vertex 48.0509 -2.58819 19.9
    endloop
  endfacet
  facet normal -0 0 1
    outer loop
      vertex 48.0451 -2.58663 19.9
      vertex 48.0509 -2.58819 19.9
      vertex 48.0483 -2.56256 19.9
    endloop
  endfacet
  facet normal 0 0 1
    outer loop
      vertex 48.0358 -2.60906 19.9
      vertex 48.0509 -2.58819 19.9
      vertex 48.0451 -2.58663 19.9
    endloop
  endfacet
  facet normal -0 0 1
    outer loop
      vertex 48.0358 -2.60906 19.9
      vertex 47.0519 -5 19.9
      vertex 48.0509 -2.58819 19.9
    endloop
  endfacet
  facet normal -0 0 1
    outer loop
      vertex 47.0467 -4.99699 19.9
      vertex 47.0519 -5 19.9
      vertex 48.0358 -2.60906 19.9
    endloop
  endfacet
  facet normal 0 0 1
    outer loop
      vertex 47.0319 -5.01625 19.9
      vertex 47.0519 -5 19.9
      vertex 47.0467 -4.99699 19.9
    endloop
  endfacet
  facet normal -0 0 1
    outer loop
      vertex 47.0319 -5.01625 19.9
      vertex 45.4627 -7.07107 19.9
      vertex 47.0519 -5 19.9
    endloop
  endfacet
  facet normal -0 0 1
    outer loop
      vertex 45.4585 -7.06681 19.9
      vertex 45.4627 -7.07107 19.9
      vertex 47.0319 -5.01625 19.9
    endloop
  endfacet
  facet normal 0 0 1
    outer loop
      vertex 43.4079 -8.64026 19.9
      vertex 45.4627 -7.07107 19.9
      vertex 45.4585 -7.06681 19.9
    endloop
  endfacet
  facet normal -0 0 1
    outer loop
      vertex 43.4079 -8.64026 19.9
      vertex 43.3917 -8.66025 19.9
      vertex 45.4627 -7.07107 19.9
    endloop
  endfacet
  facet normal -0 0 1
    outer loop
      vertex 43.3887 -8.65504 19.9
      vertex 43.3917 -8.66025 19.9
      vertex 43.4079 -8.64026 19.9
    endloop
  endfacet
  facet normal 0 0 1
    outer loop
      vertex 43.3662 -8.66433 19.9
      vertex 43.3917 -8.66025 19.9
      vertex 43.3887 -8.65504 19.9
    endloop
  endfacet
  facet normal -0 0 1
    outer loop
      vertex 43.3662 -8.66433 19.9
      vertex 40.9799 -9.65926 19.9
      vertex 43.3917 -8.66025 19.9
    endloop
  endfacet
  facet normal -0 0 1
    outer loop
      vertex 40.9783 -9.65344 19.9
      vertex 40.9799 -9.65926 19.9
      vertex 43.3662 -8.66433 19.9
    endloop
  endfacet
  facet normal 0 0 1
    outer loop
      vertex 38.4157 -9.99081 19.9
      vertex 40.9799 -9.65926 19.9
      vertex 40.9783 -9.65344 19.9
    endloop
  endfacet
  facet normal 0 0 1
    outer loop
      vertex 38.3917 -10 19.9
      vertex 38.4157 -9.99081 19.9
      vertex 38.3917 -9.99398 19.9
    endloop
  endfacet
  facet normal -0 0 1
    outer loop
      vertex 38.4157 -9.99081 19.9
      vertex 38.3917 -10 19.9
      vertex 40.9799 -9.65926 19.9
    endloop
  endfacet
  facet normal 0 0 1
    outer loop
      vertex 35.8291 -9.65661 19.9
      vertex 38.3917 -10 19.9
      vertex 38.3917 -9.99398 19.9
    endloop
  endfacet
  facet normal 0 0 1
    outer loop
      vertex 35.8035 -9.65926 19.9
      vertex 35.8291 -9.65661 19.9
      vertex 35.805 -9.65344 19.9
    endloop
  endfacet
  facet normal 0 0 1
    outer loop
      vertex 35.8291 -9.65661 19.9
      vertex 35.8035 -9.65926 19.9
      vertex 38.3917 -10 19.9
    endloop
  endfacet
  facet normal 0 0 1
    outer loop
      vertex 35.7826 -9.64415 19.9
      vertex 35.8035 -9.65926 19.9
      vertex 35.805 -9.65344 19.9
    endloop
  endfacet
  facet normal -0 0 1
    outer loop
      vertex 33.3917 -8.66025 19.9
      vertex 35.7826 -9.64415 19.9
      vertex 33.3947 -8.65504 19.9
    endloop
  endfacet
  facet normal 0 0 1
    outer loop
      vertex 35.7826 -9.64415 19.9
      vertex 33.3917 -8.66025 19.9
      vertex 35.8035 -9.65926 19.9
    endloop
  endfacet
  facet normal 0 0 1
    outer loop
      vertex 33.3754 -8.64026 19.9
      vertex 33.3917 -8.66025 19.9
      vertex 33.3947 -8.65504 19.9
    endloop
  endfacet
  facet normal -0 0 1
    outer loop
      vertex 31.3206 -7.07107 19.9
      vertex 33.3754 -8.64026 19.9
      vertex 31.3249 -7.06681 19.9
    endloop
  endfacet
  facet normal 0 0 1
    outer loop
      vertex 33.3754 -8.64026 19.9
      vertex 31.3206 -7.07107 19.9
      vertex 33.3917 -8.66025 19.9
    endloop
  endfacet
  facet normal 0 0 1
    outer loop
      vertex 29.7514 -5.01625 19.9
      vertex 31.3206 -7.07107 19.9
      vertex 31.3249 -7.06681 19.9
    endloop
  endfacet
  facet normal -0 0 1
    outer loop
      vertex 29.7314 -5 19.9
      vertex 29.7514 -5.01625 19.9
      vertex 29.7366 -4.99699 19.9
    endloop
  endfacet
  facet normal 0 0 1
    outer loop
      vertex 29.7514 -5.01625 19.9
      vertex 29.7314 -5 19.9
      vertex 31.3206 -7.07107 19.9
    endloop
  endfacet
  facet normal 0 0 1
    outer loop
      vertex 29.7274 -4.97456 19.9
      vertex 29.7314 -5 19.9
      vertex 29.7366 -4.99699 19.9
    endloop
  endfacet
  facet normal -0 0 1
    outer loop
      vertex 28.7324 -2.58819 19.9
      vertex 29.7274 -4.97456 19.9
      vertex 28.7382 -2.58663 19.9
    endloop
  endfacet
  facet normal 0 0 1
    outer loop
      vertex 29.7274 -4.97456 19.9
      vertex 28.7324 -2.58819 19.9
      vertex 29.7314 -5 19.9
    endloop
  endfacet
  facet normal 0 0 1
    outer loop
      vertex 28.4009 -0.0240672 19.9
      vertex 28.7324 -2.58819 19.9
      vertex 28.7382 -2.58663 19.9
    endloop
  endfacet
  facet normal -0 0 1
    outer loop
      vertex 28.3917 -5.69374e-07 19.9
      vertex 28.4009 -0.0240672 19.9
      vertex 28.3977 -5.64144e-07 19.9
    endloop
  endfacet
  facet normal 0 0 1
    outer loop
      vertex 28.4009 -0.0240672 19.9
      vertex 28.3917 -5.69374e-07 19.9
      vertex 28.7324 -2.58819 19.9
    endloop
  endfacet
  facet normal -0.382683 -0.92388 0
    outer loop
      vertex 40.9799 9.65926 19.9
      vertex 43.3917 8.66025 30
      vertex 40.9799 9.65926 30
    endloop
  endfacet
  facet normal -0.382683 -0.92388 -0
    outer loop
      vertex 43.3917 8.66025 30
      vertex 40.9799 9.65926 19.9
      vertex 43.3917 8.66025 19.9
    endloop
  endfacet
  facet normal -0.608761 -0.793354 0
    outer loop
      vertex 43.3917 8.66025 19.9
      vertex 45.4627 7.07107 30
      vertex 43.3917 8.66025 30
    endloop
  endfacet
  facet normal -0.608761 -0.793354 -0
    outer loop
      vertex 45.4627 7.07107 30
      vertex 43.3917 8.66025 19.9
      vertex 45.4627 7.07107 19.9
    endloop
  endfacet
  facet normal -0.130526 -0.991445 0
    outer loop
      vertex 38.3917 10 19.9
      vertex 40.9799 9.65926 30
      vertex 38.3917 10 30
    endloop
  endfacet
  facet normal -0.130526 -0.991445 -0
    outer loop
      vertex 40.9799 9.65926 30
      vertex 38.3917 10 19.9
      vertex 40.9799 9.65926 19.9
    endloop
  endfacet
  facet normal 0.923879 -0.382684 0
    outer loop
      vertex 28.7324 2.58819 30
      vertex 29.7314 5 19.9
      vertex 29.7314 5 30
    endloop
  endfacet
  facet normal 0.923879 -0.382684 0
    outer loop
      vertex 29.7314 5 19.9
      vertex 28.7324 2.58819 30
      vertex 28.7324 2.58819 19.9
    endloop
  endfacet
  facet normal 0.608762 -0.793353 0
    outer loop
      vertex 31.3206 7.07107 19.9
      vertex 33.3917 8.66025 30
      vertex 31.3206 7.07107 30
    endloop
  endfacet
  facet normal 0.608762 -0.793353 0
    outer loop
      vertex 33.3917 8.66025 30
      vertex 31.3206 7.07107 19.9
      vertex 33.3917 8.66025 19.9
    endloop
  endfacet
  facet normal -0.991445 0.130527 0
    outer loop
      vertex 48.0509 -2.58819 19.9
      vertex 48.3917 -2.56532e-07 30
      vertex 48.3917 -2.56532e-07 19.9
    endloop
  endfacet
  facet normal -0.991445 0.130527 0
    outer loop
      vertex 48.3917 -2.56532e-07 30
      vertex 48.0509 -2.58819 19.9
      vertex 48.0509 -2.58819 30
    endloop
  endfacet
  facet normal 0.130526 0.991445 -0
    outer loop
      vertex 38.3917 -10 19.9
      vertex 35.8035 -9.65926 30
      vertex 38.3917 -10 30
    endloop
  endfacet
  facet normal 0.130526 0.991445 0
    outer loop
      vertex 35.8035 -9.65926 30
      vertex 38.3917 -10 19.9
      vertex 35.8035 -9.65926 19.9
    endloop
  endfacet
  facet normal 0.793353 0.608762 0
    outer loop
      vertex 31.3206 -7.07107 30
      vertex 29.7314 -5 19.9
      vertex 29.7314 -5 30
    endloop
  endfacet
  facet normal 0.793353 0.608762 0
    outer loop
      vertex 29.7314 -5 19.9
      vertex 31.3206 -7.07107 30
      vertex 31.3206 -7.07107 19.9
    endloop
  endfacet
  facet normal 0.130526 -0.991445 0
    outer loop
      vertex 35.8035 9.65926 19.9
      vertex 38.3917 10 30
      vertex 35.8035 9.65926 30
    endloop
  endfacet
  facet normal 0.130526 -0.991445 0
    outer loop
      vertex 38.3917 10 30
      vertex 35.8035 9.65926 19.9
      vertex 38.3917 10 19.9
    endloop
  endfacet
  facet normal 0.991445 -0.130526 0
    outer loop
      vertex 28.3917 -5.69374e-07 30
      vertex 28.7324 2.58819 19.9
      vertex 28.7324 2.58819 30
    endloop
  endfacet
  facet normal 0.991445 -0.130526 0
    outer loop
      vertex 28.7324 2.58819 19.9
      vertex 28.3917 -5.69374e-07 30
      vertex 28.3917 -5.69374e-07 19.9
    endloop
  endfacet
  facet normal 0.991445 0.130526 0
    outer loop
      vertex 28.7324 -2.58819 30
      vertex 28.3917 -5.69374e-07 19.9
      vertex 28.3917 -5.69374e-07 30
    endloop
  endfacet
  facet normal 0.991445 0.130526 0
    outer loop
      vertex 28.3917 -5.69374e-07 19.9
      vertex 28.7324 -2.58819 30
      vertex 28.7324 -2.58819 19.9
    endloop
  endfacet
  facet normal 0.793353 -0.608761 0
    outer loop
      vertex 29.7314 5 30
      vertex 31.3206 7.07107 19.9
      vertex 31.3206 7.07107 30
    endloop
  endfacet
  facet normal 0.793353 -0.608761 0
    outer loop
      vertex 31.3206 7.07107 19.9
      vertex 29.7314 5 30
      vertex 29.7314 5 19.9
    endloop
  endfacet
  facet normal -0.92388 -0.382683 0
    outer loop
      vertex 48.0509 2.58819 19.9
      vertex 47.0519 5 30
      vertex 47.0519 5 19.9
    endloop
  endfacet
  facet normal -0.92388 -0.382683 0
    outer loop
      vertex 47.0519 5 30
      vertex 48.0509 2.58819 19.9
      vertex 48.0509 2.58819 30
    endloop
  endfacet
  facet normal -0.608762 0.793353 0
    outer loop
      vertex 45.4627 -7.07107 19.9
      vertex 43.3917 -8.66025 30
      vertex 45.4627 -7.07107 30
    endloop
  endfacet
  facet normal -0.608762 0.793353 0
    outer loop
      vertex 43.3917 -8.66025 30
      vertex 45.4627 -7.07107 19.9
      vertex 43.3917 -8.66025 19.9
    endloop
  endfacet
  facet normal -0.923879 0.382684 0
    outer loop
      vertex 47.0519 -5 19.9
      vertex 48.0509 -2.58819 30
      vertex 48.0509 -2.58819 19.9
    endloop
  endfacet
  facet normal -0.923879 0.382684 0
    outer loop
      vertex 48.0509 -2.58819 30
      vertex 47.0519 -5 19.9
      vertex 47.0519 -5 30
    endloop
  endfacet
  facet normal -0.130526 0.991445 0
    outer loop
      vertex 40.9799 -9.65926 19.9
      vertex 38.3917 -10 30
      vertex 40.9799 -9.65926 30
    endloop
  endfacet
  facet normal -0.130526 0.991445 0
    outer loop
      vertex 38.3917 -10 30
      vertex 40.9799 -9.65926 19.9
      vertex 38.3917 -10 19.9
    endloop
  endfacet
  facet normal 0.608761 0.793354 -0
    outer loop
      vertex 33.3917 -8.66025 19.9
      vertex 31.3206 -7.07107 30
      vertex 33.3917 -8.66025 30
    endloop
  endfacet
  facet normal 0.608761 0.793354 0
    outer loop
      vertex 31.3206 -7.07107 30
      vertex 33.3917 -8.66025 19.9
      vertex 31.3206 -7.07107 19.9
    endloop
  endfacet
  facet normal -0.793354 0.608761 0
    outer loop
      vertex 45.4627 -7.07107 19.9
      vertex 47.0519 -5 30
      vertex 47.0519 -5 19.9
    endloop
  endfacet
  facet normal -0.793354 0.608761 0
    outer loop
      vertex 47.0519 -5 30
      vertex 45.4627 -7.07107 19.9
      vertex 45.4627 -7.07107 30
    endloop
  endfacet
  facet normal -0.991445 -0.130527 0
    outer loop
      vertex 48.3917 -2.56532e-07 19.9
      vertex 48.0509 2.58819 30
      vertex 48.0509 2.58819 19.9
    endloop
  endfacet
  facet normal -0.991445 -0.130527 0
    outer loop
      vertex 48.0509 2.58819 30
      vertex 48.3917 -2.56532e-07 19.9
      vertex 48.3917 -2.56532e-07 30
    endloop
  endfacet
endsolid OpenSCAD_Model
