solid OpenSCAD_Model
  facet normal -0.500002 -0.866025 0
    outer loop
      vertex -4.58177e-07 10.5417 0
      vertex 9.12936 5.27084 4.5
      vertex -4.58177e-07 10.5417 4.5
    endloop
  endfacet
  facet normal -0.500002 -0.866025 -0
    outer loop
      vertex 9.12936 5.27084 4.5
      vertex -4.58177e-07 10.5417 0
      vertex 9.12936 5.27084 0
    endloop
  endfacet
  facet normal 1 -0 0
    outer loop
      vertex -9.12936 -5.27084 4.5
      vertex -9.12936 5.27084 0
      vertex -9.12936 5.27084 4.5
    endloop
  endfacet
  facet normal 1 0 0
    outer loop
      vertex -9.12936 5.27084 0
      vertex -9.12936 -5.27084 4.5
      vertex -9.12936 -5.27084 0
    endloop
  endfacet
  facet normal 0.500002 -0.866025 0
    outer loop
      vertex -9.12936 5.27084 0
      vertex -4.58177e-07 10.5417 4.5
      vertex -9.12936 5.27084 4.5
    endloop
  endfacet
  facet normal 0.500002 -0.866025 0
    outer loop
      vertex -4.58177e-07 10.5417 4.5
      vertex -9.12936 5.27084 0
      vertex -4.58177e-07 10.5417 0
    endloop
  endfacet
  facet normal 0 0 -1
    outer loop
      vertex 9.12936 -5.27084 4.5
      vertex 8.13343 4.69584 4.5
      vertex 9.12936 5.27084 4.5
    endloop
  endfacet
  facet normal 0 0 -1
    outer loop
      vertex 9.12936 -5.27084 4.5
      vertex 8.13343 -4.69584 4.5
      vertex 8.13343 4.69584 4.5
    endloop
  endfacet
  facet normal 0 0 -1
    outer loop
      vertex 4.58177e-07 -10.5417 4.5
      vertex 8.13343 -4.69584 4.5
      vertex 9.12936 -5.27084 4.5
    endloop
  endfacet
  facet normal 0 0 -1
    outer loop
      vertex 4.58177e-07 -10.5417 4.5
      vertex 4.11631e-08 -9.39168 4.5
      vertex 8.13343 -4.69584 4.5
    endloop
  endfacet
  facet normal 0 0 -1
    outer loop
      vertex 4.58177e-07 -10.5417 4.5
      vertex -8.13343 -4.69584 4.5
      vertex 4.11631e-08 -9.39168 4.5
    endloop
  endfacet
  facet normal 0 -0 -1
    outer loop
      vertex -8.13343 -4.69584 4.5
      vertex 4.58177e-07 -10.5417 4.5
      vertex -9.12936 -5.27084 4.5
    endloop
  endfacet
  facet normal 0 0 -1
    outer loop
      vertex -4.11631e-08 9.39168 4.5
      vertex 9.12936 5.27084 4.5
      vertex 8.13343 4.69584 4.5
    endloop
  endfacet
  facet normal 0 0 -1
    outer loop
      vertex -4.11631e-08 9.39168 4.5
      vertex -4.58177e-07 10.5417 4.5
      vertex 9.12936 5.27084 4.5
    endloop
  endfacet
  facet normal 0 0 -1
    outer loop
      vertex -8.13343 4.69584 4.5
      vertex -4.58177e-07 10.5417 4.5
      vertex -4.11631e-08 9.39168 4.5
    endloop
  endfacet
  facet normal 0 0 -1
    outer loop
      vertex -9.12936 -5.27084 4.5
      vertex -8.13343 4.69584 4.5
      vertex -8.13343 -4.69584 4.5
    endloop
  endfacet
  facet normal 0 0 -1
    outer loop
      vertex -8.13343 4.69584 4.5
      vertex -9.12936 5.27084 4.5
      vertex -4.58177e-07 10.5417 4.5
    endloop
  endfacet
  facet normal 0 0 -1
    outer loop
      vertex -9.12936 5.27084 4.5
      vertex -8.13343 4.69584 4.5
      vertex -9.12936 -5.27084 4.5
    endloop
  endfacet
  facet normal -1 0 0
    outer loop
      vertex 9.12936 -5.27084 0
      vertex 9.12936 5.27084 4.5
      vertex 9.12936 5.27084 0
    endloop
  endfacet
  facet normal -1 -0 0
    outer loop
      vertex 9.12936 5.27084 4.5
      vertex 9.12936 -5.27084 0
      vertex 9.12936 -5.27084 4.5
    endloop
  endfacet
  facet normal -0.500002 0.866025 0
    outer loop
      vertex 9.12936 -5.27084 0
      vertex 4.58177e-07 -10.5417 4.5
      vertex 9.12936 -5.27084 4.5
    endloop
  endfacet
  facet normal -0.500002 0.866025 0
    outer loop
      vertex 4.58177e-07 -10.5417 4.5
      vertex 9.12936 -5.27084 0
      vertex 4.58177e-07 -10.5417 0
    endloop
  endfacet
  facet normal 0.500002 0.866025 -0
    outer loop
      vertex 4.58177e-07 -10.5417 0
      vertex -9.12936 -5.27084 4.5
      vertex 4.58177e-07 -10.5417 4.5
    endloop
  endfacet
  facet normal 0.500002 0.866025 0
    outer loop
      vertex -9.12936 -5.27084 4.5
      vertex 4.58177e-07 -10.5417 0
      vertex -9.12936 -5.27084 0
    endloop
  endfacet
  facet normal -0.5 -0.866025 0
    outer loop
      vertex -4.11631e-08 9.39168 4.5
      vertex 8.13343 4.69584 5.5
      vertex -4.11631e-08 9.39168 5.5
    endloop
  endfacet
  facet normal -0.5 -0.866025 -0
    outer loop
      vertex 8.13343 4.69584 5.5
      vertex -4.11631e-08 9.39168 4.5
      vertex 8.13343 4.69584 4.5
    endloop
  endfacet
  facet normal 1 -0 0
    outer loop
      vertex -8.13343 -4.69584 5.5
      vertex -8.13343 4.69584 4.5
      vertex -8.13343 4.69584 5.5
    endloop
  endfacet
  facet normal 1 0 0
    outer loop
      vertex -8.13343 4.69584 4.5
      vertex -8.13343 -4.69584 5.5
      vertex -8.13343 -4.69584 4.5
    endloop
  endfacet
  facet normal 0.5 -0.866025 0
    outer loop
      vertex -8.13343 4.69584 4.5
      vertex -4.11631e-08 9.39168 5.5
      vertex -8.13343 4.69584 5.5
    endloop
  endfacet
  facet normal 0.5 -0.866025 0
    outer loop
      vertex -4.11631e-08 9.39168 5.5
      vertex -8.13343 4.69584 4.5
      vertex -4.11631e-08 9.39168 4.5
    endloop
  endfacet
  facet normal -0.5 0.866025 0
    outer loop
      vertex 8.13343 -4.69584 4.5
      vertex 4.11631e-08 -9.39168 5.5
      vertex 8.13343 -4.69584 5.5
    endloop
  endfacet
  facet normal -0.5 0.866025 0
    outer loop
      vertex 4.11631e-08 -9.39168 5.5
      vertex 8.13343 -4.69584 4.5
      vertex 4.11631e-08 -9.39168 4.5
    endloop
  endfacet
  facet normal 0.5 0.866025 -0
    outer loop
      vertex 4.11631e-08 -9.39168 4.5
      vertex -8.13343 -4.69584 5.5
      vertex 4.11631e-08 -9.39168 5.5
    endloop
  endfacet
  facet normal 0.5 0.866025 0
    outer loop
      vertex -8.13343 -4.69584 5.5
      vertex 4.11631e-08 -9.39168 4.5
      vertex -8.13343 -4.69584 4.5
    endloop
  endfacet
  facet normal -1 0 0
    outer loop
      vertex 8.13343 -4.69584 4.5
      vertex 8.13343 4.69584 5.5
      vertex 8.13343 4.69584 4.5
    endloop
  endfacet
  facet normal -1 -0 0
    outer loop
      vertex 8.13343 4.69584 5.5
      vertex 8.13343 -4.69584 4.5
      vertex 8.13343 -4.69584 5.5
    endloop
  endfacet
  facet normal -0.500002 -0.866025 0
    outer loop
      vertex 0 10.5417 5.5
      vertex 9.12936 5.27084 10
      vertex 0 10.5417 10
    endloop
  endfacet
  facet normal -0.500002 -0.866025 -0
    outer loop
      vertex 9.12936 5.27084 10
      vertex 0 10.5417 5.5
      vertex 9.12936 5.27084 5.5
    endloop
  endfacet
  facet normal 1 -0 0
    outer loop
      vertex -9.12936 -5.27084 10
      vertex -9.12936 5.27084 5.5
      vertex -9.12936 5.27084 10
    endloop
  endfacet
  facet normal 1 0 0
    outer loop
      vertex -9.12936 5.27084 5.5
      vertex -9.12936 -5.27084 10
      vertex -9.12936 -5.27084 5.5
    endloop
  endfacet
  facet normal 0.500002 -0.866025 0
    outer loop
      vertex -9.12936 5.27084 5.5
      vertex 0 10.5417 10
      vertex -9.12936 5.27084 10
    endloop
  endfacet
  facet normal 0.500002 -0.866025 0
    outer loop
      vertex 0 10.5417 10
      vertex -9.12936 5.27084 5.5
      vertex 0 10.5417 5.5
    endloop
  endfacet
  facet normal 0 0 1
    outer loop
      vertex 9.12936 5.27084 5.5
      vertex 8.13343 4.69584 5.5
      vertex 9.12936 -5.27084 5.5
    endloop
  endfacet
  facet normal 0 0 1
    outer loop
      vertex 0 10.5417 5.5
      vertex 8.13343 4.69584 5.5
      vertex 9.12936 5.27084 5.5
    endloop
  endfacet
  facet normal 0 0 1
    outer loop
      vertex 0 10.5417 5.5
      vertex -4.11631e-08 9.39168 5.5
      vertex 8.13343 4.69584 5.5
    endloop
  endfacet
  facet normal 0 0 1
    outer loop
      vertex 0 10.5417 5.5
      vertex -8.13343 4.69584 5.5
      vertex -4.11631e-08 9.39168 5.5
    endloop
  endfacet
  facet normal 0 0 1
    outer loop
      vertex -8.13343 4.69584 5.5
      vertex -9.12936 5.27084 5.5
      vertex -8.13343 -4.69584 5.5
    endloop
  endfacet
  facet normal -0 0 1
    outer loop
      vertex -9.12936 5.27084 5.5
      vertex -8.13343 4.69584 5.5
      vertex 0 10.5417 5.5
    endloop
  endfacet
  facet normal -0 0 1
    outer loop
      vertex 8.13343 -4.69584 5.5
      vertex 9.12936 -5.27084 5.5
      vertex 8.13343 4.69584 5.5
    endloop
  endfacet
  facet normal 0 0 1
    outer loop
      vertex 4.11631e-08 -9.39168 5.5
      vertex 9.12936 -5.27084 5.5
      vertex 8.13343 -4.69584 5.5
    endloop
  endfacet
  facet normal -0 0 1
    outer loop
      vertex 4.11631e-08 -9.39168 5.5
      vertex 0 -10.5417 5.5
      vertex 9.12936 -5.27084 5.5
    endloop
  endfacet
  facet normal 0 0 1
    outer loop
      vertex -8.13343 -4.69584 5.5
      vertex 0 -10.5417 5.5
      vertex 4.11631e-08 -9.39168 5.5
    endloop
  endfacet
  facet normal 0 0 1
    outer loop
      vertex -8.13343 -4.69584 5.5
      vertex -9.12936 -5.27084 5.5
      vertex 0 -10.5417 5.5
    endloop
  endfacet
  facet normal 0 0 1
    outer loop
      vertex -9.12936 -5.27084 5.5
      vertex -8.13343 -4.69584 5.5
      vertex -9.12936 5.27084 5.5
    endloop
  endfacet
  facet normal -0.500002 0.866025 0
    outer loop
      vertex 9.12936 -5.27084 5.5
      vertex 0 -10.5417 10
      vertex 9.12936 -5.27084 10
    endloop
  endfacet
  facet normal -0.500002 0.866025 0
    outer loop
      vertex 0 -10.5417 10
      vertex 9.12936 -5.27084 5.5
      vertex 0 -10.5417 5.5
    endloop
  endfacet
  facet normal 0.500002 0.866025 -0
    outer loop
      vertex 0 -10.5417 5.5
      vertex -9.12936 -5.27084 10
      vertex 0 -10.5417 10
    endloop
  endfacet
  facet normal 0.500002 0.866025 0
    outer loop
      vertex -9.12936 -5.27084 10
      vertex 0 -10.5417 5.5
      vertex -9.12936 -5.27084 5.5
    endloop
  endfacet
  facet normal -1 0 0
    outer loop
      vertex 9.12936 -5.27084 5.5
      vertex 9.12936 5.27084 10
      vertex 9.12936 5.27084 5.5
    endloop
  endfacet
  facet normal -1 -0 0
    outer loop
      vertex 9.12936 5.27084 10
      vertex 9.12936 -5.27084 5.5
      vertex 9.12936 -5.27084 10
    endloop
  endfacet
  facet normal 0.500001 0.866025 -0
    outer loop
      vertex 9.99539 5.77084 0
      vertex 0 11.5417 10
      vertex 9.99539 5.77084 10
    endloop
  endfacet
  facet normal 0.500001 0.866025 0
    outer loop
      vertex 0 11.5417 10
      vertex 9.99539 5.77084 0
      vertex 0 11.5417 0
    endloop
  endfacet
  facet normal -1 0 0
    outer loop
      vertex -9.99539 -5.77084 0
      vertex -9.99539 5.77084 10
      vertex -9.99539 5.77084 0
    endloop
  endfacet
  facet normal -1 -0 0
    outer loop
      vertex -9.99539 5.77084 10
      vertex -9.99539 -5.77084 0
      vertex -9.99539 -5.77084 10
    endloop
  endfacet
  facet normal -0.500001 0.866025 0
    outer loop
      vertex 0 11.5417 0
      vertex -9.99539 5.77084 10
      vertex 0 11.5417 10
    endloop
  endfacet
  facet normal -0.500001 0.866025 0
    outer loop
      vertex -9.99539 5.77084 10
      vertex 0 11.5417 0
      vertex -9.99539 5.77084 0
    endloop
  endfacet
  facet normal 0 0 1
    outer loop
      vertex 9.99539 5.77084 10
      vertex 9.12936 5.27084 10
      vertex 9.99539 -5.77084 10
    endloop
  endfacet
  facet normal 0 0 1
    outer loop
      vertex 0 11.5417 10
      vertex 9.12936 5.27084 10
      vertex 9.99539 5.77084 10
    endloop
  endfacet
  facet normal 0 0 1
    outer loop
      vertex 0 11.5417 10
      vertex 0 10.5417 10
      vertex 9.12936 5.27084 10
    endloop
  endfacet
  facet normal 0 0 1
    outer loop
      vertex 0 11.5417 10
      vertex -9.12936 5.27084 10
      vertex 0 10.5417 10
    endloop
  endfacet
  facet normal 0 0 1
    outer loop
      vertex -9.12936 5.27084 10
      vertex -9.99539 5.77084 10
      vertex -9.12936 -5.27084 10
    endloop
  endfacet
  facet normal -0 0 1
    outer loop
      vertex -9.99539 5.77084 10
      vertex -9.12936 5.27084 10
      vertex 0 11.5417 10
    endloop
  endfacet
  facet normal -0 0 1
    outer loop
      vertex 9.12936 -5.27084 10
      vertex 9.99539 -5.77084 10
      vertex 9.12936 5.27084 10
    endloop
  endfacet
  facet normal 0 0 1
    outer loop
      vertex 0 -10.5417 10
      vertex 9.99539 -5.77084 10
      vertex 9.12936 -5.27084 10
    endloop
  endfacet
  facet normal -0 0 1
    outer loop
      vertex 0 -10.5417 10
      vertex 0 -11.5417 10
      vertex 9.99539 -5.77084 10
    endloop
  endfacet
  facet normal 0 0 1
    outer loop
      vertex -9.12936 -5.27084 10
      vertex 0 -11.5417 10
      vertex 0 -10.5417 10
    endloop
  endfacet
  facet normal 0 0 1
    outer loop
      vertex -9.12936 -5.27084 10
      vertex -9.99539 -5.77084 10
      vertex 0 -11.5417 10
    endloop
  endfacet
  facet normal 0 0 1
    outer loop
      vertex -9.99539 -5.77084 10
      vertex -9.12936 -5.27084 10
      vertex -9.99539 5.77084 10
    endloop
  endfacet
  facet normal -0.500001 -0.866025 0
    outer loop
      vertex -9.99539 -5.77084 0
      vertex 0 -11.5417 10
      vertex -9.99539 -5.77084 10
    endloop
  endfacet
  facet normal -0.500001 -0.866025 -0
    outer loop
      vertex 0 -11.5417 10
      vertex -9.99539 -5.77084 0
      vertex 0 -11.5417 0
    endloop
  endfacet
  facet normal 0 0 -1
    outer loop
      vertex 9.99539 -5.77084 0
      vertex 9.12936 -5.27084 0
      vertex 9.99539 5.77084 0
    endloop
  endfacet
  facet normal -0 0 -1
    outer loop
      vertex 9.99539 -5.77084 0
      vertex 4.58177e-07 -10.5417 0
      vertex 9.12936 -5.27084 0
    endloop
  endfacet
  facet normal 0 0 -1
    outer loop
      vertex 0 -11.5417 0
      vertex 4.58177e-07 -10.5417 0
      vertex 9.99539 -5.77084 0
    endloop
  endfacet
  facet normal 0 0 -1
    outer loop
      vertex 0 -11.5417 0
      vertex -9.12936 -5.27084 0
      vertex 4.58177e-07 -10.5417 0
    endloop
  endfacet
  facet normal -0 0 -1
    outer loop
      vertex -9.12936 -5.27084 0
      vertex -9.99539 -5.77084 0
      vertex -9.12936 5.27084 0
    endloop
  endfacet
  facet normal 0 0 -1
    outer loop
      vertex -9.99539 -5.77084 0
      vertex -9.12936 -5.27084 0
      vertex 0 -11.5417 0
    endloop
  endfacet
  facet normal 0 0 -1
    outer loop
      vertex 9.12936 5.27084 0
      vertex 9.99539 5.77084 0
      vertex 9.12936 -5.27084 0
    endloop
  endfacet
  facet normal 0 0 -1
    outer loop
      vertex 9.12936 5.27084 0
      vertex 0 11.5417 0
      vertex 9.99539 5.77084 0
    endloop
  endfacet
  facet normal 0 0 -1
    outer loop
      vertex -4.58177e-07 10.5417 0
      vertex 0 11.5417 0
      vertex 9.12936 5.27084 0
    endloop
  endfacet
  facet normal 0 0 -1
    outer loop
      vertex -9.12936 5.27084 0
      vertex 0 11.5417 0
      vertex -4.58177e-07 10.5417 0
    endloop
  endfacet
  facet normal 0 0 -1
    outer loop
      vertex -9.12936 5.27084 0
      vertex -9.99539 5.77084 0
      vertex 0 11.5417 0
    endloop
  endfacet
  facet normal 0 0 -1
    outer loop
      vertex -9.99539 5.77084 0
      vertex -9.12936 5.27084 0
      vertex -9.99539 -5.77084 0
    endloop
  endfacet
  facet normal 0.500001 -0.866025 0
    outer loop
      vertex 0 -11.5417 0
      vertex 9.99539 -5.77084 10
      vertex 0 -11.5417 10
    endloop
  endfacet
  facet normal 0.500001 -0.866025 0
    outer loop
      vertex 9.99539 -5.77084 10
      vertex 0 -11.5417 0
      vertex 9.99539 -5.77084 0
    endloop
  endfacet
  facet normal 1 -0 0
    outer loop
      vertex 9.99539 -5.77084 10
      vertex 9.99539 5.77084 0
      vertex 9.99539 5.77084 10
    endloop
  endfacet
  facet normal 1 0 0
    outer loop
      vertex 9.99539 5.77084 0
      vertex 9.99539 -5.77084 10
      vertex 9.99539 -5.77084 0
    endloop
  endfacet
endsolid OpenSCAD_Model
