solid OpenSCAD_Model
  facet normal -0.492403 0.866026 0.0868238
    outer loop
      vertex 37.9489 9.64613 11.4063
      vertex 32.4139 5.77084 18.6699
      vertex 42.2575 11.5417 16.9342
    endloop
  endfacet
  facet normal -0.492403 0.866026 0.0868233
    outer loop
      vertex 32.4139 5.77084 18.6699
      vertex 37.9489 9.64613 11.4063
      vertex 30.8777 5.77084 9.95761
    endloop
  endfacet
  facet normal 0.492404 0.866025 -0.0868258
    outer loop
      vertex 42.2575 11.5417 16.9342
      vertex 49.4211 5.77084 0
      vertex 40.4557 10.9275 0.589685
    endloop
  endfacet
  facet normal 0.492404 0.866025 -0.086829
    outer loop
      vertex 40.4557 10.9275 0.589685
      vertex 49.4211 5.77084 0
      vertex 40.4386 10.8781 0
    endloop
  endfacet
  facet normal 0.492406 0.866024 -0.0868243
    outer loop
      vertex 49.4211 5.77084 0
      vertex 42.2575 11.5417 16.9342
      vertex 52.101 5.77084 15.1985
    endloop
  endfacet
  facet normal 0.49243 0.866004 -0.0868869
    outer loop
      vertex 39.2715 11.5417 0
      vertex 40.4557 10.9275 0.589685
      vertex 40.1881 11.0205 0
    endloop
  endfacet
  facet normal 0.492409 0.866022 -0.0868263
    outer loop
      vertex 40.4557 10.9275 0.589685
      vertex 39.2715 11.5417 0
      vertex 42.2575 11.5417 16.9342
    endloop
  endfacet
  facet normal -0.9848 3.08343e-05 0.173689
    outer loop
      vertex 30.9261 -2.79144 10.232
      vertex 30.9044 -4.12482 10.1092
      vertex 31.0173 -2.82314 10.7491
    endloop
  endfacet
  facet normal -0.9848 -3.08343e-05 0.173689
    outer loop
      vertex 30.9044 4.12482 10.1092
      vertex 30.9261 2.79144 10.232
      vertex 31.0173 2.82314 10.7491
    endloop
  endfacet
  facet normal -0.984808 1.74714e-05 0.173647
    outer loop
      vertex 30.9044 4.12482 10.1092
      vertex 32.4139 5.77084 18.6699
      vertex 30.8777 5.77084 9.95761
    endloop
  endfacet
  facet normal -0.984806 -4.63457e-05 0.173659
    outer loop
      vertex 31.0173 2.82314 10.7491
      vertex 32.4139 5.77084 18.6699
      vertex 30.9044 4.12482 10.1092
    endloop
  endfacet
  facet normal -0.98481 2.04631e-05 0.173635
    outer loop
      vertex 30.9714 0 10.4891
      vertex 32.4139 5.77084 18.6699
      vertex 31.0173 2.82314 10.7491
    endloop
  endfacet
  facet normal -0.98481 -2.04631e-05 0.173635
    outer loop
      vertex 32.4139 -5.77084 18.6699
      vertex 30.9714 0 10.4891
      vertex 31.0173 -2.82314 10.7491
    endloop
  endfacet
  facet normal -0.984806 4.63457e-05 0.173659
    outer loop
      vertex 32.4139 -5.77084 18.6699
      vertex 31.0173 -2.82314 10.7491
      vertex 30.9044 -4.12482 10.1092
    endloop
  endfacet
  facet normal -0.984808 -1.74714e-05 0.173647
    outer loop
      vertex 32.4139 -5.77084 18.6699
      vertex 30.9044 -4.12482 10.1092
      vertex 30.8777 -5.77084 9.95761
    endloop
  endfacet
  facet normal -0.984808 0 0.173649
    outer loop
      vertex 30.9714 0 10.4891
      vertex 32.4139 -5.77084 18.6699
      vertex 32.4139 5.77084 18.6699
    endloop
  endfacet
  facet normal -0.492369 0.866046 0.0868192
    outer loop
      vertex 39.2715 11.5417 0
      vertex 40.3524 10.9634 11.8987
      vertex 42.2575 11.5417 16.9342
    endloop
  endfacet
  facet normal -0.492534 0.865951 0.0868296
    outer loop
      vertex 40.3524 10.9634 11.8987
      vertex 39.2715 11.5417 0
      vertex 39.0505 11.416 0
    endloop
  endfacet
  facet normal -0.492421 0.866014 0.0868427
    outer loop
      vertex 42.2575 11.5417 16.9342
      vertex 40.3524 10.9634 11.8987
      vertex 37.9489 9.64613 11.4063
    endloop
  endfacet
  facet normal -0.492403 -0.866026 0.0868238
    outer loop
      vertex 32.4139 -5.77084 18.6699
      vertex 37.9489 -9.64613 11.4063
      vertex 42.2575 -11.5417 16.9342
    endloop
  endfacet
  facet normal -0.492403 -0.866026 0.0868233
    outer loop
      vertex 37.9489 -9.64613 11.4063
      vertex 32.4139 -5.77084 18.6699
      vertex 30.8777 -5.77084 9.95761
    endloop
  endfacet
  facet normal 0.17366 0 0.984806
    outer loop
      vertex 52.101 5.77084 15.1985
      vertex 51.2481 5.27084 15.3489
      vertex 52.101 -5.77084 15.1985
    endloop
  endfacet
  facet normal 0.17367 -1.7367e-05 0.984804
    outer loop
      vertex 51.2481 5.27084 15.3489
      vertex 52.101 5.77084 15.1985
      vertex 50.3953 5.77084 15.4993
    endloop
  endfacet
  facet normal 0.17366 -0 0.984806
    outer loop
      vertex 51.2481 -5.27084 15.3489
      vertex 52.101 -5.77084 15.1985
      vertex 51.2481 5.27084 15.3489
    endloop
  endfacet
  facet normal 0.17367 1.7367e-05 0.984804
    outer loop
      vertex 52.101 -5.77084 15.1985
      vertex 51.2481 -5.27084 15.3489
      vertex 50.3953 -5.77084 15.4993
    endloop
  endfacet
  facet normal 0.17366 0 0.984806
    outer loop
      vertex 33.2668 5.27084 18.5195
      vertex 32.4139 5.77084 18.6699
      vertex 33.2668 -5.27084 18.5195
    endloop
  endfacet
  facet normal 0.17366 4.74312e-15 0.984806
    outer loop
      vertex 32.4139 5.77084 18.6699
      vertex 33.2668 5.27084 18.5195
      vertex 34.1197 5.77084 18.3691
    endloop
  endfacet
  facet normal 0.17366 -4.74312e-15 0.984806
    outer loop
      vertex 33.2668 -5.27084 18.5195
      vertex 32.4139 -5.77084 18.6699
      vertex 34.1197 -5.77084 18.3691
    endloop
  endfacet
  facet normal 0.17366 -0 0.984806
    outer loop
      vertex 32.4139 -5.77084 18.6699
      vertex 33.2668 -5.27084 18.5195
      vertex 32.4139 5.77084 18.6699
    endloop
  endfacet
  facet normal 0.17367 3.41472e-05 0.984804
    outer loop
      vertex 42.2575 11.5417 16.9342
      vertex 50.3953 5.77084 15.4993
      vertex 52.101 5.77084 15.1985
    endloop
  endfacet
  facet normal 0.173647 0 0.984808
    outer loop
      vertex 42.2575 11.5417 16.9342
      vertex 42.2575 10.5417 16.9342
      vertex 50.3953 5.77084 15.4993
    endloop
  endfacet
  facet normal 0.173647 0 0.984808
    outer loop
      vertex 42.2575 11.5417 16.9342
      vertex 34.1197 5.77084 18.3691
      vertex 42.2575 10.5417 16.9342
    endloop
  endfacet
  facet normal 0.17366 -1.97903e-05 0.984806
    outer loop
      vertex 34.1197 5.77084 18.3691
      vertex 42.2575 11.5417 16.9342
      vertex 32.4139 5.77084 18.6699
    endloop
  endfacet
  facet normal 0.984808 0 -0.173648
    outer loop
      vertex 52.101 -5.77084 15.1985
      vertex 49.4211 5.77084 0
      vertex 52.101 5.77084 15.1985
    endloop
  endfacet
  facet normal 0.984808 0 -0.173648
    outer loop
      vertex 49.4211 5.77084 0
      vertex 52.101 -5.77084 15.1985
      vertex 49.4211 -5.77084 0
    endloop
  endfacet
  facet normal 0.173647 -0 0.984808
    outer loop
      vertex 42.2575 -11.5417 16.9342
      vertex 50.3953 -5.77084 15.4993
      vertex 42.2575 -10.5417 16.9342
    endloop
  endfacet
  facet normal 0.17367 -3.41472e-05 0.984804
    outer loop
      vertex 50.3953 -5.77084 15.4993
      vertex 42.2575 -11.5417 16.9342
      vertex 52.101 -5.77084 15.1985
    endloop
  endfacet
  facet normal 0.173647 0 0.984808
    outer loop
      vertex 34.1197 -5.77084 18.3691
      vertex 42.2575 -11.5417 16.9342
      vertex 42.2575 -10.5417 16.9342
    endloop
  endfacet
  facet normal 0.17366 1.97903e-05 0.984806
    outer loop
      vertex 42.2575 -11.5417 16.9342
      vertex 34.1197 -5.77084 18.3691
      vertex 32.4139 -5.77084 18.6699
    endloop
  endfacet
  facet normal 0.492404 -0.866025 -0.0868258
    outer loop
      vertex 49.4211 -5.77084 0
      vertex 42.2575 -11.5417 16.9342
      vertex 40.4557 -10.9275 0.589685
    endloop
  endfacet
  facet normal 0.492409 -0.866022 -0.0868263
    outer loop
      vertex 39.2715 -11.5417 0
      vertex 40.4557 -10.9275 0.589685
      vertex 42.2575 -11.5417 16.9342
    endloop
  endfacet
  facet normal 0.49243 -0.866004 -0.0868869
    outer loop
      vertex 40.4557 -10.9275 0.589685
      vertex 39.2715 -11.5417 0
      vertex 40.1881 -11.0205 0
    endloop
  endfacet
  facet normal 0.492404 -0.866025 -0.086829
    outer loop
      vertex 49.4211 -5.77084 0
      vertex 40.4557 -10.9275 0.589685
      vertex 40.4386 -10.8781 0
    endloop
  endfacet
  facet normal 0.492406 -0.866024 -0.0868243
    outer loop
      vertex 42.2575 -11.5417 16.9342
      vertex 49.4211 -5.77084 0
      vertex 52.101 -5.77084 15.1985
    endloop
  endfacet
  facet normal -0.492421 -0.866014 0.0868427
    outer loop
      vertex 42.2575 -11.5417 16.9342
      vertex 37.9489 -9.64613 11.4063
      vertex 40.3524 -10.9634 11.8987
    endloop
  endfacet
  facet normal -0.492534 -0.865951 0.0868296
    outer loop
      vertex 39.2715 -11.5417 0
      vertex 40.3524 -10.9634 11.8987
      vertex 39.0505 -11.416 0
    endloop
  endfacet
  facet normal -0.492369 -0.866046 0.0868192
    outer loop
      vertex 40.3524 -10.9634 11.8987
      vertex 39.2715 -11.5417 0
      vertex 42.2575 -11.5417 16.9342
    endloop
  endfacet
  facet normal 0 0 -1
    outer loop
      vertex 40.1881 -11.0205 0
      vertex 40.4386 -10.8781 0
      vertex 40.4557 -10.9275 0
    endloop
  endfacet
  facet normal 0 0 -1
    outer loop
      vertex 39.0505 -11.416 0
      vertex 40.4386 -10.8781 0
      vertex 40.1881 -11.0205 0
    endloop
  endfacet
  facet normal 0 0 -1
    outer loop
      vertex 39.0505 -11.416 0
      vertex 36.6566 0 0
      vertex 40.4386 -10.8781 0
    endloop
  endfacet
  facet normal 0 0 -1
    outer loop
      vertex 39.0505 -11.416 0
      vertex 22.8971 0 0
      vertex 36.6566 0 0
    endloop
  endfacet
  facet normal 0 0 -1
    outer loop
      vertex 16.2106 -19.3568 0
      vertex 22.8971 0 0
      vertex 39.0505 -11.416 0
    endloop
  endfacet
  facet normal 0 0 -1
    outer loop
      vertex 11.7493 -6.52497 0
      vertex 22.8971 0 0
      vertex 16.2106 -19.3568 0
    endloop
  endfacet
  facet normal 0 0 -1
    outer loop
      vertex 22.8971 0 0
      vertex 11.7493 -6.52497 0
      vertex 10.9276 -4.16147 0
    endloop
  endfacet
  facet normal 0 0 -1
    outer loop
      vertex 40.4386 10.8781 0
      vertex 40.1881 11.0205 0
      vertex 40.4557 10.9275 0
    endloop
  endfacet
  facet normal 0 0 -1
    outer loop
      vertex 40.4386 10.8781 0
      vertex 39.0505 11.416 0
      vertex 40.1881 11.0205 0
    endloop
  endfacet
  facet normal 0 0 -1
    outer loop
      vertex 36.6566 0 0
      vertex 39.0505 11.416 0
      vertex 40.4386 10.8781 0
    endloop
  endfacet
  facet normal 0 0 -1
    outer loop
      vertex 22.8971 0 0
      vertex 39.0505 11.416 0
      vertex 36.6566 0 0
    endloop
  endfacet
  facet normal 0 0 -1
    outer loop
      vertex 22.8971 0 0
      vertex 16.2106 19.3568 0
      vertex 39.0505 11.416 0
    endloop
  endfacet
  facet normal 0 0 -1
    outer loop
      vertex 22.8971 0 0
      vertex 11.7493 6.52497 0
      vertex 16.2106 19.3568 0
    endloop
  endfacet
  facet normal 0 -0 -1
    outer loop
      vertex 11.7493 6.52497 0
      vertex 22.8971 0 0
      vertex 10.9276 4.16147 0
    endloop
  endfacet
  facet normal 0 -0 -1
    outer loop
      vertex 39.2715 11.5417 0
      vertex 40.1881 11.0205 0
      vertex 39.0505 11.416 0
    endloop
  endfacet
  facet normal 0 0 -1
    outer loop
      vertex 40.1881 -11.0205 0
      vertex 39.2715 -11.5417 0
      vertex 39.0505 -11.416 0
    endloop
  endfacet
  facet normal 0 0 -1
    outer loop
      vertex 36.6566 0 0
      vertex 49.4211 -5.77084 0
      vertex 40.4386 -10.8781 0
    endloop
  endfacet
  facet normal 0 0 -1
    outer loop
      vertex 49.4211 -5.77084 0
      vertex 36.6566 0 0
      vertex 49.4211 5.77084 0
    endloop
  endfacet
  facet normal -0 0 -1
    outer loop
      vertex 49.4211 5.77084 0
      vertex 36.6566 0 0
      vertex 40.4386 10.8781 0
    endloop
  endfacet
  facet normal -0.944543 0.328388 0
    outer loop
      vertex 10.2453 13.7055 3.17064
      vertex 12.6415 20.5977 4.03758
      vertex 12.6415 20.5977 3.17064
    endloop
  endfacet
  facet normal -0.944542 0.328392 0
    outer loop
      vertex 7.35851 5.40233 4.03758
      vertex 10.2453 13.7055 3.17064
      vertex 7.35851 5.40233 3.17064
    endloop
  endfacet
  facet normal -0.944542 0.32839 -1.99387e-05
    outer loop
      vertex 10.2453 13.7055 3.17064
      vertex 7.35851 5.40233 4.03758
      vertex 12.6415 20.5977 4.03758
    endloop
  endfacet
  facet normal 0.944986 -0.327111 0
    outer loop
      vertex 40.4557 10.9275 0.589685
      vertex 40.4386 10.8781 0
      vertex 40.4557 10.9275 0
    endloop
  endfacet
  facet normal -0.32839 -0.944542 0
    outer loop
      vertex 7.35851 5.40233 3.17064
      vertex 9.37582 4.70097 4.60985
      vertex 7.35851 5.40233 4.03758
    endloop
  endfacet
  facet normal -0.328389 -0.944543 -1.44765e-06
    outer loop
      vertex 10.9276 4.16147 0
      vertex 9.37582 4.70097 4.60985
      vertex 7.35851 5.40233 3.17064
    endloop
  endfacet
  facet normal -0.32839 -0.944542 -1.9458e-06
    outer loop
      vertex 9.37582 4.70097 4.60985
      vertex 10.9276 4.16147 0
      vertex 22.8971 0 8.4456
    endloop
  endfacet
  facet normal -0.328391 -0.944542 -0
    outer loop
      vertex 22.8971 0 8.4456
      vertex 10.9276 4.16147 0
      vertex 22.8971 0 0
    endloop
  endfacet
  facet normal -0.328392 -0.944542 1.42143e-05
    outer loop
      vertex 31.0173 -2.82314 10.7491
      vertex 22.8971 0 8.4456
      vertex 30.9261 -2.79144 10.232
    endloop
  endfacet
  facet normal 0.328274 0.944582 -0
    outer loop
      vertex 40.4557 10.9275 0
      vertex 40.1881 11.0205 0
      vertex 40.4557 10.9275 0.589685
    endloop
  endfacet
  facet normal 0.328392 0.944542 -4.56051e-06
    outer loop
      vertex 16.2106 19.3568 0
      vertex 12.6415 20.5977 4.03758
      vertex 40.3524 10.9634 11.8987
    endloop
  endfacet
  facet normal 0.328391 0.944542 -2.74147e-06
    outer loop
      vertex 16.2106 19.3568 0
      vertex 40.3524 10.9634 11.8987
      vertex 39.0505 11.416 0
    endloop
  endfacet
  facet normal 0.328396 0.94454 0
    outer loop
      vertex 12.6415 20.5977 4.03758
      vertex 16.2106 19.3568 0
      vertex 12.6415 20.5977 3.17064
    endloop
  endfacet
  facet normal -0.244458 0.0849805 0.965929
    outer loop
      vertex 30.9044 4.12482 10.1092
      vertex 22.8971 0 8.4456
      vertex 30.9261 2.79144 10.232
    endloop
  endfacet
  facet normal -0.244465 0.0849961 0.965926
    outer loop
      vertex 22.8971 0 8.4456
      vertex 30.9044 4.12482 10.1092
      vertex 9.37582 4.70097 4.60985
    endloop
  endfacet
  facet normal -0.244464 0.0849835 0.965927
    outer loop
      vertex 31.0173 -2.82314 10.7491
      vertex 30.9714 0 10.4891
      vertex 22.8971 0 8.4456
    endloop
  endfacet
  facet normal -0.244468 0.0849914 0.965925
    outer loop
      vertex 12.6415 20.5977 4.03758
      vertex 37.9489 9.64613 11.4063
      vertex 40.3524 10.9634 11.8987
    endloop
  endfacet
  facet normal -0.244469 0.0849897 0.965925
    outer loop
      vertex 37.9489 9.64613 11.4063
      vertex 12.6415 20.5977 4.03758
      vertex 30.8777 5.77084 9.95761
    endloop
  endfacet
  facet normal -0.244466 0.0849934 0.965926
    outer loop
      vertex 9.37582 4.70097 4.60985
      vertex 30.8777 5.77084 9.95761
      vertex 12.6415 20.5977 4.03758
    endloop
  endfacet
  facet normal -0.244466 0.0849914 0.965926
    outer loop
      vertex 30.8777 5.77084 9.95761
      vertex 9.37582 4.70097 4.60985
      vertex 30.9044 4.12482 10.1092
    endloop
  endfacet
  facet normal -0.244464 0.0849931 0.965926
    outer loop
      vertex 9.37582 4.70097 4.60985
      vertex 12.6415 20.5977 4.03758
      vertex 7.35851 5.40233 4.03758
    endloop
  endfacet
  facet normal -0.944542 -0.328392 0
    outer loop
      vertex 10.2453 -13.7055 3.17064
      vertex 7.35851 -5.40233 4.03758
      vertex 7.35851 -5.40233 3.17064
    endloop
  endfacet
  facet normal -0.944543 -0.328388 -0
    outer loop
      vertex 12.6415 -20.5977 4.03758
      vertex 10.2453 -13.7055 3.17064
      vertex 12.6415 -20.5977 3.17064
    endloop
  endfacet
  facet normal -0.944542 -0.32839 -1.99387e-05
    outer loop
      vertex 10.2453 -13.7055 3.17064
      vertex 12.6415 -20.5977 4.03758
      vertex 7.35851 -5.40233 4.03758
    endloop
  endfacet
  facet normal 0.944986 0.327111 0
    outer loop
      vertex 40.4557 -10.9275 0.589685
      vertex 40.4557 -10.9275 0
      vertex 40.4386 -10.8781 0
    endloop
  endfacet
  facet normal -0.32839 0.944542 0
    outer loop
      vertex 9.37582 -4.70097 4.60985
      vertex 7.35851 -5.40233 3.17064
      vertex 7.35851 -5.40233 4.03758
    endloop
  endfacet
  facet normal -0.32839 0.944542 -1.9458e-06
    outer loop
      vertex 10.9276 -4.16147 0
      vertex 9.37582 -4.70097 4.60985
      vertex 22.8971 0 8.4456
    endloop
  endfacet
  facet normal -0.328391 0.944542 0
    outer loop
      vertex 10.9276 -4.16147 0
      vertex 22.8971 0 8.4456
      vertex 22.8971 0 0
    endloop
  endfacet
  facet normal -0.328389 0.944543 -1.44765e-06
    outer loop
      vertex 9.37582 -4.70097 4.60985
      vertex 10.9276 -4.16147 0
      vertex 7.35851 -5.40233 3.17064
    endloop
  endfacet
  facet normal -0.328392 0.944542 1.42143e-05
    outer loop
      vertex 31.0173 2.82314 10.7491
      vertex 30.9261 2.79144 10.232
      vertex 22.8971 0 8.4456
    endloop
  endfacet
  facet normal 0.328274 -0.944582 0
    outer loop
      vertex 40.4557 -10.9275 0
      vertex 40.4557 -10.9275 0.589685
      vertex 40.1881 -11.0205 0
    endloop
  endfacet
  facet normal 0.328396 -0.94454 0
    outer loop
      vertex 16.2106 -19.3568 0
      vertex 12.6415 -20.5977 4.03758
      vertex 12.6415 -20.5977 3.17064
    endloop
  endfacet
  facet normal 0.328392 -0.944542 -4.56051e-06
    outer loop
      vertex 12.6415 -20.5977 4.03758
      vertex 16.2106 -19.3568 0
      vertex 40.3524 -10.9634 11.8987
    endloop
  endfacet
  facet normal 0.328391 -0.944542 -2.74147e-06
    outer loop
      vertex 40.3524 -10.9634 11.8987
      vertex 16.2106 -19.3568 0
      vertex 39.0505 -11.416 0
    endloop
  endfacet
  facet normal -0.244458 -0.0849805 0.965929
    outer loop
      vertex 22.8971 0 8.4456
      vertex 30.9044 -4.12482 10.1092
      vertex 30.9261 -2.79144 10.232
    endloop
  endfacet
  facet normal -0.244465 -0.0849961 0.965926
    outer loop
      vertex 30.9044 -4.12482 10.1092
      vertex 22.8971 0 8.4456
      vertex 9.37582 -4.70097 4.60985
    endloop
  endfacet
  facet normal -0.244464 -0.0849835 0.965927
    outer loop
      vertex 31.0173 2.82314 10.7491
      vertex 22.8971 0 8.4456
      vertex 30.9714 0 10.4891
    endloop
  endfacet
  facet normal -0.244466 -0.0849914 0.965926
    outer loop
      vertex 9.37582 -4.70097 4.60985
      vertex 30.8777 -5.77084 9.95761
      vertex 30.9044 -4.12482 10.1092
    endloop
  endfacet
  facet normal -0.244466 -0.0849934 0.965926
    outer loop
      vertex 30.8777 -5.77084 9.95761
      vertex 9.37582 -4.70097 4.60985
      vertex 12.6415 -20.5977 4.03758
    endloop
  endfacet
  facet normal -0.244464 -0.0849931 0.965926
    outer loop
      vertex 12.6415 -20.5977 4.03758
      vertex 9.37582 -4.70097 4.60985
      vertex 7.35851 -5.40233 4.03758
    endloop
  endfacet
  facet normal -0.244469 -0.0849897 0.965925
    outer loop
      vertex 12.6415 -20.5977 4.03758
      vertex 37.9489 -9.64613 11.4063
      vertex 30.8777 -5.77084 9.95761
    endloop
  endfacet
  facet normal -0.244468 -0.0849914 0.965925
    outer loop
      vertex 37.9489 -9.64613 11.4063
      vertex 12.6415 -20.5977 4.03758
      vertex 40.3524 -10.9634 11.8987
    endloop
  endfacet
  facet normal -0.492407 -0.866024 0.0868234
    outer loop
      vertex 40.0277 9.39168 4.28838
      vertex 48.891 4.69584 7.71653
      vertex 40.8812 9.39168 9.12889
    endloop
  endfacet
  facet normal -0.492408 -0.866023 0.0868224
    outer loop
      vertex 47.7067 4.69584 1
      vertex 40.0277 9.39168 4.28838
      vertex 39.932 9.11642 1
    endloop
  endfacet
  facet normal -0.492407 -0.866023 0.0868243
    outer loop
      vertex 40.0277 9.39168 4.28838
      vertex 47.7067 4.69584 1
      vertex 48.891 4.69584 7.71653
    endloop
  endfacet
  facet normal 0.984805 -9.30646e-06 -0.173663
    outer loop
      vertex 32.8713 4.69584 10.5412
      vertex 32.6849 4.58376 9.48417
      vertex 32.3625 4.69584 7.6559
    endloop
  endfacet
  facet normal 0.984805 2.49143e-05 -0.173666
    outer loop
      vertex 32.8713 4.69584 10.5412
      vertex 32.6946 3.98741 9.53909
      vertex 32.6849 4.58376 9.48417
    endloop
  endfacet
  facet normal 0.984806 1.41459e-05 -0.173659
    outer loop
      vertex 32.8713 4.69584 10.5412
      vertex 32.7981 2.38355 10.1259
      vertex 32.6946 3.98741 9.53909
    endloop
  endfacet
  facet normal 0.984819 0 -0.173582
    outer loop
      vertex 32.7981 -2.38355 10.1259
      vertex 32.7981 2.38355 10.1259
      vertex 32.8713 4.69584 10.5412
    endloop
  endfacet
  facet normal 0.984742 0 -0.174021
    outer loop
      vertex 32.7981 2.38355 10.1259
      vertex 32.7981 -2.38355 10.1259
      vertex 32.7593 0 9.90634
    endloop
  endfacet
  facet normal 0.984806 -1.41459e-05 -0.173659
    outer loop
      vertex 32.8713 -4.69584 10.5412
      vertex 32.6946 -3.98741 9.53909
      vertex 32.7981 -2.38355 10.1259
    endloop
  endfacet
  facet normal 0.984819 0 -0.173582
    outer loop
      vertex 32.8713 -4.69584 10.5412
      vertex 32.7981 -2.38355 10.1259
      vertex 32.8713 4.69584 10.5412
    endloop
  endfacet
  facet normal 0.984805 -2.49143e-05 -0.173666
    outer loop
      vertex 32.6946 -3.98741 9.53909
      vertex 32.8713 -4.69584 10.5412
      vertex 32.6849 -4.58376 9.48417
    endloop
  endfacet
  facet normal 0.984805 9.30646e-06 -0.173663
    outer loop
      vertex 32.6849 -4.58376 9.48417
      vertex 32.8713 -4.69584 10.5412
      vertex 32.3625 -4.69584 7.6559
    endloop
  endfacet
  facet normal 0.984803 7.97761e-06 -0.173675
    outer loop
      vertex 32.6946 3.98741 9.53909
      vertex 32.7981 2.38355 10.1259
      vertex 32.7211 2.35678 9.68928
    endloop
  endfacet
  facet normal 0.984803 -7.97761e-06 -0.173675
    outer loop
      vertex 32.7211 -2.35678 9.68928
      vertex 32.7981 -2.38355 10.1259
      vertex 32.6946 -3.98741 9.53909
    endloop
  endfacet
  facet normal 0.492399 -0.866025 -0.0868557
    outer loop
      vertex 32.8713 4.69584 10.5412
      vertex 33.7406 5.27542 9.6905
      vertex 35.5703 6.27815 10.0653
    endloop
  endfacet
  facet normal 0.492416 -0.866018 -0.0868337
    outer loop
      vertex 32.3625 4.69584 7.6559
      vertex 33.7406 5.27542 9.6905
      vertex 32.8713 4.69584 10.5412
    endloop
  endfacet
  facet normal 0.492402 -0.866026 -0.0868244
    outer loop
      vertex 32.7897 5.60603 1
      vertex 32.3625 4.69584 7.6559
      vertex 31.6342 4.94904 1
    endloop
  endfacet
  facet normal 0.492405 -0.866025 -0.086824
    outer loop
      vertex 32.3625 4.69584 7.6559
      vertex 32.7897 5.60603 1
      vertex 33.7406 5.27542 9.6905
    endloop
  endfacet
  facet normal 0.492411 -0.866021 -0.0868241
    outer loop
      vertex 40.0277 9.39168 4.28838
      vertex 40.8812 9.39168 9.12889
      vertex 39.8092 8.7632 9.31792
    endloop
  endfacet
  facet normal 0.492399 0.866025 -0.0868557
    outer loop
      vertex 33.7406 -5.27542 9.6905
      vertex 32.8713 -4.69584 10.5412
      vertex 35.5703 -6.27815 10.0653
    endloop
  endfacet
  facet normal 0.492416 0.866018 -0.0868337
    outer loop
      vertex 33.7406 -5.27542 9.6905
      vertex 32.3625 -4.69584 7.6559
      vertex 32.8713 -4.69584 10.5412
    endloop
  endfacet
  facet normal 0.492405 0.866025 -0.086824
    outer loop
      vertex 32.7897 -5.60603 1
      vertex 32.3625 -4.69584 7.6559
      vertex 33.7406 -5.27542 9.6905
    endloop
  endfacet
  facet normal 0.492402 0.866026 -0.0868244
    outer loop
      vertex 32.3625 -4.69584 7.6559
      vertex 32.7897 -5.60603 1
      vertex 31.6342 -4.94904 1
    endloop
  endfacet
  facet normal 0.492411 0.866021 -0.0868241
    outer loop
      vertex 40.8812 -9.39168 9.12889
      vertex 40.0277 -9.39168 4.28838
      vertex 39.8092 -8.7632 9.31792
    endloop
  endfacet
  facet normal -0.492407 0.866024 0.0868234
    outer loop
      vertex 48.891 -4.69584 7.71653
      vertex 40.0277 -9.39168 4.28838
      vertex 40.8812 -9.39168 9.12889
    endloop
  endfacet
  facet normal -0.492407 0.866023 0.0868243
    outer loop
      vertex 47.7067 -4.69584 1
      vertex 40.0277 -9.39168 4.28838
      vertex 48.891 -4.69584 7.71653
    endloop
  endfacet
  facet normal -0.492408 0.866023 0.0868224
    outer loop
      vertex 40.0277 -9.39168 4.28838
      vertex 47.7067 -4.69584 1
      vertex 39.932 -9.11642 1
    endloop
  endfacet
  facet normal -0.984808 0 0.173647
    outer loop
      vertex 47.7067 -4.69584 1
      vertex 48.891 4.69584 7.71653
      vertex 47.7067 4.69584 1
    endloop
  endfacet
  facet normal -0.984808 0 0.173647
    outer loop
      vertex 48.891 4.69584 7.71653
      vertex 47.7067 -4.69584 1
      vertex 48.891 -4.69584 7.71653
    endloop
  endfacet
  facet normal -0.492405 -0.866024 0.0868252
    outer loop
      vertex 40.8812 10.5417 9.12889
      vertex 50.3953 5.77084 15.4993
      vertex 42.2575 10.5417 16.9342
    endloop
  endfacet
  facet normal -0.492407 -0.866023 0.086829
    outer loop
      vertex 49.8718 5.27084 7.54359
      vertex 50.3953 5.77084 15.4993
      vertex 40.8812 10.5417 9.12889
    endloop
  endfacet
  facet normal -0.492431 -0.866009 0.0868298
    outer loop
      vertex 50.3953 5.77084 15.4993
      vertex 49.8718 5.27084 7.54359
      vertex 51.2481 5.27084 15.3489
    endloop
  endfacet
  facet normal 0.984807 0 -0.17365
    outer loop
      vertex 33.2668 -5.27084 18.5195
      vertex 31.8905 5.27084 10.7142
      vertex 33.2668 5.27084 18.5195
    endloop
  endfacet
  facet normal 0.984807 0 -0.17365
    outer loop
      vertex 31.8905 5.27084 10.7142
      vertex 33.2668 -5.27084 18.5195
      vertex 31.8905 -5.27084 10.7142
    endloop
  endfacet
  facet normal 0.492405 -0.866024 -0.0868271
    outer loop
      vertex 34.1197 5.77084 18.3691
      vertex 40.1799 9.96464 10.9076
      vertex 42.2575 10.5417 16.9342
    endloop
  endfacet
  facet normal 0.492389 -0.866034 -0.0868225
    outer loop
      vertex 31.8905 5.27084 10.7142
      vertex 34.1197 5.77084 18.3691
      vertex 33.2668 5.27084 18.5195
    endloop
  endfacet
  facet normal 0.492405 -0.866025 -0.0868276
    outer loop
      vertex 34.1197 5.77084 18.3691
      vertex 31.8905 5.27084 10.7142
      vertex 35.8381 7.58516 10.0181
    endloop
  endfacet
  facet normal 0.492404 -0.866025 -0.0868277
    outer loop
      vertex 34.1197 5.77084 18.3691
      vertex 35.8381 7.58516 10.0181
      vertex 40.1799 9.96464 10.9076
    endloop
  endfacet
  facet normal 0.492436 -0.866009 -0.086801
    outer loop
      vertex 40.8812 10.5417 9.12889
      vertex 40.1799 9.96464 10.9076
      vertex 40.0023 10.0264 9.28387
    endloop
  endfacet
  facet normal 0.492396 -0.86603 -0.0868235
    outer loop
      vertex 40.1799 9.96464 10.9076
      vertex 40.8812 10.5417 9.12889
      vertex 42.2575 10.5417 16.9342
    endloop
  endfacet
  facet normal -0.984807 0 0.17365
    outer loop
      vertex 49.8718 -5.27084 7.54359
      vertex 51.2481 5.27084 15.3489
      vertex 49.8718 5.27084 7.54359
    endloop
  endfacet
  facet normal -0.984807 0 0.17365
    outer loop
      vertex 51.2481 5.27084 15.3489
      vertex 49.8718 -5.27084 7.54359
      vertex 51.2481 -5.27084 15.3489
    endloop
  endfacet
  facet normal 0.173647 0 0.984808
    outer loop
      vertex 49.8718 5.27084 7.54359
      vertex 48.891 4.69584 7.71653
      vertex 49.8718 -5.27084 7.54359
    endloop
  endfacet
  facet normal 0.17365 -0 0.984807
    outer loop
      vertex 40.8812 9.39168 9.12889
      vertex 49.8718 5.27084 7.54359
      vertex 40.8812 10.5417 9.12889
    endloop
  endfacet
  facet normal 0.173648 -2.9803e-06 0.984808
    outer loop
      vertex 49.8718 5.27084 7.54359
      vertex 40.8812 9.39168 9.12889
      vertex 48.891 4.69584 7.71653
    endloop
  endfacet
  facet normal 0.173648 0 0.984808
    outer loop
      vertex 40.8812 10.5417 9.12889
      vertex 40.2218 9.95009 9.24516
      vertex 40.8812 9.39168 9.12889
    endloop
  endfacet
  facet normal 0.173668 -2.24588e-05 0.984804
    outer loop
      vertex 40.2218 9.95009 9.24516
      vertex 40.8812 10.5417 9.12889
      vertex 40.0023 10.0264 9.28387
    endloop
  endfacet
  facet normal 0.173647 -0 0.984808
    outer loop
      vertex 48.891 -4.69584 7.71653
      vertex 49.8718 -5.27084 7.54359
      vertex 48.891 4.69584 7.71653
    endloop
  endfacet
  facet normal 0.173648 2.9803e-06 0.984808
    outer loop
      vertex 40.8812 -9.39168 9.12889
      vertex 49.8718 -5.27084 7.54359
      vertex 48.891 -4.69584 7.71653
    endloop
  endfacet
  facet normal 0.17365 0 0.984807
    outer loop
      vertex 40.8812 -9.39168 9.12889
      vertex 40.8812 -10.5417 9.12889
      vertex 49.8718 -5.27084 7.54359
    endloop
  endfacet
  facet normal 0.173648 0 0.984808
    outer loop
      vertex 40.8812 -9.39168 9.12889
      vertex 40.2218 -9.95009 9.24516
      vertex 40.8812 -10.5417 9.12889
    endloop
  endfacet
  facet normal 0.173652 -4.80429e-06 0.984807
    outer loop
      vertex 40.2218 -9.95009 9.24516
      vertex 40.8812 -9.39168 9.12889
      vertex 39.8092 -8.7632 9.31792
    endloop
  endfacet
  facet normal 0.173652 4.80429e-06 0.984807
    outer loop
      vertex 40.8812 9.39168 9.12889
      vertex 40.2218 9.95009 9.24516
      vertex 39.8092 8.7632 9.31792
    endloop
  endfacet
  facet normal 0.173668 2.24588e-05 0.984804
    outer loop
      vertex 40.8812 -10.5417 9.12889
      vertex 40.2218 -9.95009 9.24516
      vertex 40.0023 -10.0264 9.28387
    endloop
  endfacet
  facet normal 0.173667 -1.92762e-05 0.984804
    outer loop
      vertex 31.8905 5.27084 10.7142
      vertex 35.5703 6.27815 10.0653
      vertex 35.8381 7.58516 10.0181
    endloop
  endfacet
  facet normal 0.173705 0 0.984798
    outer loop
      vertex 32.8713 4.69584 10.5412
      vertex 31.8905 5.27084 10.7142
      vertex 32.8713 -4.69584 10.5412
    endloop
  endfacet
  facet normal 0.173676 -5.21234e-05 0.984803
    outer loop
      vertex 35.5703 6.27815 10.0653
      vertex 31.8905 5.27084 10.7142
      vertex 32.8713 4.69584 10.5412
    endloop
  endfacet
  facet normal 0.173676 5.21234e-05 0.984803
    outer loop
      vertex 31.8905 -5.27084 10.7142
      vertex 35.5703 -6.27815 10.0653
      vertex 32.8713 -4.69584 10.5412
    endloop
  endfacet
  facet normal 0.173667 1.92762e-05 0.984804
    outer loop
      vertex 35.5703 -6.27815 10.0653
      vertex 31.8905 -5.27084 10.7142
      vertex 35.8381 -7.58516 10.0181
    endloop
  endfacet
  facet normal 0.173705 -0 0.984798
    outer loop
      vertex 31.8905 -5.27084 10.7142
      vertex 32.8713 -4.69584 10.5412
      vertex 31.8905 5.27084 10.7142
    endloop
  endfacet
  facet normal -0.492405 0.866024 0.0868252
    outer loop
      vertex 50.3953 -5.77084 15.4993
      vertex 40.8812 -10.5417 9.12889
      vertex 42.2575 -10.5417 16.9342
    endloop
  endfacet
  facet normal -0.492431 0.866009 0.0868298
    outer loop
      vertex 49.8718 -5.27084 7.54359
      vertex 50.3953 -5.77084 15.4993
      vertex 51.2481 -5.27084 15.3489
    endloop
  endfacet
  facet normal -0.492407 0.866023 0.086829
    outer loop
      vertex 50.3953 -5.77084 15.4993
      vertex 49.8718 -5.27084 7.54359
      vertex 40.8812 -10.5417 9.12889
    endloop
  endfacet
  facet normal 0.492396 0.86603 -0.0868235
    outer loop
      vertex 40.8812 -10.5417 9.12889
      vertex 40.1799 -9.96464 10.9076
      vertex 42.2575 -10.5417 16.9342
    endloop
  endfacet
  facet normal 0.492436 0.866009 -0.086801
    outer loop
      vertex 40.1799 -9.96464 10.9076
      vertex 40.8812 -10.5417 9.12889
      vertex 40.0023 -10.0264 9.28387
    endloop
  endfacet
  facet normal 0.492405 0.866024 -0.0868271
    outer loop
      vertex 40.1799 -9.96464 10.9076
      vertex 34.1197 -5.77084 18.3691
      vertex 42.2575 -10.5417 16.9342
    endloop
  endfacet
  facet normal 0.492404 0.866025 -0.0868277
    outer loop
      vertex 35.8381 -7.58516 10.0181
      vertex 34.1197 -5.77084 18.3691
      vertex 40.1799 -9.96464 10.9076
    endloop
  endfacet
  facet normal 0.492405 0.866025 -0.0868276
    outer loop
      vertex 31.8905 -5.27084 10.7142
      vertex 34.1197 -5.77084 18.3691
      vertex 35.8381 -7.58516 10.0181
    endloop
  endfacet
  facet normal 0.492389 0.866034 -0.0868225
    outer loop
      vertex 34.1197 -5.77084 18.3691
      vertex 31.8905 -5.27084 10.7142
      vertex 33.2668 -5.27084 18.5195
    endloop
  endfacet
  facet normal -0 0 1
    outer loop
      vertex 32.7897 -5.60603 1
      vertex 39.932 -9.11642 1
      vertex 38.0729 -3.76923 1
    endloop
  endfacet
  facet normal 0 0 1
    outer loop
      vertex 39.932 -9.11642 1
      vertex 32.7897 -5.60603 1
      vertex 40.2218 -9.95009 1
    endloop
  endfacet
  facet normal 0 0 1
    outer loop
      vertex 32.7897 -5.60603 1
      vertex 14.7565 -18.8036 1
      vertex 40.2218 -9.95009 1
    endloop
  endfacet
  facet normal 0 -0 1
    outer loop
      vertex 14.7565 -18.8036 1
      vertex 32.7897 -5.60603 1
      vertex 12.6076 -12.6228 1
    endloop
  endfacet
  facet normal 0 0 1
    outer loop
      vertex 37.7445 2.82469 1
      vertex 36.7624 0 1
      vertex 37.7445 -2.82469 1
    endloop
  endfacet
  facet normal 0 0 1
    outer loop
      vertex 38.0729 3.76923 1
      vertex 47.7067 4.69584 1
      vertex 39.932 9.11642 1
    endloop
  endfacet
  facet normal 0 0 1
    outer loop
      vertex 37.7445 2.82469 1
      vertex 47.7067 4.69584 1
      vertex 38.0729 3.76923 1
    endloop
  endfacet
  facet normal 0 0 1
    outer loop
      vertex 47.7067 4.69584 1
      vertex 37.7445 2.82469 1
      vertex 47.7067 -4.69584 1
    endloop
  endfacet
  facet normal 0 0 1
    outer loop
      vertex 47.7067 -4.69584 1
      vertex 38.0729 -3.76923 1
      vertex 39.932 -9.11642 1
    endloop
  endfacet
  facet normal -0 0 1
    outer loop
      vertex 37.7445 -2.82469 1
      vertex 47.7067 -4.69584 1
      vertex 37.7445 2.82469 1
    endloop
  endfacet
  facet normal 0 0 1
    outer loop
      vertex 32.7897 5.60603 1
      vertex 37.7445 2.82469 1
      vertex 38.0729 3.76923 1
    endloop
  endfacet
  facet normal 0 0 1
    outer loop
      vertex 37.7445 2.82469 1
      vertex 32.7897 5.60603 1
      vertex 31.6342 4.94904 1
    endloop
  endfacet
  facet normal 0 0 1
    outer loop
      vertex 47.7067 -4.69584 1
      vertex 37.7445 -2.82469 1
      vertex 38.0729 -3.76923 1
    endloop
  endfacet
  facet normal 0 0 1
    outer loop
      vertex 37.7445 -2.82469 1
      vertex 32.7897 -5.60603 1
      vertex 38.0729 -3.76923 1
    endloop
  endfacet
  facet normal 0 -0 1
    outer loop
      vertex 32.7897 -5.60603 1
      vertex 37.7445 -2.82469 1
      vertex 31.6342 -4.94904 1
    endloop
  endfacet
  facet normal 0 0 1
    outer loop
      vertex 37.7445 2.82469 1
      vertex 31.6342 4.94904 1
      vertex 36.7624 0 1
    endloop
  endfacet
  facet normal 0 0 1
    outer loop
      vertex 31.6342 -4.94904 1
      vertex 36.7624 0 1
      vertex 31.6342 4.94904 1
    endloop
  endfacet
  facet normal 0 0 1
    outer loop
      vertex 36.7624 0 1
      vertex 31.6342 -4.94904 1
      vertex 37.7445 -2.82469 1
    endloop
  endfacet
  facet normal 0 0 1
    outer loop
      vertex 31.6342 4.94904 1
      vertex 25.9423 0 1
      vertex 31.6342 -4.94904 1
    endloop
  endfacet
  facet normal 0 0 1
    outer loop
      vertex 12.2792 11.6782 1
      vertex 25.9423 0 1
      vertex 31.6342 4.94904 1
    endloop
  endfacet
  facet normal -0 0 1
    outer loop
      vertex 11.2749 8.78967 1
      vertex 25.9423 0 1
      vertex 12.2792 11.6782 1
    endloop
  endfacet
  facet normal 0 0 1
    outer loop
      vertex 25.9423 0 1
      vertex 11.2749 8.78967 1
      vertex 10.1303 5.49737 1
    endloop
  endfacet
  facet normal 0 0 1
    outer loop
      vertex 25.9423 0 1
      vertex 12.2792 -11.6782 1
      vertex 31.6342 -4.94904 1
    endloop
  endfacet
  facet normal 0 0 1
    outer loop
      vertex 25.9423 0 1
      vertex 11.2749 -8.78967 1
      vertex 12.2792 -11.6782 1
    endloop
  endfacet
  facet normal 0 -0 1
    outer loop
      vertex 11.2749 -8.78967 1
      vertex 25.9423 0 1
      vertex 10.1303 -5.49737 1
    endloop
  endfacet
  facet normal 0 0 1
    outer loop
      vertex 32.7897 5.60603 1
      vertex 39.932 9.11642 1
      vertex 40.2218 9.95009 1
    endloop
  endfacet
  facet normal 0 0 1
    outer loop
      vertex 39.932 9.11642 1
      vertex 32.7897 5.60603 1
      vertex 38.0729 3.76923 1
    endloop
  endfacet
  facet normal 0 0 1
    outer loop
      vertex 14.7565 18.8036 1
      vertex 32.7897 5.60603 1
      vertex 40.2218 9.95009 1
    endloop
  endfacet
  facet normal 0 0 1
    outer loop
      vertex 32.7897 5.60603 1
      vertex 14.7565 18.8036 1
      vertex 12.6076 12.6228 1
    endloop
  endfacet
  facet normal 0.328389 0.944543 -0
    outer loop
      vertex 25.9423 0 1
      vertex 13.1482 4.44812 4.55158
      vertex 25.9423 0 8.18102
    endloop
  endfacet
  facet normal 0.32839 0.944542 3.83614e-06
    outer loop
      vertex 13.1482 4.44812 4.55158
      vertex 25.9423 0 1
      vertex 10.1303 5.49737 1
    endloop
  endfacet
  facet normal 0.328393 0.944541 7.49221e-07
    outer loop
      vertex 13.1482 4.44812 4.55158
      vertex 10.1303 5.49737 1
      vertex 7.83053 6.29694 3.04304
    endloop
  endfacet
  facet normal 0.328389 0.944543 -1.19047e-06
    outer loop
      vertex 32.7981 -2.38355 10.1259
      vertex 32.7211 -2.35678 9.68928
      vertex 25.9423 0 8.18102
    endloop
  endfacet
  facet normal -0.328386 -0.944544 -1.5635e-05
    outer loop
      vertex 10.5435 12.2817 2.54194
      vertex 32.6849 4.58376 9.48417
      vertex 9.97943 12.4778 3.04304
    endloop
  endfacet
  facet normal -0.328396 -0.94454 2.08669e-05
    outer loop
      vertex 12.2792 11.6782 1
      vertex 32.6849 4.58376 9.48417
      vertex 10.5435 12.2817 2.54194
    endloop
  endfacet
  facet normal -0.32839 -0.944542 4.82491e-06
    outer loop
      vertex 32.6849 4.58376 9.48417
      vertex 12.2792 11.6782 1
      vertex 32.3625 4.69584 7.6559
    endloop
  endfacet
  facet normal -0.328389 -0.944542 1.18212e-06
    outer loop
      vertex 32.3625 4.69584 7.6559
      vertex 12.2792 11.6782 1
      vertex 31.6342 4.94904 1
    endloop
  endfacet
  facet normal -0.944565 0.328325 0
    outer loop
      vertex 40.2218 9.95009 1
      vertex 40.0277 9.39168 4.28838
      vertex 40.2218 9.95009 9.24516
    endloop
  endfacet
  facet normal -0.944557 0.328347 4.09015e-06
    outer loop
      vertex 40.0277 9.39168 4.28838
      vertex 40.2218 9.95009 1
      vertex 39.932 9.11642 1
    endloop
  endfacet
  facet normal -0.944554 0.328356 -3.92521e-06
    outer loop
      vertex 40.2218 9.95009 9.24516
      vertex 40.0277 9.39168 4.28838
      vertex 39.8092 8.7632 9.31792
    endloop
  endfacet
  facet normal -0.328392 -0.944541 8.97981e-06
    outer loop
      vertex 14.7565 18.8036 1
      vertex 40.1799 9.96464 10.9076
      vertex 12.4567 19.6032 3.04305
    endloop
  endfacet
  facet normal -0.328386 -0.944543 -8.36222e-06
    outer loop
      vertex 40.1799 9.96464 10.9076
      vertex 14.7565 18.8036 1
      vertex 40.0023 10.0264 9.28387
    endloop
  endfacet
  facet normal -0.328389 -0.944543 -3.95824e-07
    outer loop
      vertex 40.2218 9.95009 1
      vertex 40.0023 10.0264 9.28387
      vertex 14.7565 18.8036 1
    endloop
  endfacet
  facet normal -0.328375 -0.944547 0
    outer loop
      vertex 40.0023 10.0264 9.28387
      vertex 40.2218 9.95009 1
      vertex 40.2218 9.95009 9.24516
    endloop
  endfacet
  facet normal 0.328392 0.944542 8.4812e-07
    outer loop
      vertex 12.6076 12.6228 1
      vertex 33.7406 5.27542 9.6905
      vertex 32.7897 5.60603 1
    endloop
  endfacet
  facet normal 0.328383 0.944545 2.4989e-05
    outer loop
      vertex 33.7406 5.27542 9.6905
      vertex 12.6076 12.6228 1
      vertex 10.3078 13.4223 3.04304
    endloop
  endfacet
  facet normal 0.244428 -0.084965 -0.965938
    outer loop
      vertex 33.7406 5.27542 9.6905
      vertex 35.8381 7.58516 10.0181
      vertex 35.5703 6.27815 10.0653
    endloop
  endfacet
  facet normal 0.244466 -0.0849903 -0.965926
    outer loop
      vertex 35.8381 7.58516 10.0181
      vertex 12.4567 19.6032 3.04305
      vertex 40.1799 9.96464 10.9076
    endloop
  endfacet
  facet normal 0.244463 -0.0849978 -0.965926
    outer loop
      vertex 33.7406 5.27542 9.6905
      vertex 12.4567 19.6032 3.04305
      vertex 35.8381 7.58516 10.0181
    endloop
  endfacet
  facet normal 0.244467 -0.0849916 -0.965926
    outer loop
      vertex 12.4567 19.6032 3.04305
      vertex 33.7406 5.27542 9.6905
      vertex 10.3078 13.4223 3.04304
    endloop
  endfacet
  facet normal 0.244465 -0.0849793 -0.965927
    outer loop
      vertex 13.1482 4.44812 4.55158
      vertex 32.6849 4.58376 9.48417
      vertex 32.6946 3.98741 9.53909
    endloop
  endfacet
  facet normal 0.244465 -0.0849951 -0.965926
    outer loop
      vertex 13.1482 4.44812 4.55158
      vertex 9.97943 12.4778 3.04304
      vertex 32.6849 4.58376 9.48417
    endloop
  endfacet
  facet normal 0.244468 -0.0849941 -0.965925
    outer loop
      vertex 9.97943 12.4778 3.04304
      vertex 13.1482 4.44812 4.55158
      vertex 7.83053 6.29694 3.04304
    endloop
  endfacet
  facet normal 0.244465 -0.0849942 -0.965926
    outer loop
      vertex 25.9423 0 8.18102
      vertex 32.6946 3.98741 9.53909
      vertex 32.7211 2.35678 9.68928
    endloop
  endfacet
  facet normal 0.244465 -0.0849938 -0.965926
    outer loop
      vertex 32.6946 3.98741 9.53909
      vertex 25.9423 0 8.18102
      vertex 13.1482 4.44812 4.55158
    endloop
  endfacet
  facet normal 0.244467 -0.0849964 -0.965925
    outer loop
      vertex 32.7981 -2.38355 10.1259
      vertex 25.9423 0 8.18102
      vertex 32.7593 0 9.90634
    endloop
  endfacet
  facet normal -0.607128 0.211082 -0.766054
    outer loop
      vertex 16.2106 19.3568 0
      vertex 12.6076 12.6228 1
      vertex 14.7565 18.8036 1
    endloop
  endfacet
  facet normal -0.60713 0.211084 -0.766053
    outer loop
      vertex 11.7493 6.52497 0
      vertex 12.6076 12.6228 1
      vertex 16.2106 19.3568 0
    endloop
  endfacet
  facet normal -0.607156 0.211084 -0.766032
    outer loop
      vertex 12.6076 12.6228 1
      vertex 11.7493 6.52497 0
      vertex 12.2792 11.6782 1
    endloop
  endfacet
  facet normal -0.607117 0.211086 -0.766062
    outer loop
      vertex 12.2792 11.6782 1
      vertex 11.7493 6.52497 0
      vertex 11.2749 8.78967 1
    endloop
  endfacet
  facet normal -0.60713 0.2111 -0.766048
    outer loop
      vertex 14.7565 18.8036 1
      vertex 12.6415 20.5977 3.17064
      vertex 16.2106 19.3568 0
    endloop
  endfacet
  facet normal -0.607131 0.211099 -0.766048
    outer loop
      vertex 12.4567 19.6032 3.04305
      vertex 12.6415 20.5977 3.17064
      vertex 14.7565 18.8036 1
    endloop
  endfacet
  facet normal -0.60722 0.211112 -0.765973
    outer loop
      vertex 10.2453 13.7055 3.17064
      vertex 12.4567 19.6032 3.04305
      vertex 10.3078 13.4223 3.04304
    endloop
  endfacet
  facet normal -0.607201 0.211105 -0.765991
    outer loop
      vertex 12.4567 19.6032 3.04305
      vertex 10.2453 13.7055 3.17064
      vertex 12.6415 20.5977 3.17064
    endloop
  endfacet
  facet normal -0.60714 0.211078 -0.766047
    outer loop
      vertex 10.5435 12.2817 2.54194
      vertex 12.6076 12.6228 1
      vertex 12.2792 11.6782 1
    endloop
  endfacet
  facet normal -0.607139 0.211084 -0.766045
    outer loop
      vertex 10.5435 12.2817 2.54194
      vertex 10.3078 13.4223 3.04304
      vertex 12.6076 12.6228 1
    endloop
  endfacet
  facet normal -0.610784 0.209275 -0.763641
    outer loop
      vertex 10.3078 13.4223 3.04304
      vertex 10.5435 12.2817 2.54194
      vertex 10.2453 13.7055 3.17064
    endloop
  endfacet
  facet normal -0.607136 0.211078 -0.766049
    outer loop
      vertex 10.1303 5.49737 1
      vertex 11.7493 6.52497 0
      vertex 10.9276 4.16147 0
    endloop
  endfacet
  facet normal -0.607136 0.211077 -0.76605
    outer loop
      vertex 11.7493 6.52497 0
      vertex 10.1303 5.49737 1
      vertex 11.2749 8.78967 1
    endloop
  endfacet
  facet normal -0.607142 0.211072 -0.766046
    outer loop
      vertex 7.35851 5.40233 3.17064
      vertex 10.1303 5.49737 1
      vertex 10.9276 4.16147 0
    endloop
  endfacet
  facet normal -0.607141 0.211081 -0.766044
    outer loop
      vertex 10.1303 5.49737 1
      vertex 7.35851 5.40233 3.17064
      vertex 7.83053 6.29694 3.04304
    endloop
  endfacet
  facet normal -0.607137 0.211099 -0.766043
    outer loop
      vertex 9.97943 12.4778 3.04304
      vertex 10.2453 13.7055 3.17064
      vertex 10.5435 12.2817 2.54194
    endloop
  endfacet
  facet normal -0.607152 0.211089 -0.766034
    outer loop
      vertex 7.35851 5.40233 3.17064
      vertex 9.97943 12.4778 3.04304
      vertex 7.83053 6.29694 3.04304
    endloop
  endfacet
  facet normal -0.607201 0.211108 -0.76599
    outer loop
      vertex 9.97943 12.4778 3.04304
      vertex 7.35851 5.40233 3.17064
      vertex 10.2453 13.7055 3.17064
    endloop
  endfacet
  facet normal 0.328393 -0.944541 7.49221e-07
    outer loop
      vertex 10.1303 -5.49737 1
      vertex 13.1482 -4.44812 4.55158
      vertex 7.83053 -6.29694 3.04304
    endloop
  endfacet
  facet normal 0.32839 -0.944542 3.83614e-06
    outer loop
      vertex 25.9423 0 1
      vertex 13.1482 -4.44812 4.55158
      vertex 10.1303 -5.49737 1
    endloop
  endfacet
  facet normal 0.328389 -0.944543 0
    outer loop
      vertex 13.1482 -4.44812 4.55158
      vertex 25.9423 0 1
      vertex 25.9423 0 8.18102
    endloop
  endfacet
  facet normal 0.328389 -0.944543 -1.19047e-06
    outer loop
      vertex 32.7981 2.38355 10.1259
      vertex 25.9423 0 8.18102
      vertex 32.7211 2.35678 9.68928
    endloop
  endfacet
  facet normal -0.32839 0.944542 4.82491e-06
    outer loop
      vertex 12.2792 -11.6782 1
      vertex 32.6849 -4.58376 9.48417
      vertex 32.3625 -4.69584 7.6559
    endloop
  endfacet
  facet normal -0.328386 0.944544 -1.5635e-05
    outer loop
      vertex 32.6849 -4.58376 9.48417
      vertex 10.5435 -12.2817 2.54194
      vertex 9.97943 -12.4778 3.04304
    endloop
  endfacet
  facet normal -0.328389 0.944542 1.18212e-06
    outer loop
      vertex 12.2792 -11.6782 1
      vertex 32.3625 -4.69584 7.6559
      vertex 31.6342 -4.94904 1
    endloop
  endfacet
  facet normal -0.328396 0.94454 2.08669e-05
    outer loop
      vertex 32.6849 -4.58376 9.48417
      vertex 12.2792 -11.6782 1
      vertex 10.5435 -12.2817 2.54194
    endloop
  endfacet
  facet normal -0.944557 -0.328347 4.09015e-06
    outer loop
      vertex 39.932 -9.11642 1
      vertex 40.2218 -9.95009 1
      vertex 40.0277 -9.39168 4.28838
    endloop
  endfacet
  facet normal -0.944565 -0.328325 -0
    outer loop
      vertex 40.2218 -9.95009 9.24516
      vertex 40.0277 -9.39168 4.28838
      vertex 40.2218 -9.95009 1
    endloop
  endfacet
  facet normal -0.944554 -0.328356 -3.92521e-06
    outer loop
      vertex 40.0277 -9.39168 4.28838
      vertex 40.2218 -9.95009 9.24516
      vertex 39.8092 -8.7632 9.31792
    endloop
  endfacet
  facet normal -0.328386 0.944543 -8.36222e-06
    outer loop
      vertex 14.7565 -18.8036 1
      vertex 40.1799 -9.96464 10.9076
      vertex 40.0023 -10.0264 9.28387
    endloop
  endfacet
  facet normal -0.328375 0.944547 0
    outer loop
      vertex 40.2218 -9.95009 1
      vertex 40.0023 -10.0264 9.28387
      vertex 40.2218 -9.95009 9.24516
    endloop
  endfacet
  facet normal -0.328389 0.944543 -3.95824e-07
    outer loop
      vertex 40.0023 -10.0264 9.28387
      vertex 40.2218 -9.95009 1
      vertex 14.7565 -18.8036 1
    endloop
  endfacet
  facet normal -0.328392 0.944541 8.97981e-06
    outer loop
      vertex 40.1799 -9.96464 10.9076
      vertex 14.7565 -18.8036 1
      vertex 12.4567 -19.6032 3.04305
    endloop
  endfacet
  facet normal 0.328383 -0.944545 2.4989e-05
    outer loop
      vertex 12.6076 -12.6228 1
      vertex 33.7406 -5.27542 9.6905
      vertex 10.3078 -13.4223 3.04304
    endloop
  endfacet
  facet normal 0.328392 -0.944542 8.4812e-07
    outer loop
      vertex 33.7406 -5.27542 9.6905
      vertex 12.6076 -12.6228 1
      vertex 32.7897 -5.60603 1
    endloop
  endfacet
  facet normal 0.244428 0.084965 -0.965938
    outer loop
      vertex 35.8381 -7.58516 10.0181
      vertex 33.7406 -5.27542 9.6905
      vertex 35.5703 -6.27815 10.0653
    endloop
  endfacet
  facet normal 0.244466 0.0849903 -0.965926
    outer loop
      vertex 12.4567 -19.6032 3.04305
      vertex 35.8381 -7.58516 10.0181
      vertex 40.1799 -9.96464 10.9076
    endloop
  endfacet
  facet normal 0.244463 0.0849978 -0.965926
    outer loop
      vertex 12.4567 -19.6032 3.04305
      vertex 33.7406 -5.27542 9.6905
      vertex 35.8381 -7.58516 10.0181
    endloop
  endfacet
  facet normal 0.244467 0.0849916 -0.965926
    outer loop
      vertex 33.7406 -5.27542 9.6905
      vertex 12.4567 -19.6032 3.04305
      vertex 10.3078 -13.4223 3.04304
    endloop
  endfacet
  facet normal 0.244465 0.0849793 -0.965927
    outer loop
      vertex 32.6849 -4.58376 9.48417
      vertex 13.1482 -4.44812 4.55158
      vertex 32.6946 -3.98741 9.53909
    endloop
  endfacet
  facet normal 0.244465 0.0849951 -0.965926
    outer loop
      vertex 9.97943 -12.4778 3.04304
      vertex 13.1482 -4.44812 4.55158
      vertex 32.6849 -4.58376 9.48417
    endloop
  endfacet
  facet normal 0.244468 0.0849941 -0.965925
    outer loop
      vertex 13.1482 -4.44812 4.55158
      vertex 9.97943 -12.4778 3.04304
      vertex 7.83053 -6.29694 3.04304
    endloop
  endfacet
  facet normal 0.244465 0.0849942 -0.965926
    outer loop
      vertex 32.6946 -3.98741 9.53909
      vertex 25.9423 0 8.18102
      vertex 32.7211 -2.35678 9.68928
    endloop
  endfacet
  facet normal 0.244465 0.0849938 -0.965926
    outer loop
      vertex 25.9423 0 8.18102
      vertex 32.6946 -3.98741 9.53909
      vertex 13.1482 -4.44812 4.55158
    endloop
  endfacet
  facet normal 0.244467 0.0849964 -0.965925
    outer loop
      vertex 32.7981 2.38355 10.1259
      vertex 32.7593 0 9.90634
      vertex 25.9423 0 8.18102
    endloop
  endfacet
  facet normal -0.60714 -0.211078 -0.766047
    outer loop
      vertex 12.6076 -12.6228 1
      vertex 10.5435 -12.2817 2.54194
      vertex 12.2792 -11.6782 1
    endloop
  endfacet
  facet normal -0.607139 -0.211084 -0.766045
    outer loop
      vertex 10.3078 -13.4223 3.04304
      vertex 10.5435 -12.2817 2.54194
      vertex 12.6076 -12.6228 1
    endloop
  endfacet
  facet normal -0.610784 -0.209275 -0.763641
    outer loop
      vertex 10.5435 -12.2817 2.54194
      vertex 10.3078 -13.4223 3.04304
      vertex 10.2453 -13.7055 3.17064
    endloop
  endfacet
  facet normal -0.60713 -0.2111 -0.766048
    outer loop
      vertex 12.6415 -20.5977 3.17064
      vertex 14.7565 -18.8036 1
      vertex 16.2106 -19.3568 0
    endloop
  endfacet
  facet normal -0.607131 -0.211099 -0.766048
    outer loop
      vertex 12.6415 -20.5977 3.17064
      vertex 12.4567 -19.6032 3.04305
      vertex 14.7565 -18.8036 1
    endloop
  endfacet
  facet normal -0.607201 -0.211105 -0.765991
    outer loop
      vertex 10.2453 -13.7055 3.17064
      vertex 12.4567 -19.6032 3.04305
      vertex 12.6415 -20.5977 3.17064
    endloop
  endfacet
  facet normal -0.60722 -0.211112 -0.765973
    outer loop
      vertex 12.4567 -19.6032 3.04305
      vertex 10.2453 -13.7055 3.17064
      vertex 10.3078 -13.4223 3.04304
    endloop
  endfacet
  facet normal -0.607128 -0.211082 -0.766054
    outer loop
      vertex 12.6076 -12.6228 1
      vertex 16.2106 -19.3568 0
      vertex 14.7565 -18.8036 1
    endloop
  endfacet
  facet normal -0.607156 -0.211084 -0.766032
    outer loop
      vertex 11.7493 -6.52497 0
      vertex 12.6076 -12.6228 1
      vertex 12.2792 -11.6782 1
    endloop
  endfacet
  facet normal -0.60713 -0.211084 -0.766053
    outer loop
      vertex 12.6076 -12.6228 1
      vertex 11.7493 -6.52497 0
      vertex 16.2106 -19.3568 0
    endloop
  endfacet
  facet normal -0.607117 -0.211086 -0.766062
    outer loop
      vertex 11.7493 -6.52497 0
      vertex 12.2792 -11.6782 1
      vertex 11.2749 -8.78967 1
    endloop
  endfacet
  facet normal -0.607137 -0.211099 -0.766043
    outer loop
      vertex 10.2453 -13.7055 3.17064
      vertex 9.97943 -12.4778 3.04304
      vertex 10.5435 -12.2817 2.54194
    endloop
  endfacet
  facet normal -0.607201 -0.211108 -0.76599
    outer loop
      vertex 7.35851 -5.40233 3.17064
      vertex 9.97943 -12.4778 3.04304
      vertex 10.2453 -13.7055 3.17064
    endloop
  endfacet
  facet normal -0.607152 -0.211089 -0.766034
    outer loop
      vertex 9.97943 -12.4778 3.04304
      vertex 7.35851 -5.40233 3.17064
      vertex 7.83053 -6.29694 3.04304
    endloop
  endfacet
  facet normal -0.607136 -0.211077 -0.76605
    outer loop
      vertex 10.1303 -5.49737 1
      vertex 11.7493 -6.52497 0
      vertex 11.2749 -8.78967 1
    endloop
  endfacet
  facet normal -0.607136 -0.211078 -0.766049
    outer loop
      vertex 11.7493 -6.52497 0
      vertex 10.1303 -5.49737 1
      vertex 10.9276 -4.16147 0
    endloop
  endfacet
  facet normal -0.607141 -0.211081 -0.766044
    outer loop
      vertex 7.35851 -5.40233 3.17064
      vertex 10.1303 -5.49737 1
      vertex 7.83053 -6.29694 3.04304
    endloop
  endfacet
  facet normal -0.607142 -0.211072 -0.766046
    outer loop
      vertex 10.1303 -5.49737 1
      vertex 7.35851 -5.40233 3.17064
      vertex 10.9276 -4.16147 0
    endloop
  endfacet
endsolid OpenSCAD_Model
