solid OpenSCAD_Model
  facet normal -0.492382 0.86604 0.0868062
    outer loop
      vertex 42.2575 11.5417 16.9342
      vertex 37.8142 9.58689 11.2335
      vertex 37.8142 9.56114 11.4904
    endloop
  endfacet
  facet normal -0.492402 0.866026 0.0868278
    outer loop
      vertex 37.8142 9.56114 11.4904
      vertex 32.4139 5.77084 18.6699
      vertex 42.2575 11.5417 16.9342
    endloop
  endfacet
  facet normal -0.492406 0.866024 0.0868234
    outer loop
      vertex 32.4139 5.77084 18.6699
      vertex 37.8142 9.56114 11.4904
      vertex 30.8174 5.77084 9.61558
    endloop
  endfacet
  facet normal 0.492406 0.866024 -0.0868243
    outer loop
      vertex 49.4211 5.77084 0
      vertex 42.2575 11.5417 16.9342
      vertex 52.101 5.77084 15.1985
    endloop
  endfacet
  facet normal 0.492404 0.866025 -0.0868255
    outer loop
      vertex 42.2575 11.5417 16.9342
      vertex 49.4211 5.77084 0
      vertex 39.2715 11.5417 0
    endloop
  endfacet
  facet normal -0.984808 0 0.173646
    outer loop
      vertex 30.8174 -5.77084 9.61558
      vertex 32.4139 5.77084 18.6699
      vertex 30.8174 5.77084 9.61558
    endloop
  endfacet
  facet normal -0.984808 0 0.173646
    outer loop
      vertex 32.4139 5.77084 18.6699
      vertex 30.8174 -5.77084 9.61558
      vertex 32.4139 -5.77084 18.6699
    endloop
  endfacet
  facet normal -0.492402 0.866026 0.0868265
    outer loop
      vertex 42.2575 11.5417 16.9342
      vertex 37.8142 10.3917 3.20615
      vertex 37.8142 9.58689 11.2335
    endloop
  endfacet
  facet normal -0.492394 0.866031 0.0868236
    outer loop
      vertex 39.2715 11.5417 0
      vertex 37.8142 10.3917 3.20615
      vertex 42.2575 11.5417 16.9342
    endloop
  endfacet
  facet normal -0.492402 0.866027 0.086819
    outer loop
      vertex 37.8142 10.3917 3.20615
      vertex 39.2715 11.5417 0
      vertex 37.2489 10.3917 0
    endloop
  endfacet
  facet normal -0.492402 -0.866026 0.0868278
    outer loop
      vertex 32.4139 -5.77084 18.6699
      vertex 37.8142 -9.56114 11.4904
      vertex 42.2575 -11.5417 16.9342
    endloop
  endfacet
  facet normal -0.492406 -0.866024 0.0868234
    outer loop
      vertex 37.8142 -9.56114 11.4904
      vertex 32.4139 -5.77084 18.6699
      vertex 30.8174 -5.77084 9.61558
    endloop
  endfacet
  facet normal -0.492382 -0.86604 0.0868062
    outer loop
      vertex 42.2575 -11.5417 16.9342
      vertex 37.8142 -9.56114 11.4904
      vertex 37.8142 -9.58689 11.2335
    endloop
  endfacet
  facet normal 0.17366 0 0.984806
    outer loop
      vertex 52.101 5.77084 15.1985
      vertex 51.2481 5.27084 15.3489
      vertex 52.101 -5.77084 15.1985
    endloop
  endfacet
  facet normal 0.17367 -1.7367e-05 0.984804
    outer loop
      vertex 51.2481 5.27084 15.3489
      vertex 52.101 5.77084 15.1985
      vertex 50.3953 5.77084 15.4993
    endloop
  endfacet
  facet normal 0.17366 -0 0.984806
    outer loop
      vertex 51.2481 -5.27084 15.3489
      vertex 52.101 -5.77084 15.1985
      vertex 51.2481 5.27084 15.3489
    endloop
  endfacet
  facet normal 0.17367 1.7367e-05 0.984804
    outer loop
      vertex 52.101 -5.77084 15.1985
      vertex 51.2481 -5.27084 15.3489
      vertex 50.3953 -5.77084 15.4993
    endloop
  endfacet
  facet normal 0.17366 0 0.984806
    outer loop
      vertex 33.2668 5.27084 18.5195
      vertex 32.4139 5.77084 18.6699
      vertex 33.2668 -5.27084 18.5195
    endloop
  endfacet
  facet normal 0.17366 4.74312e-15 0.984806
    outer loop
      vertex 32.4139 5.77084 18.6699
      vertex 33.2668 5.27084 18.5195
      vertex 34.1197 5.77084 18.3691
    endloop
  endfacet
  facet normal 0.17366 -4.74312e-15 0.984806
    outer loop
      vertex 33.2668 -5.27084 18.5195
      vertex 32.4139 -5.77084 18.6699
      vertex 34.1197 -5.77084 18.3691
    endloop
  endfacet
  facet normal 0.17366 -0 0.984806
    outer loop
      vertex 32.4139 -5.77084 18.6699
      vertex 33.2668 -5.27084 18.5195
      vertex 32.4139 5.77084 18.6699
    endloop
  endfacet
  facet normal 0.17367 3.41472e-05 0.984804
    outer loop
      vertex 42.2575 11.5417 16.9342
      vertex 50.3953 5.77084 15.4993
      vertex 52.101 5.77084 15.1985
    endloop
  endfacet
  facet normal 0.173647 0 0.984808
    outer loop
      vertex 42.2575 11.5417 16.9342
      vertex 42.2575 10.5417 16.9342
      vertex 50.3953 5.77084 15.4993
    endloop
  endfacet
  facet normal 0.173647 0 0.984808
    outer loop
      vertex 42.2575 11.5417 16.9342
      vertex 34.1197 5.77084 18.3691
      vertex 42.2575 10.5417 16.9342
    endloop
  endfacet
  facet normal 0.17366 -1.97903e-05 0.984806
    outer loop
      vertex 34.1197 5.77084 18.3691
      vertex 42.2575 11.5417 16.9342
      vertex 32.4139 5.77084 18.6699
    endloop
  endfacet
  facet normal 0.984808 0 -0.173648
    outer loop
      vertex 52.101 -5.77084 15.1985
      vertex 49.4211 5.77084 0
      vertex 52.101 5.77084 15.1985
    endloop
  endfacet
  facet normal 0.984808 0 -0.173648
    outer loop
      vertex 49.4211 5.77084 0
      vertex 52.101 -5.77084 15.1985
      vertex 49.4211 -5.77084 0
    endloop
  endfacet
  facet normal 0.173647 -0 0.984808
    outer loop
      vertex 42.2575 -11.5417 16.9342
      vertex 50.3953 -5.77084 15.4993
      vertex 42.2575 -10.5417 16.9342
    endloop
  endfacet
  facet normal 0.17367 -3.41472e-05 0.984804
    outer loop
      vertex 50.3953 -5.77084 15.4993
      vertex 42.2575 -11.5417 16.9342
      vertex 52.101 -5.77084 15.1985
    endloop
  endfacet
  facet normal 0.173647 0 0.984808
    outer loop
      vertex 34.1197 -5.77084 18.3691
      vertex 42.2575 -11.5417 16.9342
      vertex 42.2575 -10.5417 16.9342
    endloop
  endfacet
  facet normal 0.17366 1.97903e-05 0.984806
    outer loop
      vertex 42.2575 -11.5417 16.9342
      vertex 34.1197 -5.77084 18.3691
      vertex 32.4139 -5.77084 18.6699
    endloop
  endfacet
  facet normal 0.492404 -0.866025 -0.0868255
    outer loop
      vertex 49.4211 -5.77084 0
      vertex 42.2575 -11.5417 16.9342
      vertex 39.2715 -11.5417 0
    endloop
  endfacet
  facet normal 0.492406 -0.866024 -0.0868243
    outer loop
      vertex 42.2575 -11.5417 16.9342
      vertex 49.4211 -5.77084 0
      vertex 52.101 -5.77084 15.1985
    endloop
  endfacet
  facet normal -0.492402 -0.866026 0.0868265
    outer loop
      vertex 37.8142 -10.3917 3.20615
      vertex 42.2575 -11.5417 16.9342
      vertex 37.8142 -9.58689 11.2335
    endloop
  endfacet
  facet normal -0.492402 -0.866027 0.086819
    outer loop
      vertex 39.2715 -11.5417 0
      vertex 37.8142 -10.3917 3.20615
      vertex 37.2489 -10.3917 0
    endloop
  endfacet
  facet normal -0.492394 -0.866031 0.0868236
    outer loop
      vertex 37.8142 -10.3917 3.20615
      vertex 39.2715 -11.5417 0
      vertex 42.2575 -11.5417 16.9342
    endloop
  endfacet
  facet normal 0 0 -1
    outer loop
      vertex 37.8142 -10.3917 0
      vertex 49.4211 -5.77084 0
      vertex 39.2715 -11.5417 0
    endloop
  endfacet
  facet normal -0 0 -1
    outer loop
      vertex 49.4211 -5.77084 0
      vertex 37.8142 -10.3917 0
      vertex 49.4211 5.77084 0
    endloop
  endfacet
  facet normal 0 0 -1
    outer loop
      vertex 37.8142 10.3917 0
      vertex 49.4211 5.77084 0
      vertex 37.8142 -10.3917 0
    endloop
  endfacet
  facet normal -0 -0 -1
    outer loop
      vertex 37.8142 -10.3917 0
      vertex 39.2715 -11.5417 0
      vertex 37.2489 -10.3917 0
    endloop
  endfacet
  facet normal 0 0 -1
    outer loop
      vertex 49.4211 5.77084 0
      vertex 37.8142 10.3917 0
      vertex 39.2715 11.5417 0
    endloop
  endfacet
  facet normal 0 0 -1
    outer loop
      vertex 39.2715 11.5417 0
      vertex 37.8142 10.3917 0
      vertex 37.2489 10.3917 0
    endloop
  endfacet
  facet normal 0 0 -1
    outer loop
      vertex 37.2489 -10.3917 0
      vertex 37.8142 10.3917 0
      vertex 37.8142 -10.3917 0
    endloop
  endfacet
  facet normal 0 0 -1
    outer loop
      vertex 37.2489 -10.3917 0
      vertex 37.2489 10.3917 0
      vertex 37.8142 10.3917 0
    endloop
  endfacet
  facet normal 0 0 -1
    outer loop
      vertex 13.7786 -10.3917 0
      vertex 37.2489 10.3917 0
      vertex 37.2489 -10.3917 0
    endloop
  endfacet
  facet normal -0 0 -1
    outer loop
      vertex 37.2489 10.3917 0
      vertex 13.7786 -10.3917 0
      vertex 13.7786 10.3917 0
    endloop
  endfacet
  facet normal -1 0 0
    outer loop
      vertex 10 -10.3917 3.17064
      vertex 10 10.3917 4.03758
      vertex 10 10.3917 3.17064
    endloop
  endfacet
  facet normal -1 -0 0
    outer loop
      vertex 10 10.3917 4.03758
      vertex 10 -10.3917 3.17064
      vertex 10 -10.3917 4.03758
    endloop
  endfacet
  facet normal 1 -0 0
    outer loop
      vertex 37.8142 -10.3917 11.4904
      vertex 37.8142 -9.58689 11.2335
      vertex 37.8142 -9.56114 11.4904
    endloop
  endfacet
  facet normal 1 0 0
    outer loop
      vertex 37.8142 -9.58689 11.2335
      vertex 37.8142 -10.3917 11.4904
      vertex 37.8142 -10.3917 3.20615
    endloop
  endfacet
  facet normal 1 0 0
    outer loop
      vertex 37.8142 10.3917 11.4904
      vertex 37.8142 9.58689 11.2335
      vertex 37.8142 10.3917 3.20615
    endloop
  endfacet
  facet normal 1 0 -0
    outer loop
      vertex 37.8142 9.58689 11.2335
      vertex 37.8142 10.3917 11.4904
      vertex 37.8142 9.56114 11.4904
    endloop
  endfacet
  facet normal 0 1 0
    outer loop
      vertex 13.7786 10.3917 0
      vertex 37.8142 10.3917 11.4904
      vertex 37.8142 10.3917 3.20615
    endloop
  endfacet
  facet normal 0 1 0
    outer loop
      vertex 37.8142 10.3917 11.4904
      vertex 13.7786 10.3917 0
      vertex 10 10.3917 4.03758
    endloop
  endfacet
  facet normal 0 1 0
    outer loop
      vertex 13.7786 10.3917 0
      vertex 37.8142 10.3917 3.20615
      vertex 37.2489 10.3917 0
    endloop
  endfacet
  facet normal 0 1 0
    outer loop
      vertex 10 10.3917 4.03758
      vertex 13.7786 10.3917 0
      vertex 10 10.3917 3.17064
    endloop
  endfacet
  facet normal 0 -1 0
    outer loop
      vertex 13.7786 -10.3917 0
      vertex 37.8142 -10.3917 11.4904
      vertex 10 -10.3917 4.03758
    endloop
  endfacet
  facet normal 0 -1 0
    outer loop
      vertex 13.7786 -10.3917 0
      vertex 10 -10.3917 4.03758
      vertex 10 -10.3917 3.17064
    endloop
  endfacet
  facet normal 0 -1 -0
    outer loop
      vertex 37.8142 -10.3917 11.4904
      vertex 13.7786 -10.3917 0
      vertex 37.8142 -10.3917 3.20615
    endloop
  endfacet
  facet normal 0 -1 0
    outer loop
      vertex 37.8142 -10.3917 3.20615
      vertex 13.7786 -10.3917 0
      vertex 37.2489 -10.3917 0
    endloop
  endfacet
  facet normal -0.258823 0 0.965925
    outer loop
      vertex 37.8142 10.3917 11.4904
      vertex 30.8174 5.77084 9.61558
      vertex 37.8142 9.56114 11.4904
    endloop
  endfacet
  facet normal -0.258819 0 0.965926
    outer loop
      vertex 30.8174 5.77084 9.61558
      vertex 10 10.3917 4.03758
      vertex 30.8174 -5.77084 9.61558
    endloop
  endfacet
  facet normal -0.25882 -5.46724e-06 0.965926
    outer loop
      vertex 10 10.3917 4.03758
      vertex 30.8174 5.77084 9.61558
      vertex 37.8142 10.3917 11.4904
    endloop
  endfacet
  facet normal -0.258823 0 0.965925
    outer loop
      vertex 30.8174 -5.77084 9.61558
      vertex 37.8142 -10.3917 11.4904
      vertex 37.8142 -9.56114 11.4904
    endloop
  endfacet
  facet normal -0.25882 5.46724e-06 0.965926
    outer loop
      vertex 30.8174 -5.77084 9.61558
      vertex 10 -10.3917 4.03758
      vertex 37.8142 -10.3917 11.4904
    endloop
  endfacet
  facet normal -0.258819 0 0.965926
    outer loop
      vertex 10 -10.3917 4.03758
      vertex 30.8174 -5.77084 9.61558
      vertex 10 10.3917 4.03758
    endloop
  endfacet
  facet normal -0.492404 -0.866025 0.0868276
    outer loop
      vertex 47.7067 4.69584 1
      vertex 40.8812 9.39168 9.12889
      vertex 39.4478 9.39168 1
    endloop
  endfacet
  facet normal -0.492407 -0.866024 0.0868242
    outer loop
      vertex 40.8812 9.39168 9.12889
      vertex 47.7067 4.69584 1
      vertex 48.891 4.69584 7.71653
    endloop
  endfacet
  facet normal 0.984802 0 -0.173679
    outer loop
      vertex 32.8713 4.69584 10.5412
      vertex 32.6102 0.5 9.0607
      vertex 32.6102 4.69584 9.0607
    endloop
  endfacet
  facet normal 0.984808 0 -0.173646
    outer loop
      vertex 32.6102 0.5 9.0607
      vertex 32.6102 -0.5 9.0607
      vertex 31.1889 0.5 1
    endloop
  endfacet
  facet normal 0.984802 0 -0.173679
    outer loop
      vertex 32.8713 4.69584 10.5412
      vertex 32.6102 -0.5 9.0607
      vertex 32.6102 0.5 9.0607
    endloop
  endfacet
  facet normal 0.984802 0 -0.173679
    outer loop
      vertex 32.8713 -4.69584 10.5412
      vertex 32.6102 -0.5 9.0607
      vertex 32.8713 4.69584 10.5412
    endloop
  endfacet
  facet normal 0.984802 0 -0.173679
    outer loop
      vertex 32.6102 -0.5 9.0607
      vertex 32.8713 -4.69584 10.5412
      vertex 32.6102 -4.69584 9.0607
    endloop
  endfacet
  facet normal 0.984808 0 -0.173646
    outer loop
      vertex 31.1889 0.5 1
      vertex 32.6102 -0.5 9.0607
      vertex 31.1889 -0.5 1
    endloop
  endfacet
  facet normal 0.492409 -0.866021 -0.0868409
    outer loop
      vertex 36.0463 6.55724 9.9814
      vertex 32.8713 4.69584 10.5412
      vertex 32.6102 4.69584 9.0607
    endloop
  endfacet
  facet normal 0.492394 -0.866031 -0.0868249
    outer loop
      vertex 37.9142 8.51972 1
      vertex 40.8812 9.39168 9.12889
      vertex 37.9142 7.6523 9.65204
    endloop
  endfacet
  facet normal 0.492398 -0.866028 -0.0868266
    outer loop
      vertex 40.8812 9.39168 9.12889
      vertex 37.9142 8.51972 1
      vertex 39.4478 9.39168 1
    endloop
  endfacet
  facet normal 0.492409 0.866021 -0.0868409
    outer loop
      vertex 32.8713 -4.69584 10.5412
      vertex 36.0463 -6.55724 9.9814
      vertex 32.6102 -4.69584 9.0607
    endloop
  endfacet
  facet normal 0.492394 0.866031 -0.0868259
    outer loop
      vertex 39.4478 -9.39168 1
      vertex 37.9142 -7.6523 9.65204
      vertex 40.8812 -9.39168 9.12889
    endloop
  endfacet
  facet normal 0.492398 0.866028 -0.0868247
    outer loop
      vertex 37.9142 -7.6523 9.65204
      vertex 39.4478 -9.39168 1
      vertex 37.9142 -8.51972 1
    endloop
  endfacet
  facet normal -0.492407 0.866024 0.0868242
    outer loop
      vertex 47.7067 -4.69584 1
      vertex 40.8812 -9.39168 9.12889
      vertex 48.891 -4.69584 7.71653
    endloop
  endfacet
  facet normal -0.492404 0.866025 0.0868276
    outer loop
      vertex 40.8812 -9.39168 9.12889
      vertex 47.7067 -4.69584 1
      vertex 39.4478 -9.39168 1
    endloop
  endfacet
  facet normal -0.984808 0 0.173647
    outer loop
      vertex 47.7067 -4.69584 1
      vertex 48.891 4.69584 7.71653
      vertex 47.7067 4.69584 1
    endloop
  endfacet
  facet normal -0.984808 0 0.173647
    outer loop
      vertex 48.891 4.69584 7.71653
      vertex 47.7067 -4.69584 1
      vertex 48.891 -4.69584 7.71653
    endloop
  endfacet
  facet normal -0.492405 -0.866024 0.0868252
    outer loop
      vertex 40.8812 10.5417 9.12889
      vertex 50.3953 5.77084 15.4993
      vertex 42.2575 10.5417 16.9342
    endloop
  endfacet
  facet normal -0.492407 -0.866023 0.086829
    outer loop
      vertex 49.8718 5.27084 7.54359
      vertex 50.3953 5.77084 15.4993
      vertex 40.8812 10.5417 9.12889
    endloop
  endfacet
  facet normal -0.492431 -0.866009 0.0868298
    outer loop
      vertex 50.3953 5.77084 15.4993
      vertex 49.8718 5.27084 7.54359
      vertex 51.2481 5.27084 15.3489
    endloop
  endfacet
  facet normal 0.984807 0 -0.17365
    outer loop
      vertex 33.2668 -5.27084 18.5195
      vertex 31.8905 5.27084 10.7142
      vertex 33.2668 5.27084 18.5195
    endloop
  endfacet
  facet normal 0.984807 0 -0.17365
    outer loop
      vertex 31.8905 5.27084 10.7142
      vertex 33.2668 -5.27084 18.5195
      vertex 31.8905 -5.27084 10.7142
    endloop
  endfacet
  facet normal 0.492401 -0.866026 -0.0868311
    outer loop
      vertex 34.1197 5.77084 18.3691
      vertex 36.0463 7.70724 9.9814
      vertex 37.9142 8.7191 10.4819
    endloop
  endfacet
  facet normal 0.492389 -0.866034 -0.0868225
    outer loop
      vertex 31.8905 5.27084 10.7142
      vertex 34.1197 5.77084 18.3691
      vertex 33.2668 5.27084 18.5195
    endloop
  endfacet
  facet normal 0.492408 -0.866023 -0.0868287
    outer loop
      vertex 36.0463 7.70724 9.9814
      vertex 34.1197 5.77084 18.3691
      vertex 31.8905 5.27084 10.7142
    endloop
  endfacet
  facet normal 0.492405 -0.866024 -0.0868287
    outer loop
      vertex 34.1197 5.77084 18.3691
      vertex 37.9142 8.7191 10.4819
      vertex 42.2575 10.5417 16.9342
    endloop
  endfacet
  facet normal 0.492399 -0.866028 -0.0868262
    outer loop
      vertex 40.8812 10.5417 9.12889
      vertex 37.9142 8.7191 10.4819
      vertex 37.9142 8.8023 9.65204
    endloop
  endfacet
  facet normal 0.492399 -0.866028 -0.0868241
    outer loop
      vertex 37.9142 8.7191 10.4819
      vertex 40.8812 10.5417 9.12889
      vertex 42.2575 10.5417 16.9342
    endloop
  endfacet
  facet normal -0.984807 0 0.17365
    outer loop
      vertex 49.8718 -5.27084 7.54359
      vertex 51.2481 5.27084 15.3489
      vertex 49.8718 5.27084 7.54359
    endloop
  endfacet
  facet normal -0.984807 0 0.17365
    outer loop
      vertex 51.2481 5.27084 15.3489
      vertex 49.8718 -5.27084 7.54359
      vertex 51.2481 -5.27084 15.3489
    endloop
  endfacet
  facet normal 0.173647 0 0.984808
    outer loop
      vertex 49.8718 5.27084 7.54359
      vertex 48.891 4.69584 7.71653
      vertex 49.8718 -5.27084 7.54359
    endloop
  endfacet
  facet normal 0.17365 -0 0.984807
    outer loop
      vertex 40.8812 9.39168 9.12889
      vertex 49.8718 5.27084 7.54359
      vertex 40.8812 10.5417 9.12889
    endloop
  endfacet
  facet normal 0.173648 -2.9803e-06 0.984808
    outer loop
      vertex 49.8718 5.27084 7.54359
      vertex 40.8812 9.39168 9.12889
      vertex 48.891 4.69584 7.71653
    endloop
  endfacet
  facet normal 0.173644 0 0.984808
    outer loop
      vertex 37.9142 8.8023 9.65204
      vertex 40.8812 9.39168 9.12889
      vertex 40.8812 10.5417 9.12889
    endloop
  endfacet
  facet normal 0.173644 0 0.984808
    outer loop
      vertex 40.8812 9.39168 9.12889
      vertex 37.9142 8.8023 9.65204
      vertex 37.9142 7.6523 9.65204
    endloop
  endfacet
  facet normal 0.173647 -0 0.984808
    outer loop
      vertex 48.891 -4.69584 7.71653
      vertex 49.8718 -5.27084 7.54359
      vertex 48.891 4.69584 7.71653
    endloop
  endfacet
  facet normal 0.173648 2.9803e-06 0.984808
    outer loop
      vertex 40.8812 -9.39168 9.12889
      vertex 49.8718 -5.27084 7.54359
      vertex 48.891 -4.69584 7.71653
    endloop
  endfacet
  facet normal 0.17365 0 0.984807
    outer loop
      vertex 40.8812 -9.39168 9.12889
      vertex 40.8812 -10.5417 9.12889
      vertex 49.8718 -5.27084 7.54359
    endloop
  endfacet
  facet normal 0.173644 -0 0.984808
    outer loop
      vertex 37.9142 -8.8023 9.65204
      vertex 40.8812 -9.39168 9.12889
      vertex 37.9142 -7.6523 9.65204
    endloop
  endfacet
  facet normal 0.173644 0 0.984808
    outer loop
      vertex 40.8812 -9.39168 9.12889
      vertex 37.9142 -8.8023 9.65204
      vertex 40.8812 -10.5417 9.12889
    endloop
  endfacet
  facet normal 0.173653 0 0.984807
    outer loop
      vertex 31.8905 5.27084 10.7142
      vertex 36.0463 6.55724 9.9814
      vertex 36.0463 7.70724 9.9814
    endloop
  endfacet
  facet normal 0.173705 0 0.984798
    outer loop
      vertex 32.8713 4.69584 10.5412
      vertex 31.8905 5.27084 10.7142
      vertex 32.8713 -4.69584 10.5412
    endloop
  endfacet
  facet normal 0.173671 -6.01894e-05 0.984804
    outer loop
      vertex 36.0463 6.55724 9.9814
      vertex 31.8905 5.27084 10.7142
      vertex 32.8713 4.69584 10.5412
    endloop
  endfacet
  facet normal 0.173671 6.01894e-05 0.984804
    outer loop
      vertex 31.8905 -5.27084 10.7142
      vertex 36.0463 -6.55724 9.9814
      vertex 32.8713 -4.69584 10.5412
    endloop
  endfacet
  facet normal 0.173653 0 0.984807
    outer loop
      vertex 36.0463 -6.55724 9.9814
      vertex 31.8905 -5.27084 10.7142
      vertex 36.0463 -7.70724 9.9814
    endloop
  endfacet
  facet normal 0.173705 -0 0.984798
    outer loop
      vertex 31.8905 -5.27084 10.7142
      vertex 32.8713 -4.69584 10.5412
      vertex 31.8905 5.27084 10.7142
    endloop
  endfacet
  facet normal -0.492405 0.866024 0.0868252
    outer loop
      vertex 50.3953 -5.77084 15.4993
      vertex 40.8812 -10.5417 9.12889
      vertex 42.2575 -10.5417 16.9342
    endloop
  endfacet
  facet normal -0.492431 0.866009 0.0868298
    outer loop
      vertex 49.8718 -5.27084 7.54359
      vertex 50.3953 -5.77084 15.4993
      vertex 51.2481 -5.27084 15.3489
    endloop
  endfacet
  facet normal -0.492407 0.866023 0.086829
    outer loop
      vertex 50.3953 -5.77084 15.4993
      vertex 49.8718 -5.27084 7.54359
      vertex 40.8812 -10.5417 9.12889
    endloop
  endfacet
  facet normal 0.492389 0.866034 -0.0868225
    outer loop
      vertex 34.1197 -5.77084 18.3691
      vertex 31.8905 -5.27084 10.7142
      vertex 33.2668 -5.27084 18.5195
    endloop
  endfacet
  facet normal 0.492405 0.866024 -0.0868287
    outer loop
      vertex 37.9142 -8.7191 10.4819
      vertex 34.1197 -5.77084 18.3691
      vertex 42.2575 -10.5417 16.9342
    endloop
  endfacet
  facet normal 0.492401 0.866026 -0.0868311
    outer loop
      vertex 36.0463 -7.70724 9.9814
      vertex 34.1197 -5.77084 18.3691
      vertex 37.9142 -8.7191 10.4819
    endloop
  endfacet
  facet normal 0.492399 0.866028 -0.0868241
    outer loop
      vertex 40.8812 -10.5417 9.12889
      vertex 37.9142 -8.7191 10.4819
      vertex 42.2575 -10.5417 16.9342
    endloop
  endfacet
  facet normal 0.492399 0.866028 -0.0868262
    outer loop
      vertex 37.9142 -8.7191 10.4819
      vertex 40.8812 -10.5417 9.12889
      vertex 37.9142 -8.8023 9.65204
    endloop
  endfacet
  facet normal 0.492408 0.866023 -0.0868287
    outer loop
      vertex 34.1197 -5.77084 18.3691
      vertex 36.0463 -7.70724 9.9814
      vertex 31.8905 -5.27084 10.7142
    endloop
  endfacet
  facet normal -0 0 1
    outer loop
      vertex 31.1889 0.5 1
      vertex 37.9142 -0.5 1
      vertex 37.9142 0.5 1
    endloop
  endfacet
  facet normal 0 0 1
    outer loop
      vertex 37.9142 -0.5 1
      vertex 31.1889 0.5 1
      vertex 31.1889 -0.5 1
    endloop
  endfacet
  facet normal 0 0 1
    outer loop
      vertex 37.9142 0.5 1
      vertex 47.7067 4.69584 1
      vertex 39.4478 9.39168 1
    endloop
  endfacet
  facet normal 0 0 1
    outer loop
      vertex 47.7067 4.69584 1
      vertex 37.9142 0.5 1
      vertex 47.7067 -4.69584 1
    endloop
  endfacet
  facet normal 0 0 1
    outer loop
      vertex 37.9142 0.5 1
      vertex 39.4478 9.39168 1
      vertex 37.9142 8.51972 1
    endloop
  endfacet
  facet normal -0 0 1
    outer loop
      vertex 37.9142 -0.5 1
      vertex 47.7067 -4.69584 1
      vertex 37.9142 0.5 1
    endloop
  endfacet
  facet normal 0 0 1
    outer loop
      vertex 47.7067 -4.69584 1
      vertex 37.9142 -0.5 1
      vertex 39.4478 -9.39168 1
    endloop
  endfacet
  facet normal 0 0 1
    outer loop
      vertex 39.4478 -9.39168 1
      vertex 37.9142 -0.5 1
      vertex 37.9142 -8.51972 1
    endloop
  endfacet
  facet normal 0 0 1
    outer loop
      vertex 31.1889 0.5 1
      vertex 37.9142 8.51972 1
      vertex 37.9142 9.39168 1
    endloop
  endfacet
  facet normal 0 0 1
    outer loop
      vertex 37.9142 8.51972 1
      vertex 31.1889 0.5 1
      vertex 37.9142 0.5 1
    endloop
  endfacet
  facet normal -0 0 1
    outer loop
      vertex 12.5869 9.39168 1
      vertex 31.1889 0.5 1
      vertex 37.9142 9.39168 1
    endloop
  endfacet
  facet normal 0 0 1
    outer loop
      vertex 31.1889 0.5 1
      vertex 12.5869 9.39168 1
      vertex 12.5869 0.5 1
    endloop
  endfacet
  facet normal -0 0 1
    outer loop
      vertex 31.1889 -0.5 1
      vertex 37.9142 -8.51972 1
      vertex 37.9142 -0.5 1
    endloop
  endfacet
  facet normal 0 0 1
    outer loop
      vertex 37.9142 -8.51972 1
      vertex 31.1889 -0.5 1
      vertex 37.9142 -9.39168 1
    endloop
  endfacet
  facet normal 0 0 1
    outer loop
      vertex 12.5869 -9.39168 1
      vertex 31.1889 -0.5 1
      vertex 12.5869 -0.5 1
    endloop
  endfacet
  facet normal 0 0 1
    outer loop
      vertex 31.1889 -0.5 1
      vertex 12.5869 -9.39168 1
      vertex 37.9142 -9.39168 1
    endloop
  endfacet
  facet normal -1 0 0
    outer loop
      vertex 37.9142 -8.51972 1
      vertex 37.9142 -8.8023 9.65204
      vertex 37.9142 -7.6523 9.65204
    endloop
  endfacet
  facet normal -1 0 -0
    outer loop
      vertex 37.9142 -8.8023 9.65204
      vertex 37.9142 -8.51972 1
      vertex 37.9142 -9.39168 1
    endloop
  endfacet
  facet normal -1 0 0
    outer loop
      vertex 37.9142 -8.8023 9.65204
      vertex 37.9142 -9.39168 10.4819
      vertex 37.9142 -8.7191 10.4819
    endloop
  endfacet
  facet normal -1 0 0
    outer loop
      vertex 37.9142 -9.39168 10.4819
      vertex 37.9142 -8.8023 9.65204
      vertex 37.9142 -9.39168 1
    endloop
  endfacet
  facet normal 0 -1 0
    outer loop
      vertex 12.5869 -0.5 1
      vertex 32.6102 -0.5 9.0607
      vertex 10.1521 -0.5 3.04304
    endloop
  endfacet
  facet normal 0 -1 0
    outer loop
      vertex 32.6102 -0.5 9.0607
      vertex 12.5869 -0.5 1
      vertex 31.1889 -0.5 1
    endloop
  endfacet
  facet normal 0 1 0
    outer loop
      vertex 12.5869 -9.39168 1
      vertex 37.9142 -9.39168 10.4819
      vertex 37.9142 -9.39168 1
    endloop
  endfacet
  facet normal 0 1 0
    outer loop
      vertex 37.9142 -9.39168 10.4819
      vertex 12.5869 -9.39168 1
      vertex 10.1521 -9.39168 3.04304
    endloop
  endfacet
  facet normal -1 0 0
    outer loop
      vertex 37.9142 9.39168 1
      vertex 37.9142 8.8023 9.65204
      vertex 37.9142 9.39168 10.4819
    endloop
  endfacet
  facet normal -1 0 0
    outer loop
      vertex 37.9142 8.51972 1
      vertex 37.9142 8.8023 9.65204
      vertex 37.9142 9.39168 1
    endloop
  endfacet
  facet normal -1 -0 0
    outer loop
      vertex 37.9142 8.8023 9.65204
      vertex 37.9142 8.51972 1
      vertex 37.9142 7.6523 9.65204
    endloop
  endfacet
  facet normal -1 -0 0
    outer loop
      vertex 37.9142 9.39168 10.4819
      vertex 37.9142 8.8023 9.65204
      vertex 37.9142 8.7191 10.4819
    endloop
  endfacet
  facet normal 0 -1 0
    outer loop
      vertex 12.5869 9.39168 1
      vertex 37.9142 9.39168 10.4819
      vertex 10.1521 9.39168 3.04304
    endloop
  endfacet
  facet normal 0 -1 -0
    outer loop
      vertex 37.9142 9.39168 10.4819
      vertex 12.5869 9.39168 1
      vertex 37.9142 9.39168 1
    endloop
  endfacet
  facet normal 0 1 0
    outer loop
      vertex 12.5869 0.5 1
      vertex 32.6102 0.5 9.0607
      vertex 31.1889 0.5 1
    endloop
  endfacet
  facet normal 0 1 0
    outer loop
      vertex 32.6102 0.5 9.0607
      vertex 12.5869 0.5 1
      vertex 10.1521 0.5 3.04304
    endloop
  endfacet
  facet normal 0.25882 0 -0.965926
    outer loop
      vertex 32.6102 0.5 9.0607
      vertex 10.1521 0.5 3.04304
      vertex 32.6102 4.69584 9.0607
    endloop
  endfacet
  facet normal 0.258819 0 -0.965926
    outer loop
      vertex 36.0463 6.55724 9.9814
      vertex 32.6102 4.69584 9.0607
      vertex 36.0463 7.70724 9.9814
    endloop
  endfacet
  facet normal 0.258818 0 -0.965926
    outer loop
      vertex 36.0463 7.70724 9.9814
      vertex 37.9142 9.39168 10.4819
      vertex 37.9142 8.7191 10.4819
    endloop
  endfacet
  facet normal 0.25882 -1.25525e-06 -0.965926
    outer loop
      vertex 10.1521 9.39168 3.04304
      vertex 36.0463 7.70724 9.9814
      vertex 32.6102 4.69584 9.0607
    endloop
  endfacet
  facet normal 0.25882 0 -0.965926
    outer loop
      vertex 10.1521 9.39168 3.04304
      vertex 32.6102 4.69584 9.0607
      vertex 10.1521 0.5 3.04304
    endloop
  endfacet
  facet normal 0.25882 -2.38662e-06 -0.965926
    outer loop
      vertex 36.0463 7.70724 9.9814
      vertex 10.1521 9.39168 3.04304
      vertex 37.9142 9.39168 10.4819
    endloop
  endfacet
  facet normal 0.258818 0 -0.965926
    outer loop
      vertex 37.9142 -9.39168 10.4819
      vertex 36.0463 -7.70724 9.9814
      vertex 37.9142 -8.7191 10.4819
    endloop
  endfacet
  facet normal 0.258819 0 -0.965926
    outer loop
      vertex 36.0463 -7.70724 9.9814
      vertex 32.6102 -4.69584 9.0607
      vertex 36.0463 -6.55724 9.9814
    endloop
  endfacet
  facet normal 0.25882 2.38662e-06 -0.965926
    outer loop
      vertex 10.1521 -9.39168 3.04304
      vertex 36.0463 -7.70724 9.9814
      vertex 37.9142 -9.39168 10.4819
    endloop
  endfacet
  facet normal 0.25882 1.25525e-06 -0.965926
    outer loop
      vertex 36.0463 -7.70724 9.9814
      vertex 10.1521 -9.39168 3.04304
      vertex 32.6102 -4.69584 9.0607
    endloop
  endfacet
  facet normal 0.25882 0 -0.965926
    outer loop
      vertex 10.1521 -0.5 3.04304
      vertex 32.6102 -4.69584 9.0607
      vertex 10.1521 -9.39168 3.04304
    endloop
  endfacet
  facet normal 0.25882 0 -0.965926
    outer loop
      vertex 32.6102 -4.69584 9.0607
      vertex 10.1521 -0.5 3.04304
      vertex 32.6102 -0.5 9.0607
    endloop
  endfacet
  facet normal -0.642788 0 -0.766044
    outer loop
      vertex 10.1521 -0.5 3.04304
      vertex 12.5869 0.5 1
      vertex 12.5869 -0.5 1
    endloop
  endfacet
  facet normal -0.642788 0 -0.766044
    outer loop
      vertex 12.5869 0.5 1
      vertex 10.1521 -0.5 3.04304
      vertex 10.1521 0.5 3.04304
    endloop
  endfacet
  facet normal -0.642805 -0 -0.76603
    outer loop
      vertex 12.5869 -0.5 1
      vertex 13.7786 -10.3917 0
      vertex 12.5869 -9.39168 1
    endloop
  endfacet
  facet normal -0.64279 3.0067e-05 -0.766043
    outer loop
      vertex 10 -10.3917 3.17064
      vertex 12.5869 -9.39168 1
      vertex 13.7786 -10.3917 0
    endloop
  endfacet
  facet normal -0.642708 0 -0.766112
    outer loop
      vertex 10 -10.3917 3.17064
      vertex 10.1521 -0.5 3.04304
      vertex 10.1521 -9.39168 3.04304
    endloop
  endfacet
  facet normal -0.642708 0 -0.766112
    outer loop
      vertex 10.1521 -0.5 3.04304
      vertex 10 -10.3917 3.17064
      vertex 10.1521 0.5 3.04304
    endloop
  endfacet
  facet normal -0.642708 -0 -0.766112
    outer loop
      vertex 10 10.3917 3.17064
      vertex 10.1521 0.5 3.04304
      vertex 10 -10.3917 3.17064
    endloop
  endfacet
  facet normal -0.642788 2.07345e-05 -0.766044
    outer loop
      vertex 12.5869 -9.39168 1
      vertex 10 -10.3917 3.17064
      vertex 10.1521 -9.39168 3.04304
    endloop
  endfacet
  facet normal -0.642805 0 -0.76603
    outer loop
      vertex 13.7786 -10.3917 0
      vertex 12.5869 -0.5 1
      vertex 13.7786 10.3917 0
    endloop
  endfacet
  facet normal -0.642805 -0 -0.76603
    outer loop
      vertex 12.5869 0.5 1
      vertex 13.7786 10.3917 0
      vertex 12.5869 -0.5 1
    endloop
  endfacet
  facet normal -0.642805 -0 -0.76603
    outer loop
      vertex 12.5869 9.39168 1
      vertex 13.7786 10.3917 0
      vertex 12.5869 0.5 1
    endloop
  endfacet
  facet normal -0.642788 -2.07345e-05 -0.766044
    outer loop
      vertex 10 10.3917 3.17064
      vertex 12.5869 9.39168 1
      vertex 10.1521 9.39168 3.04304
    endloop
  endfacet
  facet normal -0.64279 -3.0067e-05 -0.766043
    outer loop
      vertex 12.5869 9.39168 1
      vertex 10 10.3917 3.17064
      vertex 13.7786 10.3917 0
    endloop
  endfacet
  facet normal -0.642708 0 -0.766112
    outer loop
      vertex 10.1521 0.5 3.04304
      vertex 10 10.3917 3.17064
      vertex 10.1521 9.39168 3.04304
    endloop
  endfacet
endsolid OpenSCAD_Model
